<?xml version="1.0" encoding="UTF-8" standalone="no"?>
<!-- Created with Inkscape (http://www.inkscape.org/) -->

<svg
   xmlns:dc="http://purl.org/dc/elements/1.1/"
   xmlns:cc="http://creativecommons.org/ns#"
   xmlns:rdf="http://www.w3.org/1999/02/22-rdf-syntax-ns#"
   xmlns:svg="http://www.w3.org/2000/svg"
   xmlns="http://www.w3.org/2000/svg"
   xmlns:sodipodi="http://sodipodi.sourceforge.net/DTD/sodipodi-0.dtd"
   xmlns:inkscape="http://www.inkscape.org/namespaces/inkscape"
   width="2.1600001in"
   height="3.6600001in"
   viewBox="0 0 194.40001 329.40001"
   id="svg2"
   version="1.1"
   inkscape:version="0.92.2 (5c3e80d, 2017-08-06)"
   sodipodi:docname="Busienss Card Game Capture.svg"
   inkscape:export-filename="C:\Users\AntonTesh\Desktop\Business Card Back Capture2.png"
   inkscape:export-xdpi="300"
   inkscape:export-ydpi="300">
  <defs
     id="defs4" />
  <sodipodi:namedview
     id="base"
     pagecolor="#ffffff"
     bordercolor="#666666"
     borderopacity="1.0"
     inkscape:pageopacity="0.0"
     inkscape:pageshadow="2"
     inkscape:zoom="1"
     inkscape:cx="311.75011"
     inkscape:cy="94.823169"
     inkscape:document-units="px"
     inkscape:current-layer="g1558"
     showgrid="false"
     units="in"
     inkscape:window-width="1920"
     inkscape:window-height="1017"
     inkscape:window-x="1912"
     inkscape:window-y="-8"
     inkscape:window-maximized="1"
     inkscape:showpageshadow="false"
     inkscape:snap-global="true"
     showguides="false"
     inkscape:guide-bbox="true"
     inkscape:snap-bbox="true"
     inkscape:bbox-paths="true"
     inkscape:bbox-nodes="true"
     inkscape:snap-bbox-midpoints="true"
     inkscape:snap-bbox-edge-midpoints="true"
     inkscape:object-paths="true"
     inkscape:snap-intersection-paths="true"
     inkscape:snap-smooth-nodes="true"
     inkscape:snap-midpoints="true"
     inkscape:snap-object-midpoints="true"
     inkscape:snap-center="true" />
  <metadata
     id="metadata7">
    <rdf:RDF>
      <cc:Work
         rdf:about="">
        <dc:format>image/svg+xml</dc:format>
        <dc:type
           rdf:resource="http://purl.org/dc/dcmitype/StillImage" />
        <dc:title></dc:title>
      </cc:Work>
    </rdf:RDF>
  </metadata>
  <g
     inkscape:label="Layer 1"
     inkscape:groupmode="layer"
     id="layer1"
     transform="translate(0,-722.96217)">
    <rect
       style="fill:#ffffff;fill-opacity:1;stroke:none;stroke-width:1.02676046"
       id="rect1236"
       width="367.5"
       height="210"
       x="703.91217"
       y="-202.20001"
       inkscape:export-filename="C:\Users\AntonTesh\Desktop\Back.png"
       inkscape:export-xdpi="192.86"
       inkscape:export-ydpi="192.86"
       transform="rotate(90)" />
    <path
       style="fill:#000000;fill-opacity:1;stroke:none;stroke-width:0.94568098"
       d="m 185.71328,1012.0677 -0.029,-0.5383 -0.8368,-5.6085 -0.5805,-1.3532 -2.6147,-3.3581 -1.2415,-0.9229 -5.3888,-2.08193 -1.1609,-0.1923 -3.4661,0.1374 -1.2964,0.3643 -3.4076,1.89883 -0.6592,0.5036 -3.6969,3.7738 -0.802,1.6461 -0.6152,4.6216 0.2636,1.6461 2.3877,4.931 0.7306,0.9449 4.0961,3.4863 0.7764,1.1279 0.5731,1.8109 0.9741,5.6287 1.712,2.1698 0.7636,0.3278 2.8253,-0.3022 0.3809,-0.271 1.2011,-2.0416 0.6061,-5.4437 v 0 l 0.2014,-1.8384 0.7489,-0.824 4.0998,-3.1109 0.8734,-1.0785 2.3108,-4.931 z m -6.7694,-69.84373 -1.6004,-2.6679 -4.5318,-2.2705 -0.6958,-0.2435 -6.4197,-1.3642 -9.6057,-5.39425 -2.4427,-1.84204 -1.7047,-0.23804 -1.3586,0.1355 -1.1609,0.4065 -1.8933,2.20824 -3.0579,16.50699 v 0.015 l -5.11959,28.4656 0.9265,2.6788 1.3385,1.1902 3.43329,0.3113 1.3879,-0.8442 1.3129,-1.8054 3.8672,-16.214 0.04,-0.1996 1.5674,-9.4958 0.7965,0.022 0.6427,-0.055 8.5273,-1.6864 0.3588,-0.095 7.9248,-2.655 4.7809,-1.4557 1.3239,-0.8496 0.6335,-0.7141 0.7306,-1.8494 z m -0.9375,-60.34611 -1.6004,-2.66784 -4.5318,-2.27052 -0.6958,-0.24353 -6.4197,-1.36413 -9.6057,-5.39612 -2.4427,-1.84021 -1.7047,-0.23804 -1.3586,0.1355 -1.1609,0.40649 -1.8933,2.20825 -3.0579,16.50697 v 0.0146 l -5.11959,28.46375 0.9265,2.67883 1.3385,1.19019 3.42959,0.31311 1.3879,-0.84229 1.3166,-1.80725 3.8672,-16.21399 0.04,-0.19958 1.5674,-9.49768 0.7965,0.0238 0.6427,-0.0549 8.5273,-1.6864 0.3588,-0.0952 7.9248,-2.65502 4.7809,-1.4557 1.3239,-0.84961 0.6335,-0.71411 z m -22.6465,129.80164 -0.022,-0.2435 -0.6171,-4.6216 -0.802,-1.6443 -3.6969,-3.7756 -0.6591,-0.5036 -3.4058,-1.89883 -1.2982,-0.3643 -3.46619,-0.1355 -1.1572,0.1922 -5.3907,2.08013 -1.24508,0.9247 -2.61292,3.3581 -0.57861,1.3514 -0.83679,5.6103 0.2417,1.659 2.31079,4.9291 0.87341,1.0785 4.0997,3.111 0.7471,0.8222 0.2014,1.8383 v 0.01 l 0.6079,5.4437 1.1993,2.0398 0.3809,0.271 2.82529,0.3022 0.7636,-0.3278 1.712,-2.1716 0.9723,-5.625 0.5749,-1.8128 0.7746,-1.1261 4.0979,-3.4881 0.7306,-0.9448 2.3877,-4.9293 0.2856,-1.4044 z m -32.71547,-114.60755 -0.60242,-1.77063 -0.94665,-1.22864 -0.49073,-0.49438 0.23621,-1.51062 -0.41382,-3.62183 -0.46692,-1.27807 -0.28747,-0.4303 0.022,-10.17884 -0.68481,-1.87682 -0.84229,-0.9961 -0.91736,-0.72143 -2.60376,-1.30189 -1.13342,-0.30212 -16.391597,-0.91919 -0.22339,-0.004 -14.7821,0.30579 -0.28931,0.0202 -2.52869,0.30761 -2.20642,1.51063 -1.14807,2.14416 -0.34241,1.32935 -0.24353,18.55774 -0.69763,1.90613 -0.22339,2.69165 0.70495,12.00073 0.0989,0.79284 0.53651,1.99219 1.94641,2.01599 2.98645,0.91919 0.9082,0.12818 32.706297,-0.61341 0.94849,-0.17761 1.45568,-0.53649 1.56739,-1.38245 0.99609,-1.91346 0.32776,-1.333 0.0201,-9.46473 1.26709,-1.13342 1.23046,-1.79626 0.50721,-1.63696 z m 0,61.38612 -0.60242,-1.7706 -0.94665,-1.2287 -0.49073,-0.4944 0.23621,-1.5106 -0.41382,-3.6218 -0.46692,-1.2781 -1.44836,-2.1734 -1.77795,-1.2214 -4.14002,-0.9301 -1.05652,-0.038 -3.09082,0.4541 -6.57898,-10.7593 -0.75073,-0.8185 -2.354737,-1.7395 -1.18835,-0.51819 -3.27759,-0.61523 -1.86584,0.27282 -3.17323,1.6388 -1.34948,1.4722 -4.91638,11.9385 -1.40076,0.4193 -1.74682,1.4538 -1.76148,3.4314 -0.30396,1.6187 0.26917,2.2155 -1.79443,0.8973 -1.59302,2.3529 -0.22339,2.6916 1.2616,2.6349 -1.40625,3.4149 -0.12085,0.3607 -0.46875,1.8677 -0.31494,1.4502 -0.10987,0.7013 0.0623,1.3184 0.52735,1.2213 0.49438,0.813 0.62988,0.9521 1.64247,1.1591 3.0725,0.8184 0.89173,0.093 34.705807,-1.7395 1.55274,-0.5438 1.84387,-1.3312 0.14648,-0.1135 1.25794,-1.2708 1.53625,-3.7316 -1.12427,-4.2646 -0.11901,-0.216 -0.77271,-1.2635 1.28174,-1.0364 1.23047,-1.7962 0.5072,-1.637 z m 0,59.99823 -0.60242,-1.7707 -0.94665,-1.2286 -0.49073,-0.4944 0.23621,-1.5106 -0.41382,-3.6218 -0.46692,-1.2781 -1.44836,-2.1735 -0.65552,-0.9686 -0.006,-0.01 -2.42249,-3.8507 -1.89331,-2.84363 -0.83496,-1.139 -1.02722,-1.0656 -1.43738,-0.7434 -1.62414,-0.6024 -4.27186,-1.4081 -4.18762,-1.2598 -1.508787,-0.4065 -0.58593,-0.1318 -1.17005,-0.049 -0.80383,0.1776 -1.00525,0.2673 -2.7539,0.7764 -2.76489,0.8166 -1.03089,0.3259 -0.92102,0.3663 -1.47766,0.9411 -2.1991,1.5015 -2.17529,1.5326 -0.8075,0.5969 -0.80566,0.7288 -0.53466,0.80013 -0.46692,0.8405 -1.19203,2.2687 -1.16088,2.3455 -0.43214,0.9504 -0.35339,1.0492 -0.6958,4.0081 -0.56946,3.3838 0.0788,1.3056 0.0494,0.1703 -0.20508,0.8496 -0.22338,2.6916 2.005,3.0011 0.4596,0.1465 0.18493,0.5786 0.28015,0.7855 0.49805,0.9796 0.68482,0.7874 0.90088,0.9229 2.46826,2.4572 3.45153,3.3875 1.01074,0.6408 6.90857,2.5782 1.19385,0.1776 4.91638,-0.3314 3.572387,-0.2875 1.3623,-0.1447 1.28174,-0.2636 0.90637,-0.4908 0.50721,-0.3881 1.16272,-0.9888 2.95532,-2.688 4.02099,-3.783 0.72876,-1.1224 1.1316,-3.1696 1.87866,-0.2563 1.99951,-1.2341 1.23047,-1.7963 0.5072,-1.637 z m -60.117187,-0.5237 -0.60058,-1.767 -0.94483,-1.2286 -0.49439,-0.4981 0.23622,-1.5088 -0.41383,-3.6218 -0.46692,-1.2781 -1.44836,-2.1734 -0.20873,-0.271 -0.3882,-1.0657 -0.27648,-0.7105 -0.3479,-0.7324 -1.02539,-1.419 -1.62414,-2.11123 -1.65345,-2.0819 -0.64454,-0.7728 -0.7727,-0.7635 -0.83129,-0.4871 -0.86426,-0.4193 -2.33277,-1.0583 -2.40966,-1.0254 -0.97412,-0.3754 -1.06751,-0.2911 -4.04114,-0.4651 -3.41126,-0.3772 -1.27624,0.1465 -3.933106,1.4117 -2.85277,1.073 -1.09864,0.4505 -1.1499,0.6463 -0.74524,0.7288 -0.86975,0.9521 -2.31263,2.6038 -3.18603,3.64013 -0.58228,1.0474 -2.17529,7.0459 -0.10803,1.1975 0.37537,2.9974 -1.06202,2.0069 -0.22522,2.6916 2.00501,3.0029 0.51635,0.1667 0.0549,0.1922 0.54016,0.8753 0.41565,0.4834 1.05652,1.1041 2.85278,2.7979 4.00635,3.7976 1.16272,0.6628 9.532466,2.7979 1.32934,0.071 9.22303,-1.6571 1.14257,-0.4724 3.70605,-2.6422 2.72828,-2.0526 1.08765,-0.8991 1.00524,-1.0858 0.60792,-1.333 0.43578,-1.3971 0.49073,-1.8036 0.57312,-0.079 1.99951,-1.236 1.22864,-1.7944 0.5072,-1.637 z m -0.0146,-48.25563 -1.14624,-4.3451 -0.11902,-0.2179 -1.02172,-1.67 0.0989,-0.13 1.22863,-1.7962 -0.0952,-3.4039 -0.94483,-1.2287 -0.49439,-0.498 0.23622,-1.5088 -0.41383,-3.6218 -0.46692,-1.2781 -1.44836,-2.1735 -1.77795,-1.2213 -4.13818,-0.9302 -1.05653,-0.038 -1.49597,0.2198 -7.25098,-11.8598 -0.75073,-0.8185 -2.42065,-1.78892 -1.19019,-0.51818 -3.36547,-0.62989 -1.86218,0.27283 -3.261116,1.68274 -1.35131,1.47222 -5.27161,12.8027 -1.72669,0.9119 -1.74682,1.452 -1.76147,3.4314 -0.30396,1.6168 0.26917,2.2174 -1.79444,0.8972 -1.59302,2.3511 -0.22522,2.6917 1.35865,2.7026 -1.19568,2.9041 -0.12085,0.3625 -0.47974,1.9153 -0.32227,1.4868 -0.11352,0.7141 0.0623,1.3257 0.53467,1.236 0.50719,0.8331 0.64637,0.9759 1.64063,1.1573 3.1549,0.8423 0.89172,0.093 35.661626,-1.7889 1.55274,-0.5438 1.89513,-1.3678 0.14649,-0.1136 1.28174,-1.2945 z m -0.31494,-72.64713 -0.60058,-1.76697 -0.94483,-1.22863 -0.49438,-0.49806 0.2362,-1.50879 -0.41381,-3.62182 -0.46875,-1.27991 -0.52918,-0.79102 0.0219,-9.53979 -0.68481,-1.87866 -0.84228,-0.99609 -0.91736,-0.72144 -2.6056,-1.30188 -1.13342,-0.30212 -16.3916,-0.91919 -0.22339,-0.004 -14.782096,0.30578 -0.28931,0.0202 -2.52868,0.30761 -2.20643,1.51062 -1.14807,2.14417 -0.3424,1.32934 -0.24171,18.40576 -0.45227,1.78162 -0.22521,2.69166 0.58776,2.54882 -0.12817,9.72839 0.0989,0.79285 0.5365,1.99219 1.94641,2.01599 2.98645,0.91919 0.9082,0.12817 32.706296,-0.6134 0.94848,-0.17761 1.4557,-0.5365 1.56738,-1.38244 0.99609,-1.91346 0.32776,-1.33118 0.0219,-9.70825 1.51427,-1.16818 1.22865,-1.79627 0.50536,-1.63696 z"
       id="path1736"
       inkscape:connector-curvature="0"
       sodipodi:nodetypes="cccccccccccccccccccccccccccccccccccccccccccccccccccccccccccccccccccccccccccccccccccccccccccccccccccccccccccccccccccccccccccccccccccccccccccccccccccccccccccccccccccccccccccccccccccccccccccccccccccccccccccccccccccccccccccccccccccccccccccccccccccccccccccccccccccccccccccccccccccccccccccccccccccccccccccccccccccccccccccccccccccccccccccccccccccccccccccccccccccccccccccccccccccccccccccccccccccccccccccccccccccccccccccccccccccccccccccccccccccccccccccccccccccccccccccccccc" />
    <g
       id="g1554"
       transform="matrix(0.92019236,0,0,0.92019236,-105.08296,63.362878)">
      <path
         inkscape:connector-curvature="0"
         id="path1703"
         d="m 279.38217,878.2168 12.7384,7.15477 7.44669,1.58351 4.92505,2.46745 -0.68965,0.77603 -5.23726,1.59528 -8.65336,2.89953 -9.26767,1.83266 -4.23518,-0.11821"
         style="fill:#e9346d;fill-opacity:1;stroke:none;stroke-width:1.02769923" />
      <path
         sodipodi:nodetypes="ccccccccccc"
         inkscape:connector-curvature="0"
         id="path1701"
         d="m 267.71476,926.70131 5.56306,-30.93365 3.32399,-17.93852 1.2608,-0.44202 1.8536,0.25859 0.1079,1.83199 -1.89583,11.50938 -3.0484,18.47129 -4.20155,17.61992 -1.50865,0.91608 z"
         style="fill:#7b7b7b;fill-opacity:1;stroke:none;stroke-width:1.02769923" />
    </g>
    <g
       id="g1558"
       transform="matrix(0,0.92019236,-0.92019236,0,984.54617,753.81665)">
      <path
         style="fill:#19b6e3;fill-opacity:1;stroke:none;stroke-width:1.02769923"
         d="m 193.46118,903.73093 7.15477,-12.73839 1.58352,-7.44669 2.46745,-4.92505 0.77602,0.68964 1.59528,5.23727 2.89953,8.65335 1.83266,9.26767 -0.1182,4.23518"
         id="path1507"
         inkscape:connector-curvature="0" />
      <path
         style="fill:#7b7b7b;fill-opacity:1;stroke:none;stroke-width:1.02769923"
         d="m 241.94569,915.39835 -30.93365,-5.56306 -17.93851,-3.324 -0.44202,-1.26079 0.25859,-1.8536 1.83199,-0.1079 11.50938,1.89582 18.47129,3.0484 17.61991,4.20156 0.91609,1.50865 z"
         id="path1509"
         inkscape:connector-curvature="0"
         sodipodi:nodetypes="ccccccccccc" />
    </g>
    <text
       xml:space="preserve"
       style="font-size:11.25px;line-height:1.25;fill:#d6d6d6;fill-opacity:1;stroke:none;stroke-width:0.9375"
       x="-131.16199"
       y="1190.1533"
       id="text2762"><tspan
         sodipodi:role="line"
         id="tspan2760"
         x="-131.16199"
         y="1200.417"
         style="stroke-width:0.9375" /></text>
    <flowRoot
       xml:space="preserve"
       id="flowRoot1559"
       style="font-size:32px;line-height:1.25;text-align:center;text-anchor:middle;fill:#d6d6d6;fill-opacity:1;stroke:none"
       transform="matrix(0.9375,0,0,0.9375,0,872.36216)"><flowRegion
         id="flowRegion1561"
         style="font-size:32px;text-align:center;text-anchor:middle"><rect
           id="rect1563"
           width="194.95944"
           height="32.324883"
           x="2.5253813"
           y="289.9848"
           style="font-size:32px;text-align:center;text-anchor:middle" /></flowRegion><flowPara
         id="flowPara1565">F</flowPara></flowRoot>    <flowRoot
       xml:space="preserve"
       id="flowRoot1571"
       style="font-size:16px;line-height:1.25;text-align:center;text-anchor:middle;fill:#000000;fill-opacity:1;stroke:none"><flowRegion
         id="flowRegion1573"
         style="font-size:16px"><rect
           id="rect1575"
           width="178.797"
           height="143.94673"
           x="12.12183"
           y="327.86551"
           style="font-size:16px" /></flowRegion><flowPara
         id="flowPara1577" /></flowRoot>    <text
       xml:space="preserve"
       style="font-size:15px;line-height:1.25;text-align:start;text-anchor:start;fill:#000000;fill-opacity:1;stroke:none;stroke-width:0.9375"
       x="61.149254"
       y="1203.885"
       id="text1581"><tspan
         sodipodi:role="line"
         id="tspan1579"
         x="61.149254"
         y="1217.5699"
         style="text-align:start;text-anchor:start;stroke-width:0.9375" /></text>
    <path
       style="fill:#000000;fill-opacity:1;stroke:none;stroke-width:0.55634534"
       d="m 191.97178,984.91867 -0.2692,-0.4596 -2.4829,-0.174 -3.2446,0.3552 -0.9943,0.6134 c 0,0 0.5872,0.439 0.9046,0.4175 l 1.1297,0.1978 4.3689,-0.2271 z m -0.6811,-119.59172 -0.5896,-0.72326 -4.3689,-0.22705 -1.128,0.19592 c -0.3174,-0.0215 -0.9063,0.41748 -0.9063,0.41748 l 0.9961,0.6134 3.2428,0.35706 2.4829,-0.17395 z m -2.9425,59.90662 -1.3056,-0.30396 h -3.9148 l -1.0693,0.53284 1.6626,0.60974 3.2043,0.15382 1.3037,-0.3058 z m -4.8505,60.0073 -1.3806,-0.4376 -2.5983,-0.2435 -3.1677,0.1465 -0.5695,0.5841 0.8936,0.3881 3.7372,0.05 c 0,0 2.1928,-0.1458 2.5177,-0.097 z m -0.683,-120.23801 -0.5676,-0.38818 c -0.3249,0.0487 -2.5177,-0.097 -2.5177,-0.097 l -3.7372,0.0476 -0.8917,0.39001 0.5676,0.5841 3.1677,0.14649 2.5983,-0.24353 z m -2.4133,60.3186 -0.8936,-0.65002 -2.0324,-0.0586 -3.6933,0.0732 -0.1831,0.89355 2.1845,0.25635 3.3306,-0.0586 z m -7.0276,59.42141 -2.1826,-0.2582 -3.3307,0.06 -1.2872,0.4541 0.8935,0.6519 2.0325,0.059 3.6914,-0.073 z m -0.6812,-119.24013 -0.1831,-0.89355 -3.6932,-0.0733 -2.0325,0.0586 -0.8935,0.65003 1.2872,0.45593 3.3307,0.0586 z m -1.5435,59.84069 -0.586,-0.81848 -3.2648,-0.20324 -2.6788,0.34057 -1.4227,0.6134 0.5859,0.54566 c 0.3348,-0.0682 2.5946,0.1355 2.5946,0.1355 l 3.8507,-0.0678 z m -6.1469,59.90844 -0.1501,-0.7489 h -3.8233 l -1.4264,0.2033 -0.7489,0.6811 1.2744,0.4779 3.75,-0.2051 z m -0.6811,-120.25817 -1.1261,-0.41016 -3.75,-0.20324 -1.2745,0.47608 0.7489,0.68115 1.4264,0.20507 h 3.8251 z m -2.8235,60.46509 -0.9961,-0.6134 -3.2428,-0.35523 -2.4829,0.17212 -0.271,0.46142 0.5896,0.72145 4.3689,0.22704 1.1279,-0.19592 c 0.3175,0.0215 0.9064,-0.41748 0.9064,-0.41748 z m -3.3655,100.53591 -0.3406,-2.6788 -0.6134,-1.4227 -0.5456,0.5859 c 0.068,0.3348 -0.1355,2.5946 -0.1355,2.5946 l 0.068,3.8507 0.5457,0.921 0.8166,-0.5859 z m -0.016,-35.91613 c 0,0 -0.2037,-2.2617 -0.1355,-2.5965 l -0.5456,-0.5859 -0.6134,1.4227 -0.3406,2.6789 0.2051,3.2647 0.8166,0.586 0.5457,-0.921 z m -0.152,25.87643 -0.1739,-2.4829 -0.4596,-0.271 -0.7233,0.5896 -0.227,4.3689 0.1977,1.128 c -0.022,0.3174 0.4175,0.9063 0.4175,0.9063 l 0.6134,-0.9961 z m -0.1226,20.2167 -0.073,-3.6932 -0.8935,-0.1831 -0.2564,2.1844 0.059,3.3307 0.4559,1.2872 0.6501,-0.8953 z m -0.04,-36.0406 -0.059,-2.03253 -0.65,-0.8936 -0.456,1.2854 -0.059,3.33263 0.2564,2.1826 0.8935,-0.1831 z m -0.04,5.4931 -0.7507,-0.1501 -0.4084,1.1261 -0.205,3.75 0.4779,1.2744 0.6811,-0.7489 0.2051,-1.4264 z m -0.2362,36.2 -0.5329,-1.0694 -0.6115,1.6626 -0.152,3.2026 0.3058,1.3055 0.6866,0.119 0.304,-1.3055 z m -1.6223,-56.57413 -0.1502,-0.7489 h -3.8232 l -1.4264,0.2032 -0.7489,0.6812 1.2744,0.4779 3.75,-0.2051 z m -0.6812,-120.25453 -1.1261,-0.41016 -3.75,-0.20325 -1.2744,0.47607 0.7507,0.68115 1.4246,0.20508 h 3.8251 z m -2.2925,60.5841 -0.7489,-0.68115 -1.4264,-0.20508 h -3.825 l -0.1483,0.7489 1.1242,0.41016 3.75,0.20324 z m -4.7534,59.34993 -0.2691,-0.4595 -2.483,-0.174 -3.2446,0.3571 -0.99429,0.6134 c 0,0 0.589,0.4389 0.90639,0.4174 l 1.128,0.196 4.3688,-0.2271 z m -0.6811,-119.61543 -0.5896,-0.72144 -4.3689,-0.22705 -1.12799,0.19593 c -0.3174,-0.0215 -0.9063,0.41748 -0.9063,0.41748 l 0.9961,0.61339 3.24279,0.35523 2.4829,-0.17395 z m -2.1827,60.30395 -0.1849,-0.89355 -3.69139,-0.0732 -2.0325,0.0586 -0.8935,0.65185 1.2872,0.45411 3.33069,0.0604 z m -6.36099,59.48368 -0.586,-0.5457 c -0.3348,0.068 -2.5946,-0.1373 -2.5946,-0.1373 l -3.85069,0.07 -0.92102,0.5438 0.58594,0.8185 3.26477,0.205 2.6788,-0.3405 z m -0.6812,-119.95792 -1.2433,-0.61341 -2.3419,-0.34057 -2.85095,0.20508 -0.51269,0.81664 0.80383,0.54567 3.36551,0.0677 c 0,0 1.9743,-0.2037 2.2668,-0.1355 z m -1.1536,60.26184 -1.1242,-0.41015 -3.75002,-0.20325 -1.27442,0.47607 0.7489,0.68115 1.4264,0.20508 h 3.82324 z m -6.71993,-60.23621 -1.94824,-0.54565 -3.75915,-0.1355 -1.53077,0.271 -0.13916,0.6134 1.53077,0.27282 h 1.82556 l 0.35522,3.22815 0.61341,0.99427 c 0,0 0.43714,-0.58711 0.41564,-0.90454 l 0.19776,-1.12793 -0.0879,-2.18995 h 1.27441 z m -0.36438,119.93589 -0.95398,-0.4779 h -1.16088 l -0.18677,-1.474 -0.45777,-1.062 -0.40649,0.4376 c 0.0509,0.25 -0.10254,1.9373 -0.10254,1.9373 l 0.004,0.1611 h -1.18835 l -1.16638,0.2728 0.1062,0.6135 1.16638,0.2728 1.10046,-0.051 0.0293,1.6077 0.40649,0.6866 0.61158,-0.4376 0.11902,-1.9134 0.59509,-0.027 z m -0.13366,-60.00363 -0.79468,-0.43396 -1.37512,-0.022 -0.0183,-0.34241 -0.54566,-1.2854 -0.47607,0.82764 v 0.78186 l -0.90821,-0.0146 c 0,0 -1.95037,0.16406 -2.23938,0.10987 l -0.5072,0.43213 1.22864,0.48889 2.31262,0.27099 0.11353,-0.007 v 0.96679 l 0.27099,1.01075 0.61341,-0.0916 0.27282,-1.01073 -0.0513,-0.93934 1.59852,-0.0915 z m -1.66077,28.17073 -0.19958,-3.1677 -0.79285,-0.5676 -0.52918,0.8935 -0.0659,3.7354 c 0,0 0.19803,2.1928 0.13183,2.5177 l 0.52918,0.5695 0.59509,-1.3825 z m -0.0989,94.47883 -0.15197,-3.2043 -0.60975,-1.6626 -0.53466,1.0693 v 3.9148 l 0.30578,1.3055 0.68665,-0.119 z m -0.0458,-84.44273 -0.35523,-3.2428 -0.61523,-0.9943 c 0,0 -0.43715,0.5871 -0.41565,0.9045 l -0.19776,1.128 0.22706,4.3689 0.72326,0.5896 0.4596,-0.271 z m -0.0256,29.3371 -0.20325,-1.6644 -0.68115,-0.8753 -0.4779,1.4887 0.20508,4.3817 0.40832,1.3147 0.7489,-0.1758 z m -0.0806,27.64343 -0.22706,-4.3689 -0.72326,-0.5877 -0.4596,0.2691 -0.17395,2.483 0.35523,3.2446 0.61523,0.9942 c 0,0 0.43715,-0.5888 0.41565,-0.9063 z m -0.0165,-7.8094 -0.20508,-3.75 -0.40833,-1.1243 -0.75073,0.1502 v 3.8251 l 0.20508,1.4245 0.68115,0.7489 z m -0.002,-100.84903 -0.22705,-4.36707 -0.72143,-0.5896 -0.46143,0.271 -0.17212,2.48291 0.35523,3.24279 0.6134,0.99427 c 0,0 0.43898,-0.58711 0.41748,-0.90455 z m -0.0146,-16.90796 -0.20325,-3.75 -0.41016,-1.1261 -0.7489,0.15014 v 3.82508 l 0.20508,1.42456 0.68115,0.75073 z m -0.002,9.10034 -0.20325,-3.75 -0.41016,-1.1261 -0.7489,0.15015 v 3.82507 l 0.20508,1.42457 0.68115,0.75073 z m -0.0623,65.99122 -0.20508,-1.4246 -0.68115,-0.7507 -0.47791,1.2744 0.20508,3.75 0.40833,1.1261 0.75073,-0.1501 z m -0.0147,-37.43959 -0.20325,-1.6571 -0.68298,-0.87159 -0.47607,1.48316 0.20507,4.36162 0.40833,1.3092 0.7489,-0.174 z m -0.005,94.82852 c 0,0 -0.2037,-2.2598 -0.1355,-2.5946 l -0.54565,-0.5859 -0.61341,1.4227 -0.34057,2.6788 0.20507,3.2648 0.81666,0.5859 0.54565,-0.921 z m -0.0183,-108.66763 -0.28015,-2.21374 -0.50354,-1.17554 -0.44678,0.4834 c 0.056,0.27666 -0.1117,2.14416 -0.1117,2.14416 l 0.0549,3.18238 0.4486,0.76171 0.67017,-0.48523 z m -0.0238,61.1829 -0.13549,-2.8638 -0.54566,-1.4832 -0.47607,0.954 v 3.4992 l 0.27282,1.1663 0.61341,-0.1062 z m -0.011,-105.28019 c 0,0 -0.14575,-2.19286 -0.097,-2.5177 l -0.39001,-0.56762 -0.43762,1.38061 -0.24354,2.59827 0.14649,3.16772 0.58411,0.56763 0.39001,-0.89355 z m -0.007,70.22649 -0.0586,-3.8233 -0.45593,-1.4758 -0.65186,1.0254 -0.0586,2.3309 0.0732,4.2389 0.89355,0.2106 z m -0.011,-59.3134 -0.0732,-3.69324 -0.89356,-0.1831 -0.25818,2.18445 0.0604,3.33068 0.4541,1.28723 0.65185,-0.89538 z m -0.009,118.60113 -0.0586,-3.3307 -0.45593,-1.28723 -0.65003,0.89353 -0.0586,2.0325 0.0732,3.6932 0.89355,0.1831 z m -0.0385,32.6568 -0.25818,-2.1844 -0.89355,0.1831 -0.0733,3.6932 0.0586,2.0325 0.65185,0.8936 0.4541,-1.2873 z m -5.84106,-51.70903 -1.27625,-0.476 -3.75,0.2032 -1.12427,0.4102 0.15015,0.7489 h 3.82507 l 1.42456,-0.2051 z m -0.68299,-119.55683 -0.75073,-0.68115 -1.42456,-0.20325 h -3.82507 l -0.15015,0.7489 1.1261,0.40833 3.75,0.20507 z m -0.30395,59.66674 -1.16638,-0.27282 h -3.49915 l -0.95398,0.47607 1.48315,0.54565 2.86377,0.1355 1.16639,-0.27099 z m -6.73279,60.27829 -0.89539,-0.65 -2.03064,-0.059 -3.69323,0.073 -0.18311,0.8935 2.18445,0.2564 3.33069,-0.059 z m -0.68298,-120.33322 -1.28724,-0.4541 -3.33068,-0.0604 -2.18445,0.25817 0.1831,0.89355 3.69324,0.0732 2.03064,-0.0586 z m -0.542,60.271 -1.1261,-0.40833 -3.75,-0.20508 -1.27441,0.47791 0.75073,0.68115 1.42456,0.20325 h 3.82508 z m -7.65014,59.93042 -0.89356,-0.5292 -3.73535,-0.066 c 0,0 -2.192847,0.198 -2.517697,0.1318 l -0.56946,0.5292 1.38062,0.5951 2.600097,0.3296 3.16589,-0.1978 z m -0.0769,-59.60999 -0.5896,-0.72327 -4.36889,-0.22705 -1.127927,0.19593 c -0.31743,-0.0215 -0.90638,0.41748 -0.90638,0.41748 l 0.9961,0.6134 3.242797,0.35706 2.48291,-0.17395 z m -0.60608,-60.45776 -0.56762,-0.79285 -3.16773,-0.19958 -2.600097,0.33142 -1.38061,0.59509 0.56946,0.52918 c 0.32485,-0.0662 2.517697,0.13183 2.517697,0.13183 l 3.73535,-0.0659 z m -8.204947,60.30944 -0.56763,-0.52917 c -0.32485,0.0662 -2.5177,-0.13184 -2.5177,-0.13183 l -3.73535,0.0659 -0.89356,0.52917 0.56763,0.79284 3.16773,0.19776 2.59826,-0.32959 z m -0.64637,59.63561 c 0,0 -0.58711,-0.439 -0.90454,-0.4175 l -1.12976,-0.1959 -4.36889,0.2271 -0.58778,0.7232 0.26917,0.4596 2.48291,0.174 3.24463,-0.3571 z m -0.68298,-119.8242 -0.99426,-0.61341 -3.2428,-0.35522 -2.48291,0.17395 -0.27099,0.4596 0.58959,0.72326 4.36707,0.22705 1.12976,-0.19776 c 0.31743,0.0215 0.90454,-0.41747 0.90454,-0.41747 z m -7.88452,119.7052 -1.27624,-0.4779 -3.75,0.2051 -1.12427,0.4083 0.15014,0.7489 h 3.82508 l 1.42456,-0.2032 z m -0.57312,-59.1925 -0.18311,-0.89356 -3.69323,-0.0732 -2.03065,0.0586 -0.89537,0.65003 1.28722,0.45592 3.33069,0.0586 z m -0.10986,-60.39185 -0.75073,-0.68116 -1.42456,-0.20507 h -3.82508 l -0.15015,0.75073 1.1261,0.40832 3.75,0.20508 z m -7.34619,119.87545 -1.13526,-0.4779 h -4.16199 l -1.38794,0.2729 0.12635,0.6134 1.38793,0.2728 3.40577,-0.1373 z m -0.68115,-120.16659 -1.485,-0.54565 -2.86376,-0.1355 -1.16638,0.27282 -0.10621,0.61341 1.16638,0.27099 h 3.49916 z m -0.23438,60.17395 -1.1261,-0.41015 -3.75,-0.20325 -1.27442,0.47607 0.75074,0.68116 1.42456,0.20507 h 3.82507 z m -6.83899,60.08424 -0.58593,-0.5457 c -0.33483,0.068 -2.59461,-0.1373 -2.59461,-0.1373 l -0.39551,0.01 -0.28381,-2.232 -0.61341,-1.4228 -0.54382,0.586 c 0.0682,0.3348 -0.13733,2.5964 -0.13733,2.5964 l 0.009,0.4999 -1.88598,0.035 -0.92103,0.5438 0.58594,0.8185 2.24854,0.141 0.0311,1.8109 0.54567,0.921 0.81847,-0.5859 0.13367,-2.1479 2.16614,-0.2746 z m -0.0311,-120.17213 -1.42456,-0.6134 -2.67883,-0.34058 -3.26294,0.20325 -0.58594,0.81848 0.91919,0.54565 1.86035,0.033 0.25269,1.29822 0.6134,0.99426 c 0,0 0.43899,-0.58711 0.41748,-0.90454 l 0.19592,-1.12793 -0.0879,-0.23621 0.59876,0.011 c 0,0 2.26161,-0.2037 2.59643,-0.1355 z m -1.073,59.92126 -1.16638,-0.27282 h -1.45019 l -0.0421,-1.10229 -0.54382,-1.87135 -0.47791,1.20301 v 1.77063 h -0.9851 l -0.95398,0.4779 1.48315,0.54565 0.45593,0.022 v 1.59484 l 0.27283,1.47034 0.6134,-0.13367 0.27283,-1.47033 -0.0531,-1.40991 1.30188,0.0623 1.16638,-0.27283 z m -2.34008,26.42217 -0.19776,-3.1678 -0.79468,-0.5676 -0.52917,0.8936 -0.0659,3.7353 c 0,0 0.19804,2.1929 0.13183,2.5177 l 0.52918,0.5695 0.59509,-1.3807 z m -0.0934,-34.07048 -0.34057,-2.15698 -0.61341,-1.14625 -0.54565,0.47242 c 0.0682,0.2696 -0.1355,2.08923 -0.1355,2.08923 l 0.0677,3.10181 0.54565,0.74157 0.81848,-0.4724 z m -0.005,128.54921 -0.15198,-3.2043 -0.60974,-1.6608 -0.53467,1.0675 v 3.9148 l 0.30579,1.3055 0.68664,-0.119 z m -0.0458,-84.44273 -0.35523,-3.2428 -0.61339,-0.9943 c 0,0 -0.43899,0.5871 -0.41749,0.9045 l -0.19592,1.128 0.22705,4.3689 0.72144,0.5896 0.46143,-0.271 z m -0.0238,30.6591 -0.20508,-1.4263 -0.68115,-0.7489 -0.47791,1.2744 0.20508,3.75 0.40833,1.1242 0.75073,-0.1483 z m -0.0824,26.32153 -0.22705,-4.3689 -0.72326,-0.5878 -0.4596,0.2692 -0.17395,2.4829 0.35706,3.2446 0.61339,0.9943 c 0,0 0.43899,-0.5871 0.41749,-0.9046 z m -0.009,-40.27413 -0.13732,-2.8638 -0.54566,-1.4849 -0.47607,0.9558 v 3.4973 l 0.27282,1.1664 0.61341,-0.1044 z m -0.007,-68.38256 -0.22705,-4.36889 -0.72327,-0.58961 -0.45959,0.271 -0.17395,2.48291 0.35522,3.24279 0.61523,0.99427 c 0,0 0.43716,-0.58712 0.41565,-0.90454 z m 0,100.84719 -0.20508,-3.75 -0.40833,-1.1243 -0.74889,0.1502 v 3.8251 l 0.20324,1.4245 0.68116,0.7489 z m -0.0146,-117.75698 -0.20508,-3.75 -0.40833,-1.1261 -0.75073,0.15015 v 3.82507 l 0.20508,1.42456 0.68115,0.75074 z m -0.002,9.10034 -0.20508,-3.75 -0.40832,-1.1261 -0.75074,0.15015 v 3.82508 l 0.20509,1.42455 0.68115,0.75074 z m -0.0604,41.45691 -0.0586,-3.3307 -0.45593,-1.2872 -0.65185,0.8954 -0.0568,2.0306 0.0733,3.6932 0.89355,0.1832 z m -0.004,24.5343 -0.20508,-1.4246 -0.68115,-0.7507 -0.47607,1.2744 0.20325,3.75 0.41016,1.1261 0.74889,-0.1501 z m -0.0128,-34.6967 -0.20508,-1.42452 -0.68115,-0.75073 -0.47791,1.27442 0.20508,3.75003 0.40832,1.1261 0.75074,-0.1502 z m -0.006,92.08563 c 0,0 -0.20553,-2.2598 -0.13732,-2.5946 l -0.54383,-0.5859 -0.6134,1.4227 -0.34241,2.6788 0.20508,3.2648 0.81848,0.586 0.54566,-0.9211 z m -0.0531,-152.76491 c 0,0 -0.14574,-2.19286 -0.097,-2.51769 l -0.39002,-0.56763 -0.43762,1.38061 -0.24353,2.59827 0.14466,3.16772 0.5841,0.56763 0.39002,-0.89355 z m -0.0201,10.91309 -0.0732,-3.69323 -0.89355,-0.18311 -0.25635,2.18445 0.0586,3.33069 0.45594,1.28722 0.65002,-0.89538 z m -0.007,118.60112 -0.0604,-3.33073 -0.4541,-1.2872 -0.65186,0.8935 -0.0586,2.03253 0.0732,3.6932 0.89355,0.1831 z m -0.0403,32.6568 -0.25818,-2.1844 -0.89356,0.1831 -0.0732,3.6932 0.0586,2.0325 0.65185,0.8936 0.4541,-1.2873 z m -4.47144,-109.59776 -0.92102,-0.54383 -3.85071,-0.0696 c 0,0 -2.25981,0.20553 -2.59461,0.13734 l -0.58593,0.54381 1.42273,0.61341 2.67883,0.3424 3.26478,-0.20507 z m -0.6189,59.70703 -1.27442,-0.4761 -3.75,0.2033 -1.12426,0.4101 0.15015,0.7489 h 3.82507 l 1.42456,-0.2032 z m -0.0311,-119.7638 -0.7489,-0.68115 -1.4264,-0.20508 h -3.82508 l -0.15014,0.75074 1.1261,0.40832 3.75,0.20508 z m -6.85914,120.0348 -0.89538,-0.6519 -2.03064,-0.059 -3.69324,0.073 -0.1831,0.8936 2.18445,0.2581 3.33068,-0.059 z m -0.68298,-120.12635 -1.28723,-0.45593 -3.33069,-0.0586 -2.18445,0.25634 0.18311,0.89356 3.69323,0.0732 2.03248,-0.0586 z m -1.99402,60.38269 -0.99426,-0.6134 -3.2428,-0.35706 -2.48291,0.17395 -0.27099,0.45959 0.5896,0.72328 4.36706,0.22704 1.12976,-0.19592 c 0.3174,0.0215 0.90454,-0.41748 0.90454,-0.41748 z m -5.59387,59.82426 -0.15014,-0.7489 h -3.82508 l -1.42456,0.205 -0.75073,0.6812 1.27624,0.4761 3.75,-0.2033 z m -0.68298,-120.28935 -1.12427,-0.40832 -3.75,-0.20508 -1.27442,0.4779 0.7489,0.68116 1.42456,0.20508 h 3.82508 z m -2.29065,60.58411 -0.75073,-0.68115 -1.42456,-0.20325 h -3.82508 l -0.15015,0.7489 1.1261,0.40833 3.75,0.20508 z m -4.75342,59.38664 -0.26916,-0.4596 -2.48292,-0.174 -3.24463,0.3552 -0.99426,0.6134 c 0,0 0.58704,0.439 0.90454,0.4175 l 1.12977,0.1959 4.36889,-0.227 z m -0.68299,-119.65031 -0.58776,-0.72327 -4.3689,-0.22705 -1.12976,0.19776 c -0.317496,-0.0215 -0.904536,0.41565 -0.904536,0.41565 l 0.994256,0.61523 3.24463,0.35522 2.48291,-0.17394 z m -3.66393,60.2655 -0.75073,-0.68115 -1.42457,-0.20324 h -3.825066 l -0.15015,0.74889 1.1261,0.40833 3.749996,0.20508 z m -4.343266,59.53671 -1.42456,-0.6134 -2.67883,-0.3405 -3.26477,0.205 -0.58411,0.8167 0.91919,0.5456 3.85071,0.068 c 0,0 2.2598,-0.2037 2.5946,-0.1355 z m -0.68298,-119.95419 -0.58594,-0.54565 c -0.3348,0.0682 -2.5946,-0.13733 -2.5946,-0.13733 l -3.85071,0.0696 -0.92102,0.54383 0.58594,0.81848 3.26477,0.20508 2.67883,-0.34057 z m -2.69348,60.0293 -1.28723,-0.4541 -3.33069,-0.0604 -2.18445,0.25818 0.18311,0.89356 3.69323,0.0732 2.03064,-0.0586 z m -7.02759,60.22889 -0.1831,-0.8936 -3.69325,-0.073 -2.03063,0.059 -0.89356,0.65 1.28541,0.4559 3.33251,0.059 z m -0.68115,-120.56215 -2.18445,-0.25818 -3.33069,0.0604 -1.28723,0.45409 0.89355,0.65186 2.03247,0.0586 3.69141,-0.0732 z m -1.50147,60.6244 -0.56762,-0.58411 -3.16773,-0.14649 -2.59827,0.24354 -1.38061,0.43761 0.56763,0.39002 c 0.3248,-0.0487 2.51769,0.097 2.51769,0.097 l 3.73536,-0.0494 z m -6.27685,59.82055 -1.06751,-0.5328 H 6.9823274 l -1.30553,0.3039 0.11901,0.6867 1.30555,0.3058 3.2043396,-0.152 z m -0.68298,-120.32959 -1.6607696,-0.60974 -3.20435,-0.15198 -1.30554,0.30396 -0.11719,0.68664 1.30371,0.30579 h 3.9166296 z m -2.2393896,60.47242 -0.99426,-0.61341 -3.2428,-0.35523 -2.4829,0.17396 -0.271,0.45959 0.5896,0.72327 4.36706,0.22705 1.12976,-0.19775 c 0.31751,0.0215 0.90454,-0.41748 0.90454,-0.41748 z"
       id="path1822-2"
       inkscape:connector-curvature="0" />
    <g
       id="g1568"
       transform="matrix(0.92019236,0,0,0.92019236,-106.84066,74.378498)">
      <g
         inkscape:export-ydpi="192.86"
         inkscape:export-xdpi="192.86"
         inkscape:export-filename="C:\Users\AntonTesh\Desktop\Back.png"
         transform="translate(-0.2367545,60.433236)"
         id="g2082">
        <path
           style="fill:#e9346d;fill-opacity:1;stroke:none;stroke-width:1"
           d="M 287.86719,79.587891 281.61914,82 l -3.0293,3.892578 -0.9707,6.501953 2.67969,5.714844 5,3.793805 1.80859,1.99302 0.35352,3.21289 0.7034,6.30971 0.44141,0.31446 0.88477,-0.37891 1.16657,-6.74916 0.88671,-2.79493 1.4336,-2.08481 5.08901,-4.330919 2.76757,-5.714843 -0.71484,-5.357422 -4.28516,-4.375 -3.94921,-2.201172 z"
           id="path2049"
           transform="matrix(0.9375,0,0,0.9375,0,872.36216)"
           inkscape:connector-curvature="0"
           sodipodi:nodetypes="cccccccccccccccccccc" />
        <path
           style="fill:#f28aab;fill-opacity:1;stroke:none;stroke-width:0.9375"
           d="m 269.15457,948.48381 h 0.79521 l 1.13001,0.62779 0.16742,0.62779 -1.17187,0.62779 -2.67858,0.50223 -1.79966,1.00447 -1.25559,1.08817 -0.29297,-0.41853 0.16742,-0.54408 2.51116,-2.42746 z"
           id="path2056"
           inkscape:connector-curvature="0" />
      </g>
    </g>
    <g
       id="g1563"
       transform="matrix(0.92019236,0,0,0.92019236,-104.73136,74.144128)">
      <g
         inkscape:export-ydpi="192.86"
         inkscape:export-xdpi="192.86"
         inkscape:export-filename="C:\Users\AntonTesh\Desktop\Back.png"
         transform="translate(-0.11837725,59.722972)"
         id="g2078">
        <path
           style="fill:#19b6e3;fill-opacity:1;stroke:none;stroke-width:0.9375"
           d="m 302.99754,947.42081 5.85755,2.26135 2.83997,3.64929 0.91003,6.09559 -2.51221,5.35766 -4.6875,3.55669 -1.69555,1.86846 -0.33143,3.01208 -0.65944,5.91536 -0.41382,0.2948 -0.82947,-0.35522 -1.09366,-6.32734 -0.83129,-2.62025 -1.344,-1.95451 -4.77095,-4.06023 -2.59459,-5.35767 0.67016,-5.02258 4.01734,-4.10157 3.70238,-2.06359 z"
           id="path2049-3"
           inkscape:connector-curvature="0"
           sodipodi:nodetypes="cccccccccccccccccccc" />
        <path
           style="fill:#79d5f0;fill-opacity:1;stroke:none;stroke-width:0.9375"
           d="m 299.72782,948.92884 h 0.79521 l 1.13001,0.62779 0.16741,0.62779 -1.17186,0.62779 -2.67858,0.50223 -1.79966,1.00447 -1.2556,1.08817 -0.29297,-0.41853 0.16742,-0.54408 2.51117,-2.42746 z"
           id="path2056-9"
           inkscape:connector-curvature="0" />
      </g>
    </g>
    <flowRoot
       xml:space="preserve"
       id="flowRoot1583"
       style="font-style:normal;font-variant:normal;font-weight:normal;font-stretch:normal;font-size:8px;line-height:1;font-family:Roboto;-inkscape-font-specification:'Roboto, Normal';font-variant-ligatures:normal;font-variant-caps:normal;font-variant-numeric:normal;font-feature-settings:normal;text-align:start;writing-mode:lr-tb;text-anchor:start;fill:#000000;fill-opacity:1;stroke:none"
       transform="matrix(0.9375,0,0,0.9375,29.334037,434.45781)"
       inkscape:export-filename="C:\Users\AntonTesh\Desktop\Back.png"
       inkscape:export-xdpi="192.86"
       inkscape:export-ydpi="192.86"><flowRegion
         id="flowRegion1585"
         style="font-style:normal;font-variant:normal;font-weight:normal;font-stretch:normal;font-size:8px;font-family:Roboto;-inkscape-font-specification:'Roboto, Normal';font-variant-ligatures:normal;font-variant-caps:normal;font-variant-numeric:normal;font-feature-settings:normal;text-align:start;writing-mode:lr-tb;text-anchor:start"><rect
           id="rect1587"
           width="162.50432"
           height="149.71002"
           x="1.2137291"
           y="330.34741"
           style="font-style:normal;font-variant:normal;font-weight:normal;font-stretch:normal;font-size:8px;font-family:Roboto;-inkscape-font-specification:'Roboto, Normal';font-variant-ligatures:normal;font-variant-caps:normal;font-variant-numeric:normal;font-feature-settings:normal;text-align:start;writing-mode:lr-tb;text-anchor:start" /></flowRegion><flowPara
         id="flowPara970">⦁	Tear the pieces on the dotted lines</flowPara><flowPara
         id="flowPara972">⦁	Place the base tokens far apart and put the flags on them</flowPara><flowPara
         id="flowPara974">⦁	Place each player next to their colored base</flowPara><flowPara
         id="flowPara976">⦁	Place other business cards down as walls</flowPara><flowPara
         id="flowPara978">⦁	Players take turns flicking their pieces</flowPara><flowPara
         id="flowPara980">⦁	If a player hits the other team's flag they pick it up</flowPara><flowPara
         id="flowPara982">⦁	If a player hits someone on the other team the other player goes back to their base</flowPara><flowPara
         id="flowPara984">⦁	If a player with a flag is hit they drop the flag where they are and go back to their base</flowPara><flowPara
         id="flowPara986">⦁	The first team to bring the opposing team's flag back to their base wins!</flowPara></flowRoot>    <text
       xml:space="preserve"
       style="font-size:26.678545px;line-height:1.25;text-align:center;text-anchor:middle;fill:#d6d6d6;fill-opacity:1;stroke:none;stroke-width:0.83370453"
       x="-797.86969"
       y="24.503038"
       id="text1569"
       inkscape:export-filename="C:\Users\AntonTesh\Desktop\Back.png"
       inkscape:export-xdpi="192.86"
       inkscape:export-ydpi="192.86"
       transform="rotate(-90)"><tspan
         sodipodi:role="line"
         id="tspan1567"
         x="-797.86969"
         y="24.503038"
         style="font-style:normal;font-variant:normal;font-weight:bold;font-stretch:normal;font-size:17.5px;font-family:Roboto;-inkscape-font-specification:'Roboto, Bold';font-variant-ligatures:normal;font-variant-caps:normal;font-variant-numeric:normal;font-feature-settings:normal;text-align:center;writing-mode:lr-tb;text-anchor:middle;fill:#000000;fill-opacity:1;stroke-width:0.83370453">Flag Capture</tspan></text>
    <text
       xml:space="preserve"
       style="font-style:normal;font-variant:normal;font-weight:normal;font-stretch:normal;font-size:10px;line-height:1.25;font-family:Roboto;-inkscape-font-specification:Roboto;text-align:start;writing-mode:lr-tb;text-anchor:start;fill:#ffffff;fill-opacity:1;stroke:none;stroke-width:0.9375"
       x="-175.63216"
       y="1066.959"
       id="text2677"><tspan
         sodipodi:role="line"
         id="tspan2675"
         x="-175.63216"
         y="1075.709"
         style="stroke-width:0.9375" /></text>
    <text
       xml:space="preserve"
       style="font-style:normal;font-variant:normal;font-weight:normal;font-stretch:normal;font-size:7.5px;line-height:1;font-family:Roboto;-inkscape-font-specification:'Roboto, Normal';font-variant-ligatures:normal;font-variant-caps:normal;font-variant-numeric:normal;font-feature-settings:normal;text-align:start;writing-mode:lr-tb;text-anchor:start;fill:#ffffff;fill-opacity:1;stroke:none;stroke-width:0.9375"
       x="-248.38139"
       y="905.53082"
       id="text2735"><tspan
         sodipodi:role="line"
         id="tspan2733"
         x="-248.38139"
         y="911.15582"
         style="stroke-width:0.9375" /></text>
    <g
       id="g1578"
       transform="matrix(0.92019236,0,0,0.92019236,-109.77046,73.909748)">
      <g
         inkscape:export-ydpi="192.86"
         inkscape:export-xdpi="192.86"
         inkscape:export-filename="C:\Users\AntonTesh\Desktop\Back.png"
         transform="translate(-541.26935,-694.88468)"
         id="g2298">
        <path
           style="fill:#19b6e3;fill-opacity:1;stroke:none;stroke-width:1.26120162"
           d="m 744.88438,1718.7453 c 0,0 2.44501,8.4871 2.86247,9.0751 0.41736,0.588 7.78703,7.7789 7.78703,7.7789 l 7.50895,2.8001 c 0,0 10.41379,-0.6424 11.22007,-0.9345 0.80648,-0.292 9.27931,-8.3775 9.27931,-8.3775 l 3.62963,-10.1684 -1.22397,-10.1089 c 0,0 -4.95043,-8.0671 -5.9236,-8.7998 -0.97298,-0.7326 -13.16499,-4.4785 -13.73352,-4.3984 -0.56864,0.08 -8.48066,2.3326 -9.06231,2.6375 -0.58145,0.305 -6.80465,4.572 -7.16773,5.0023 -0.36308,0.4303 -3.66059,6.7828 -3.81821,7.5633 -0.15803,0.7805 -1.35812,7.9303 -1.35812,7.9303 z"
           id="path1709-59"
           inkscape:connector-curvature="0" />
      </g>
      <path
         inkscape:export-ydpi="192.86"
         inkscape:export-xdpi="192.86"
         inkscape:export-filename="C:\Users\AntonTesh\Desktop\Back.png"
         inkscape:connector-curvature="0"
         id="path4438-2-0-4-2"
         d="m 219.94462,1028.114 2.97938,-0.6621 7.50365,-0.2207 3.20009,0.3311 0.55173,1.3241 -2.538,2.9794 -3.75181,2.3173 c 0,0 -2.0966,-0.1102 -2.75871,-0.3311 -0.66207,-0.2207 -5.07598,-3.4207 -5.07598,-3.4207 z"
         style="fill:#121212;fill-opacity:1;fill-rule:nonzero;stroke:none;stroke-width:0.08125677" />
      <path
         inkscape:export-ydpi="192.86"
         inkscape:export-xdpi="192.86"
         inkscape:export-filename="C:\Users\AntonTesh\Desktop\Back.png"
         id="path4513-60-9-7"
         d="m 222.64675,1030.3218 -1.56418,0.8303 c 1.21437,0.8703 3.5409,2.5321 4.05527,2.7035 0.66209,0.2207 2.76146,0.3283 2.76146,0.3283 l 0.71451,-0.4441 0.0966,-1.3711 -2.37525,-1.7187 z"
         style="fill:#ff7c2b;fill-opacity:1;fill-rule:nonzero;stroke:none;stroke-width:0.08125677"
         inkscape:connector-curvature="0" />
      <path
         inkscape:export-ydpi="192.86"
         inkscape:export-xdpi="192.86"
         inkscape:export-filename="C:\Users\AntonTesh\Desktop\Back.png"
         sodipodi:nodetypes="ccccccccc"
         inkscape:connector-curvature="0"
         id="path4440-3-2-6-7"
         d="m 208.9286,1025.151 3.16864,0.2438 1.21871,1.5843 -1.58431,2.3156 -5.36232,0.7311 -3.04678,-0.9749 0.24375,-2.9249 1.94994,-0.975 z"
         style="fill:#76defb;fill-opacity:1;fill-rule:nonzero;stroke:none;stroke-width:0.08125677" />
      <path
         inkscape:export-ydpi="192.86"
         inkscape:export-xdpi="192.86"
         inkscape:export-filename="C:\Users\AntonTesh\Desktop\Back.png"
         sodipodi:nodetypes="ccccccccc"
         inkscape:connector-curvature="0"
         id="path4440-5-2-8-8-8"
         d="m 245.72333,1024.9238 2.67074,0.2054 1.0272,1.3355 -1.33537,1.9517 -4.5197,0.6162 -2.56803,-0.8217 0.20545,-2.4653 1.64353,-0.8218 z"
         style="fill:#76defb;fill-opacity:1;fill-rule:nonzero;stroke:none;stroke-width:0.08125677" />
      <path
         inkscape:export-ydpi="192.86"
         inkscape:export-xdpi="192.86"
         inkscape:export-filename="C:\Users\AntonTesh\Desktop\Back.png"
         sodipodi:nodetypes="ccccccccccc"
         inkscape:connector-curvature="0"
         id="path4436-4-65-6-0"
         d="m 245.45768,1015.0891 -4.49796,-1.012 -3.82328,0.5622 -2.58633,4.1607 0.44979,3.7108 4.04817,3.3734 3.82328,0.1125 2.58633,-1.3495 2.02408,-3.2609 -0.44979,-3.9358 z"
         style="fill:#121212;fill-opacity:1;fill-rule:nonzero;stroke:none;stroke-width:0.08125677" />
      <path
         inkscape:export-ydpi="192.86"
         inkscape:export-xdpi="192.86"
         inkscape:export-filename="C:\Users\AntonTesh\Desktop\Back.png"
         inkscape:connector-curvature="0"
         id="path3666-1-8-5-4"
         d="m 211.88608,1014.9701 -3.02259,0.9068 -1.9143,3.7279 c 0,0 0.50377,4.9368 0.90677,5.0376 0.40302,0.1009 4.43314,1.209 4.83615,1.5112 0.40301,0.3024 4.63464,-1.4105 4.63464,-1.4105 l 1.61204,-4.1308 -1.30979,-3.6271 -2.41807,-2.1158 z"
         style="fill:#121212;fill-opacity:1;fill-rule:nonzero;stroke:none;stroke-width:0.08125677" />
    </g>
    <g
       id="g1588"
       transform="matrix(0.92019236,0,0,0.92019236,-113.98916,72.972248)">
      <g
         style="fill:#e9346d;fill-opacity:1"
         inkscape:export-ydpi="192.86"
         inkscape:export-xdpi="192.86"
         inkscape:export-filename="C:\Users\AntonTesh\Desktop\Back.png"
         transform="translate(-604.94838,-646.08151)"
         id="g2294">
        <path
           style="fill:#e9346d;fill-opacity:1;stroke:none;stroke-width:1.26120162"
           d="m 767.08395,1647.3279 c 0,0 -8.33293,2.9278 -8.89597,3.3783 -0.56304,0.4504 -7.31948,8.2203 -7.31948,8.2203 l -2.36475,7.6572 c 0,0 1.23869,10.3599 1.57651,11.1481 0.3378,0.7884 8.89597,8.7835 8.89597,8.7835 l 10.35986,3.0403 10.02205,-1.8017 c 0,0 7.76992,-5.4051 8.44556,-6.4186 0.67564,-1.0134 3.71603,-13.4002 3.60341,-13.9632 -0.1126,-0.5632 -2.81517,-8.333 -3.153,-8.8961 -0.3378,-0.563 -4.95471,-6.5312 -5.40514,-6.869 -0.45043,-0.3378 -6.98165,-3.2655 -7.76989,-3.3781 -0.78825,-0.1131 -7.99513,-0.901 -7.99513,-0.901 z"
           id="path1709-4"
           inkscape:connector-curvature="0" />
      </g>
      <path
         inkscape:export-ydpi="192.86"
         inkscape:export-xdpi="192.86"
         inkscape:export-filename="C:\Users\AntonTesh\Desktop\Back.png"
         inkscape:connector-curvature="0"
         id="path4438-2-0-4-2-6"
         d="m 159.19902,1028.5647 2.97938,-0.6621 7.50365,-0.2207 3.20009,0.3311 0.55173,1.3241 -2.538,2.9794 -3.75181,2.3173 c 0,0 -2.0966,-0.1102 -2.75871,-0.3311 -0.66207,-0.2207 -5.07598,-3.4207 -5.07598,-3.4207 z"
         style="fill:#121212;fill-opacity:1;fill-rule:nonzero;stroke:none;stroke-width:0.08125678" />
      <path
         inkscape:export-ydpi="192.86"
         inkscape:export-xdpi="192.86"
         inkscape:export-filename="C:\Users\AntonTesh\Desktop\Back.png"
         id="path4513-60-9-7-8"
         d="m 161.90115,1030.7725 -1.56418,0.8303 c 1.21437,0.8703 3.5409,2.5321 4.05527,2.7035 0.66209,0.2207 2.76146,0.3283 2.76146,0.3283 l 0.71451,-0.4441 0.0966,-1.3711 -2.37525,-1.7187 z"
         style="fill:#ff7c2b;fill-opacity:1;fill-rule:nonzero;stroke:none;stroke-width:0.08125678"
         inkscape:connector-curvature="0" />
      <path
         inkscape:export-ydpi="192.86"
         inkscape:export-xdpi="192.86"
         inkscape:export-filename="C:\Users\AntonTesh\Desktop\Back.png"
         sodipodi:nodetypes="ccccccccc"
         inkscape:connector-curvature="0"
         id="path4440-3-2-6-7-4"
         d="m 148.183,1025.6017 3.16864,0.2438 1.21871,1.5843 -1.58431,2.3156 -5.36232,0.7311 -3.04678,-0.9749 0.24375,-2.9249 1.94994,-0.975 z"
         style="fill:#fa92b3;fill-opacity:1;fill-rule:nonzero;stroke:none;stroke-width:0.08125678" />
      <path
         inkscape:export-ydpi="192.86"
         inkscape:export-xdpi="192.86"
         inkscape:export-filename="C:\Users\AntonTesh\Desktop\Back.png"
         sodipodi:nodetypes="ccccccccc"
         inkscape:connector-curvature="0"
         id="path4440-5-2-8-8-8-7"
         d="m 184.97773,1025.3745 2.67074,0.2054 1.0272,1.3355 -1.33537,1.9517 -4.5197,0.6162 -2.56803,-0.8217 0.20545,-2.4653 1.64353,-0.8218 z"
         style="fill:#fa92b3;fill-opacity:1;fill-rule:nonzero;stroke:none;stroke-width:0.08125678" />
      <path
         inkscape:export-ydpi="192.86"
         inkscape:export-xdpi="192.86"
         inkscape:export-filename="C:\Users\AntonTesh\Desktop\Back.png"
         sodipodi:nodetypes="ccccccccccc"
         inkscape:connector-curvature="0"
         id="path4436-4-65-6-0-0"
         d="m 184.71208,1015.5398 -4.49796,-1.012 -3.82328,0.5622 -2.58633,4.1607 0.44979,3.7108 4.04817,3.3734 3.82328,0.1125 2.58633,-1.3495 2.02408,-3.2609 -0.44979,-3.9358 z"
         style="fill:#121212;fill-opacity:1;fill-rule:nonzero;stroke:none;stroke-width:0.08125678" />
      <path
         inkscape:export-ydpi="192.86"
         inkscape:export-xdpi="192.86"
         inkscape:export-filename="C:\Users\AntonTesh\Desktop\Back.png"
         inkscape:connector-curvature="0"
         id="path3666-1-8-5-4-4"
         d="m 151.14048,1015.4208 -3.02259,0.9068 -1.9143,3.7279 c 0,0 0.50377,4.9368 0.90677,5.0376 0.40302,0.1009 4.43314,1.209 4.83615,1.5112 0.40301,0.3024 4.63464,-1.4105 4.63464,-1.4105 l 1.61204,-4.1308 -1.30979,-3.6271 -2.41807,-2.1158 z"
         style="fill:#121212;fill-opacity:1;fill-rule:nonzero;stroke:none;stroke-width:0.08125678" />
    </g>
    <g
       id="g1606"
       transform="matrix(0.92019236,0,0,0.92019236,-114.45796,69.456628)">
      <path
         inkscape:export-ydpi="192.86"
         inkscape:export-xdpi="192.86"
         inkscape:export-filename="C:\Users\AntonTesh\Desktop\Back.png"
         style="fill:#e9346d;fill-opacity:1;stroke:none;stroke-width:0.91046178;stroke-opacity:1"
         d="m 167.56283,941.14144 -2.62938,-1.94346 -3.65826,-0.68592 -3.54396,1.82913 -15.20467,36.92565 c 0,0 -1.02889,3.88692 -0.91457,4.3442 0.11432,0.45728 1.37185,2.28642 1.37185,2.28642 l 3.42962,0.91456 38.75479,-1.94345 2.05778,-1.48617 c 0,0 1.94345,-1.6005 1.94345,-3.08668 0,-1.48616 -0.91457,-3.31529 -0.91457,-3.31529 z"
         id="path1623"
         inkscape:connector-curvature="0" />
      <path
         inkscape:export-ydpi="192.86"
         inkscape:export-xdpi="192.86"
         inkscape:export-filename="C:\Users\AntonTesh\Desktop\Back.png"
         style="fill:#121212;fill-opacity:1;fill-rule:nonzero;stroke:none;stroke-width:0.08125678"
         d="m 159.19902,969.29944 2.97938,-0.6621 7.50365,-0.2207 3.20009,0.3311 0.55173,1.3241 -2.538,2.9794 -3.75181,2.3173 c 0,0 -2.0966,-0.1102 -2.75871,-0.3311 -0.66207,-0.2207 -5.07598,-3.4207 -5.07598,-3.4207 z"
         id="path1561"
         inkscape:connector-curvature="0" />
      <path
         inkscape:export-ydpi="192.86"
         inkscape:export-xdpi="192.86"
         inkscape:export-filename="C:\Users\AntonTesh\Desktop\Back.png"
         inkscape:connector-curvature="0"
         style="fill:#ff7c2b;fill-opacity:1;fill-rule:nonzero;stroke:none;stroke-width:0.08125678"
         d="m 161.90115,971.50724 -1.56418,0.8303 c 1.21437,0.8703 3.5409,2.5321 4.05527,2.7035 0.66209,0.2207 2.76146,0.3283 2.76146,0.3283 l 0.71451,-0.4441 0.0966,-1.3711 -2.37525,-1.7187 z"
         id="path1563" />
      <path
         inkscape:export-ydpi="192.86"
         inkscape:export-xdpi="192.86"
         inkscape:export-filename="C:\Users\AntonTesh\Desktop\Back.png"
         style="fill:#fa92b3;fill-opacity:1;fill-rule:nonzero;stroke:none;stroke-width:0.08125678"
         d="m 148.183,966.33644 3.16864,0.2438 1.21871,1.5843 -1.58431,2.3156 -5.36232,0.7311 -3.04678,-0.9749 0.24375,-2.9249 1.94994,-0.975 z"
         id="path1565"
         inkscape:connector-curvature="0"
         sodipodi:nodetypes="ccccccccc" />
      <path
         inkscape:export-ydpi="192.86"
         inkscape:export-xdpi="192.86"
         inkscape:export-filename="C:\Users\AntonTesh\Desktop\Back.png"
         style="fill:#fa92b3;fill-opacity:1;fill-rule:nonzero;stroke:none;stroke-width:0.08125678"
         d="m 184.97773,966.10924 2.67074,0.2054 1.0272,1.3355 -1.33537,1.9517 -4.5197,0.6162 -2.56803,-0.8217 0.20545,-2.4653 1.64353,-0.8218 z"
         id="path1567"
         inkscape:connector-curvature="0"
         sodipodi:nodetypes="ccccccccc" />
      <path
         inkscape:export-ydpi="192.86"
         inkscape:export-xdpi="192.86"
         inkscape:export-filename="C:\Users\AntonTesh\Desktop\Back.png"
         style="fill:#121212;fill-opacity:1;fill-rule:nonzero;stroke:none;stroke-width:0.08125678"
         d="m 184.71208,956.27454 -4.49796,-1.012 -3.82328,0.5622 -2.58633,4.1607 0.44979,3.7108 4.04817,3.3734 3.82328,0.1125 2.58633,-1.3495 2.02408,-3.2609 -0.44979,-3.9358 z"
         id="path1569"
         inkscape:connector-curvature="0"
         sodipodi:nodetypes="ccccccccccc" />
      <path
         inkscape:export-ydpi="192.86"
         inkscape:export-xdpi="192.86"
         inkscape:export-filename="C:\Users\AntonTesh\Desktop\Back.png"
         style="fill:#121212;fill-opacity:1;fill-rule:nonzero;stroke:none;stroke-width:0.08125678"
         d="m 151.14048,956.15554 -3.02259,0.9068 -1.9143,3.7279 c 0,0 0.50377,4.9368 0.90677,5.0376 0.40302,0.1009 4.43314,1.209 4.83615,1.5112 0.40301,0.3024 4.63464,-1.4105 4.63464,-1.4105 l 1.61204,-4.1308 -1.30979,-3.6271 -2.41807,-2.1158 z"
         id="path1571"
         inkscape:connector-curvature="0" />
    </g>
    <g
       id="g1535"
       transform="matrix(0.92019236,0,0,0.92019236,-115.16106,63.362878)">
      <path
         inkscape:export-ydpi="192.86"
         inkscape:export-xdpi="192.86"
         inkscape:export-filename="C:\Users\AntonTesh\Desktop\Back.png"
         sodipodi:nodetypes="cccccccccccccc"
         inkscape:connector-curvature="0"
         id="path1625"
         d="m 164.56099,880.47625 -16.06488,0.33295 -2.74685,0.33295 -1.24856,2.33066 -0.49942,38.20612 0.58265,2.16418 3.24627,0.99885 35.54251,-0.6659 1.58153,-0.58267 1.08208,-2.08094 0.0833,-37.54022 -0.91561,-1.08209 -2.83009,-1.41504 z"
         style="fill:#e9346d;fill-opacity:1;stroke:none;stroke-width:0.9375;stroke-opacity:1" />
      <path
         inkscape:export-ydpi="192.86"
         inkscape:export-xdpi="192.86"
         inkscape:export-filename="C:\Users\AntonTesh\Desktop\Back.png"
         inkscape:connector-curvature="0"
         id="path1577"
         d="m 160.11464,907.62028 2.97938,-0.6621 7.50365,-0.2207 3.20009,0.3311 0.55173,1.3241 -2.538,2.9794 -3.75181,2.3173 c 0,0 -2.0966,-0.1102 -2.75871,-0.3311 -0.66207,-0.2207 -5.07598,-3.4207 -5.07598,-3.4207 z"
         style="fill:#121212;fill-opacity:1;fill-rule:nonzero;stroke:none;stroke-width:0.08125678" />
      <path
         inkscape:export-ydpi="192.86"
         inkscape:export-xdpi="192.86"
         inkscape:export-filename="C:\Users\AntonTesh\Desktop\Back.png"
         id="path1579"
         d="m 162.81677,909.82808 -1.56418,0.8303 c 1.21437,0.8703 3.5409,2.5321 4.05527,2.7035 0.66209,0.2207 2.76146,0.3283 2.76146,0.3283 l 0.71451,-0.4441 0.0966,-1.3711 -2.37525,-1.7187 z"
         style="fill:#ff7c2b;fill-opacity:1;fill-rule:nonzero;stroke:none;stroke-width:0.08125678"
         inkscape:connector-curvature="0" />
      <path
         inkscape:export-ydpi="192.86"
         inkscape:export-xdpi="192.86"
         inkscape:export-filename="C:\Users\AntonTesh\Desktop\Back.png"
         sodipodi:nodetypes="ccccccccc"
         inkscape:connector-curvature="0"
         id="path1581"
         d="m 149.09862,904.65728 3.16864,0.2438 1.21871,1.5843 -1.58431,2.3156 -5.36232,0.7311 -3.04678,-0.9749 0.24375,-2.9249 1.94994,-0.975 z"
         style="fill:#fa92b3;fill-opacity:1;fill-rule:nonzero;stroke:none;stroke-width:0.08125678" />
      <path
         inkscape:export-ydpi="192.86"
         inkscape:export-xdpi="192.86"
         inkscape:export-filename="C:\Users\AntonTesh\Desktop\Back.png"
         sodipodi:nodetypes="ccccccccc"
         inkscape:connector-curvature="0"
         id="path1583"
         d="m 185.89335,904.43008 2.67074,0.2054 1.0272,1.3355 -1.33537,1.9517 -4.5197,0.6162 -2.56803,-0.8217 0.20545,-2.4653 1.64353,-0.8218 z"
         style="fill:#fa92b3;fill-opacity:1;fill-rule:nonzero;stroke:none;stroke-width:0.08125678" />
      <path
         inkscape:export-ydpi="192.86"
         inkscape:export-xdpi="192.86"
         inkscape:export-filename="C:\Users\AntonTesh\Desktop\Back.png"
         sodipodi:nodetypes="ccccccccccc"
         inkscape:connector-curvature="0"
         id="path1585"
         d="m 185.6277,894.59538 -4.49796,-1.012 -3.82328,0.5622 -2.58633,4.1607 0.44979,3.7108 4.04817,3.3734 3.82328,0.1125 2.58633,-1.3495 2.02408,-3.2609 -0.44979,-3.9358 z"
         style="fill:#121212;fill-opacity:1;fill-rule:nonzero;stroke:none;stroke-width:0.08125678" />
      <path
         inkscape:export-ydpi="192.86"
         inkscape:export-xdpi="192.86"
         inkscape:export-filename="C:\Users\AntonTesh\Desktop\Back.png"
         inkscape:connector-curvature="0"
         id="path1587"
         d="m 152.0561,894.47638 -3.02259,0.9068 -1.9143,3.7279 c 0,0 0.50377,4.9368 0.90677,5.0376 0.40302,0.1009 4.43314,1.209 4.83615,1.5112 0.40301,0.3024 4.63464,-1.4105 4.63464,-1.4105 l 1.61204,-4.1308 -1.30979,-3.6271 -2.41807,-2.1158 z"
         style="fill:#121212;fill-opacity:1;fill-rule:nonzero;stroke:none;stroke-width:0.08125678" />
    </g>
    <g
       id="g1597"
       transform="matrix(0.92019236,0,0,0.92019236,-109.77046,68.753498)">
      <path
         inkscape:export-ydpi="192.86"
         inkscape:export-xdpi="192.86"
         inkscape:export-filename="C:\Users\AntonTesh\Desktop\Back.png"
         inkscape:connector-curvature="0"
         id="path1621"
         d="m 227.30424,941.80866 -2.55898,-1.89142 -3.56029,-0.66755 -3.44906,1.78015 -14.79751,35.93684 c 0,0 -1.00134,3.78283 -0.89008,4.22786 0.11126,0.44504 1.33511,2.2252 1.33511,2.2252 l 3.33778,0.89007 37.717,-1.8914 2.00268,-1.44638 c 0,0 1.8914,-1.55764 1.8914,-3.00402 0,-1.44637 -0.89007,-3.22652 -0.89007,-3.22652 z"
         style="fill:#19b6e3;fill-opacity:1;stroke:none;stroke-width:0.88608104;stroke-opacity:1" />
      <path
         inkscape:export-ydpi="192.86"
         inkscape:export-xdpi="192.86"
         inkscape:export-filename="C:\Users\AntonTesh\Desktop\Back.png"
         style="fill:#121212;fill-opacity:1;fill-rule:nonzero;stroke:none;stroke-width:0.08125677"
         d="m 219.94462,968.51579 2.97938,-0.6621 7.50365,-0.2207 3.20009,0.3311 0.55173,1.3241 -2.538,2.9794 -3.75181,2.3173 c 0,0 -2.0966,-0.1102 -2.75871,-0.3311 -0.66207,-0.2207 -5.07598,-3.4207 -5.07598,-3.4207 z"
         id="path1593"
         inkscape:connector-curvature="0" />
      <path
         inkscape:export-ydpi="192.86"
         inkscape:export-xdpi="192.86"
         inkscape:export-filename="C:\Users\AntonTesh\Desktop\Back.png"
         inkscape:connector-curvature="0"
         style="fill:#ff7c2b;fill-opacity:1;fill-rule:nonzero;stroke:none;stroke-width:0.08125677"
         d="m 222.64675,970.72359 -1.56418,0.8303 c 1.21437,0.8703 3.5409,2.5321 4.05527,2.7035 0.66209,0.2207 2.76146,0.3283 2.76146,0.3283 l 0.71451,-0.4441 0.0966,-1.3711 -2.37525,-1.7187 z"
         id="path1595" />
      <path
         inkscape:export-ydpi="192.86"
         inkscape:export-xdpi="192.86"
         inkscape:export-filename="C:\Users\AntonTesh\Desktop\Back.png"
         style="fill:#76defb;fill-opacity:1;fill-rule:nonzero;stroke:none;stroke-width:0.08125677"
         d="m 208.9286,965.55279 3.16864,0.2438 1.21871,1.5843 -1.58431,2.3156 -5.36232,0.7311 -3.04678,-0.9749 0.24375,-2.9249 1.94994,-0.975 z"
         id="path1597"
         inkscape:connector-curvature="0"
         sodipodi:nodetypes="ccccccccc" />
      <path
         inkscape:export-ydpi="192.86"
         inkscape:export-xdpi="192.86"
         inkscape:export-filename="C:\Users\AntonTesh\Desktop\Back.png"
         style="fill:#76defb;fill-opacity:1;fill-rule:nonzero;stroke:none;stroke-width:0.08125677"
         d="m 245.72333,965.32559 2.67074,0.2054 1.0272,1.3355 -1.33537,1.9517 -4.5197,0.6162 -2.56803,-0.8217 0.20545,-2.4653 1.64353,-0.8218 z"
         id="path1599"
         inkscape:connector-curvature="0"
         sodipodi:nodetypes="ccccccccc" />
      <path
         inkscape:export-ydpi="192.86"
         inkscape:export-xdpi="192.86"
         inkscape:export-filename="C:\Users\AntonTesh\Desktop\Back.png"
         style="fill:#121212;fill-opacity:1;fill-rule:nonzero;stroke:none;stroke-width:0.08125677"
         d="m 245.45768,955.49089 -4.49796,-1.012 -3.82328,0.5622 -2.58633,4.1607 0.44979,3.7108 4.04817,3.3734 3.82328,0.1125 2.58633,-1.3495 2.02408,-3.2609 -0.44979,-3.9358 z"
         id="path1601"
         inkscape:connector-curvature="0"
         sodipodi:nodetypes="ccccccccccc" />
      <path
         inkscape:export-ydpi="192.86"
         inkscape:export-xdpi="192.86"
         inkscape:export-filename="C:\Users\AntonTesh\Desktop\Back.png"
         style="fill:#121212;fill-opacity:1;fill-rule:nonzero;stroke:none;stroke-width:0.08125677"
         d="m 211.88608,955.37189 -3.02259,0.9068 -1.9143,3.7279 c 0,0 0.50377,4.9368 0.90677,5.0376 0.40302,0.1009 4.43314,1.209 4.83615,1.5112 0.40301,0.3024 4.63464,-1.4105 4.63464,-1.4105 l 1.61204,-4.1308 -1.30979,-3.6271 -2.41807,-2.1158 z"
         id="path1603"
         inkscape:connector-curvature="0" />
    </g>
    <g
       id="g1544"
       transform="matrix(0.92019236,0,0,0.92019236,-109.77046,63.128498)">
      <path
         inkscape:export-ydpi="192.86"
         inkscape:export-xdpi="192.86"
         inkscape:export-filename="C:\Users\AntonTesh\Desktop\Back.png"
         style="fill:#19b6e3;fill-opacity:1;stroke:none;stroke-width:0.9375;stroke-opacity:1"
         d="m 224.65863,880.47625 -16.06488,0.33295 -2.74685,0.33295 -1.24856,2.33066 -0.49942,38.20612 0.58265,2.16418 3.24627,0.99885 35.54251,-0.6659 1.58153,-0.58267 1.08208,-2.08094 0.0833,-37.54022 -0.91561,-1.08209 -2.83009,-1.41504 z"
         id="path1627"
         inkscape:connector-curvature="0"
         sodipodi:nodetypes="cccccccccccccc" />
      <path
         inkscape:export-ydpi="192.86"
         inkscape:export-xdpi="192.86"
         inkscape:export-filename="C:\Users\AntonTesh\Desktop\Back.png"
         inkscape:connector-curvature="0"
         id="path1609"
         d="m 219.94462,907.91872 2.97938,-0.6621 7.50365,-0.2207 3.20009,0.3311 0.55173,1.3241 -2.538,2.9794 -3.75181,2.3173 c 0,0 -2.0966,-0.1102 -2.75871,-0.3311 -0.66207,-0.2207 -5.07598,-3.4207 -5.07598,-3.4207 z"
         style="fill:#121212;fill-opacity:1;fill-rule:nonzero;stroke:none;stroke-width:0.08125677" />
      <path
         inkscape:export-ydpi="192.86"
         inkscape:export-xdpi="192.86"
         inkscape:export-filename="C:\Users\AntonTesh\Desktop\Back.png"
         id="path1611"
         d="m 222.64675,910.12652 -1.56418,0.8303 c 1.21437,0.8703 3.5409,2.5321 4.05527,2.7035 0.66209,0.2207 2.76146,0.3283 2.76146,0.3283 l 0.71451,-0.4441 0.0966,-1.3711 -2.37525,-1.7187 z"
         style="fill:#ff7c2b;fill-opacity:1;fill-rule:nonzero;stroke:none;stroke-width:0.08125677"
         inkscape:connector-curvature="0" />
      <path
         inkscape:export-ydpi="192.86"
         inkscape:export-xdpi="192.86"
         inkscape:export-filename="C:\Users\AntonTesh\Desktop\Back.png"
         sodipodi:nodetypes="ccccccccc"
         inkscape:connector-curvature="0"
         id="path1613"
         d="m 208.9286,904.95572 3.16864,0.2438 1.21871,1.5843 -1.58431,2.3156 -5.36232,0.7311 -3.04678,-0.9749 0.24375,-2.9249 1.94994,-0.975 z"
         style="fill:#76defb;fill-opacity:1;fill-rule:nonzero;stroke:none;stroke-width:0.08125677" />
      <path
         inkscape:export-ydpi="192.86"
         inkscape:export-xdpi="192.86"
         inkscape:export-filename="C:\Users\AntonTesh\Desktop\Back.png"
         sodipodi:nodetypes="ccccccccc"
         inkscape:connector-curvature="0"
         id="path1615"
         d="m 245.72333,904.72852 2.67074,0.2054 1.0272,1.3355 -1.33537,1.9517 -4.5197,0.6162 -2.56803,-0.8217 0.20545,-2.4653 1.64353,-0.8218 z"
         style="fill:#76defb;fill-opacity:1;fill-rule:nonzero;stroke:none;stroke-width:0.08125677" />
      <path
         inkscape:export-ydpi="192.86"
         inkscape:export-xdpi="192.86"
         inkscape:export-filename="C:\Users\AntonTesh\Desktop\Back.png"
         sodipodi:nodetypes="ccccccccccc"
         inkscape:connector-curvature="0"
         id="path1617"
         d="m 245.45768,894.89382 -4.49796,-1.012 -3.82328,0.5622 -2.58633,4.1607 0.44979,3.7108 4.04817,3.3734 3.82328,0.1125 2.58633,-1.3495 2.02408,-3.2609 -0.44979,-3.9358 z"
         style="fill:#121212;fill-opacity:1;fill-rule:nonzero;stroke:none;stroke-width:0.08125677" />
      <path
         inkscape:export-ydpi="192.86"
         inkscape:export-xdpi="192.86"
         inkscape:export-filename="C:\Users\AntonTesh\Desktop\Back.png"
         inkscape:connector-curvature="0"
         id="path1619"
         d="m 211.88608,894.77482 -3.02259,0.9068 -1.9143,3.7279 c 0,0 0.50377,4.9368 0.90677,5.0376 0.40302,0.1009 4.43314,1.209 4.83615,1.5112 0.40301,0.3024 4.63464,-1.4105 4.63464,-1.4105 l 1.61204,-4.1308 -1.30979,-3.6271 -2.41807,-2.1158 z"
         style="fill:#121212;fill-opacity:1;fill-rule:nonzero;stroke:none;stroke-width:0.08125677" />
    </g>
  </g>
</svg>
