<?xml version="1.0" encoding="UTF-8" standalone="no"?>
<!-- Created with Inkscape (http://www.inkscape.org/) -->

<svg
   xmlns:dc="http://purl.org/dc/elements/1.1/"
   xmlns:cc="http://creativecommons.org/ns#"
   xmlns:rdf="http://www.w3.org/1999/02/22-rdf-syntax-ns#"
   xmlns:svg="http://www.w3.org/2000/svg"
   xmlns="http://www.w3.org/2000/svg"
   xmlns:sodipodi="http://sodipodi.sourceforge.net/DTD/sodipodi-0.dtd"
   xmlns:inkscape="http://www.inkscape.org/namespaces/inkscape"
   width="2.1600001in"
   height="3.6600001in"
   viewBox="0 0 194.40001 329.40001"
   id="svg2"
   version="1.1"
   inkscape:version="0.92.2 (5c3e80d, 2017-08-06)"
   sodipodi:docname="Busienss Card Game Golf.svg"
   inkscape:export-filename="C:\Users\AntonTesh\Desktop\path1828-7-1-9-27.png"
   inkscape:export-xdpi="300"
   inkscape:export-ydpi="300">
  <defs
     id="defs4" />
  <sodipodi:namedview
     id="base"
     pagecolor="#ffffff"
     bordercolor="#666666"
     borderopacity="1.0"
     inkscape:pageopacity="0.0"
     inkscape:pageshadow="2"
     inkscape:zoom="1.9910221"
     inkscape:cx="86.581637"
     inkscape:cy="183.09621"
     inkscape:document-units="px"
     inkscape:current-layer="layer1"
     showgrid="false"
     units="in"
     inkscape:window-width="1920"
     inkscape:window-height="1017"
     inkscape:window-x="1912"
     inkscape:window-y="-8"
     inkscape:window-maximized="1"
     inkscape:showpageshadow="false"
     inkscape:snap-global="true"
     showguides="true"
     inkscape:guide-bbox="true"
     inkscape:snap-bbox="true"
     inkscape:bbox-paths="true"
     inkscape:bbox-nodes="true"
     inkscape:snap-bbox-midpoints="true"
     inkscape:snap-bbox-edge-midpoints="true"
     inkscape:object-paths="true"
     inkscape:snap-intersection-paths="true"
     inkscape:snap-smooth-nodes="true"
     inkscape:snap-midpoints="true"
     inkscape:snap-object-midpoints="true"
     inkscape:snap-center="true" />
  <metadata
     id="metadata7">
    <rdf:RDF>
      <cc:Work
         rdf:about="">
        <dc:format>image/svg+xml</dc:format>
        <dc:type
           rdf:resource="http://purl.org/dc/dcmitype/StillImage" />
        <dc:title></dc:title>
      </cc:Work>
    </rdf:RDF>
  </metadata>
  <g
     inkscape:label="Layer 1"
     inkscape:groupmode="layer"
     id="layer1"
     transform="translate(0,-722.96217)">
    <rect
       style="fill:#ffffff;fill-opacity:1;stroke:none;stroke-width:1.07215059"
       id="rect1236"
       width="383.74609"
       height="219.28348"
       x="695.78912"
       y="-206.84175"
       inkscape:export-filename="C:\Users\AntonTesh\Desktop\path1828-7-1-9-27.png"
       inkscape:export-xdpi="192.86"
       inkscape:export-ydpi="192.86"
       transform="rotate(90)" />
    <path
       style="fill:#000000;fill-opacity:1;stroke:none;stroke-width:1.20768285"
       d="m 186.2954,950.83541 -0.037,-0.6701 -0.8313,-5.5683 -0.7197,-1.6809 -2.5927,-3.3325 -1.5454,-1.1481 -5.3504,-2.0654 -1.4374,-0.2381 -3.4405,0.1355 -1.6113,0.4523 -3.382,1.8842 -0.8203,0.6262 -3.6694,3.7463 -0.998,2.0435 -0.6115,4.5868 0.3296,2.0453 2.3693,4.8944 0.9064,1.1737 3.9954,3.3984 0.6555,0.9503 0.5218,1.6498 0.9577,5.5371 2.1332,2.699 0.758,0.3241 3.5065,-0.3809 0.3772,-0.2691 1.4886,-2.5324 0.6024,-5.4016 v -0.01 l 0.174,-1.5912 0.5402,-0.5932 4.0155,-3.0469 1.0839,-1.3403 2.2944,-4.8925 z m -5.5902,-68.23972 -1.9867,-3.31238 -3.9533,-1.9812 -0.8642,-0.30395 -5.4438,-1.15724 -7.727,-4.34142 -3.0176,-2.01965 -1.4886,-0.20875 -1.6938,0.16846 -1.0107,0.35523 -2.3474,2.74292 -2.6697,14.40307 v 0.0183 l -3.0505,16.96839 -0.2545,0.0952 -0.9906,0.22705 -2.0288,0.62073 -2.6441,0.9137 -1.9482,1.68823 -1.8475,3.45703 0.2179,3.75183 2.5708,3.70239 2.2796,1.48316 7.4524,1.43189 1.4685,-0.0238 5.8631,-1.31653 1.3165,-0.59143 2.0709,-1.59485 1.5729,-1.41357 0.813,-0.98694 0.628,-3.12195 -0.4815,-1.38977 -0.5512,-1.25794 -0.7233,-1.5454 -1.9775,-1.80907 -2.7979,-1.05103 1.377,-5.77331 0.051,-0.24902 1.214,-7.36267 -0.2417,-0.007 0.7983,-0.0659 7.4414,-1.47034 0.4468,-0.11902 6.8994,-2.31262 4.1583,-1.26526 1.6443,-1.05468 0.553,-0.62239 z m -0.4047,135.49801 -0.01,-0.4266 -0.4047,-4.8816 -0.3424,-3.5541 -0.1666,-1.3751 -0.3223,-1.4246 -0.5932,-1.0601 -0.4212,-0.5329 -1.0217,-1.1627 -2.7265,-2.9059 -3.8232,-3.93859 -1.4081,-0.8826 -9.3384,-3.1695 -1.6461,-0.1593 -9.2157,1.2634 -1.4428,0.5292 -3.7958,2.4737 -2.8144,1.9391 -1.148,0.8698 -1.1719,1.17189 -0.8057,1.604 -0.5841,1.6516 -1.3385,4.2846 -1.19016,4.195 -0.38635,1.5289 -0.13001,0.6189 -0.033,1.4008 0.20508,0.8734 0.28564,1.0052 0.8149,2.7301 0.8587,2.7448 0.3461,1.0327 0.4248,1.0162 0.9979,1.5162 1.529,2.1697 1.5637,2.1461 0.6189,0.8093 0.8441,0.899 0.91,0.5896 0.857,0.4596 2.2851,1.1554 2.3657,1.1261 0.9778,0.4248 1.1865,0.3754 v 0 l 4.01,0.6317 3.3692,0.5164 1.5912,-0.1172 3.9697,-1.2397 2.8894,-0.9521 1.1334,-0.4102 1.3348,-0.6829 0.8497,-0.7618 0.91,-0.9173 2.406,-2.4921 3.3124,-3.4827 0.7781,-1.2689 2.4482,-6.8976 z m -24.3695,-67.94309 -0.026,-0.3003 -0.6116,-4.5886 -0.9979,-2.0435 -3.6695,-3.7463 -0.8203,-0.6262 -3.3819,-1.8842 -1.6114,-0.4522 -3.4405,-0.1356 -1.4374,0.2381 -5.35034,2.0654 -1.54541,1.1481 -2.59277,3.3325 -0.71961,1.6809 -0.8313,5.5683 0.3003,2.0599 2.29431,4.8926 1.08398,1.3403 4.01554,3.045 0.5401,0.597 0.174,1.5893 v 0.01 l 0.6024,5.4035 1.4941,2.5378 0.3791,0.2692 3.5046,0.3735 0.7562,-0.3241 2.1295,-2.6971 0.9577,-5.539 0.5237,-1.6498 0.6537,-0.9503 3.9953,-3.3984 0.9064,-1.1737 2.3694,-4.8926 0.3552,-1.745 z m -34.71314,-58.42711 -0.26917,-1.47217 -1.88598,-4.52271 -1.41907,-3.27758 -0.58045,-1.25611 -0.74523,-1.2561 -0.8899,-0.82763 -0.56396,-0.37721 -1.32935,-0.79284 -3.48816,-1.92627 -4.84863,-2.57446 -1.61133,-0.40833 -9.860231,-0.14648 -1.61498,0.35705 -8.38075,4.03382 -1.21032,0.94482 -2.85278,3.52112 -2.08192,2.70996 -0.8258,1.18103 -0.75439,1.474 -0.27283,1.77612 -0.0494,1.75049 0.044,4.48791 0.15564,4.35792 0.10254,1.57287 0.0678,0.62989 0.39734,1.34033 0.002,0.002 0.46326,0.76905 0.57862,0.86791 1.61682,2.34925 1.65893,2.34741 0.6482,0.87707 0.7141,0.8368 1.41541,1.13708 2.12402,1.59302 2.146,1.56372 0.83862,0.57862 1.08032,0.59692 1.04554,0.28198 0.95764,0.17396 2.53052,0.3955 2.59643,0.34424 1.06201,0.10437 1.24146,-0.008 h 0.004 l 4.010001,-0.6317 3.36365,-0.54567 1.47766,-0.59875 3.39661,-2.40051 2.45728,-1.7926 0.95214,-0.73975 1.05835,-1.05835 0.002,-0.002 0.57495,-0.98327 0.58411,-1.15357 1.52343,-3.11279 2.08191,-4.33045 0.34973,-1.44652 z m -0.802,65.32291 -0.009,-0.2289 -0.65186,-9.278 -0.43213,-1.474 -2.2174,-3.9514 -1.74683,-2.937 -0.79285,-1.203 -1.0913,-1.247 -1.54908,-0.91 -1.60766,-0.6921 -4.18762,-1.6169 -4.10706,-1.46662 -1.49963,-0.48706 -0.609751,-0.16846 -1.39526,-0.12634 -0.8844,0.14649 -1.02173,0.21789 -2.77771,0.63355 -2.79602,0.67565 -1.05469,0.2765 -1.04003,0.3552 h -0.002 l -1.57838,0.8954 -2.26685,1.3843 -2.24487,1.4172 -0.84777,0.5658 -0.95215,0.7837 -0.6482,0.8661 -0.51636,0.8258 -1.3037,2.2028 -1.27992,2.2869 -0.49071,0.9467 -0.45228,1.1591 -0.89538,3.9624 -0.73608,3.327 0.011,1.5967 0.97595,4.0411 0.75806,2.9462 0.33508,1.159 0.59326,1.3751 0.7013,0.8991 0.8551,0.9686 2.3291,2.5653 3.25379,3.5358 1.21582,0.8588 6.7218,2.9004 1.46667,0.2948 4.89807,-0.082 3.568731,-0.1062 1.38244,-0.077 1.44288,-0.2271 1.0968,-0.5218 0.5603,-0.3846 1.22681,-0.943 3.07983,-2.5268 4.18213,-3.5541 0.97595,-1.3476 3.78113,-9.1077 0.27466,-1.4044 z m -0.88623,60.43029 -0.022,-0.5878 -1.11877,-9.234 -0.50721,-1.4502 -2.41333,-3.8342 -1.89514,-2.84369 -0.85144,-1.1627 -1.15356,-1.1883 -1.59302,-0.8313 -1.64063,-0.6098 -4.26269,-1.4044 -4.174811,-1.2579 -1.52343,-0.4102 -0.61707,-0.1373 -1.39892,-0.057 -0.87708,0.1922 -1.00891,0.2692 -2.74475,0.7727 -2.75757,0.8148 -1.03821,0.3296 -1.02172,0.4083 h -0.002 l -1.53258,0.9741 -2.19178,1.496 -2.16979,1.5289 -0.81849,0.6061 -0.91187,0.83129 -0.60424,0.8991 -0.47425,0.8496 -1.19018,2.2668 -1.16272,2.3493 -0.44129,0.9704 -0.39367,1.1811 -0.69397,4.0008 -0.56763,3.36 0.0916,1.593 1.17737,3.9881 0.90637,2.904 0.39185,1.1389 0.66284,1.344 0.74707,0.8624 0.90271,0.9247 2.45545,2.4445 3.42773,3.3673 1.25793,0.7965 6.85913,2.558 1.47949,0.2197 4.88892,-0.3296 3.559571,-0.2856 1.37512,-0.1465 1.43006,-0.3003 1.06933,-0.575 0.54016,-0.4119 1.1792,-1.0035 2.94617,-2.6806 3.99902,-3.761 0.90454,-1.3953 3.31604,-9.2871 0.20691,-1.0565 z m -59.688731,-4.4385 -0.19591,-1.1261 -1.62232,-4.6216 -1.22681,-3.3545 -0.5072,-1.2872 -0.672,-1.2964 h 0.002 l -0.84228,-0.8789 -0.54016,-0.4083 -1.28174,-0.86799 -3.37098,-2.1258 -4.69116,-2.8491 -1.58569,-0.5017 -9.83459,-0.716 -1.633313,0.2619 -8.60046,3.5412 -1.26343,0.8753 -3.05236,3.35259 -2.2339,2.5836 -0.89172,1.1316 -0.83862,1.4283 -0.37537,1.7559 -0.15015,1.745 -0.21605,4.4843 -0.0971,4.3579 0.011,1.5765 0.0311,0.6336 0.32044,1.3623 0.4193,0.7947 0.52919,0.9008 1.47583,2.4372 1.52343,2.4389 0.59509,0.9137 0.66468,0.8753 1.34766,1.2176 2.02697,1.7139 2.05261,1.6846 0.80383,0.6262 1.0437,0.6573 1.02722,0.3424 0.94666,0.2289 2.50122,0.5438 2.574463,0.4944 1.05286,0.1648 1.24146,0.064 4.04297,-0.3992 3.39111,-0.3516 1.50879,-0.5127 3.52844,-2.1991 2.55615,-1.6479 0.99426,-0.683 1.11878,-0.9961 0.63172,-0.9503 0.65002,-1.117 1.70105,-3.0194 2.3291,-4.2022 0.43213,-1.4246 0.63355,-7.2931 0.0146,-0.3589 z m -0.0165,-118.49488 -0.0238,-1.40076 -0.2417,-0.86425 -0.32775,-0.9906 -0.92835,-2.69531 -0.97229,-2.7063 -0.38819,-1.01807 -0.46508,-0.9961 -1.06018,-1.47399 -1.61865,-2.10389 -1.65161,-2.08007 -0.6537,-0.78187 -0.88073,-0.86425 -0.93201,-0.55115 -0.87707,-0.42298 -2.33094,-1.05834 -2.41149,-1.02723 -0.99427,-0.38451 -1.203,-0.32411 -4.03198,-0.46508 -3.38745,-0.3717 -1.5857,0.18127 -3.912963,1.40442 -2.84729,1.07116 -1.11694,0.45777 -1.30372,0.73791 -0.81664,0.79468 -0.87159,0.95581 -2.2998,2.59094 -3.16406,3.61451 -0.72327,1.30188 -2.16065,6.99463 -0.13549,1.49047 0.60974,4.86145 0.49072,3.53577 0.22522,1.36596 0.38087,1.40992 0.6372,1.03455 0.44129,0.51635 1.06933,1.11878 2.84546,2.7887 3.98254,3.77563 1.4447,0.82398 9.462893,2.77771 1.65162,0.0897 9.15344,-1.64611 1.41906,-0.58777 3.69141,-2.63123 2.7301,-2.05444 1.11146,-0.91736 1.12243,-1.21949 h -0.002 l 0.73975,-1.63696 0.51452,-1.67358 1.15723,-4.33777 1.01441,-4.24072 0.32226,-1.54358 0.10254,-0.62439 z m -0.0367,61.06569 -0.006,-0.3516 -0.47791,-7.3334 -0.50537,-1.6186 -4.47143,-7.4524 -1.20667,-1.2177 -8.57116,-5.25507 -1.44287,-0.50354 -7.26563,-0.89173 -1.68091,0.19409 -9.997553,3.67305 -1.62049,1.1939 -7.07336,9.2615 -0.71777,1.7981 -1.06201,9.8034 0.20324,1.6407 3.23547,8.7194 1.15357,1.5821 7.97241,6.2512 1.95191,0.7562 13.134153,0.9888 2.05444,-0.4614 7.48901,-4.2682 0.90821,-0.7361 5.30457,-5.9674 0.81298,-1.5637 1.78345,-7.5293 0.0952,-0.7123 z"
       id="path1502"
       inkscape:connector-curvature="0"
       sodipodi:nodetypes="cccccccccccccccccccccccccccccccccccccccccccccccccccccccccccccccccccccccccccccccccccccccccccccccccccccccccccccccccccccccccccccccccccccccccccccccccccccccccccccccccccccccccccccccccccccccccccccccccccccccccccccccccccccccccccccccccccccccccccccccccccccccccccccccccccccccccccccccccccccccccccccccccccccccccccccccccccccccccccccccccccccccccccccccccccccccccccccccccccccccccccccccccccccccccccccccccccccccccccccccccccccccccccccccccccccccccccccccccccccccccccccccccccccccccccccccccccccccccccccccccccccccccccccccccccccccccc" />
    <path
       style="fill:#5a5a5a;fill-opacity:1;stroke:none;stroke-width:1.20768285"
       d="m 146.1733,907.55492 c -0.4432,-0.18991 -5.41367,1.61505 -5.41367,1.61505 l -1.84868,3.4574 2.57083,3.70172 7.45302,1.4327 5.8632,-1.31746 c 0,0 3.8246,-2.75481 3.6789,-3.39428 -0.1457,-0.63957 -1.4885,-3.43164 -1.4885,-3.43164 l -4.9707,-1.8675"
       id="path1705"
       inkscape:connector-curvature="0"
       sodipodi:nodetypes="ccccccccc" />
    <path
       style="fill:#e35619;fill-opacity:1;stroke:none;stroke-width:0.82512522"
       d="m 156.9448,873.50478 10.2275,5.74441 5.9789,1.27143 3.9542,1.98102 -0.5537,0.62307 -4.2049,1.28087 -6.9477,2.32794 -7.4409,1.47147 -3.4003,-0.0949"
       id="path1703"
       inkscape:connector-curvature="0" />
    <path
       style="fill:#cbcbcb;fill-opacity:1;stroke:none;stroke-width:0.82512522"
       d="m 147.5772,912.43227 4.4665,-24.83617 2.6688,-14.4026 1.0123,-0.35491 1.4882,0.20763 0.087,1.47088 -1.5222,9.24069 -2.4475,14.83036 -3.3734,14.14685 -1.2112,0.73548 z"
       id="path1701"
       inkscape:connector-curvature="0"
       sodipodi:nodetypes="ccccccccccc" />
    <g
       id="g2286"
       transform="matrix(0.91336192,0,0,0.91336192,-638.05573,-575.41918)"
       inkscape:export-filename="C:\Users\AntonTesh\Desktop\path1828-7-1-9-27.png"
       inkscape:export-xdpi="192.86"
       inkscape:export-ydpi="192.86">
      <path
         inkscape:connector-curvature="0"
         id="path1709"
         d="m 814.59794,1629.7175 c 0,0 7.24682,-5.049 7.66889,-5.6337 0.42213,-0.5845 4.85524,-9.878 4.85524,-9.878 l 0.23143,-8.0107 c 0,0 -3.96343,-9.6516 -4.49969,-10.3208 -0.53627,-0.6693 -10.9205,-6.0853 -10.9205,-6.0853 l -10.79557,-0.1598 -9.17551,4.4156 c 0,0 -6.04195,7.2858 -6.42203,8.443 -0.3801,1.1571 0.002,13.9059 0.26099,14.4183 0.25907,0.5126 4.9406,7.277 5.41669,7.7293 0.47602,0.4522 6.52053,4.9687 7.04487,5.1738 0.52435,0.2051 7.60059,1.2801 8.39024,1.1778 0.78978,-0.1018 7.94495,-1.2695 7.94495,-1.2695 z"
         style="fill:#f96728;fill-opacity:1;stroke:none;stroke-width:1.26120162" />
      <path
         inkscape:connector-curvature="0"
         id="path1711"
         d="m 804.09904,1590.6584 -0.39413,0.9582 0.11331,1.2957 0.8449,0.675 1.18238,0.1133 0.78825,-0.5075 -1.01488,0.1133 -0.95575,-0.3374 z m 6.02519,1.5223 -1.18238,1.0691 v 0.6183 l 1.0124,0.9582 1.18238,0.057 1.01488,-0.3941 -1.18238,0.1675 c 0,0 -0.90228,-0.2797 -1.01488,-0.5049 -0.1126,-0.2252 -0.22415,-0.9583 -0.22415,-0.9583 z m 1.85732,3.4905 -0.39413,0.2242 -0.39412,1.5765 0.39412,0.8449 1.12571,0.4508 0.73407,-0.3375 h -0.95822 c 0,0 -0.61828,-0.5631 -0.61828,-0.7883 0,-0.2252 0.11085,-1.0148 0.11085,-1.0148 z m -5.23448,0.2808 -0.78825,0.675 0.1675,1.2956 1.06906,0.9016 1.5765,0.1133 c 0,0 0.78932,-0.6203 0.56409,-0.5641 -0.22521,0.057 -1.18237,0.2808 -1.18237,0.2808 l -1.01241,-0.3374 -0.73407,-1.1258 z m 9.90732,0.2242 -0.67493,1.239 0.62075,1.7465 1.29322,0.3374 1.23903,-0.5074 h -1.51985 c 0,0 -0.8449,-0.5064 -0.8449,-0.7316 v -1.1257 z m -7.88251,4.8428 c 0,0 -0.61828,1.238 -0.61828,1.4632 0,0.2253 0.5641,1.3523 0.5641,1.3523 l 0.95575,0.3942 1.01487,-0.2242 0.67494,-0.7341 -1.18238,0.34 -0.78825,-0.1133 -0.67493,-1.1258 z m 6.0252,0.4508 -0.7316,0.8449 0.28082,1.1824 1.5765,0.9015 1.74646,-0.6207 -1.63315,0.2808 -0.90156,-0.505 -0.28082,-1.239 z m -2.81553,3.8279 -0.28082,0.6774 -0.45078,0.9558 0.45078,1.3523 1.06907,0.1133 1.46565,-0.3941 h -1.07153 l -0.84491,-0.17 -0.33746,-0.9582 z m 7.82584,0.6208 -0.33746,1.3499 -0.0567,1.3523 0.73407,0.4508 1.5765,0.1133 0.67493,-0.4508 -1.35234,0.1675 -1.01241,-0.2808 -0.0567,-1.239 z m -14.2427,0.1675 -0.22662,0.5074 -0.11332,1.2957 0.5641,0.8991 1.18237,0.3399 1.63316,-0.734 0.22416,-0.4483 -1.23904,0.5616 h -0.73158 l -1.12573,-0.7883 z"
         style="fill:#bd4f21;fill-opacity:1;stroke:none;stroke-width:1.26120162" />
    </g>
    <g
       id="g2294"
       transform="matrix(0.91336192,0,0,0.91336192,-666.57243,-629.06458)"
       inkscape:export-filename="C:\Users\AntonTesh\Desktop\path1828-7-1-9-27.png"
       inkscape:export-xdpi="192.86"
       inkscape:export-ydpi="192.86">
      <path
         inkscape:connector-curvature="0"
         id="path1709-4"
         d="m 767.08395,1647.3279 c 0,0 -8.33293,2.9278 -8.89597,3.3783 -0.56304,0.4504 -7.31948,8.2203 -7.31948,8.2203 l -2.36475,7.6572 c 0,0 1.23869,10.3599 1.57651,11.1481 0.3378,0.7884 8.89597,8.7835 8.89597,8.7835 l 10.35986,3.0403 10.02205,-1.8017 c 0,0 7.76992,-5.4051 8.44556,-6.4186 0.67564,-1.0134 3.71603,-13.4002 3.60341,-13.9632 -0.1126,-0.5632 -2.81517,-8.333 -3.153,-8.8961 -0.3378,-0.563 -4.95471,-6.5312 -5.40514,-6.869 -0.45043,-0.3378 -6.98165,-3.2655 -7.76989,-3.3781 -0.78825,-0.1131 -7.99513,-0.901 -7.99513,-0.901 z"
         style="fill:#f9284e;fill-opacity:1;stroke:none;stroke-width:1.26120162" />
      <path
         id="path1711-1"
         d="m 767.87147,1648.9597 -0.39413,0.9582 0.11327,1.2957 0.8449,0.675 1.18239,0.113 0.78824,-0.5075 -1.01487,0.113 -0.95576,-0.3375 z m 6.02519,1.5224 -1.18238,1.0689 v 0.6183 l 1.0124,0.9583 1.18238,0.056 1.01487,-0.3942 -1.18237,0.1676 c 0,0 -0.90228,-0.2798 -1.01488,-0.505 -0.1126,-0.2252 -0.22415,-0.9582 -0.22415,-0.9582 z m 1.85731,3.4904 -0.39412,0.2242 -0.39412,1.5765 0.39412,0.8448 1.12571,0.4508 0.73407,-0.3375 h -0.95822 c 0,0 -0.61828,-0.563 -0.61828,-0.7882 0,-0.2252 0.11085,-1.0149 0.11085,-1.0149 z m -5.23448,0.2808 -0.78824,0.6749 0.1675,1.2957 1.06906,0.9016 1.57649,0.113 c 0,0 0.78933,-0.6203 0.5641,-0.5641 -0.22521,0.056 -1.18238,0.2808 -1.18238,0.2808 l -1.0124,-0.3374 -0.73407,-1.1258 z m 9.90733,0.2241 -0.67494,1.2392 0.62075,1.7464 1.29323,0.3374 1.23902,-0.5074 h -1.51984 c 0,0 -0.84491,-0.5064 -0.84491,-0.7316 v -1.1257 z m -7.88252,4.8429 c 0,0 -0.61828,1.2379 -0.61828,1.4631 0,0.2254 0.56411,1.3524 0.56411,1.3524 l 0.95574,0.3941 1.01488,-0.2242 0.67493,-0.7339 -1.18237,0.3399 -0.78826,-0.113 -0.67492,-1.1257 z m 6.02521,0.4508 -0.73161,0.8448 0.28083,1.1824 1.5765,0.9016 1.74645,-0.6207 -1.63314,0.2808 -0.90157,-0.5051 -0.28081,-1.239 z m -2.81554,3.8279 -0.28082,0.6774 -0.45077,0.9557 0.45077,1.3524 1.06907,0.1131 1.46566,-0.3942 h -1.07153 l -0.84492,-0.1701 -0.33746,-0.9581 z m 7.82585,0.6207 -0.33746,1.35 -0.0566,1.3522 0.73407,0.4508 1.57651,0.1131 0.67492,-0.4509 -1.35233,0.1675 -1.01242,-0.2807 -0.0566,-1.2392 z m -14.2427,0.1676 -0.22662,0.5074 -0.11328,1.2957 0.56409,0.899 1.18239,0.34 1.63315,-0.734 0.22417,-0.4484 -1.23905,0.5617 h -0.73156 l -1.12573,-0.7882 z"
         style="fill:#b61633;fill-opacity:1;stroke:none;stroke-width:1.26120162"
         inkscape:connector-curvature="0" />
    </g>
    <g
       id="g2290"
       transform="matrix(0.91336192,0,0,0.91336192,-648.94013,-520.82308)"
       inkscape:export-filename="C:\Users\AntonTesh\Desktop\path1828-7-1-9-27.png"
       inkscape:export-xdpi="192.86"
       inkscape:export-ydpi="192.86">
      <path
         inkscape:connector-curvature="0"
         id="path1709-9"
         d="m 771.49002,1608.3233 -4.89553,-8.1599 -9.38338,-5.7534 -7.9544,-0.9759 -10.94585,4.0218 -7.74483,10.1394 -1.16376,10.7339 3.54256,9.5466 8.72953,6.8451 14.38002,1.0819 8.19971,-4.6739 5.80707,-6.5328 1.95346,-8.2442 z"
         style="fill:#f9ad28;fill-opacity:1;stroke:none;stroke-width:1.26120162"
         sodipodi:nodetypes="cccccccccccccc" />
      <path
         id="path1711-7"
         d="m 749.12941,1595.3962 -0.39412,0.9582 0.11327,1.2956 0.8449,0.675 1.18238,0.113 0.78826,-0.5075 -1.01488,0.113 -0.95576,-0.3374 z m 6.0252,1.5223 -1.18238,1.0691 v 0.6183 l 1.0124,0.9582 1.18238,0.056 1.01488,-0.3942 -1.18238,0.1675 c 0,0 -0.90228,-0.2796 -1.01488,-0.5048 -0.1126,-0.2252 -0.22415,-0.9583 -0.22415,-0.9583 z m 1.85732,3.4905 -0.39413,0.2241 -0.39412,1.5765 0.39412,0.845 1.12571,0.4507 0.73408,-0.3374 h -0.95823 c 0,0 -0.61828,-0.563 -0.61828,-0.7882 0,-0.2252 0.11085,-1.0149 0.11085,-1.0149 z m -5.23448,0.2808 -0.78825,0.675 0.1675,1.2956 1.06905,0.9016 1.57651,0.113 c 0,0 0.78932,-0.6203 0.56409,-0.5642 -0.22521,0.057 -1.18237,0.2809 -1.18237,0.2809 l -1.0124,-0.3375 -0.73408,-1.1258 z m 9.90732,0.2242 -0.67493,1.239 0.62075,1.7464 1.29322,0.3376 1.23903,-0.5075 H 762.643 c 0,0 -0.84491,-0.5064 -0.84491,-0.7316 v -1.1257 z m -7.88251,4.8427 c 0,0 -0.61828,1.2381 -0.61828,1.4633 0,0.2253 0.56409,1.3523 0.56409,1.3523 l 0.95576,0.3941 1.01488,-0.2241 0.67493,-0.7341 -1.18238,0.3399 -0.78826,-0.113 -0.67493,-1.1257 z m 6.0252,0.4508 -0.73159,0.845 0.28081,1.1824 1.57651,0.9014 1.74646,-0.6207 -1.63316,0.2809 -0.90156,-0.505 -0.28082,-1.239 z m -2.81553,3.828 -0.28083,0.6774 -0.45077,0.9558 0.45077,1.3523 1.06908,0.113 1.46565,-0.3942 h -1.07153 l -0.84491,-0.1699 -0.33746,-0.9582 z m 7.82584,0.6207 -0.33746,1.3499 -0.0566,1.3524 0.73408,0.4507 1.57649,0.113 0.67493,-0.4507 -1.35233,0.1675 -1.01242,-0.2809 -0.0566,-1.239 z m -14.2427,0.1675 -0.22663,0.5075 -0.11327,1.2956 0.56411,0.8992 1.18236,0.3399 1.63316,-0.7341 0.22417,-0.4482 -1.23904,0.5615 h -0.73159 l -1.12571,-0.7882 z"
         style="fill:#b7801a;fill-opacity:1;stroke:none;stroke-width:1.26120162"
         inkscape:connector-curvature="0" />
    </g>
    <path
       style="fill:#28f938;fill-opacity:1;stroke:none;stroke-width:1.15193355"
       d="m 78.246819,954.96271 c 0,0 1.83912,7.8547 2.19293,8.4103 0.35362,0.5555 6.74474,7.4547 6.74474,7.4547 l 6.72062,2.9002 c 0,0 9.529141,-0.106 10.278091,-0.3353 0.74903,-0.2292 8.85064,-7.2144 8.85064,-7.2144 l 3.77944,-9.1083 -0.65057,-9.2777 c 0,0 -4.14409,-7.587 -4.99797,-8.3002 -0.85378,-0.7131 -11.802781,-4.6919 -12.325101,-4.6451 -0.52239,0.047 -7.84353,1.737 -8.38807,1.9883 -0.54445,0.2515 -6.41788,3.857 -6.76891,4.2328 -0.35103,0.3758 -3.65185,6.0186 -3.83161,6.7233 -0.18012,0.7046 -1.60423,7.1714 -1.60423,7.1714 z"
       id="path1709-5"
       inkscape:connector-curvature="0" />
    <path
       inkscape:connector-curvature="0"
       style="fill:#1fb425;fill-opacity:1;stroke:none;stroke-width:1.15193355"
       d="m 95.797019,936.63581 -0.35999,0.8753 0.10346,1.1834 0.77171,0.6164 1.07994,0.1032 0.71996,-0.4634 -0.92696,0.1032 -0.87294,-0.3082 z m 5.503181,1.3904 -1.07995,0.9764 v 0.5648 l 0.9247,0.8751 1.07994,0.051 0.92695,-0.3598 -1.07994,0.153 c 0,0 -0.8241,-0.2556 -0.92695,-0.4613 -0.10284,-0.2057 -0.20473,-0.8752 -0.20473,-0.8752 z m 1.69641,3.1881 -0.35998,0.2047 -0.35999,1.44 0.35999,0.7716 1.02817,0.4118 0.67047,-0.3082 h -0.8752 c 0,0 -0.56472,-0.5143 -0.56472,-0.72 0,-0.2057 0.10126,-0.927 0.10126,-0.927 z m -4.780971,0.2565 -0.71997,0.6164 0.153,1.1836 0.97643,0.8233 1.439911,0.1032 c 0,0 0.72094,-0.5666 0.51523,-0.5152 -0.2057,0.051 -1.079941,0.2566 -1.079941,0.2566 l -0.9247,-0.3083 -0.67046,-1.0282 z m 9.048961,0.2047 -0.61646,1.1317 0.56696,1.5952 1.1812,0.3082 1.13168,-0.4635 h -1.38818 c 0,0 -0.7717,-0.4625 -0.7717,-0.6682 v -1.0282 z m -7.19959,4.4233 c 0,0 -0.564711,1.1307 -0.564711,1.3363 0,0.2058 0.515221,1.2353 0.515221,1.2353 l 0.87296,0.36 0.92693,-0.2048 0.61647,-0.6704 -1.07994,0.3105 -0.71996,-0.1032 -0.61646,-1.0283 z m 5.50319,0.4118 -0.66821,0.7716 0.25649,1.0799 1.43991,0.8235 1.59516,-0.5669 -1.49167,0.2564 -0.82344,-0.4613 -0.2565,-1.1316 z m -2.57159,3.4961 -0.2565,0.6188 -0.41172,0.8729 0.41172,1.2353 0.97645,0.1032 1.33867,-0.3601 h -0.9787 l -0.77171,-0.1552 -0.30821,-0.8751 z m 7.14782,0.5671 -0.30823,1.2329 -0.0517,1.2351 0.67046,0.4118 1.43992,0.1032 0.61646,-0.4118 -1.23517,0.153 -0.9247,-0.2565 -0.0517,-1.1317 z m -13.008741,0.153 -0.20699,0.4635 -0.10346,1.1833 0.51523,0.8212 1.07993,0.3105 1.49167,-0.6704 0.204741,-0.4095 -1.131691,0.5129 h -0.6682 l -1.02819,-0.7199 z"
       id="path1711-3" />
    <g
       id="g2298"
       transform="matrix(0.91336192,0,0,0.91336192,-603.04163,-552.67238)"
       inkscape:export-filename="C:\Users\AntonTesh\Desktop\path1828-7-1-9-27.png"
       inkscape:export-xdpi="192.86"
       inkscape:export-ydpi="192.86">
      <path
         inkscape:connector-curvature="0"
         id="path1709-59"
         d="m 744.88438,1718.7453 c 0,0 2.44501,8.4871 2.86247,9.0751 0.41736,0.588 7.78703,7.7789 7.78703,7.7789 l 7.50895,2.8001 c 0,0 10.41379,-0.6424 11.22007,-0.9345 0.80648,-0.292 9.27931,-8.3775 9.27931,-8.3775 l 3.62963,-10.1684 -1.22397,-10.1089 c 0,0 -4.95043,-8.0671 -5.9236,-8.7998 -0.97298,-0.7326 -13.16499,-4.4785 -13.73352,-4.3984 -0.56864,0.08 -8.48066,2.3326 -9.06231,2.6375 -0.58145,0.305 -6.80465,4.572 -7.16773,5.0023 -0.36308,0.4303 -3.66059,6.7828 -3.81821,7.5633 -0.15803,0.7805 -1.35812,7.9303 -1.35812,7.9303 z"
         style="fill:#1faeec;fill-opacity:1;stroke:none;stroke-width:1.26120162" />
      <path
         id="path1711-9"
         d="m 764.04282,1697.6061 -0.39413,0.9582 0.11328,1.2957 0.8449,0.6749 1.18237,0.113 0.78825,-0.5075 -1.01486,0.1131 -0.95576,-0.3374 z m 6.02518,1.5223 -1.18237,1.069 v 0.6182 l 1.01241,0.9583 1.18237,0.057 1.01488,-0.394 -1.18239,0.1674 c 0,0 -0.90226,-0.2798 -1.01486,-0.505 -0.1126,-0.2252 -0.22415,-0.9582 -0.22415,-0.9582 z m 1.85732,3.4905 -0.39412,0.2241 -0.39412,1.5765 0.39412,0.8449 1.12571,0.4508 0.73407,-0.3374 h -0.95822 c 0,0 -0.61827,-0.5632 -0.61827,-0.7884 0,-0.2252 0.11085,-1.0149 0.11085,-1.0149 z m -5.23447,0.2807 -0.78826,0.6749 0.1675,1.2958 1.06907,0.9015 1.5765,0.113 c 0,0 0.78933,-0.6203 0.5641,-0.5641 -0.22521,0.056 -1.18238,0.2809 -1.18238,0.2809 l -1.01241,-0.3375 -0.73406,-1.1257 z m 9.90732,0.2241 -0.67494,1.2392 0.62076,1.7464 1.29321,0.3374 1.23904,-0.5074 h -1.51985 c 0,0 -0.8449,-0.5064 -0.8449,-0.7316 v -1.1257 z m -7.88251,4.8429 c 0,0 -0.61828,1.238 -0.61828,1.4632 0,0.2253 0.5641,1.3524 0.5641,1.3524 l 0.95574,0.3941 1.01488,-0.2242 0.67493,-0.734 -1.18237,0.3399 -0.78825,-0.113 -0.67493,-1.1257 z m 6.0252,0.4508 -0.7316,0.8449 0.28083,1.1823 1.57649,0.9016 1.74646,-0.6207 -1.63315,0.2808 -0.90156,-0.505 -0.28082,-1.239 z m -2.81554,3.8279 -0.28081,0.6775 -0.45078,0.9557 0.45078,1.3524 1.06907,0.113 1.46566,-0.3942 h -1.07153 l -0.84492,-0.1699 -0.33747,-0.9582 z m 7.82586,0.6208 -0.33747,1.3499 -0.0566,1.3523 0.73406,0.4508 1.57651,0.113 0.67493,-0.4508 -1.35233,0.1675 -1.01242,-0.2808 -0.0566,-1.2391 z m -14.2427,0.1675 -0.22663,0.5075 -0.11327,1.2956 0.56409,0.8991 1.18238,0.3399 1.63316,-0.734 0.22416,-0.4484 -1.23904,0.5617 h -0.73158 l -1.12573,-0.7882 z"
         style="fill:#257ca1;fill-opacity:1;stroke:none;stroke-width:1.26120162"
         inkscape:connector-curvature="0" />
    </g>
    <g
       id="g2302"
       transform="matrix(0.91336192,0,0,0.91336192,-485.78213,-551.65548)"
       inkscape:export-filename="C:\Users\AntonTesh\Desktop\path1828-7-1-9-27.png"
       inkscape:export-xdpi="192.86"
       inkscape:export-ydpi="192.86">
      <path
         inkscape:connector-curvature="0"
         id="path1709-7"
         d="m 705.95925,1736.9522 c 0,0 8.44776,-2.5778 9.0291,-3.0044 0.58133,-0.4266 7.65586,-7.9081 7.65586,-7.9081 l 2.68195,-7.5519 c 0,0 -0.80565,-10.4025 -1.11032,-11.2041 -0.30464,-0.8018 -8.52201,-9.1467 -8.52201,-9.1467 l -10.22408,-3.4698 -10.08846,1.3824 c 0,0 -7.98853,5.0764 -8.70584,6.0609 -0.71731,0.9843 -4.27152,13.2336 -4.18247,13.8008 0.089,0.5673 2.46529,8.443 2.77934,9.0198 0.31403,0.5766 4.67809,6.7321 5.11404,7.0884 0.43595,0.3563 6.83942,3.5538 7.62228,3.6992 0.78286,0.1457 7.95061,1.2335 7.95061,1.2335 z"
         style="fill:#951fec;fill-opacity:1;stroke:none;stroke-width:1.26120162" />
      <path
         id="path1711-30"
         d="m 701.88359,1696.2547 -0.39412,0.9583 0.11327,1.2956 0.8449,0.6749 1.18239,0.1131 0.78825,-0.5075 -1.01488,0.113 -0.95576,-0.3374 z m 6.0252,1.5224 -1.18238,1.0691 v 0.6182 l 1.0124,0.9583 1.18238,0.056 1.01487,-0.3942 -1.18237,0.1675 c 0,0 -0.90228,-0.2797 -1.01488,-0.5049 -0.1126,-0.2252 -0.22415,-0.9582 -0.22415,-0.9582 z m 1.85732,3.4904 -0.39413,0.2241 -0.39412,1.5766 0.39412,0.845 1.12571,0.4506 0.73407,-0.3374 h -0.95822 c 0,0 -0.61828,-0.563 -0.61828,-0.7882 0,-0.2252 0.11085,-1.0149 0.11085,-1.0149 z m -5.23448,0.2809 -0.78825,0.6749 0.1675,1.2957 1.06906,0.9016 1.57649,0.113 c 0,0 0.78933,-0.6203 0.5641,-0.5642 -0.22521,0.057 -1.18238,0.2809 -1.18238,0.2809 l -1.0124,-0.3375 -0.73407,-1.1258 z m 9.90732,0.2241 -0.67493,1.239 0.62074,1.7465 1.29323,0.3375 1.23903,-0.5074 h -1.51986 c 0,0 -0.8449,-0.5064 -0.8449,-0.7316 v -1.1257 z m -7.88252,4.8428 c 0,0 -0.61828,1.2381 -0.61828,1.4633 0,0.2253 0.56411,1.3522 0.56411,1.3522 l 0.95575,0.3942 1.01487,-0.2241 0.67494,-0.7341 -1.18238,0.3399 -0.78826,-0.113 -0.67492,-1.1257 z m 6.02521,0.4508 -0.73161,0.845 0.28083,1.1823 1.5765,0.9015 1.74647,-0.6207 -1.63316,0.2809 -0.90155,-0.505 -0.28083,-1.239 z m -2.81553,3.828 -0.28083,0.6773 -0.45077,0.9559 0.45077,1.3522 1.06907,0.113 1.46566,-0.3941 h -1.07153 l -0.84492,-0.1699 -0.33745,-0.9583 z m 7.82584,0.6207 -0.33746,1.3499 -0.0566,1.3524 0.73407,0.4506 1.57651,0.113 0.67492,-0.4506 -1.35233,0.1675 -1.01242,-0.2809 -0.0566,-1.239 z m -14.2427,0.1675 -0.22662,0.5074 -0.11328,1.2957 0.56411,0.8992 1.18236,0.3399 1.63316,-0.7341 0.22417,-0.4483 -1.23905,0.5616 h -0.73157 l -1.12572,-0.7882 z"
         style="fill:#6e24a5;fill-opacity:1;stroke:none;stroke-width:1.26120162"
         inkscape:connector-curvature="0" />
    </g>
    <g
       id="g2188"
       transform="matrix(0.91336192,0,0,0.91336192,-584.40023,-458.37338)"
       inkscape:export-filename="C:\Users\AntonTesh\Desktop\path1828-7-1-9-27.png"
       inkscape:export-xdpi="192.86"
       inkscape:export-ydpi="192.86">
      <path
         inkscape:connector-curvature="0"
         id="path1709-8"
         d="m 687.3148,1633.783 c 0,0 7.52656,-4.6218 7.98174,-5.181 0.45521,-0.5592 5.41812,-9.581 5.41812,-9.581 l 0.69411,-7.9839 c 0,0 -3.39885,-9.8644 -3.89552,-10.5635 -0.4967,-0.6993 -10.55046,-6.7064 -10.55046,-6.7064 l -10.76831,-0.7837 -9.4154,3.8779 c 0,0 -6.45301,6.9243 -6.89935,8.0576 -0.44636,1.1332 -0.80192,13.8828 -0.57294,14.4093 0.22899,0.5266 4.51167,7.5503 4.96083,8.0294 0.4491,0.479 6.2224,5.3374 6.73402,5.5725 0.51161,0.235 7.51385,1.7172 8.30809,1.6608 0.79434,-0.056 8.00507,-0.808 8.00507,-0.808 z"
         style="fill:#1f4aec;fill-opacity:1;stroke:none;stroke-width:1.26120162" />
      <path
         id="path1711-4"
         d="m 677.96162,1594.2702 -0.39413,0.9581 0.11327,1.2957 0.84491,0.675 1.18236,0.113 0.78826,-0.5075 -1.01487,0.113 -0.95575,-0.3375 z m 6.02518,1.5223 -1.18237,1.0689 v 0.6183 l 1.0124,0.9583 1.18237,0.056 1.01488,-0.3942 -1.18238,0.1676 c 0,0 -0.90227,-0.2798 -1.01487,-0.505 -0.1126,-0.2252 -0.22415,-0.9582 -0.22415,-0.9582 z m 1.85732,3.4905 -0.39413,0.2241 -0.39411,1.5765 0.39411,0.8448 1.12572,0.4509 0.73407,-0.3376 h -0.95822 c 0,0 -0.61828,-0.563 -0.61828,-0.7882 0,-0.2252 0.11085,-1.0149 0.11085,-1.0149 z m -5.23448,0.2807 -0.78825,0.6749 0.1675,1.2957 1.06907,0.9016 1.57649,0.113 c 0,0 0.78933,-0.6203 0.56411,-0.5641 -0.22522,0.057 -1.18239,0.2808 -1.18239,0.2808 l -1.0124,-0.3374 -0.73407,-1.1258 z m 9.90733,0.2241 -0.67494,1.2392 0.62075,1.7464 1.29322,0.3374 1.23903,-0.5074 h -1.51984 c 0,0 -0.84491,-0.5064 -0.84491,-0.7316 v -1.1257 z m -7.88252,4.8429 c 0,0 -0.61828,1.2379 -0.61828,1.4631 0,0.2254 0.56411,1.3525 0.56411,1.3525 l 0.95574,0.394 1.01488,-0.2241 0.67493,-0.734 -1.18237,0.3399 -0.78825,-0.113 -0.67493,-1.1257 z m 6.02521,0.4508 -0.73161,0.8449 0.28083,1.1823 1.5765,0.9016 1.74646,-0.6207 -1.63315,0.2808 -0.90157,-0.505 -0.28081,-1.239 z m -2.81554,3.8279 -0.28081,0.6775 -0.45078,0.9557 0.45078,1.3524 1.06906,0.113 1.46566,-0.3942 h -1.07153 l -0.84492,-0.17 -0.33746,-0.9582 z m 7.82585,0.6207 -0.33746,1.35 -0.0566,1.3523 0.73407,0.4508 1.57651,0.113 0.67493,-0.4508 -1.35234,0.1675 -1.01241,-0.2808 -0.0566,-1.2391 z m -14.2427,0.1676 -0.22662,0.5075 -0.11328,1.2956 0.56409,0.8991 1.18239,0.3399 1.63315,-0.734 0.22417,-0.4484 -1.23905,0.5617 h -0.73157 l -1.12574,-0.7882 z"
         style="fill:#23367a;fill-opacity:1;stroke:none;stroke-width:1.26120162"
         inkscape:connector-curvature="0" />
    </g>
    <text
       xml:space="preserve"
       style="font-size:11.25px;line-height:1.25;fill:#d6d6d6;fill-opacity:1;stroke:none;stroke-width:0.9375"
       x="-453.362"
       y="-727.37091"
       id="text2762"
       transform="scale(-1)"><tspan
         sodipodi:role="line"
         id="tspan2760"
         x="-453.362"
         y="-717.10718"
         style="stroke-width:0.9375" /></text>
    <flowRoot
       xml:space="preserve"
       id="flowRoot1559"
       style="font-size:32px;line-height:1.25;text-align:center;text-anchor:middle;fill:#d6d6d6;fill-opacity:1;stroke:none"
       transform="matrix(-0.9375,0,0,-0.9375,322.2,1045.1621)"><flowRegion
         id="flowRegion1561"
         style="font-size:32px;text-align:center;text-anchor:middle"><rect
           id="rect1563"
           width="194.95944"
           height="32.324883"
           x="2.5253813"
           y="289.9848"
           style="font-size:32px;text-align:center;text-anchor:middle" /></flowRegion><flowPara
         id="flowPara1565">F</flowPara></flowRoot>    <flowRoot
       xml:space="preserve"
       id="flowRoot1571"
       style="font-size:16px;line-height:1.25;text-align:center;text-anchor:middle;fill:#000000;fill-opacity:1;stroke:none"
       transform="rotate(180,161.1,958.76214)"><flowRegion
         id="flowRegion1573"
         style="font-size:16px"><rect
           id="rect1575"
           width="178.797"
           height="143.94673"
           x="12.12183"
           y="327.86551"
           style="font-size:16px" /></flowRegion><flowPara
         id="flowPara1577" /></flowRoot>    <text
       xml:space="preserve"
       style="font-size:15px;line-height:1.25;text-align:start;text-anchor:start;fill:#000000;fill-opacity:1;stroke:none;stroke-width:0.9375"
       x="-261.05075"
       y="-713.63922"
       id="text1581"
       transform="scale(-1)"><tspan
         sodipodi:role="line"
         id="tspan1579"
         x="-261.05075"
         y="-699.95428"
         style="text-align:start;text-anchor:start;stroke-width:0.9375" /></text>
    <path
       style="fill:#000000;fill-opacity:1;stroke:none;stroke-width:0.55634534"
       d="m 191.9716,984.91871 -0.2691,-0.4596 -2.4829,-0.174 -3.2447,0.3553 -0.9942,0.6134 c 0,0 0.5871,0.4389 0.9045,0.4174 l 1.1298,0.1978 4.3689,-0.2271 z m -0.6811,-119.5917 -0.5896,-0.72326 -4.3689,-0.22705 -1.1279,0.19591 c -0.3175,-0.0215 -0.9064,0.41749 -0.9064,0.41749 l 0.9961,0.6134 3.2428,0.35706 2.4829,-0.17395 z m -2.9425,59.90662 -1.3056,-0.30396 h -3.9148 l -1.0693,0.53284 1.6626,0.60974 3.2044,0.15381 1.3037,-0.30579 z m -4.8505,60.00728 -1.3806,-0.4376 -2.5983,-0.2435 -3.1677,0.1465 -0.5694,0.5841 0.8935,0.3882 3.7372,0.049 c 0,0 2.1929,-0.1458 2.5177,-0.097 z m -0.683,-120.23799 -0.5676,-0.38818 c -0.3248,0.0487 -2.5177,-0.097 -2.5177,-0.097 l -3.7372,0.0476 -0.8917,0.39002 0.5676,0.5841 3.1678,0.14649 2.5982,-0.24353 z m -2.4133,60.3186 -0.8935,-0.65003 -2.0325,-0.0586 -3.6933,0.0733 -0.1831,0.89355 2.1845,0.25635 3.3307,-0.0586 z m -7.0276,59.42139 -2.1826,-0.2582 -3.3307,0.06 -1.2872,0.4541 0.8935,0.6519 2.0325,0.059 3.6914,-0.073 z m -0.6811,-119.24012 -0.1831,-0.89355 -3.6933,-0.0732 -2.0324,0.0586 -0.8936,0.65002 1.2872,0.45594 3.3307,0.0586 z m -1.5436,59.8407 -0.5859,-0.81848 -3.2648,-0.20324 -2.6789,0.34057 -1.4227,0.6134 0.586,0.54565 c 0.3348,-0.0682 2.5946,0.13551 2.5946,0.13551 l 3.8507,-0.0678 z m -6.1469,59.90842 -0.1501,-0.7489 h -3.8233 l -1.4263,0.2033 -0.7489,0.6811 1.2744,0.4779 3.75,-0.205 z m -0.6811,-120.25815 -1.1261,-0.41016 -3.75,-0.20324 -1.2744,0.47607 0.7489,0.68115 1.4264,0.20508 h 3.825 z m -2.8235,60.46509 -0.9961,-0.6134 -2.3511,-0.25818 -0.1062,-0.11353 -0.042,0.097 -0.7434,-0.0806 -2.4829,0.17212 -0.271,0.46142 0.5896,0.72145 2.3273,0.12084 -0.3333,2.60925 0.2051,3.26478 0.8185,0.58593 0.5456,-0.92102 0.068,-3.85071 c 0,0 -0.078,-0.87883 -0.1209,-1.62597 l 0.8588,0.0439 1.1279,-0.19592 c 0.3175,0.0215 0.9064,-0.41748 0.9064,-0.41748 z m -2.7576,38.11156 -0.3405,-2.6788 -0.6134,-1.4228 -0.5439,0.586 c 0.068,0.3348 -0.1373,2.5946 -0.1373,2.5946 l 0.068,3.8507 0.5457,0.921 0.8185,-0.5859 z m -0.1666,-10.0397 -0.1739,-2.4829 -0.4596,-0.2691 -0.7233,0.5877 -0.2271,4.3689 0.196,1.1298 c -0.021,0.3174 0.4174,0.9045 0.4174,0.9045 l 0.6134,-0.9942 z m -0.1227,20.2167 -0.073,-3.6914 -0.8936,-0.1849 -0.2582,2.1844 0.061,3.3307 0.4541,1.2872 0.6518,-0.8935 z m -0.04,-36.0406 -0.059,-2.0325 -0.6518,-0.8936 -0.4541,1.2873 -0.06,3.3307 0.2581,2.1844 0.8936,-0.1831 z m -0.042,5.495 -0.7489,-0.1502 -0.4083,1.1243 -0.2051,3.75 0.4761,1.2744 0.683,-0.7489 0.2032,-1.4246 z m -0.2343,36.1981 -0.5347,-1.0675 -0.6098,1.6607 -0.1538,3.2044 0.3058,1.3055 0.6867,0.1172 0.3058,-1.3055 z m -2.2321,5.8502 -0.1502,-0.7489 h -3.8232 l -1.4264,0.2032 -0.7489,0.6812 1.2744,0.4779 3.75,-0.2051 z m -0.6812,-120.25451 -1.1261,-0.41016 -3.75,-0.20325 -1.2744,0.47607 0.7508,0.68115 1.4245,0.20508 h 3.8251 z m -2.2924,60.5841 -0.7489,-0.68115 -1.4264,-0.20508 h -3.8251 l -0.1483,0.7489 1.1242,0.41016 3.75,0.20324 z m -4.7535,59.35001 -0.2691,-0.4596 -2.4829,-0.174 -3.2447,0.3571 -0.9942,0.6134 c 0,0 0.5889,0.439 0.9063,0.4175 l 1.128,0.1959 4.3689,-0.2271 z m -0.6811,-119.61551 -0.5896,-0.72144 -4.3689,-0.22705 -1.1279,0.19593 c -0.3175,-0.0215 -0.9064,0.41747 -0.9064,0.41747 l 0.9961,0.6134 3.2428,0.35523 2.4829,-0.17395 z m -2.1826,60.30395 -0.185,-0.89356 -3.6914,-0.0732 -2.0324,0.0586 -0.8936,0.65185 1.2872,0.45411 3.3307,0.0604 z m -6.3611,59.48366 -0.5859,-0.5457 c -0.3349,0.068 -2.5947,-0.1373 -2.5947,-0.1373 l -3.85066,0.07 -0.92102,0.5438 0.58594,0.8185 3.26474,0.2051 2.6789,-0.3406 z m -0.6812,-119.9579 -1.2432,-0.61341 -2.34197,-0.34057 -2.85095,0.20508 -0.51269,0.81664 0.80383,0.54566 3.36548,0.0677 c 0,0 1.9743,-0.2037 2.2668,-0.1355 z m -1.1535,60.26184 -1.1243,-0.41015 -3.74999,-0.20325 -1.27442,0.47607 0.7489,0.68115 1.4264,0.20508 h 3.82321 z m -6.72,-60.23621 -1.94824,-0.54565 -3.75915,-0.1355 -1.53077,0.27099 -0.13916,0.61341 1.53077,0.27282 h 1.82556 l 0.35522,3.22815 0.61341,0.99427 c 0,0 0.43714,-0.58711 0.41565,-0.90454 l 0.19775,-1.12793 -0.0879,-2.18995 h 1.27441 z m -0.36438,119.93587 -0.95398,-0.4779 h -1.16088 l -0.18677,-1.474 -0.45777,-1.062 -0.40649,0.4377 c 0.0509,0.25 -0.10254,1.9372 -0.10254,1.9372 l 0.004,0.1611 h -1.18835 l -1.16638,0.2729 0.1062,0.6134 1.16638,0.2728 1.10046,-0.051 0.0293,1.6077 0.40649,0.6866 0.61158,-0.4376 0.11902,-1.9134 0.59509,-0.027 z m -0.13366,-60.00361 -0.79468,-0.43396 -1.37512,-0.022 -0.0183,-0.34241 -0.54566,-1.2854 -0.47607,0.82764 v 0.78186 l -0.9082,-0.0147 c 0,0 -1.95038,0.16406 -2.23938,0.10986 l -0.50721,0.43214 1.22864,0.48888 2.31262,0.271 0.11353,-0.007 v 0.96679 l 0.27099,1.01075 0.61341,-0.0916 0.27282,-1.01073 -0.0513,-0.93934 1.59852,-0.0916 z m -1.66077,28.17081 -0.19958,-3.1678 -0.79285,-0.5676 -0.52918,0.8936 -0.0659,3.7353 c 0,0 0.19803,2.1929 0.13183,2.5177 l 0.52918,0.5695 0.59509,-1.3825 z m -0.0989,94.47869 -0.15197,-3.2043 -0.60975,-1.6626 -0.53466,1.0693 v 3.9148 l 0.30578,1.3056 0.68665,-0.1191 z m -0.0458,-84.44269 -0.35523,-3.2428 -0.61523,-0.9943 c 0,0 -0.43715,0.5871 -0.41565,0.9046 l -0.19775,1.1279 0.22705,4.3689 0.72326,0.5896 0.4596,-0.271 z m -0.0256,29.3371 -0.20324,-1.6644 -0.68116,-0.8752 -0.4779,1.4886 0.20508,4.3817 0.40832,1.3147 0.7489,-0.1758 z m -0.0806,27.64349 -0.22705,-4.3689 -0.72327,-0.5878 -0.4596,0.2692 -0.17395,2.4829 0.35523,3.2446 0.61523,0.9943 c 0,0 0.43715,-0.5889 0.41565,-0.9064 z m -0.0165,-7.8095 -0.20508,-3.75 -0.40833,-1.1243 -0.75073,0.1502 v 3.8251 l 0.20508,1.4245 0.68115,0.7489 z m -0.002,-100.84897 -0.22706,-4.36707 -0.72143,-0.5896 -0.46143,0.271 -0.17212,2.48291 0.35523,3.24279 0.6134,0.99427 c 0,0 0.43898,-0.58711 0.41748,-0.90455 z m -0.0146,-16.90797 -0.20325,-3.75 -0.41016,-1.12609 -0.7489,0.15014 v 3.82507 l 0.20508,1.42456 0.68115,0.75073 z m -0.002,9.10035 -0.20325,-3.75 -0.41016,-1.1261 -0.7489,0.15015 v 3.82506 l 0.20508,1.42457 0.68115,0.75073 z m -0.0623,65.9912 -0.20508,-1.4246 -0.68115,-0.7507 -0.47791,1.2744 0.20508,3.75 0.40833,1.1261 0.75073,-0.1501 z m -0.0147,-37.43957 -0.20325,-1.6571 -0.68298,-0.87159 -0.47607,1.48316 0.20508,4.3616 0.40832,1.3092 0.7489,-0.174 z m -0.005,94.82846 c 0,0 -0.2037,-2.2598 -0.1355,-2.5946 l -0.54565,-0.5859 -0.61341,1.4227 -0.34057,2.6788 0.20507,3.2648 0.81666,0.5859 0.54565,-0.921 z m -0.0183,-108.66757 -0.28015,-2.21375 -0.50354,-1.17553 -0.44678,0.4834 c 0.056,0.27666 -0.11169,2.14416 -0.11169,2.14416 l 0.0549,3.18237 0.4486,0.76172 0.67017,-0.48523 z m -0.0238,61.18288 -0.13549,-2.8638 -0.54566,-1.4831 -0.47607,0.9539 v 3.4992 l 0.27282,1.1664 0.61341,-0.1062 z m -0.011,-105.28017 c 0,0 -0.14575,-2.19286 -0.097,-2.5177 l -0.39001,-0.56762 -0.43762,1.38061 -0.24354,2.59827 0.14649,3.16772 0.58411,0.56763 0.39001,-0.89355 z m -0.007,70.22647 -0.0586,-3.8233 -0.45593,-1.4758 -0.65186,1.0254 -0.0586,2.3309 0.0732,4.2389 0.89356,0.2106 z m -0.011,-59.31338 -0.0732,-3.69324 -0.89356,-0.18311 -0.25818,2.18445 0.0604,3.33069 0.4541,1.28723 0.65185,-0.89539 z m -0.009,118.60107 -0.0586,-3.3307 -0.45593,-1.28719 -0.65003,0.89349 -0.0586,2.0325 0.0732,3.6932 0.89355,0.1831 z m -0.0385,32.6568 -0.25818,-2.1844 -0.89355,0.1831 -0.0732,3.6932 0.0586,2.0325 0.65185,0.8936 0.4541,-1.2873 z m -5.84106,-51.70889 -1.27625,-0.4761 -3.75,0.2032 -1.12427,0.4102 0.15015,0.7489 h 3.82507 l 1.42456,-0.2051 z m -0.68299,-119.55692 -0.75073,-0.68115 -1.42456,-0.20325 h -3.82507 l -0.15015,0.74891 1.1261,0.40832 3.75,0.20507 z m -0.30395,59.66675 -1.16638,-0.27282 h -3.49915 l -0.95398,0.47607 1.48315,0.54565 2.86377,0.1355 1.16639,-0.27099 z m -6.73279,60.27837 -0.89539,-0.6501 -2.03064,-0.059 -3.69323,0.073 -0.18311,0.8935 2.18445,0.2564 3.33069,-0.059 z m -0.68298,-120.3333 -1.28724,-0.4541 -3.33068,-0.0604 -2.18445,0.25818 0.1831,0.89355 3.69324,0.0733 2.03064,-0.0586 z m -0.542,60.271 -1.1261,-0.40833 -3.75,-0.20508 -1.27441,0.47791 0.75073,0.68115 1.42456,0.20325 h 3.82508 z m -7.65014,59.9304 -0.89356,-0.5292 -3.73535,-0.066 c 0,0 -2.192851,0.198 -2.517701,0.1319 l -0.56946,0.5291 1.38062,0.5951 2.600101,0.3296 3.16589,-0.1977 z m -0.0769,-59.60997 -0.5896,-0.72327 -4.36889,-0.22705 -1.127931,0.19593 c -0.31743,-0.0215 -0.90638,0.41747 -0.90638,0.41747 l 0.9961,0.61341 3.242801,0.35706 2.48291,-0.17396 z m -0.60608,-60.45776 -0.56762,-0.79285 -3.16773,-0.19959 -2.600101,0.33143 -1.38061,0.59509 0.56946,0.52918 c 0.32485,-0.0662 2.517701,0.13183 2.517701,0.13183 l 3.73535,-0.0659 z m -8.204951,60.30944 -0.56763,-0.52917 c -0.32485,0.0662 -2.5177,-0.13184 -2.5177,-0.13183 l -3.73535,0.0659 -0.89356,0.52918 0.56763,0.79284 3.16773,0.19776 2.59826,-0.32959 z m -0.64636,59.63559 c 0,0 -0.58712,-0.4389 -0.90455,-0.4174 l -1.12976,-0.196 -4.36889,0.2271 -0.58778,0.7232 0.26917,0.4596 2.48291,0.174 3.24463,-0.3571 z m -0.68299,-119.82419 -0.99426,-0.6134 -3.2428,-0.35522 -2.48291,0.17394 -0.27099,0.4596 0.58959,0.72327 4.36707,0.22705 1.12976,-0.19776 c 0.31743,0.0215 0.90454,-0.41748 0.90454,-0.41748 z m -7.88452,119.70519 -1.27624,-0.4779 -3.75,0.2051 -1.12427,0.4083 0.15014,0.7489 h 3.82508 l 1.42456,-0.2032 z m -0.57312,-59.19249 -0.18311,-0.89356 -3.69323,-0.0732 -2.03065,0.0586 -0.89537,0.65003 1.28722,0.45592 3.33069,0.0586 z m -0.10986,-60.39184 -0.75073,-0.68116 -1.42456,-0.20507 h -3.82508 l -0.15015,0.75073 1.1261,0.40832 3.75,0.20508 z m -7.34619,119.87553 -1.13526,-0.478 h -4.16199 l -1.38794,0.2729 0.12635,0.6134 1.38793,0.2728 3.40577,-0.1373 z m -0.68115,-120.16667 -1.485,-0.54566 -2.86376,-0.13549 -1.16638,0.27282 -0.10621,0.6134 1.16638,0.271 h 3.49916 z m -0.23438,60.17395 -1.1261,-0.41016 -3.75,-0.20325 -1.27442,0.47608 0.75074,0.68115 1.42456,0.20508 h 3.82507 z m -6.83899,60.08422 -0.58593,-0.5457 c -0.33483,0.068 -2.59461,-0.1373 -2.59461,-0.1373 l -0.39551,0.01 -0.28381,-2.232 -0.61341,-1.4228 -0.54382,0.586 c 0.0682,0.3348 -0.13733,2.5964 -0.13733,2.5964 l 0.009,0.4999 -1.88598,0.035 -0.92103,0.5438 0.58594,0.8185 2.24854,0.141 0.0311,1.8109 0.54567,0.921 0.81847,-0.5859 0.13367,-2.1479 2.16614,-0.2746 z m -0.0311,-120.17211 -1.42456,-0.61341 -2.67883,-0.34057 -3.26294,0.20325 -0.58594,0.81847 0.91919,0.54566 1.86035,0.033 0.25269,1.29822 0.6134,0.99426 c 0,0 0.43898,-0.58711 0.41748,-0.90454 l 0.19592,-1.12794 -0.0879,-0.2362 0.59876,0.011 c 0,0 2.26161,-0.2037 2.59643,-0.1355 z m -1.073,59.92126 -1.16638,-0.27282 h -1.45019 l -0.0421,-1.1023 -0.54382,-1.87134 -0.47791,1.20301 v 1.77063 h -0.9851 l -0.95398,0.4779 1.48315,0.54565 0.45593,0.022 v 1.59485 l 0.27283,1.47034 0.6134,-0.13367 0.27283,-1.47033 -0.0531,-1.40991 1.30188,0.0623 1.16638,-0.27284 z m -2.34008,26.42215 -0.19776,-3.1678 -0.79468,-0.5676 -0.52917,0.8936 -0.0659,3.7353 c 0,0 0.19804,2.1929 0.13183,2.5177 l 0.52918,0.5695 0.59509,-1.3806 z m -0.0934,-34.07046 -0.34057,-2.15699 -0.61341,-1.14624 -0.54565,0.47242 c 0.0682,0.26959 -0.1355,2.08922 -0.1355,2.08922 l 0.0678,3.10182 0.54565,0.74157 0.81848,-0.47241 z m -0.005,128.54915 -0.15198,-3.2043 -0.60974,-1.6608 -0.53467,1.0675 v 3.9148 l 0.30579,1.3056 0.68664,-0.1191 z m -0.0458,-84.44269 -0.35523,-3.2428 -0.61339,-0.9943 c 0,0 -0.43899,0.5871 -0.41749,0.9046 l -0.19592,1.1279 0.22705,4.3689 0.72144,0.5896 0.46143,-0.271 z m -0.0238,30.6592 -0.20508,-1.4264 -0.68115,-0.7489 -0.47791,1.2744 0.20508,3.75 0.40833,1.1242 0.75073,-0.1483 z m -0.0824,26.32139 -0.22705,-4.3689 -0.72326,-0.5878 -0.4596,0.2692 -0.17395,2.4829 0.35706,3.2446 0.61339,0.9943 c 0,0 0.43899,-0.5871 0.41749,-0.9046 z m -0.009,-40.27409 -0.13732,-2.8637 -0.54566,-1.485 -0.47607,0.9558 v 3.4973 l 0.27282,1.1664 0.61341,-0.1044 z m -0.007,-68.38255 -0.22705,-4.36889 -0.72327,-0.5896 -0.45959,0.27099 -0.17395,2.48292 0.35522,3.24279 0.61523,0.99427 c 0,0 0.43716,-0.58712 0.41565,-0.90454 z m 0,100.84714 -0.20508,-3.75 -0.40833,-1.1243 -0.74889,0.1502 v 3.8251 l 0.20324,1.4245 0.68116,0.7489 z m -0.0146,-117.75693 -0.20508,-3.75 -0.40833,-1.12609 -0.75073,0.15015 v 3.82506 l 0.20508,1.42457 0.68115,0.75073 z m -0.002,9.10034 -0.20508,-3.75 -0.40832,-1.12609 -0.75074,0.15015 v 3.82507 l 0.20509,1.42456 0.68115,0.75073 z m -0.0604,41.4569 -0.0586,-3.3307 -0.45593,-1.2872 -0.65185,0.8954 -0.0568,2.0306 0.0732,3.6933 0.89355,0.1831 z m -0.004,24.5343 -0.20508,-1.4245 -0.68115,-0.7508 -0.47607,1.2744 0.20325,3.75 0.41016,1.1261 0.74889,-0.1501 z m -0.0128,-34.6966 -0.20508,-1.4246 -0.68115,-0.75073 -0.47791,1.27442 0.20508,3.75001 0.40832,1.1261 0.75074,-0.1502 z m -0.005,92.08549 c 0,0 -0.20553,-2.2598 -0.13732,-2.5946 l -0.54383,-0.5859 -0.6134,1.4227 -0.34241,2.6788 0.20508,3.2648 0.81848,0.586 0.54566,-0.9211 z m -0.0531,-152.76485 c 0,0 -0.14574,-2.19286 -0.097,-2.51769 l -0.39002,-0.56763 -0.43762,1.38061 -0.24353,2.59827 0.14466,3.16772 0.5841,0.56763 0.39002,-0.89355 z m -0.0201,10.91309 -0.0732,-3.69323 -0.89355,-0.18312 -0.25635,2.18445 0.0586,3.3307 0.45594,1.28722 0.65002,-0.89539 z m -0.007,118.60106 -0.0604,-3.33069 -0.4541,-1.2872 -0.65186,0.8935 -0.0586,2.03249 0.0732,3.6932 0.89355,0.1831 z m -0.0403,32.6569 -0.25818,-2.1845 -0.89356,0.1831 -0.0732,3.6933 0.0586,2.0324 0.65185,0.8936 0.4541,-1.2872 z m -4.47144,-109.5978 -0.92102,-0.54383 -3.85071,-0.0696 c 0,0 -2.25981,0.20553 -2.59461,0.13733 l -0.58593,0.54382 1.42273,0.61341 2.67883,0.3424 3.26478,-0.20507 z m -0.6189,59.70701 -1.27442,-0.4761 -3.75,0.2033 -1.12426,0.4101 0.15015,0.7489 h 3.82507 l 1.42456,-0.2032 z m -0.0311,-119.76378 -0.7489,-0.68115 -1.4264,-0.20508 h -3.82508 l -0.15014,0.75073 1.1261,0.40833 3.75,0.20508 z m -6.85914,120.03478 -0.89538,-0.6518 -2.03064,-0.059 -3.69324,0.073 -0.1831,0.8936 2.18445,0.2581 3.33068,-0.058 z m -0.68298,-120.12634 -1.28723,-0.45592 -3.33069,-0.0586 -2.18445,0.25634 0.18311,0.89356 3.69323,0.0732 2.03248,-0.0586 z m -1.99402,60.3827 -0.99426,-0.61341 -3.2428,-0.35705 -2.48291,0.17395 -0.27099,0.45959 0.5896,0.72327 4.36706,0.22705 1.12976,-0.19592 c 0.3174,0.0215 0.90454,-0.41748 0.90454,-0.41748 z m -5.59387,59.82424 -0.15014,-0.7489 h -3.82508 l -1.42456,0.2051 -0.75073,0.6811 1.27624,0.4761 3.75,-0.2033 z m -0.68298,-120.28933 -1.12427,-0.40832 -3.75,-0.20508 -1.27442,0.4779 0.7489,0.68116 1.42456,0.20508 h 3.82508 z m -2.29065,60.58411 -0.75073,-0.68115 -1.42456,-0.20325 h -3.82508 l -0.15015,0.7489 1.1261,0.40833 3.75,0.20508 z m -4.75342,59.38662 -0.26916,-0.4596 -2.48292,-0.174 -3.24463,0.3553 -0.99426,0.6134 c 0,0 0.58704,0.4389 0.90454,0.4174 l 1.12977,0.196 4.36889,-0.2271 z m -0.68299,-119.6503 -0.58776,-0.72326 -4.3689,-0.22705 -1.12976,0.19776 c -0.317503,-0.0215 -0.904543,0.41565 -0.904543,0.41565 l 0.994263,0.61523 3.24463,0.35522 2.48291,-0.17395 z m -3.66393,60.2655 -0.75073,-0.68115 -1.42457,-0.20324 h -3.825073 l -0.15015,0.7489 1.1261,0.40833 3.750003,0.20507 z m -4.343273,59.5367 -1.42456,-0.6134 -2.67883,-0.3405 -3.26477,0.2051 -0.58411,0.8166 0.91919,0.5457 3.85071,0.068 c 0,0 2.2598,-0.2037 2.5946,-0.1355 z m -0.68298,-119.95417 -0.58594,-0.54566 c -0.3348,0.0682 -2.5946,-0.13732 -2.5946,-0.13732 l -3.85071,0.0696 -0.92102,0.54383 0.58594,0.81848 3.26477,0.20508 2.67883,-0.34058 z m -2.69348,60.02929 -1.28723,-0.45409 -3.33069,-0.0604 -2.18445,0.25817 0.18311,0.89356 3.69323,0.0732 2.03064,-0.0586 z m -7.02759,60.22888 -0.1831,-0.8935 -3.69325,-0.073 -2.03063,0.059 -0.89356,0.65 1.28541,0.456 3.33251,0.059 z m -0.68115,-120.56213 -2.18445,-0.25818 -3.33069,0.0604 -1.28723,0.4541 0.89355,0.65185 2.03247,0.0586 3.69141,-0.0732 z m -1.50147,60.62439 -0.56762,-0.58411 -3.16773,-0.14648 -2.59827,0.24353 -1.38061,0.43762 0.56763,0.39002 c 0.3248,-0.0487 2.51769,0.097 2.51769,0.097 l 3.73536,-0.0494 z m -6.27685,59.82054 -1.06751,-0.5328 H 6.9824557 l -1.30553,0.3039 0.11901,0.6867 1.30555,0.3058 3.2043403,-0.152 z m -0.68298,-120.32957 -1.6607703,-0.60974 -3.20435,-0.15198 -1.30554,0.30396 -0.11719,0.68664 1.30371,0.30579 h 3.9166303 z m -2.2393903,60.47242 -0.99426,-0.61341 -3.2428,-0.35523 -2.4829,0.17395 -0.271,0.45959 0.5896,0.72328 4.36706,0.22705 1.12976,-0.19776 c 0.31751,0.0215 0.90454,-0.41747 0.90454,-0.41747 z"
       id="path1822-4"
       inkscape:connector-curvature="0" />
    <path
       style="fill:#7b7b7b;fill-opacity:1;stroke:none;stroke-width:0.85627681"
       d="m 141.23177,939.97171 -5.35006,2.0654 -2.59392,3.3331 -0.83119,5.5675 2.29456,4.8935 4.28138,3.2485 1.54865,1.7066 0.30271,2.7511 0.60231,5.4029 0.37797,0.2692 0.75762,-0.3244 0.9989,-5.7792 0.7593,-2.3932 1.2275,-1.7852 4.3576,-3.7084 2.3698,-4.8935 -0.6121,-4.5875 -3.6693,-3.7462 -3.3816,-1.8848 z"
       id="path2049"
       inkscape:connector-curvature="0"
       sodipodi:nodetypes="cccccccccccccccccccc" />
    <path
       style="fill:#cbcbcb;fill-opacity:1;stroke:none;stroke-width:0.85627681"
       d="m 140.5733,941.34901 h 0.72632 l 1.03208,0.5734 0.1529,0.5734 -1.0703,0.5734 -2.44651,0.4587 -1.64374,0.9175 -1.14681,0.9939 -0.26759,-0.3823 0.15292,-0.4969 2.29359,-2.2172 z"
       id="path2056"
       inkscape:connector-curvature="0" />
    <path
       style="fill:#7b7b7b;fill-opacity:1;stroke:none;stroke-width:0.85627681"
       d="m 173.9229,939.72941 5.35,2.0654 2.594,3.3331 0.8312,5.5675 -2.2946,4.8935 -4.2814,3.2485 -1.5486,1.7066 -0.3028,2.7511 -0.6023,5.4029 -0.3779,0.2693 -0.7576,-0.3245 -0.9989,-5.7791 -0.7593,-2.3933 -1.2276,-1.7852 -4.3576,-3.7084 -2.3698,-4.8935 0.6121,-4.5874 3.6693,-3.7463 3.3816,-1.8848 z"
       id="path2049-3"
       inkscape:connector-curvature="0"
       sodipodi:nodetypes="cccccccccccccccccccc" />
    <path
       style="fill:#cbcbcb;fill-opacity:1;stroke:none;stroke-width:0.85627681"
       d="m 170.9364,941.10671 h 0.7264 l 1.0321,0.5734 0.1529,0.5734 -1.0704,0.5734 -2.4465,0.4588 -1.6437,0.9174 -1.1468,0.9939 -0.2676,-0.3823 0.1529,-0.4969 2.2936,-2.2172 z"
       id="path2056-9"
       inkscape:connector-curvature="0" />
    <text
       xml:space="preserve"
       style="font-style:normal;font-variant:normal;font-weight:normal;font-stretch:normal;font-size:10px;line-height:1.25;font-family:Roboto;-inkscape-font-specification:Roboto;text-align:start;writing-mode:lr-tb;text-anchor:start;fill:#ffffff;fill-opacity:1;stroke:none;stroke-width:0.9375"
       x="-497.83215"
       y="-850.56525"
       id="text2677"
       transform="scale(-1)"><tspan
         sodipodi:role="line"
         id="tspan2675"
         x="-497.83215"
         y="-841.81525"
         style="stroke-width:0.9375" /></text>
    <text
       xml:space="preserve"
       style="font-style:normal;font-variant:normal;font-weight:normal;font-stretch:normal;font-size:7.5px;line-height:1;font-family:Roboto;-inkscape-font-specification:'Roboto, Normal';font-variant-ligatures:normal;font-variant-caps:normal;font-variant-numeric:normal;font-feature-settings:normal;text-align:start;writing-mode:lr-tb;text-anchor:start;fill:#ffffff;fill-opacity:1;stroke:none;stroke-width:0.9375"
       x="-570.58142"
       y="-1011.9935"
       id="text2735"
       transform="scale(-1)"><tspan
         sodipodi:role="line"
         id="tspan2733"
         x="-570.58142"
         y="-1006.3685"
         style="stroke-width:0.9375" /></text>
    <flowRoot
       xml:space="preserve"
       id="flowRoot1583"
       style="font-style:normal;font-variant:normal;font-weight:normal;font-stretch:normal;font-size:8px;line-height:1;font-family:Roboto;-inkscape-font-specification:'Roboto, Normal';font-variant-ligatures:normal;font-variant-caps:normal;font-variant-numeric:normal;font-feature-settings:normal;text-align:start;writing-mode:lr-tb;text-anchor:start;fill:#000000;fill-opacity:1;stroke:none"
       transform="matrix(0.9375,0,0,0.9375,29.333966,446.88156)"
       inkscape:export-filename="C:\Users\AntonTesh\Desktop\Back.png"
       inkscape:export-xdpi="192.86"
       inkscape:export-ydpi="192.86"><flowRegion
         id="flowRegion1585"
         style="font-style:normal;font-variant:normal;font-weight:normal;font-stretch:normal;font-size:8px;font-family:Roboto;-inkscape-font-specification:'Roboto, Normal';font-variant-ligatures:normal;font-variant-caps:normal;font-variant-numeric:normal;font-feature-settings:normal;text-align:start;writing-mode:lr-tb;text-anchor:start"><rect
           id="rect1587"
           width="162.50432"
           height="149.71002"
           x="1.2137291"
           y="330.34741"
           style="font-style:normal;font-variant:normal;font-weight:normal;font-stretch:normal;font-size:8px;font-family:Roboto;-inkscape-font-specification:'Roboto, Normal';font-variant-ligatures:normal;font-variant-caps:normal;font-variant-numeric:normal;font-feature-settings:normal;text-align:start;writing-mode:lr-tb;text-anchor:start" /></flowRegion><flowPara
         id="flowPara1550">	Tear the pieces on the dotted lines</flowPara><flowPara
         id="flowPara1552">	Place the flag and tee box far apart</flowPara><flowPara
         id="flowPara1554">	Place other business cards to mark water hazards</flowPara><flowPara
         id="flowPara1556">	Players take turns flicking their golf ball towards the flag starting at the tee box</flowPara><flowPara
         id="flowPara1558">	If the ball falls off the table or goes into the water put it back to where it was flicked from and that counts as two flicks</flowPara><flowPara
         id="flowPara1560">	Lowest number of flicks to reach the flag wins!</flowPara></flowRoot>    <text
       xml:space="preserve"
       style="font-size:26.678545px;line-height:1.25;text-align:center;text-anchor:middle;fill:#d6d6d6;fill-opacity:1;stroke:none;stroke-width:0.83370453"
       x="-797.86975"
       y="24.502947"
       id="text1569"
       inkscape:export-filename="C:\Users\AntonTesh\Desktop\Back.png"
       inkscape:export-xdpi="192.86"
       inkscape:export-ydpi="192.86"
       transform="rotate(-90)"><tspan
         sodipodi:role="line"
         x="-797.86975"
         y="24.502947"
         style="font-style:normal;font-variant:normal;font-weight:bold;font-stretch:normal;font-size:17.50000191px;font-family:Roboto;-inkscape-font-specification:'Roboto, Bold';font-variant-ligatures:normal;font-variant-caps:normal;font-variant-numeric:normal;font-feature-settings:normal;text-align:center;writing-mode:lr-tb;text-anchor:middle;fill:#000000;fill-opacity:1;stroke-width:0.83370453"
         id="tspan1546">Flick Golf</tspan></text>
  </g>
</svg>
