<?xml version="1.0" encoding="UTF-8" standalone="no"?>
<!-- Created with Inkscape (http://www.inkscape.org/) -->

<svg
   xmlns:dc="http://purl.org/dc/elements/1.1/"
   xmlns:cc="http://creativecommons.org/ns#"
   xmlns:rdf="http://www.w3.org/1999/02/22-rdf-syntax-ns#"
   xmlns:svg="http://www.w3.org/2000/svg"
   xmlns="http://www.w3.org/2000/svg"
   xmlns:sodipodi="http://sodipodi.sourceforge.net/DTD/sodipodi-0.dtd"
   xmlns:inkscape="http://www.inkscape.org/namespaces/inkscape"
   width="3.6600001in"
   height="2.1600001in"
   viewBox="0 0 329.40001 194.40001"
   id="svg2"
   version="1.1"
   inkscape:version="0.92.2 (5c3e80d, 2017-08-06)"
   sodipodi:docname="Busienss Card Game Capture.svg"
   inkscape:export-filename="C:\Users\AntonTesh\Desktop\Business Card Back Capture2.png"
   inkscape:export-xdpi="300"
   inkscape:export-ydpi="300">
  <defs
     id="defs4" />
  <sodipodi:namedview
     id="base"
     pagecolor="#ffffff"
     bordercolor="#666666"
     borderopacity="1.0"
     inkscape:pageopacity="0.0"
     inkscape:pageshadow="2"
     inkscape:zoom="2"
     inkscape:cx="64.447235"
     inkscape:cy="158.05603"
     inkscape:document-units="px"
     inkscape:current-layer="g1558"
     showgrid="false"
     units="in"
     inkscape:window-width="1920"
     inkscape:window-height="1017"
     inkscape:window-x="1912"
     inkscape:window-y="-8"
     inkscape:window-maximized="1"
     inkscape:showpageshadow="false"
     inkscape:snap-global="true"
     showguides="false"
     inkscape:guide-bbox="true"
     inkscape:snap-bbox="true"
     inkscape:bbox-paths="true"
     inkscape:bbox-nodes="true"
     inkscape:snap-bbox-midpoints="true"
     inkscape:snap-bbox-edge-midpoints="true"
     inkscape:object-paths="true"
     inkscape:snap-intersection-paths="true"
     inkscape:snap-smooth-nodes="true"
     inkscape:snap-midpoints="true"
     inkscape:snap-object-midpoints="true"
     inkscape:snap-center="true" />
  <metadata
     id="metadata7">
    <rdf:RDF>
      <cc:Work
         rdf:about="">
        <dc:format>image/svg+xml</dc:format>
        <dc:type
           rdf:resource="http://purl.org/dc/dcmitype/StillImage" />
        <dc:title></dc:title>
      </cc:Work>
    </rdf:RDF>
  </metadata>
  <g
     inkscape:label="Layer 1"
     inkscape:groupmode="layer"
     id="layer1"
     transform="translate(0,-857.96216)">
    <rect
       style="fill:#ffffff;fill-opacity:1;stroke:none;stroke-width:1.02676046"
       id="rect1236"
       width="367.5"
       height="210"
       x="-348.45001"
       y="-1060.1621"
       inkscape:export-filename="C:\Users\AntonTesh\Desktop\Back.png"
       inkscape:export-xdpi="192.86"
       inkscape:export-ydpi="192.86"
       transform="scale(-1)" />
    <path
       style="fill:#000000;fill-opacity:1;stroke:none;stroke-width:0.94568098"
       d="m 40.294489,1043.6754 0.538331,-0.029 5.608519,-0.8368 1.35315,-0.5805 3.358153,-2.6147 0.922857,-1.2415 2.081906,-5.3888 0.192262,-1.1609 -0.137334,-3.4661 -0.364378,-1.2964 -1.898803,-3.4076 -0.503541,-0.6592 -3.773803,-3.6969 -1.646119,-0.802 -4.621575,-0.6152 -1.646118,0.2636 -4.931035,2.3877 -0.944822,0.7306 -3.486328,4.0961 -1.127934,0.7764 -1.810913,0.5731 -5.628656,0.9741 -2.169806,1.712 -0.32776,0.7636 0.302128,2.8253 0.270994,0.3809 2.041632,1.2011 5.443724,0.6061 h 0.0019 l 1.838381,0.2014 0.823968,0.7489 3.110963,4.0998 1.078444,0.8734 4.931034,2.3108 z m 69.843751,-6.7694 2.66784,-1.6004 2.27052,-4.5318 0.24352,-0.6958 1.36414,-6.4197 5.39429,-9.6057 1.84204,-2.4427 0.23804,-1.7047 -0.1355,-1.3586 -0.4065,-1.1609 -2.20824,-1.8933 -16.50697,-3.0579 h -0.0146 l -28.465575,-5.11959 -2.678831,0.9265 -1.190194,1.3385 -0.311278,3.43329 0.844116,1.3879 1.805419,1.3129 16.213997,3.8672 0.199584,0.04 9.495842,1.5674 -0.0219,0.7965 0.0549,0.6427 1.6864,8.5273 0.0952,0.3588 2.65503,7.9248 1.4557,4.7809 0.84961,1.3239 0.7141,0.6335 1.84937,0.7306 z m 60.34607,-0.9375 2.66784,-1.6004 2.27052,-4.5318 0.24353,-0.6958 1.36413,-6.4197 5.39612,-9.6057 1.84021,-2.4427 0.23804,-1.7047 -0.1355,-1.3586 -0.40649,-1.1609 -2.20825,-1.8933 -16.50697,-3.0579 h -0.0146 l -28.46375,-5.11959 -2.67883,0.9265 -1.19019,1.3385 -0.31311,3.42959 0.84229,1.3879 1.80725,1.3166 16.21399,3.8672 0.19958,0.04 9.49768,1.5674 -0.0238,0.7965 0.0549,0.6427 1.6864,8.5273 0.0952,0.3588 2.65502,7.9248 1.4557,4.7809 0.84961,1.3239 0.71411,0.6335 z m -129.801639,-22.6465 0.243534,-0.022 4.621584,-0.6171 1.644281,-0.802 3.775641,-3.6969 0.503541,-0.6591 1.898803,-3.4058 0.364378,-1.2982 0.135497,-3.46619 -0.192263,-1.1572 -2.080078,-5.3907 -0.924684,-1.24508 -3.358153,-2.61292 -1.351313,-0.57861 -5.610356,-0.83679 -1.658934,0.2417 -4.929197,2.31079 -1.078491,0.87341 -3.110962,4.0997 -0.82215,0.7471 -1.838372,0.2014 h -0.0056 l -5.443725,0.6079 -2.039794,1.1993 -0.271003,0.3809 -0.302119,2.82529 0.32776,0.7636 2.171625,1.712 5.625,0.9723 1.81275,0.5749 1.126096,0.7746 3.488157,4.0979 0.944822,0.7306 4.929206,2.3877 1.404412,0.2856 z m 114.607549,-32.71547 1.77063,-0.60242 1.22864,-0.94665 0.49438,-0.49073 1.51062,0.23621 3.62183,-0.41382 1.27807,-0.46692 0.4303,-0.28747 10.17884,0.022 1.87682,-0.68481 0.9961,-0.84229 0.72143,-0.91736 1.30189,-2.60376 0.30212,-1.13342 0.91919,-16.3916 0.004,-0.22339 -0.30579,-14.7821 -0.0202,-0.28931 -0.30761,-2.52869 -1.51063,-2.20642 -2.14416,-1.14807 -1.32935,-0.34241 -18.55774,-0.24353 -1.90613,-0.69763 -2.69165,-0.22339 -12.00073,0.70495 -0.79284,0.0989 -1.99219,0.53651 -2.01599,1.94641 -0.91919,2.98645 -0.12818,0.9082 0.61341,32.7063 0.17761,0.94849 0.53649,1.45568 1.38245,1.56739 1.91346,0.99609 1.333,0.32776 9.46473,0.0201 1.13342,1.26709 1.79626,1.23046 1.63696,0.50721 z m -61.386106,0 1.770628,-0.60242 1.228632,-0.94665 0.49439,-0.49073 1.510622,0.23621 3.621824,-0.41382 1.27808,-0.46692 2.17346,-1.44836 1.22131,-1.77795 0.93018,-4.14002 0.0384,-1.05652 -0.4541,-3.09082 10.75927,-6.57898 0.81849,-0.75073 1.7395,-2.35474 0.51819,-1.18835 0.61523,-3.27759 -0.27282,-1.86584 -1.6388,-3.17323 -1.47216,-1.34948 -11.93849,-4.91638 -0.4193,-1.40076 -1.45386,-1.74682 -3.4314,-1.76148 -1.61865,-0.30396 -2.215575,0.26917 -0.897225,-1.79443 -2.3529,-1.59302 -2.691656,-0.22339 -2.634882,1.2616 -3.414918,-1.40625 -0.360722,-0.12085 -1.867669,-0.46875 -1.4502,-0.31494 -0.701297,-0.10987 -1.31835,0.0623 -1.221319,0.52735 -0.81299,0.49438 -0.952144,0.62988 -1.15905,1.64247 -0.818484,3.0725 -0.09338,0.89173 1.739503,34.70581 0.543825,1.55274 1.331175,1.84387 0.113531,0.14648 1.270753,1.25794 3.731681,1.53625 4.264529,-1.12427 0.216065,-0.11901 1.263431,-0.77271 1.036379,1.28174 1.796259,1.23047 1.636969,0.5072 z m -59.998172,0 1.770628,-0.60242 1.228641,-0.94665 0.494381,-0.49073 1.510622,0.23621 3.621825,-0.41382 1.278075,-0.46692 2.173463,-1.44836 0.968625,-0.65552 0.0094,-0.006 3.850706,-2.42249 2.843625,-1.89331 1.138922,-0.83496 1.065675,-1.02722 0.743409,-1.43738 0.60241,-1.62414 1.408087,-4.27186 1.259766,-4.18762 0.40649,-1.50879 0.131841,-0.58593 0.04941,-1.17005 -0.177609,-0.80383 -0.267338,-1.00525 -0.776362,-2.7539 -0.816656,-2.76489 -0.325922,-1.03089 -0.366216,-0.92102 -0.941166,-1.47766 -1.501462,-2.1991 -1.532588,-2.17529 -0.596925,-0.8075 -0.728765,-0.80566 -0.800166,-0.53466 -0.840459,-0.46692 -2.268675,-1.19203 -2.345578,-1.16088 -0.950316,-0.43214 -1.049194,-0.35339 -4.008178,-0.6958 -3.383794,-0.56946 -1.305543,0.0788 -0.170288,0.0494 -0.849609,-0.20508 -2.691647,-0.22338 -3.001097,2.005 -0.146484,0.4596 -0.578616,0.18493 -0.785522,0.28015 -0.979612,0.49805 -0.78736,0.68482 -0.922847,0.90088 -2.457281,2.46826 -3.38745,3.45153 -0.640865,1.01074 -2.578126,6.90857 -0.177609,1.19385 0.331416,4.91638 0.287475,3.57239 0.144656,1.3623 0.263672,1.28174 0.490725,0.90637 0.388181,0.50721 0.988772,1.16272 2.687981,2.95532 3.782963,4.02099 1.12244,0.72876 3.169557,1.1316 0.25634,1.87866 1.234135,1.99951 1.796259,1.23047 1.636969,0.5072 z m 0.523678,-60.11719 1.766972,-0.60058 1.228632,-0.94483 0.498046,-0.49439 1.508794,0.23622 3.621825,-0.41383 1.278075,-0.46692 2.173463,-1.44836 0.270993,-0.20873 1.065675,-0.3882 0.710457,-0.27648 0.732412,-0.3479 1.419075,-1.02539 2.111203,-1.62414 2.081907,-1.65345 0.772706,-0.64454 0.763547,-0.7727 0.487069,-0.83129 0.419306,-0.86426 1.058353,-2.33277 1.025391,-2.40966 0.375365,-0.97412 0.291141,-1.06751 0.465084,-4.04114 0.377194,-3.41126 -0.146484,-1.27624 -1.411744,-3.93311 -1.072997,-2.85277 -0.450441,-1.09864 -0.646359,-1.1499 -0.728756,-0.74524 -0.952153,-0.86975 -2.603757,-2.31263 -3.640134,-3.18603 -1.047366,-0.58228 -7.045903,-2.17529 -1.197506,-0.10803 -2.997441,0.37537 -2.006831,-1.06202 -2.691656,-0.22522 -3.002925,2.00501 -0.166622,0.51635 -0.192263,0.0549 -0.87525,0.54016 -0.483393,0.41565 -1.104132,1.05652 -2.797847,2.85278 -3.797606,4.00635 -0.66284,1.16272 -2.797857,9.53247 -0.07144,1.32934 1.657107,9.22303 0.472406,1.14257 2.642213,3.70605 2.052619,2.72828 0.899043,1.08765 1.085813,1.00524 1.333012,0.60792 1.397091,0.43578 1.803591,0.49073 0.07875,0.57312 1.235962,1.99951 1.794431,1.22864 1.63696,0.5072 z m 48.255619,-0.0146 4.345088,-1.14624 0.217903,-0.11902 1.669922,-1.02172 0.130003,0.0989 1.796259,1.22863 3.403931,-0.0952 1.228641,-0.94483 0.498047,-0.49439 1.508784,0.23622 3.621833,-0.41383 1.27808,-0.46692 2.17346,-1.44836 1.22131,-1.77795 0.93018,-4.13818 0.0384,-1.05653 -0.21973,-1.49597 11.85974,-7.25098 0.81849,-0.75073 1.78894,-2.42065 0.51818,-1.19019 0.62989,-3.36547 -0.27283,-1.86218 -1.68274,-3.26112 -1.47217,-1.35131 -12.80273,-5.27161 -0.9119,-1.72669 -1.45202,-1.74682 -3.4314,-1.76147 -1.616817,-0.30396 -2.217412,0.26917 -0.897216,-1.79444 -2.351072,-1.59302 -2.691646,-0.22522 -2.702644,1.35865 -2.904047,-1.19568 -0.36255,-0.12085 -1.915284,-0.47974 -1.486819,-0.32227 -0.714113,-0.11352 -1.325681,0.0623 -1.235962,0.53467 -0.833129,0.50719 -0.975956,0.64637 -1.157222,1.64063 -0.842287,3.1549 -0.09337,0.89172 1.788947,35.66163 0.543815,1.55274 1.367803,1.89513 0.113522,0.14649 1.294557,1.28174 z m 72.647091,-0.31494 1.76697,-0.60058 1.22863,-0.94483 0.49806,-0.49438 1.50879,0.2362 3.62182,-0.41381 1.27991,-0.46875 0.79102,-0.52918 9.53979,0.0219 1.87866,-0.68481 0.99609,-0.84228 0.72144,-0.91736 1.30188,-2.6056 0.30212,-1.13342 0.91919,-16.3916 0.004,-0.22339 -0.30578,-14.7821 -0.0202,-0.28931 -0.30761,-2.52868 -1.51062,-2.20643 -2.14417,-1.14807 -1.32934,-0.3424 -18.40576,-0.24171 -1.78162,-0.45227 -2.69166,-0.22521 -2.54882,0.58776 -9.72839,-0.12817 -0.79285,0.0989 -1.99219,0.5365 -2.01599,1.94641 -0.91919,2.98645 -0.12817,0.9082 0.6134,32.7063 0.17761,0.94848 0.5365,1.4557 1.38244,1.56738 1.91346,0.99609 1.33118,0.32776 9.70825,0.0219 1.16818,1.51427 1.79627,1.22865 1.63696,0.50536 z"
       id="path1736"
       inkscape:connector-curvature="0"
       sodipodi:nodetypes="cccccccccccccccccccccccccccccccccccccccccccccccccccccccccccccccccccccccccccccccccccccccccccccccccccccccccccccccccccccccccccccccccccccccccccccccccccccccccccccccccccccccccccccccccccccccccccccccccccccccccccccccccccccccccccccccccccccccccccccccccccccccccccccccccccccccccccccccccccccccccccccccccccccccccccccccccccccccccccccccccccccccccccccccccccccccccccccccccccccccccccccccccccccccccccccccccccccccccccccccccccccccccccccccccccccccccccccccccccccccccccccccccccccccccccccccc" />
    <g
       id="g1554"
       transform="matrix(0,0.92019236,-0.92019236,0,988.99929,752.87915)">
      <path
         inkscape:connector-curvature="0"
         id="path1703"
         d="m 279.38217,878.2168 12.7384,7.15477 7.44669,1.58351 4.92505,2.46745 -0.68965,0.77603 -5.23726,1.59528 -8.65336,2.89953 -9.26767,1.83266 -4.23518,-0.11821"
         style="fill:#e9346d;fill-opacity:1;stroke:none;stroke-width:1.02769923" />
      <path
         sodipodi:nodetypes="ccccccccccc"
         inkscape:connector-curvature="0"
         id="path1701"
         d="m 267.71476,926.70131 5.56306,-30.93365 3.32399,-17.93852 1.2608,-0.44202 1.8536,0.25859 0.1079,1.83199 -1.89583,11.50938 -3.0484,18.47129 -4.20155,17.61992 -1.50865,0.91608 z"
         style="fill:#7b7b7b;fill-opacity:1;stroke:none;stroke-width:1.02769923" />
    </g>
    <g
       id="g1558"
       transform="matrix(0,0.92019236,-0.92019236,0,984.54617,753.81665)">
      <path
         style="fill:#19b6e3;fill-opacity:1;stroke:none;stroke-width:1.02769923"
         d="m 279.38217,938.95818 12.73839,7.15477 7.44669,1.58352 4.92505,2.46745 -0.68964,0.77602 -5.23727,1.59528 -8.65335,2.89953 -9.26767,1.83266 -4.23518,-0.1182"
         id="path1507"
         inkscape:connector-curvature="0" />
      <path
         style="fill:#7b7b7b;fill-opacity:1;stroke:none;stroke-width:1.02769923"
         d="m 267.71475,987.44269 5.56306,-30.93365 3.324,-17.93851 1.26079,-0.44202 1.8536,0.25859 0.1079,1.83199 -1.89582,11.50938 -3.0484,18.47129 -4.20156,17.61991 -1.50865,0.91609 z"
         id="path1509"
         inkscape:connector-curvature="0"
         sodipodi:nodetypes="ccccccccccc" />
    </g>
    <text
       xml:space="preserve"
       style="font-size:11.25px;line-height:1.25;fill:#d6d6d6;fill-opacity:1;stroke:none;stroke-width:0.9375"
       x="-131.16199"
       y="1190.1533"
       id="text2762"><tspan
         sodipodi:role="line"
         id="tspan2760"
         x="-131.16199"
         y="1200.417"
         style="stroke-width:0.9375" /></text>
    <flowRoot
       xml:space="preserve"
       id="flowRoot1559"
       style="font-size:32px;line-height:1.25;text-align:center;text-anchor:middle;fill:#d6d6d6;fill-opacity:1;stroke:none"
       transform="matrix(0.9375,0,0,0.9375,0,872.36216)"><flowRegion
         id="flowRegion1561"
         style="font-size:32px;text-align:center;text-anchor:middle"><rect
           id="rect1563"
           width="194.95944"
           height="32.324883"
           x="2.5253813"
           y="289.9848"
           style="font-size:32px;text-align:center;text-anchor:middle" /></flowRegion><flowPara
         id="flowPara1565">F</flowPara></flowRoot>    <flowRoot
       xml:space="preserve"
       id="flowRoot1571"
       style="font-size:16px;line-height:1.25;text-align:center;text-anchor:middle;fill:#000000;fill-opacity:1;stroke:none"><flowRegion
         id="flowRegion1573"
         style="font-size:16px"><rect
           id="rect1575"
           width="178.797"
           height="143.94673"
           x="12.12183"
           y="327.86551"
           style="font-size:16px" /></flowRegion><flowPara
         id="flowPara1577" /></flowRoot>    <text
       xml:space="preserve"
       style="font-size:15px;line-height:1.25;text-align:start;text-anchor:start;fill:#000000;fill-opacity:1;stroke:none;stroke-width:0.9375"
       x="61.149254"
       y="1203.885"
       id="text1581"><tspan
         sodipodi:role="line"
         id="tspan1579"
         x="61.149254"
         y="1217.5699"
         style="text-align:start;text-anchor:start;stroke-width:0.9375" /></text>
    <path
       style="fill:#000000;fill-opacity:1;stroke:none;stroke-width:0.55634534"
       d="m 67.443542,1049.9339 0.459591,-0.2692 0.173953,-2.4829 -0.355228,-3.2446 -0.613406,-0.9943 c 0,0 -0.438975,0.5872 -0.417478,0.9046 l -0.197757,1.1297 0.227053,4.3689 z m 119.591678,-0.6811 0.72326,-0.5896 0.22705,-4.3689 -0.19592,-1.128 c 0.0215,-0.3174 -0.41748,-0.9063 -0.41748,-0.9063 l -0.6134,0.9961 -0.35706,3.2428 0.17395,2.4829 z m -59.90662,-2.9425 0.30396,-1.3056 v -3.9148 l -0.53284,-1.0693 -0.60974,1.6626 -0.15382,3.2043 0.3058,1.3037 z m -60.007323,-4.8505 0.437615,-1.3806 0.243535,-2.5983 -0.146485,-3.1677 -0.584109,-0.5695 -0.388181,0.8936 -0.04944,3.7372 c 0,0 0.145753,2.1928 0.09705,2.5177 z m 120.238033,-0.683 0.38818,-0.5676 c -0.0487,-0.3249 0.097,-2.5177 0.097,-2.5177 l -0.0476,-3.7372 -0.39001,-0.8917 -0.5841,0.5676 -0.14649,3.1677 0.24353,2.5983 z m -60.3186,-2.4133 0.65002,-0.8936 0.0586,-2.0324 -0.0732,-3.6933 -0.89355,-0.1831 -0.25635,2.1845 0.0586,3.3306 z m -59.421386,-7.0276 0.258178,-2.1826 -0.06043,-3.3307 -0.454097,-1.2872 -0.651854,0.8935 -0.05859,2.0325 0.07324,3.6914 z m 119.240106,-0.6812 0.89355,-0.1831 0.0733,-3.6932 -0.0586,-2.0325 -0.65003,-0.8935 -0.45593,1.2872 -0.0586,3.3307 z m -59.84069,-1.5435 0.81848,-0.586 0.20324,-3.2648 -0.34057,-2.6788 -0.6134,-1.4227 -0.54566,0.5859 c 0.0682,0.3348 -0.1355,2.5946 -0.1355,2.5946 l 0.0678,3.8507 z m -59.908451,-6.1469 0.748894,-0.1501 v -3.8233 l -0.203241,-1.4264 -0.68115,-0.7489 -0.477909,1.2744 0.205078,3.75 z m 120.258181,-0.6811 0.41016,-1.1261 0.20324,-3.75 -0.47608,-1.2745 -0.68115,0.7489 -0.20507,1.4264 v 3.8251 z m -60.46509,-2.8235 0.6134,-0.9961 0.35523,-3.2428 -0.17212,-2.4829 -0.46142,-0.271 -0.72145,0.5896 -0.22704,4.3689 0.19592,1.1279 c -0.0215,0.3175 0.41748,0.9064 0.41748,0.9064 z m -100.535894,-3.3655 2.678831,-0.3406 1.422732,-0.6134 -0.585938,-0.5456 c -0.3348,0.068 -2.594606,-0.1355 -2.594606,-0.1355 l -3.850706,0.068 -0.921019,0.5457 0.585937,0.8166 z m 35.916141,-0.016 c 0,0 2.261625,-0.2037 2.596434,-0.1355 l 0.585938,-0.5456 -1.422732,-0.6134 -2.678831,-0.3406 -3.264769,0.2051 -0.585937,0.8166 0.921019,0.5457 z m -25.876463,-0.152 2.482903,-0.1739 0.271003,-0.4596 -0.589603,-0.7233 -4.3689,-0.227 -1.127925,0.1977 c -0.3174,-0.022 -0.906375,0.4175 -0.906375,0.4175 l 0.996094,0.6134 z m -20.216681,-0.1226 3.693244,-0.073 0.183103,-0.8935 -2.18445,-0.2564 -3.330685,0.059 -1.287234,0.4559 0.895387,0.6501 z m 36.04065,-0.04 2.032472,-0.059 0.893559,-0.65 -1.285406,-0.456 -3.332512,-0.059 -2.182622,0.2564 0.183103,0.8935 z m -5.493159,-0.04 0.15014,-0.7507 -1.126097,-0.4084 -3.75,-0.205 -1.274409,0.4779 0.748903,0.6811 1.426388,0.2051 z m -36.199951,-0.2362 1.069332,-0.5329 -1.6626004,-0.6115 -3.2025094,-0.152 -1.3055437,0.3058 -0.1190157,0.6866 1.3055438,0.304 z m 56.574094,-1.6223 0.748903,-0.1502 v -3.8232 l -0.20325,-1.4264 -0.681149,-0.7489 -0.47791,1.2744 0.205078,3.75 z m 120.254513,-0.6812 0.41016,-1.1261 0.20325,-3.75 -0.47607,-1.2744 -0.68115,0.7507 -0.20508,1.4246 v 3.8251 z m -60.5841,-2.2925 0.68115,-0.7489 0.20508,-1.4264 v -3.825 l -0.7489,-0.1483 -0.41016,1.1242 -0.20324,3.75 z m -59.349975,-4.7534 0.45959,-0.2691 0.173954,-2.483 -0.357057,-3.2446 -0.613406,-0.99429 c 0,0 -0.438975,0.589 -0.417478,0.90639 l -0.195919,1.128 0.227044,4.3688 z m 119.615475,-0.6811 0.72144,-0.5896 0.22705,-4.3689 -0.19593,-1.12799 c 0.0215,-0.3174 -0.41748,-0.9063 -0.41748,-0.9063 l -0.61339,0.9961 -0.35523,3.24279 0.17395,2.4829 z m -60.30395,-2.1827 0.89355,-0.1849 0.0732,-3.69139 -0.0586,-2.0325 -0.65185,-0.8935 -0.45411,1.2872 -0.0604,3.33069 z m -59.48365,-6.36099 0.545653,-0.586 c -0.06819,-0.3348 0.137334,-2.5946 0.137334,-2.5946 l -0.06958,-3.85069 -0.543825,-0.92102 -0.818484,0.58594 -0.205069,3.26477 0.340575,2.6788 z m 119.95789,-0.6812 0.61341,-1.2433 0.34057,-2.3419 -0.20508,-2.85095 -0.81664,-0.51269 -0.54567,0.80383 -0.0677,3.36551 c 0,0 0.2037,1.9743 0.1355,2.2668 z m -60.26184,-1.1536 0.41015,-1.1242 0.20325,-3.75002 -0.47607,-1.27442 -0.68115,0.7489 -0.20508,1.4264 v 3.82324 z m 60.23621,-6.71993 0.54565,-1.94824 0.1355,-3.75915 -0.271,-1.53077 -0.6134,-0.13916 -0.27282,1.53077 v 1.82556 l -3.22815,0.35522 -0.99427,0.61341 c 0,0 0.58711,0.43714 0.90454,0.41564 l 1.12793,0.19776 2.18995,-0.0879 v 1.27441 z m -119.935916,-0.36438 0.4779,-0.95398 v -1.16088 l 1.474003,-0.18677 1.062009,-0.45777 -0.437625,-0.40649 c -0.250003,0.0509 -1.93725,-0.10254 -1.93725,-0.10254 l -0.161137,0.004 v -1.18835 l -0.272822,-1.16638 -0.613407,0.1062 -0.272831,1.16638 0.05127,1.10046 -1.607662,0.0293 -0.686644,0.40649 0.437616,0.61158 1.913456,0.11902 0.02747,0.59509 z m 60.003656,-0.13366 0.43396,-0.79468 0.022,-1.37512 0.34241,-0.0183 1.2854,-0.54566 -0.82764,-0.47607 h -0.78186 l 0.0146,-0.90821 c 0,0 -0.16406,-1.95037 -0.10987,-2.23938 l -0.43213,-0.5072 -0.48889,1.22864 -0.27099,2.31262 0.007,0.11353 h -0.96679 l -1.01075,0.27099 0.0916,0.61341 1.01073,0.27282 0.93934,-0.0513 0.0915,1.59852 z m -28.170778,-1.66077 3.167728,-0.19958 0.56763,-0.79285 -0.89355,-0.52918 -3.735358,-0.0659 c 0,0 -2.19285,0.19803 -2.517703,0.13183 l -0.569457,0.52918 1.382447,0.59509 z m -94.4787568,-0.0989 3.2043469,-0.15197 1.6626,-0.60975 -1.0693406,-0.53466 H 4.4937077 l -1.3055437,0.30578 0.1190249,0.68665 z m 84.4427538,-0.0458 3.242793,-0.35523 0.994266,-0.61523 c 0,0 -0.587109,-0.43715 -0.904547,-0.41565 l -1.127925,-0.19776 -4.3689,0.22706 -0.589594,0.72326 0.270994,0.4596 z m -29.33716,-0.0256 1.664428,-0.20325 0.875241,-0.68115 -1.488647,-0.4779 -4.381715,0.20508 -1.314694,0.40832 0.175781,0.7489 z m -27.643434,-0.0806 4.3689,-0.22706 0.587765,-0.72326 -0.269165,-0.4596 -2.482913,-0.17395 -3.244622,0.35523 -0.994265,0.61523 c 0,0 0.588881,0.43715 0.906366,0.41565 z m 7.80945,-0.0165 3.75,-0.20508 1.124269,-0.40833 -0.15015,-0.75073 h -3.825075 l -1.42456,0.20508 -0.748903,0.68115 z m 100.848995,-0.002 4.36707,-0.22705 0.5896,-0.72143 -0.271,-0.46143 -2.48291,-0.17212 -3.24279,0.35523 -0.99427,0.6134 c 0,0 0.58711,0.43898 0.90455,0.41748 z m 16.90796,-0.0146 3.75,-0.20325 1.1261,-0.41016 -0.15014,-0.7489 h -3.82508 l -1.42456,0.20508 -0.75073,0.68115 z m -9.10034,-0.002 3.75,-0.20325 1.1261,-0.41016 -0.15015,-0.7489 H 149.44 l -1.42457,0.20508 -0.75073,0.68115 z m -65.991215,-0.0623 1.424559,-0.20508 0.750741,-0.68115 -1.274419,-0.47791 -3.75,0.20508 -1.126097,0.40833 0.15015,0.75073 z m 37.439585,-0.0147 1.6571,-0.20325 0.87159,-0.68298 -1.48316,-0.47607 -4.36158,0.20507 -1.3092,0.40833 0.17395,0.7489 z m -94.828498,-0.005 c 0,0 2.259807,-0.2037 2.594607,-0.1355 l 0.585937,-0.54565 -1.422731,-0.61341 -2.678831,-0.34057 -3.264769,0.20507 -0.585938,0.81666 0.921019,0.54565 z m 108.667608,-0.0183 2.21374,-0.28015 1.17554,-0.50354 -0.4834,-0.44678 c -0.27666,0.056 -2.14416,-0.1117 -2.14416,-0.1117 l -3.18238,0.0549 -0.76171,0.4486 0.48523,0.67017 z m -61.182867,-0.0238 2.863772,-0.13549 1.483153,-0.54566 -0.953981,-0.47607 h -3.499144 l -1.166381,0.27282 0.1062,0.61341 z m 105.280157,-0.011 c 0,0 2.19286,-0.14575 2.5177,-0.097 l 0.56762,-0.39001 -1.38061,-0.43762 -2.59827,-0.24354 -3.16772,0.14649 -0.56763,0.58411 0.89355,0.39001 z m -70.22644,-0.007 3.82324,-0.0586 1.47583,-0.45593 -1.02539,-0.65186 -2.33094,-0.0586 -4.23889,0.0732 -0.21057,0.89355 z m 59.31335,-0.011 3.69324,-0.0732 0.1831,-0.89356 -2.18445,-0.25818 -3.33068,0.0604 -1.28723,0.4541 0.89538,0.65185 z m -118.601076,-0.009 3.330693,-0.0586 1.287225,-0.45593 -0.89355,-0.65003 -2.032472,-0.0586 -3.693234,0.0732 -0.183112,0.89355 z m -32.656857,-0.0385 2.184441,-0.25818 -0.183103,-0.89355 -3.693235,-0.0733 -2.032472,0.0586 -0.89355,0.65185 1.287225,0.4541 z m 51.708985,-5.84106 0.476072,-1.27625 -0.20325,-3.75 -0.410157,-1.12427 -0.748903,0.15015 v 3.82507 l 0.205078,1.42456 z m 119.556878,-0.68299 0.68115,-0.75073 0.20325,-1.42456 v -3.82507 l -0.7489,-0.15015 -0.40833,1.1261 -0.20507,3.75 z m -59.66674,-0.30395 0.27282,-1.16638 v -3.49915 l -0.47607,-0.95398 -0.54565,1.48315 -0.1355,2.86377 0.27099,1.16639 z m -60.278329,-6.73279 0.650025,-0.89539 0.05859,-2.03064 -0.07324,-3.69323 -0.893559,-0.18311 -0.256341,2.18445 0.05859,3.33069 z m 120.333259,-0.68298 0.4541,-1.28724 0.0604,-3.33068 -0.25817,-2.18445 -0.89355,0.1831 -0.0732,3.69324 0.0586,2.03064 z m -60.271,-0.542 0.40833,-1.1261 0.20508,-3.75 -0.47791,-1.27441 -0.68115,0.75073 -0.20325,1.42456 v 3.82508 z m -59.930418,-7.65014 0.529172,-0.89356 0.06591,-3.73535 c 0,0 -0.198028,-2.19285 -0.131831,-2.5177 l -0.529172,-0.56946 -0.595097,1.38062 -0.329587,2.6001 0.197756,3.16589 z m 59.609988,-0.0769 0.72327,-0.5896 0.22705,-4.36889 -0.19593,-1.12793 c 0.0215,-0.31743 -0.41748,-0.90638 -0.41748,-0.90638 l -0.6134,0.9961 -0.35706,3.2428 0.17395,2.48291 z m 60.45776,-0.60608 0.79285,-0.56762 0.19958,-3.16773 -0.33142,-2.6001 -0.59509,-1.38061 -0.52918,0.56946 c 0.0662,0.32485 -0.13183,2.5177 -0.13183,2.5177 l 0.0659,3.73535 z m -60.30944,-8.20495 0.52917,-0.56763 c -0.0662,-0.32485 0.13184,-2.5177 0.13183,-2.5177 l -0.0659,-3.73535 -0.52917,-0.89356 -0.79284,0.56763 -0.19776,3.16773 0.32959,2.59826 z m -59.635627,-0.64637 c 0,0 0.438975,-0.58711 0.417478,-0.90454 l 0.195928,-1.12976 -0.227053,-4.36889 -0.723272,-0.58778 -0.45959,0.26917 -0.173953,2.48291 0.357056,3.24463 z m 119.824217,-0.68298 0.61341,-0.99426 0.35522,-3.2428 -0.17395,-2.48291 -0.4596,-0.27099 -0.72326,0.58959 -0.22705,4.36707 0.19776,1.12976 c -0.0215,0.31743 0.41747,0.90454 0.41747,0.90454 z m -119.705201,-7.88452 0.477909,-1.27624 -0.205078,-3.75 -0.408328,-1.12427 -0.748903,0.15014 v 3.82508 l 0.20325,1.42456 z m 59.192501,-0.57312 0.89356,-0.18311 0.0732,-3.69323 -0.0586,-2.03065 -0.65003,-0.89537 -0.45592,1.28722 -0.0586,3.33069 z m 60.39185,-0.10986 0.68116,-0.75073 0.20507,-1.42456 v -3.82508 l -0.75073,-0.15015 -0.40832,1.1261 -0.20508,3.75 z m -119.875492,-7.34619 0.477909,-1.13526 v -4.16199 l -0.272822,-1.38794 -0.613406,0.12635 -0.272831,1.38793 0.137334,3.40577 z m 120.166632,-0.68115 0.54565,-1.485 0.1355,-2.86376 -0.27282,-1.16638 -0.61341,-0.10621 -0.27099,1.16638 v 3.49916 z m -60.17395,-0.23438 0.41015,-1.1261 0.20325,-3.75 -0.47607,-1.27442 -0.68116,0.75074 -0.20507,1.42456 v 3.82507 z m -60.084229,-6.83899 0.545653,-0.58593 c -0.0682,-0.33483 0.137325,-2.59461 0.137325,-2.59461 l -0.0073,-0.39551 2.232057,-0.28381 1.422731,-0.61341 -0.585938,-0.54382 c -0.334828,0.0682 -2.596434,-0.13733 -2.596434,-0.13733 l -0.499875,0.009 -0.03479,-1.88598 -0.543825,-0.92103 -0.818484,0.58594 -0.140991,2.24854 -1.810912,0.0311 -0.921019,0.54567 0.585938,0.81847 2.147822,0.13367 0.274659,2.16614 z m 120.172119,-0.0311 0.6134,-1.42456 0.34058,-2.67883 -0.20325,-3.26294 -0.81848,-0.58594 -0.54565,0.91919 -0.033,1.86035 -1.29822,0.25269 -0.99426,0.6134 c 0,0 0.58711,0.43899 0.90454,0.41748 l 1.12793,0.19592 0.23621,-0.0879 -0.011,0.59876 c 0,0 0.2037,2.26161 0.1355,2.59643 z m -59.92126,-1.073 0.27282,-1.16638 V 925.671 l 1.10229,-0.0421 1.87135,-0.54382 -1.20301,-0.47791 h -1.77063 v -0.9851 l -0.4779,-0.95398 -0.54565,1.48315 -0.022,0.45593 h -1.59484 l -1.47034,0.27283 0.13367,0.6134 1.47033,0.27283 1.40991,-0.0531 -0.0623,1.30188 0.27283,1.16638 z m -26.42213,-2.34008 3.16773,-0.19776 0.56763,-0.79468 -0.89356,-0.52917 -3.735348,-0.0659 c 0,0 -2.192859,0.19804 -2.517703,0.13183 l -0.569456,0.52918 1.380619,0.59509 z m 34.07044,-0.0934 2.15698,-0.34057 1.14625,-0.61341 -0.47242,-0.54565 c -0.2696,0.0682 -2.08923,-0.1355 -2.08923,-0.1355 l -3.10181,0.0677 -0.74157,0.54565 0.4724,0.81848 z m -128.5491942,-0.005 3.2043469,-0.15198 1.6607623,-0.60974 -1.067503,-0.53467 H 6.2972983 l -1.3055437,0.30579 0.1190156,0.68664 z m 84.4427532,-0.0458 3.242794,-0.35523 0.994266,-0.61339 c 0,0 -0.587119,-0.43899 -0.904547,-0.41749 l -1.127925,-0.19592 -4.3689,0.22705 -0.589594,0.72144 0.270994,0.46143 z m -30.659184,-0.0238 1.426387,-0.20508 0.748904,-0.68115 -1.27441,-0.47791 -3.75,0.20508 -1.124269,0.40833 0.148313,0.75073 z m -26.321409,-0.0824 4.36889,-0.22705 0.587775,-0.72326 -0.269165,-0.4596 -2.482913,-0.17395 -3.244631,0.35706 -0.994257,0.61339 c 0,0 0.587035,0.43899 0.904538,0.41749 z m 40.274043,-0.009 2.863772,-0.13732 1.484981,-0.54566 -0.955809,-0.47607 h -3.497316 l -1.166381,0.27282 0.104372,0.61341 z m 68.382571,-0.007 4.36889,-0.22705 0.58961,-0.72327 -0.271,-0.45959 -2.48291,-0.17395 -3.24279,0.35522 -0.99427,0.61523 c 0,0 0.58712,0.43716 0.90454,0.41565 z m -100.847165,0 3.75,-0.20508 1.124269,-0.40833 -0.15015,-0.74889 h -3.825075 l -1.424559,0.20324 -0.748903,0.68116 z m 117.756955,-0.0146 3.75,-0.20508 1.1261,-0.40833 -0.15015,-0.75073 h -3.82507 l -1.42456,0.20508 -0.75074,0.68115 z m -9.10034,-0.002 3.75,-0.20508 1.1261,-0.40832 -0.15015,-0.75074 h -3.82508 l -1.42455,0.20509 -0.75074,0.68115 z m -41.45691,-0.0604 3.33069,-0.0586 1.28723,-0.45593 -0.89538,-0.65185 -2.03065,-0.0568 -3.69323,0.0733 -0.18311,0.89355 z m -24.534305,-0.004 1.42456,-0.20508 0.750731,-0.68115 -1.274409,-0.47607 -3.75,0.20325 -1.126097,0.41016 0.15014,0.74889 z m 34.696665,-0.0128 1.42456,-0.20508 0.75073,-0.68115 -1.27442,-0.47791 -3.75,0.20508 -1.1261,0.40832 0.15015,0.75074 z m -92.085577,-0.006 c 0,0 2.259806,-0.20553 2.594606,-0.13732 l 0.585938,-0.54383 -1.422731,-0.6134 -2.678832,-0.34241 -3.264778,0.20508 -0.585937,0.81848 0.921028,0.54566 z m 152.764897,-0.0531 c 0,0 2.19286,-0.14574 2.51769,-0.097 l 0.56763,-0.39002 -1.38061,-0.43762 -2.59827,-0.24353 -3.16772,0.14466 -0.56763,0.5841 0.89355,0.39002 z m -10.91309,-0.0201 3.69323,-0.0732 0.18311,-0.89355 -2.18445,-0.25635 -3.33069,0.0586 -1.28722,0.45594 0.89538,0.65002 z m -118.601076,-0.007 3.330685,-0.0604 1.287234,-0.4541 -0.89355,-0.65186 -2.032472,-0.0586 -3.693244,0.0732 -0.183103,0.89355 z m -32.656856,-0.0403 2.184441,-0.25818 -0.183103,-0.89356 -3.693235,-0.0732 -2.032472,0.0586 -0.893559,0.65185 1.287234,0.4541 z m 109.597772,-4.47144 0.54383,-0.92102 0.0696,-3.85071 c 0,0 -0.20553,-2.25981 -0.13734,-2.59461 l -0.54381,-0.58593 -0.61341,1.42273 -0.3424,2.67883 0.20507,3.26478 z m -59.707031,-0.6189 0.476071,-1.27442 -0.20324,-3.75 -0.410156,-1.12426 -0.748904,0.15015 v 3.82507 l 0.20325,1.42456 z m 119.763801,-0.0311 0.68115,-0.7489 0.20508,-1.4264 v -3.82508 l -0.75074,-0.15014 -0.40832,1.1261 -0.20508,3.75 z m -120.034795,-6.85914 0.651853,-0.89538 0.05859,-2.03064 -0.07324,-3.69324 -0.893559,-0.1831 -0.258178,2.18445 0.05859,3.33068 z m 120.126345,-0.68298 0.45593,-1.28723 0.0586,-3.33069 -0.25634,-2.18445 -0.89356,0.18311 -0.0732,3.69323 0.0586,2.03248 z m -60.38269,-1.99402 0.6134,-0.99426 0.35706,-3.2428 -0.17395,-2.48291 -0.45959,-0.27099 -0.72328,0.5896 -0.22704,4.36706 0.19592,1.12976 c -0.0215,0.3174 0.41748,0.90454 0.41748,0.90454 z m -59.824224,-5.59387 0.748903,-0.15014 v -3.82508 l -0.205078,-1.42456 -0.68115,-0.75073 -0.476072,1.27624 0.203241,3.75 z m 120.289314,-0.68298 0.40832,-1.12427 0.20508,-3.75 -0.4779,-1.27442 -0.68116,0.7489 -0.20508,1.42456 v 3.82508 z m -60.58411,-2.29065 0.68115,-0.75073 0.20325,-1.42456 v -3.82508 l -0.7489,-0.15015 -0.40833,1.1261 -0.20508,3.75 z m -59.386595,-4.75342 0.459591,-0.26916 0.173953,-2.48292 -0.355228,-3.24463 -0.613406,-0.99426 c 0,0 -0.438975,0.58704 -0.417478,0.90454 l -0.195919,1.12977 0.227044,4.36889 z m 119.650265,-0.68299 0.72327,-0.58776 0.22705,-4.3689 -0.19776,-1.12976 c 0.0215,-0.3175 -0.41565,-0.90454 -0.41565,-0.90454 l -0.61523,0.99426 -0.35522,3.24463 0.17394,2.48291 z m -60.2655,-3.66393 0.68115,-0.75073 0.20324,-1.42457 V 887.135 l -0.74889,-0.15015 -0.40833,1.1261 -0.20508,3.75 z m -59.536743,-4.34327 0.613397,-1.42456 0.340575,-2.67883 -0.205078,-3.26477 -0.816647,-0.58411 -0.545653,0.91919 -0.06775,3.85071 c 0,0 0.203691,2.2598 0.135506,2.5946 z m 119.954223,-0.68298 0.54565,-0.58594 c -0.0682,-0.3348 0.13733,-2.5946 0.13733,-2.5946 l -0.0696,-3.85071 -0.54383,-0.92102 -0.81848,0.58594 -0.20508,3.26477 0.34057,2.67883 z m -60.0293,-2.69348 0.4541,-1.28723 0.0604,-3.33069 -0.25818,-2.18445 -0.89356,0.18311 -0.0732,3.69323 0.0586,2.03064 z m -60.228879,-7.02759 0.89355,-0.1831 0.07325,-3.69325 -0.05859,-2.03063 -0.650025,-0.89356 -0.455934,1.28541 -0.05859,3.33251 z m 120.562139,-0.68115 0.25818,-2.18445 -0.0604,-3.33069 -0.45409,-1.28723 -0.65186,0.89355 -0.0586,2.03247 0.0732,3.69141 z m -60.6244,-1.50147 0.58411,-0.56762 0.14649,-3.16773 -0.24354,-2.59827 -0.43761,-1.38061 -0.39002,0.56763 c 0.0487,0.3248 -0.097,2.51769 -0.097,2.51769 l 0.0494,3.73536 z m -59.820551,-6.27685 0.532837,-1.06751 v -3.91663 l -0.303956,-1.30553 -0.686644,0.11901 -0.305794,1.30555 0.151978,3.20434 z m 120.329591,-0.68298 0.60974,-1.66077 0.15198,-3.20435 -0.30396,-1.30554 -0.68664,-0.11719 -0.30579,1.30371 v 3.91663 z m -60.47242,-2.23939 0.61341,-0.99426 0.35523,-3.2428 -0.17396,-2.4829 -0.45959,-0.271 -0.72327,0.5896 -0.22705,4.36706 0.19775,1.12976 c -0.0215,0.31751 0.41748,0.90454 0.41748,0.90454 z"
       id="path1822-2"
       inkscape:connector-curvature="0" />
    <g
       id="g1568"
       transform="matrix(0,0.92019236,-0.92019236,0,977.98367,751.12145)">
      <g
         inkscape:export-ydpi="192.86"
         inkscape:export-xdpi="192.86"
         inkscape:export-filename="C:\Users\AntonTesh\Desktop\Back.png"
         transform="translate(-0.2367545,60.433236)"
         id="g2082">
        <path
           style="fill:#e9346d;fill-opacity:1;stroke:none;stroke-width:1"
           d="M 287.86719,79.587891 281.61914,82 l -3.0293,3.892578 -0.9707,6.501953 2.67969,5.714844 5,3.793805 1.80859,1.99302 0.35352,3.21289 0.7034,6.30971 0.44141,0.31446 0.88477,-0.37891 1.16657,-6.74916 0.88671,-2.79493 1.4336,-2.08481 5.08901,-4.330919 2.76757,-5.714843 -0.71484,-5.357422 -4.28516,-4.375 -3.94921,-2.201172 z"
           id="path2049"
           transform="matrix(0.9375,0,0,0.9375,0,872.36216)"
           inkscape:connector-curvature="0"
           sodipodi:nodetypes="cccccccccccccccccccc" />
        <path
           style="fill:#f28aab;fill-opacity:1;stroke:none;stroke-width:0.9375"
           d="m 269.15457,948.48381 h 0.79521 l 1.13001,0.62779 0.16742,0.62779 -1.17187,0.62779 -2.67858,0.50223 -1.79966,1.00447 -1.25559,1.08817 -0.29297,-0.41853 0.16742,-0.54408 2.51116,-2.42746 z"
           id="path2056"
           inkscape:connector-curvature="0" />
      </g>
    </g>
    <g
       id="g1563"
       transform="matrix(0,0.92019236,-0.92019236,0,978.21804,753.23075)">
      <g
         inkscape:export-ydpi="192.86"
         inkscape:export-xdpi="192.86"
         inkscape:export-filename="C:\Users\AntonTesh\Desktop\Back.png"
         transform="translate(-0.11837725,59.722972)"
         id="g2078">
        <path
           style="fill:#19b6e3;fill-opacity:1;stroke:none;stroke-width:0.9375"
           d="m 302.99754,947.42081 5.85755,2.26135 2.83997,3.64929 0.91003,6.09559 -2.51221,5.35766 -4.6875,3.55669 -1.69555,1.86846 -0.33143,3.01208 -0.65944,5.91536 -0.41382,0.2948 -0.82947,-0.35522 -1.09366,-6.32734 -0.83129,-2.62025 -1.344,-1.95451 -4.77095,-4.06023 -2.59459,-5.35767 0.67016,-5.02258 4.01734,-4.10157 3.70238,-2.06359 z"
           id="path2049-3"
           inkscape:connector-curvature="0"
           sodipodi:nodetypes="cccccccccccccccccccc" />
        <path
           style="fill:#79d5f0;fill-opacity:1;stroke:none;stroke-width:0.9375"
           d="m 299.72782,948.92884 h 0.79521 l 1.13001,0.62779 0.16741,0.62779 -1.17186,0.62779 -2.67858,0.50223 -1.79966,1.00447 -1.2556,1.08817 -0.29297,-0.41853 0.16742,-0.54408 2.51117,-2.42746 z"
           id="path2056-9"
           inkscape:connector-curvature="0" />
      </g>
    </g>
    <flowRoot
       xml:space="preserve"
       id="flowRoot1583"
       style="font-style:normal;font-variant:normal;font-weight:normal;font-stretch:normal;font-size:8px;line-height:1;font-family:Roboto;-inkscape-font-specification:'Roboto, Normal';font-variant-ligatures:normal;font-variant-caps:normal;font-variant-numeric:normal;font-feature-settings:normal;text-align:start;writing-mode:lr-tb;text-anchor:start;fill:#000000;fill-opacity:1;stroke:none"
       transform="matrix(0,0.9375,-0.9375,0,617.90436,887.29615)"
       inkscape:export-filename="C:\Users\AntonTesh\Desktop\Back.png"
       inkscape:export-xdpi="192.86"
       inkscape:export-ydpi="192.86"><flowRegion
         id="flowRegion1585"
         style="font-style:normal;font-variant:normal;font-weight:normal;font-stretch:normal;font-size:8px;font-family:Roboto;-inkscape-font-specification:'Roboto, Normal';font-variant-ligatures:normal;font-variant-caps:normal;font-variant-numeric:normal;font-feature-settings:normal;text-align:start;writing-mode:lr-tb;text-anchor:start"><rect
           id="rect1587"
           width="162.50432"
           height="149.71002"
           x="1.2137291"
           y="330.34741"
           style="font-style:normal;font-variant:normal;font-weight:normal;font-stretch:normal;font-size:8px;font-family:Roboto;-inkscape-font-specification:'Roboto, Normal';font-variant-ligatures:normal;font-variant-caps:normal;font-variant-numeric:normal;font-feature-settings:normal;text-align:start;writing-mode:lr-tb;text-anchor:start" /></flowRegion><flowPara
         id="flowPara970">⦁	Tear the pieces on the dotted lines</flowPara><flowPara
         id="flowPara972">⦁	Place the base tokens far apart and put the flags on them</flowPara><flowPara
         id="flowPara974">⦁	Place each player next to their colored base</flowPara><flowPara
         id="flowPara976">⦁	Place other business cards down as walls</flowPara><flowPara
         id="flowPara978">⦁	Players take turns flicking their pieces</flowPara><flowPara
         id="flowPara980">⦁	If a player hits the other team's flag they pick it up</flowPara><flowPara
         id="flowPara982">⦁	If a player hits someone on the other team the other player goes back to their base</flowPara><flowPara
         id="flowPara984">⦁	If a player with a flag is hit they drop the flag where they are and go back to their base</flowPara><flowPara
         id="flowPara986">⦁	The first team to bring the opposing team's flag back to their base wins!</flowPara></flowRoot>    <text
       xml:space="preserve"
       style="font-size:26.678545px;line-height:1.25;text-align:center;text-anchor:middle;fill:#d6d6d6;fill-opacity:1;stroke:none;stroke-width:0.83370453"
       x="254.49249"
       y="882.46515"
       id="text1569"
       inkscape:export-filename="C:\Users\AntonTesh\Desktop\Back.png"
       inkscape:export-xdpi="192.86"
       inkscape:export-ydpi="192.86"><tspan
         sodipodi:role="line"
         id="tspan1567"
         x="254.49249"
         y="882.46515"
         style="font-style:normal;font-variant:normal;font-weight:bold;font-stretch:normal;font-size:17.5px;font-family:Roboto;-inkscape-font-specification:'Roboto, Bold';font-variant-ligatures:normal;font-variant-caps:normal;font-variant-numeric:normal;font-feature-settings:normal;text-align:center;writing-mode:lr-tb;text-anchor:middle;fill:#000000;fill-opacity:1;stroke-width:0.83370453">Flag Capture</tspan></text>
    <text
       xml:space="preserve"
       style="font-style:normal;font-variant:normal;font-weight:normal;font-stretch:normal;font-size:10px;line-height:1.25;font-family:Roboto;-inkscape-font-specification:Roboto;text-align:start;writing-mode:lr-tb;text-anchor:start;fill:#ffffff;fill-opacity:1;stroke:none;stroke-width:0.9375"
       x="-175.63216"
       y="1066.959"
       id="text2677"><tspan
         sodipodi:role="line"
         id="tspan2675"
         x="-175.63216"
         y="1075.709"
         style="stroke-width:0.9375" /></text>
    <text
       xml:space="preserve"
       style="font-style:normal;font-variant:normal;font-weight:normal;font-stretch:normal;font-size:7.5px;line-height:1;font-family:Roboto;-inkscape-font-specification:'Roboto, Normal';font-variant-ligatures:normal;font-variant-caps:normal;font-variant-numeric:normal;font-feature-settings:normal;text-align:start;writing-mode:lr-tb;text-anchor:start;fill:#ffffff;fill-opacity:1;stroke:none;stroke-width:0.9375"
       x="-248.38139"
       y="905.53082"
       id="text2735"><tspan
         sodipodi:role="line"
         id="tspan2733"
         x="-248.38139"
         y="911.15582"
         style="stroke-width:0.9375" /></text>
    <g
       id="g1578"
       transform="matrix(0,0.92019236,-0.92019236,0,978.45242,748.19165)">
      <g
         inkscape:export-ydpi="192.86"
         inkscape:export-xdpi="192.86"
         inkscape:export-filename="C:\Users\AntonTesh\Desktop\Back.png"
         transform="translate(-541.26935,-694.88468)"
         id="g2298">
        <path
           style="fill:#19b6e3;fill-opacity:1;stroke:none;stroke-width:1.26120162"
           d="m 744.88438,1718.7453 c 0,0 2.44501,8.4871 2.86247,9.0751 0.41736,0.588 7.78703,7.7789 7.78703,7.7789 l 7.50895,2.8001 c 0,0 10.41379,-0.6424 11.22007,-0.9345 0.80648,-0.292 9.27931,-8.3775 9.27931,-8.3775 l 3.62963,-10.1684 -1.22397,-10.1089 c 0,0 -4.95043,-8.0671 -5.9236,-8.7998 -0.97298,-0.7326 -13.16499,-4.4785 -13.73352,-4.3984 -0.56864,0.08 -8.48066,2.3326 -9.06231,2.6375 -0.58145,0.305 -6.80465,4.572 -7.16773,5.0023 -0.36308,0.4303 -3.66059,6.7828 -3.81821,7.5633 -0.15803,0.7805 -1.35812,7.9303 -1.35812,7.9303 z"
           id="path1709-59"
           inkscape:connector-curvature="0" />
      </g>
      <path
         inkscape:export-ydpi="192.86"
         inkscape:export-xdpi="192.86"
         inkscape:export-filename="C:\Users\AntonTesh\Desktop\Back.png"
         inkscape:connector-curvature="0"
         id="path4438-2-0-4-2"
         d="m 219.94462,1028.114 2.97938,-0.6621 7.50365,-0.2207 3.20009,0.3311 0.55173,1.3241 -2.538,2.9794 -3.75181,2.3173 c 0,0 -2.0966,-0.1102 -2.75871,-0.3311 -0.66207,-0.2207 -5.07598,-3.4207 -5.07598,-3.4207 z"
         style="fill:#121212;fill-opacity:1;fill-rule:nonzero;stroke:none;stroke-width:0.08125677" />
      <path
         inkscape:export-ydpi="192.86"
         inkscape:export-xdpi="192.86"
         inkscape:export-filename="C:\Users\AntonTesh\Desktop\Back.png"
         id="path4513-60-9-7"
         d="m 222.64675,1030.3218 -1.56418,0.8303 c 1.21437,0.8703 3.5409,2.5321 4.05527,2.7035 0.66209,0.2207 2.76146,0.3283 2.76146,0.3283 l 0.71451,-0.4441 0.0966,-1.3711 -2.37525,-1.7187 z"
         style="fill:#ff7c2b;fill-opacity:1;fill-rule:nonzero;stroke:none;stroke-width:0.08125677"
         inkscape:connector-curvature="0" />
      <path
         inkscape:export-ydpi="192.86"
         inkscape:export-xdpi="192.86"
         inkscape:export-filename="C:\Users\AntonTesh\Desktop\Back.png"
         sodipodi:nodetypes="ccccccccc"
         inkscape:connector-curvature="0"
         id="path4440-3-2-6-7"
         d="m 208.9286,1025.151 3.16864,0.2438 1.21871,1.5843 -1.58431,2.3156 -5.36232,0.7311 -3.04678,-0.9749 0.24375,-2.9249 1.94994,-0.975 z"
         style="fill:#76defb;fill-opacity:1;fill-rule:nonzero;stroke:none;stroke-width:0.08125677" />
      <path
         inkscape:export-ydpi="192.86"
         inkscape:export-xdpi="192.86"
         inkscape:export-filename="C:\Users\AntonTesh\Desktop\Back.png"
         sodipodi:nodetypes="ccccccccc"
         inkscape:connector-curvature="0"
         id="path4440-5-2-8-8-8"
         d="m 245.72333,1024.9238 2.67074,0.2054 1.0272,1.3355 -1.33537,1.9517 -4.5197,0.6162 -2.56803,-0.8217 0.20545,-2.4653 1.64353,-0.8218 z"
         style="fill:#76defb;fill-opacity:1;fill-rule:nonzero;stroke:none;stroke-width:0.08125677" />
      <path
         inkscape:export-ydpi="192.86"
         inkscape:export-xdpi="192.86"
         inkscape:export-filename="C:\Users\AntonTesh\Desktop\Back.png"
         sodipodi:nodetypes="ccccccccccc"
         inkscape:connector-curvature="0"
         id="path4436-4-65-6-0"
         d="m 245.45768,1015.0891 -4.49796,-1.012 -3.82328,0.5622 -2.58633,4.1607 0.44979,3.7108 4.04817,3.3734 3.82328,0.1125 2.58633,-1.3495 2.02408,-3.2609 -0.44979,-3.9358 z"
         style="fill:#121212;fill-opacity:1;fill-rule:nonzero;stroke:none;stroke-width:0.08125677" />
      <path
         inkscape:export-ydpi="192.86"
         inkscape:export-xdpi="192.86"
         inkscape:export-filename="C:\Users\AntonTesh\Desktop\Back.png"
         inkscape:connector-curvature="0"
         id="path3666-1-8-5-4"
         d="m 211.88608,1014.9701 -3.02259,0.9068 -1.9143,3.7279 c 0,0 0.50377,4.9368 0.90677,5.0376 0.40302,0.1009 4.43314,1.209 4.83615,1.5112 0.40301,0.3024 4.63464,-1.4105 4.63464,-1.4105 l 1.61204,-4.1308 -1.30979,-3.6271 -2.41807,-2.1158 z"
         style="fill:#121212;fill-opacity:1;fill-rule:nonzero;stroke:none;stroke-width:0.08125677" />
    </g>
    <g
       id="g1588"
       transform="matrix(0,0.92019236,-0.92019236,0,979.38992,743.97295)">
      <g
         style="fill:#e9346d;fill-opacity:1"
         inkscape:export-ydpi="192.86"
         inkscape:export-xdpi="192.86"
         inkscape:export-filename="C:\Users\AntonTesh\Desktop\Back.png"
         transform="translate(-604.94838,-646.08151)"
         id="g2294">
        <path
           style="fill:#e9346d;fill-opacity:1;stroke:none;stroke-width:1.26120162"
           d="m 767.08395,1647.3279 c 0,0 -8.33293,2.9278 -8.89597,3.3783 -0.56304,0.4504 -7.31948,8.2203 -7.31948,8.2203 l -2.36475,7.6572 c 0,0 1.23869,10.3599 1.57651,11.1481 0.3378,0.7884 8.89597,8.7835 8.89597,8.7835 l 10.35986,3.0403 10.02205,-1.8017 c 0,0 7.76992,-5.4051 8.44556,-6.4186 0.67564,-1.0134 3.71603,-13.4002 3.60341,-13.9632 -0.1126,-0.5632 -2.81517,-8.333 -3.153,-8.8961 -0.3378,-0.563 -4.95471,-6.5312 -5.40514,-6.869 -0.45043,-0.3378 -6.98165,-3.2655 -7.76989,-3.3781 -0.78825,-0.1131 -7.99513,-0.901 -7.99513,-0.901 z"
           id="path1709-4"
           inkscape:connector-curvature="0" />
      </g>
      <path
         inkscape:export-ydpi="192.86"
         inkscape:export-xdpi="192.86"
         inkscape:export-filename="C:\Users\AntonTesh\Desktop\Back.png"
         inkscape:connector-curvature="0"
         id="path4438-2-0-4-2-6"
         d="m 159.19902,1028.5647 2.97938,-0.6621 7.50365,-0.2207 3.20009,0.3311 0.55173,1.3241 -2.538,2.9794 -3.75181,2.3173 c 0,0 -2.0966,-0.1102 -2.75871,-0.3311 -0.66207,-0.2207 -5.07598,-3.4207 -5.07598,-3.4207 z"
         style="fill:#121212;fill-opacity:1;fill-rule:nonzero;stroke:none;stroke-width:0.08125678" />
      <path
         inkscape:export-ydpi="192.86"
         inkscape:export-xdpi="192.86"
         inkscape:export-filename="C:\Users\AntonTesh\Desktop\Back.png"
         id="path4513-60-9-7-8"
         d="m 161.90115,1030.7725 -1.56418,0.8303 c 1.21437,0.8703 3.5409,2.5321 4.05527,2.7035 0.66209,0.2207 2.76146,0.3283 2.76146,0.3283 l 0.71451,-0.4441 0.0966,-1.3711 -2.37525,-1.7187 z"
         style="fill:#ff7c2b;fill-opacity:1;fill-rule:nonzero;stroke:none;stroke-width:0.08125678"
         inkscape:connector-curvature="0" />
      <path
         inkscape:export-ydpi="192.86"
         inkscape:export-xdpi="192.86"
         inkscape:export-filename="C:\Users\AntonTesh\Desktop\Back.png"
         sodipodi:nodetypes="ccccccccc"
         inkscape:connector-curvature="0"
         id="path4440-3-2-6-7-4"
         d="m 148.183,1025.6017 3.16864,0.2438 1.21871,1.5843 -1.58431,2.3156 -5.36232,0.7311 -3.04678,-0.9749 0.24375,-2.9249 1.94994,-0.975 z"
         style="fill:#fa92b3;fill-opacity:1;fill-rule:nonzero;stroke:none;stroke-width:0.08125678" />
      <path
         inkscape:export-ydpi="192.86"
         inkscape:export-xdpi="192.86"
         inkscape:export-filename="C:\Users\AntonTesh\Desktop\Back.png"
         sodipodi:nodetypes="ccccccccc"
         inkscape:connector-curvature="0"
         id="path4440-5-2-8-8-8-7"
         d="m 184.97773,1025.3745 2.67074,0.2054 1.0272,1.3355 -1.33537,1.9517 -4.5197,0.6162 -2.56803,-0.8217 0.20545,-2.4653 1.64353,-0.8218 z"
         style="fill:#fa92b3;fill-opacity:1;fill-rule:nonzero;stroke:none;stroke-width:0.08125678" />
      <path
         inkscape:export-ydpi="192.86"
         inkscape:export-xdpi="192.86"
         inkscape:export-filename="C:\Users\AntonTesh\Desktop\Back.png"
         sodipodi:nodetypes="ccccccccccc"
         inkscape:connector-curvature="0"
         id="path4436-4-65-6-0-0"
         d="m 184.71208,1015.5398 -4.49796,-1.012 -3.82328,0.5622 -2.58633,4.1607 0.44979,3.7108 4.04817,3.3734 3.82328,0.1125 2.58633,-1.3495 2.02408,-3.2609 -0.44979,-3.9358 z"
         style="fill:#121212;fill-opacity:1;fill-rule:nonzero;stroke:none;stroke-width:0.08125678" />
      <path
         inkscape:export-ydpi="192.86"
         inkscape:export-xdpi="192.86"
         inkscape:export-filename="C:\Users\AntonTesh\Desktop\Back.png"
         inkscape:connector-curvature="0"
         id="path3666-1-8-5-4-4"
         d="m 151.14048,1015.4208 -3.02259,0.9068 -1.9143,3.7279 c 0,0 0.50377,4.9368 0.90677,5.0376 0.40302,0.1009 4.43314,1.209 4.83615,1.5112 0.40301,0.3024 4.63464,-1.4105 4.63464,-1.4105 l 1.61204,-4.1308 -1.30979,-3.6271 -2.41807,-2.1158 z"
         style="fill:#121212;fill-opacity:1;fill-rule:nonzero;stroke:none;stroke-width:0.08125678" />
    </g>
    <g
       id="g1606"
       transform="matrix(0,0.92019236,-0.92019236,0,982.90554,743.50415)">
      <path
         inkscape:export-ydpi="192.86"
         inkscape:export-xdpi="192.86"
         inkscape:export-filename="C:\Users\AntonTesh\Desktop\Back.png"
         style="fill:#e9346d;fill-opacity:1;stroke:none;stroke-width:0.91046178;stroke-opacity:1"
         d="m 167.56283,941.14144 -2.62938,-1.94346 -3.65826,-0.68592 -3.54396,1.82913 -15.20467,36.92565 c 0,0 -1.02889,3.88692 -0.91457,4.3442 0.11432,0.45728 1.37185,2.28642 1.37185,2.28642 l 3.42962,0.91456 38.75479,-1.94345 2.05778,-1.48617 c 0,0 1.94345,-1.6005 1.94345,-3.08668 0,-1.48616 -0.91457,-3.31529 -0.91457,-3.31529 z"
         id="path1623"
         inkscape:connector-curvature="0" />
      <path
         inkscape:export-ydpi="192.86"
         inkscape:export-xdpi="192.86"
         inkscape:export-filename="C:\Users\AntonTesh\Desktop\Back.png"
         style="fill:#121212;fill-opacity:1;fill-rule:nonzero;stroke:none;stroke-width:0.08125678"
         d="m 159.19902,969.29944 2.97938,-0.6621 7.50365,-0.2207 3.20009,0.3311 0.55173,1.3241 -2.538,2.9794 -3.75181,2.3173 c 0,0 -2.0966,-0.1102 -2.75871,-0.3311 -0.66207,-0.2207 -5.07598,-3.4207 -5.07598,-3.4207 z"
         id="path1561"
         inkscape:connector-curvature="0" />
      <path
         inkscape:export-ydpi="192.86"
         inkscape:export-xdpi="192.86"
         inkscape:export-filename="C:\Users\AntonTesh\Desktop\Back.png"
         inkscape:connector-curvature="0"
         style="fill:#ff7c2b;fill-opacity:1;fill-rule:nonzero;stroke:none;stroke-width:0.08125678"
         d="m 161.90115,971.50724 -1.56418,0.8303 c 1.21437,0.8703 3.5409,2.5321 4.05527,2.7035 0.66209,0.2207 2.76146,0.3283 2.76146,0.3283 l 0.71451,-0.4441 0.0966,-1.3711 -2.37525,-1.7187 z"
         id="path1563" />
      <path
         inkscape:export-ydpi="192.86"
         inkscape:export-xdpi="192.86"
         inkscape:export-filename="C:\Users\AntonTesh\Desktop\Back.png"
         style="fill:#fa92b3;fill-opacity:1;fill-rule:nonzero;stroke:none;stroke-width:0.08125678"
         d="m 148.183,966.33644 3.16864,0.2438 1.21871,1.5843 -1.58431,2.3156 -5.36232,0.7311 -3.04678,-0.9749 0.24375,-2.9249 1.94994,-0.975 z"
         id="path1565"
         inkscape:connector-curvature="0"
         sodipodi:nodetypes="ccccccccc" />
      <path
         inkscape:export-ydpi="192.86"
         inkscape:export-xdpi="192.86"
         inkscape:export-filename="C:\Users\AntonTesh\Desktop\Back.png"
         style="fill:#fa92b3;fill-opacity:1;fill-rule:nonzero;stroke:none;stroke-width:0.08125678"
         d="m 184.97773,966.10924 2.67074,0.2054 1.0272,1.3355 -1.33537,1.9517 -4.5197,0.6162 -2.56803,-0.8217 0.20545,-2.4653 1.64353,-0.8218 z"
         id="path1567"
         inkscape:connector-curvature="0"
         sodipodi:nodetypes="ccccccccc" />
      <path
         inkscape:export-ydpi="192.86"
         inkscape:export-xdpi="192.86"
         inkscape:export-filename="C:\Users\AntonTesh\Desktop\Back.png"
         style="fill:#121212;fill-opacity:1;fill-rule:nonzero;stroke:none;stroke-width:0.08125678"
         d="m 184.71208,956.27454 -4.49796,-1.012 -3.82328,0.5622 -2.58633,4.1607 0.44979,3.7108 4.04817,3.3734 3.82328,0.1125 2.58633,-1.3495 2.02408,-3.2609 -0.44979,-3.9358 z"
         id="path1569"
         inkscape:connector-curvature="0"
         sodipodi:nodetypes="ccccccccccc" />
      <path
         inkscape:export-ydpi="192.86"
         inkscape:export-xdpi="192.86"
         inkscape:export-filename="C:\Users\AntonTesh\Desktop\Back.png"
         style="fill:#121212;fill-opacity:1;fill-rule:nonzero;stroke:none;stroke-width:0.08125678"
         d="m 151.14048,956.15554 -3.02259,0.9068 -1.9143,3.7279 c 0,0 0.50377,4.9368 0.90677,5.0376 0.40302,0.1009 4.43314,1.209 4.83615,1.5112 0.40301,0.3024 4.63464,-1.4105 4.63464,-1.4105 l 1.61204,-4.1308 -1.30979,-3.6271 -2.41807,-2.1158 z"
         id="path1571"
         inkscape:connector-curvature="0" />
    </g>
    <g
       id="g1535"
       transform="matrix(0,0.92019236,-0.92019236,0,988.99929,742.80105)">
      <path
         inkscape:export-ydpi="192.86"
         inkscape:export-xdpi="192.86"
         inkscape:export-filename="C:\Users\AntonTesh\Desktop\Back.png"
         sodipodi:nodetypes="cccccccccccccc"
         inkscape:connector-curvature="0"
         id="path1625"
         d="m 164.56099,880.47625 -16.06488,0.33295 -2.74685,0.33295 -1.24856,2.33066 -0.49942,38.20612 0.58265,2.16418 3.24627,0.99885 35.54251,-0.6659 1.58153,-0.58267 1.08208,-2.08094 0.0833,-37.54022 -0.91561,-1.08209 -2.83009,-1.41504 z"
         style="fill:#e9346d;fill-opacity:1;stroke:none;stroke-width:0.9375;stroke-opacity:1" />
      <path
         inkscape:export-ydpi="192.86"
         inkscape:export-xdpi="192.86"
         inkscape:export-filename="C:\Users\AntonTesh\Desktop\Back.png"
         inkscape:connector-curvature="0"
         id="path1577"
         d="m 160.11464,907.62028 2.97938,-0.6621 7.50365,-0.2207 3.20009,0.3311 0.55173,1.3241 -2.538,2.9794 -3.75181,2.3173 c 0,0 -2.0966,-0.1102 -2.75871,-0.3311 -0.66207,-0.2207 -5.07598,-3.4207 -5.07598,-3.4207 z"
         style="fill:#121212;fill-opacity:1;fill-rule:nonzero;stroke:none;stroke-width:0.08125678" />
      <path
         inkscape:export-ydpi="192.86"
         inkscape:export-xdpi="192.86"
         inkscape:export-filename="C:\Users\AntonTesh\Desktop\Back.png"
         id="path1579"
         d="m 162.81677,909.82808 -1.56418,0.8303 c 1.21437,0.8703 3.5409,2.5321 4.05527,2.7035 0.66209,0.2207 2.76146,0.3283 2.76146,0.3283 l 0.71451,-0.4441 0.0966,-1.3711 -2.37525,-1.7187 z"
         style="fill:#ff7c2b;fill-opacity:1;fill-rule:nonzero;stroke:none;stroke-width:0.08125678"
         inkscape:connector-curvature="0" />
      <path
         inkscape:export-ydpi="192.86"
         inkscape:export-xdpi="192.86"
         inkscape:export-filename="C:\Users\AntonTesh\Desktop\Back.png"
         sodipodi:nodetypes="ccccccccc"
         inkscape:connector-curvature="0"
         id="path1581"
         d="m 149.09862,904.65728 3.16864,0.2438 1.21871,1.5843 -1.58431,2.3156 -5.36232,0.7311 -3.04678,-0.9749 0.24375,-2.9249 1.94994,-0.975 z"
         style="fill:#fa92b3;fill-opacity:1;fill-rule:nonzero;stroke:none;stroke-width:0.08125678" />
      <path
         inkscape:export-ydpi="192.86"
         inkscape:export-xdpi="192.86"
         inkscape:export-filename="C:\Users\AntonTesh\Desktop\Back.png"
         sodipodi:nodetypes="ccccccccc"
         inkscape:connector-curvature="0"
         id="path1583"
         d="m 185.89335,904.43008 2.67074,0.2054 1.0272,1.3355 -1.33537,1.9517 -4.5197,0.6162 -2.56803,-0.8217 0.20545,-2.4653 1.64353,-0.8218 z"
         style="fill:#fa92b3;fill-opacity:1;fill-rule:nonzero;stroke:none;stroke-width:0.08125678" />
      <path
         inkscape:export-ydpi="192.86"
         inkscape:export-xdpi="192.86"
         inkscape:export-filename="C:\Users\AntonTesh\Desktop\Back.png"
         sodipodi:nodetypes="ccccccccccc"
         inkscape:connector-curvature="0"
         id="path1585"
         d="m 185.6277,894.59538 -4.49796,-1.012 -3.82328,0.5622 -2.58633,4.1607 0.44979,3.7108 4.04817,3.3734 3.82328,0.1125 2.58633,-1.3495 2.02408,-3.2609 -0.44979,-3.9358 z"
         style="fill:#121212;fill-opacity:1;fill-rule:nonzero;stroke:none;stroke-width:0.08125678" />
      <path
         inkscape:export-ydpi="192.86"
         inkscape:export-xdpi="192.86"
         inkscape:export-filename="C:\Users\AntonTesh\Desktop\Back.png"
         inkscape:connector-curvature="0"
         id="path1587"
         d="m 152.0561,894.47638 -3.02259,0.9068 -1.9143,3.7279 c 0,0 0.50377,4.9368 0.90677,5.0376 0.40302,0.1009 4.43314,1.209 4.83615,1.5112 0.40301,0.3024 4.63464,-1.4105 4.63464,-1.4105 l 1.61204,-4.1308 -1.30979,-3.6271 -2.41807,-2.1158 z"
         style="fill:#121212;fill-opacity:1;fill-rule:nonzero;stroke:none;stroke-width:0.08125678" />
    </g>
    <g
       id="g1597"
       transform="matrix(0,0.92019236,-0.92019236,0,983.60867,748.19165)">
      <path
         inkscape:export-ydpi="192.86"
         inkscape:export-xdpi="192.86"
         inkscape:export-filename="C:\Users\AntonTesh\Desktop\Back.png"
         inkscape:connector-curvature="0"
         id="path1621"
         d="m 227.30424,941.80866 -2.55898,-1.89142 -3.56029,-0.66755 -3.44906,1.78015 -14.79751,35.93684 c 0,0 -1.00134,3.78283 -0.89008,4.22786 0.11126,0.44504 1.33511,2.2252 1.33511,2.2252 l 3.33778,0.89007 37.717,-1.8914 2.00268,-1.44638 c 0,0 1.8914,-1.55764 1.8914,-3.00402 0,-1.44637 -0.89007,-3.22652 -0.89007,-3.22652 z"
         style="fill:#19b6e3;fill-opacity:1;stroke:none;stroke-width:0.88608104;stroke-opacity:1" />
      <path
         inkscape:export-ydpi="192.86"
         inkscape:export-xdpi="192.86"
         inkscape:export-filename="C:\Users\AntonTesh\Desktop\Back.png"
         style="fill:#121212;fill-opacity:1;fill-rule:nonzero;stroke:none;stroke-width:0.08125677"
         d="m 219.94462,968.51579 2.97938,-0.6621 7.50365,-0.2207 3.20009,0.3311 0.55173,1.3241 -2.538,2.9794 -3.75181,2.3173 c 0,0 -2.0966,-0.1102 -2.75871,-0.3311 -0.66207,-0.2207 -5.07598,-3.4207 -5.07598,-3.4207 z"
         id="path1593"
         inkscape:connector-curvature="0" />
      <path
         inkscape:export-ydpi="192.86"
         inkscape:export-xdpi="192.86"
         inkscape:export-filename="C:\Users\AntonTesh\Desktop\Back.png"
         inkscape:connector-curvature="0"
         style="fill:#ff7c2b;fill-opacity:1;fill-rule:nonzero;stroke:none;stroke-width:0.08125677"
         d="m 222.64675,970.72359 -1.56418,0.8303 c 1.21437,0.8703 3.5409,2.5321 4.05527,2.7035 0.66209,0.2207 2.76146,0.3283 2.76146,0.3283 l 0.71451,-0.4441 0.0966,-1.3711 -2.37525,-1.7187 z"
         id="path1595" />
      <path
         inkscape:export-ydpi="192.86"
         inkscape:export-xdpi="192.86"
         inkscape:export-filename="C:\Users\AntonTesh\Desktop\Back.png"
         style="fill:#76defb;fill-opacity:1;fill-rule:nonzero;stroke:none;stroke-width:0.08125677"
         d="m 208.9286,965.55279 3.16864,0.2438 1.21871,1.5843 -1.58431,2.3156 -5.36232,0.7311 -3.04678,-0.9749 0.24375,-2.9249 1.94994,-0.975 z"
         id="path1597"
         inkscape:connector-curvature="0"
         sodipodi:nodetypes="ccccccccc" />
      <path
         inkscape:export-ydpi="192.86"
         inkscape:export-xdpi="192.86"
         inkscape:export-filename="C:\Users\AntonTesh\Desktop\Back.png"
         style="fill:#76defb;fill-opacity:1;fill-rule:nonzero;stroke:none;stroke-width:0.08125677"
         d="m 245.72333,965.32559 2.67074,0.2054 1.0272,1.3355 -1.33537,1.9517 -4.5197,0.6162 -2.56803,-0.8217 0.20545,-2.4653 1.64353,-0.8218 z"
         id="path1599"
         inkscape:connector-curvature="0"
         sodipodi:nodetypes="ccccccccc" />
      <path
         inkscape:export-ydpi="192.86"
         inkscape:export-xdpi="192.86"
         inkscape:export-filename="C:\Users\AntonTesh\Desktop\Back.png"
         style="fill:#121212;fill-opacity:1;fill-rule:nonzero;stroke:none;stroke-width:0.08125677"
         d="m 245.45768,955.49089 -4.49796,-1.012 -3.82328,0.5622 -2.58633,4.1607 0.44979,3.7108 4.04817,3.3734 3.82328,0.1125 2.58633,-1.3495 2.02408,-3.2609 -0.44979,-3.9358 z"
         id="path1601"
         inkscape:connector-curvature="0"
         sodipodi:nodetypes="ccccccccccc" />
      <path
         inkscape:export-ydpi="192.86"
         inkscape:export-xdpi="192.86"
         inkscape:export-filename="C:\Users\AntonTesh\Desktop\Back.png"
         style="fill:#121212;fill-opacity:1;fill-rule:nonzero;stroke:none;stroke-width:0.08125677"
         d="m 211.88608,955.37189 -3.02259,0.9068 -1.9143,3.7279 c 0,0 0.50377,4.9368 0.90677,5.0376 0.40302,0.1009 4.43314,1.209 4.83615,1.5112 0.40301,0.3024 4.63464,-1.4105 4.63464,-1.4105 l 1.61204,-4.1308 -1.30979,-3.6271 -2.41807,-2.1158 z"
         id="path1603"
         inkscape:connector-curvature="0" />
    </g>
    <g
       id="g1544"
       transform="matrix(0,0.92019236,-0.92019236,0,989.23367,748.19165)">
      <path
         inkscape:export-ydpi="192.86"
         inkscape:export-xdpi="192.86"
         inkscape:export-filename="C:\Users\AntonTesh\Desktop\Back.png"
         style="fill:#19b6e3;fill-opacity:1;stroke:none;stroke-width:0.9375;stroke-opacity:1"
         d="m 224.65863,880.47625 -16.06488,0.33295 -2.74685,0.33295 -1.24856,2.33066 -0.49942,38.20612 0.58265,2.16418 3.24627,0.99885 35.54251,-0.6659 1.58153,-0.58267 1.08208,-2.08094 0.0833,-37.54022 -0.91561,-1.08209 -2.83009,-1.41504 z"
         id="path1627"
         inkscape:connector-curvature="0"
         sodipodi:nodetypes="cccccccccccccc" />
      <path
         inkscape:export-ydpi="192.86"
         inkscape:export-xdpi="192.86"
         inkscape:export-filename="C:\Users\AntonTesh\Desktop\Back.png"
         inkscape:connector-curvature="0"
         id="path1609"
         d="m 219.94462,907.91872 2.97938,-0.6621 7.50365,-0.2207 3.20009,0.3311 0.55173,1.3241 -2.538,2.9794 -3.75181,2.3173 c 0,0 -2.0966,-0.1102 -2.75871,-0.3311 -0.66207,-0.2207 -5.07598,-3.4207 -5.07598,-3.4207 z"
         style="fill:#121212;fill-opacity:1;fill-rule:nonzero;stroke:none;stroke-width:0.08125677" />
      <path
         inkscape:export-ydpi="192.86"
         inkscape:export-xdpi="192.86"
         inkscape:export-filename="C:\Users\AntonTesh\Desktop\Back.png"
         id="path1611"
         d="m 222.64675,910.12652 -1.56418,0.8303 c 1.21437,0.8703 3.5409,2.5321 4.05527,2.7035 0.66209,0.2207 2.76146,0.3283 2.76146,0.3283 l 0.71451,-0.4441 0.0966,-1.3711 -2.37525,-1.7187 z"
         style="fill:#ff7c2b;fill-opacity:1;fill-rule:nonzero;stroke:none;stroke-width:0.08125677"
         inkscape:connector-curvature="0" />
      <path
         inkscape:export-ydpi="192.86"
         inkscape:export-xdpi="192.86"
         inkscape:export-filename="C:\Users\AntonTesh\Desktop\Back.png"
         sodipodi:nodetypes="ccccccccc"
         inkscape:connector-curvature="0"
         id="path1613"
         d="m 208.9286,904.95572 3.16864,0.2438 1.21871,1.5843 -1.58431,2.3156 -5.36232,0.7311 -3.04678,-0.9749 0.24375,-2.9249 1.94994,-0.975 z"
         style="fill:#76defb;fill-opacity:1;fill-rule:nonzero;stroke:none;stroke-width:0.08125677" />
      <path
         inkscape:export-ydpi="192.86"
         inkscape:export-xdpi="192.86"
         inkscape:export-filename="C:\Users\AntonTesh\Desktop\Back.png"
         sodipodi:nodetypes="ccccccccc"
         inkscape:connector-curvature="0"
         id="path1615"
         d="m 245.72333,904.72852 2.67074,0.2054 1.0272,1.3355 -1.33537,1.9517 -4.5197,0.6162 -2.56803,-0.8217 0.20545,-2.4653 1.64353,-0.8218 z"
         style="fill:#76defb;fill-opacity:1;fill-rule:nonzero;stroke:none;stroke-width:0.08125677" />
      <path
         inkscape:export-ydpi="192.86"
         inkscape:export-xdpi="192.86"
         inkscape:export-filename="C:\Users\AntonTesh\Desktop\Back.png"
         sodipodi:nodetypes="ccccccccccc"
         inkscape:connector-curvature="0"
         id="path1617"
         d="m 245.45768,894.89382 -4.49796,-1.012 -3.82328,0.5622 -2.58633,4.1607 0.44979,3.7108 4.04817,3.3734 3.82328,0.1125 2.58633,-1.3495 2.02408,-3.2609 -0.44979,-3.9358 z"
         style="fill:#121212;fill-opacity:1;fill-rule:nonzero;stroke:none;stroke-width:0.08125677" />
      <path
         inkscape:export-ydpi="192.86"
         inkscape:export-xdpi="192.86"
         inkscape:export-filename="C:\Users\AntonTesh\Desktop\Back.png"
         inkscape:connector-curvature="0"
         id="path1619"
         d="m 211.88608,894.77482 -3.02259,0.9068 -1.9143,3.7279 c 0,0 0.50377,4.9368 0.90677,5.0376 0.40302,0.1009 4.43314,1.209 4.83615,1.5112 0.40301,0.3024 4.63464,-1.4105 4.63464,-1.4105 l 1.61204,-4.1308 -1.30979,-3.6271 -2.41807,-2.1158 z"
         style="fill:#121212;fill-opacity:1;fill-rule:nonzero;stroke:none;stroke-width:0.08125677" />
    </g>
  </g>
</svg>
