<?xml version="1.0" encoding="UTF-8" standalone="no"?>
<!-- Created with Inkscape (http://www.inkscape.org/) -->

<svg
   xmlns:dc="http://purl.org/dc/elements/1.1/"
   xmlns:cc="http://creativecommons.org/ns#"
   xmlns:rdf="http://www.w3.org/1999/02/22-rdf-syntax-ns#"
   xmlns:svg="http://www.w3.org/2000/svg"
   xmlns="http://www.w3.org/2000/svg"
   xmlns:sodipodi="http://sodipodi.sourceforge.net/DTD/sodipodi-0.dtd"
   xmlns:inkscape="http://www.inkscape.org/namespaces/inkscape"
   width="2.1600001in"
   height="3.6600001in"
   viewBox="0 0 194.40001 329.40001"
   id="svg2"
   version="1.1"
   inkscape:version="0.92.2 (5c3e80d, 2017-08-06)"
   sodipodi:docname="Busienss Card Game Indiana.svg"
   inkscape:export-filename="C:\Users\AntonTesh\Desktop\FrontClones.png"
   inkscape:export-xdpi="300"
   inkscape:export-ydpi="300">
  <defs
     id="defs4" />
  <sodipodi:namedview
     id="base"
     pagecolor="#ffffff"
     bordercolor="#666666"
     borderopacity="1.0"
     inkscape:pageopacity="0.0"
     inkscape:pageshadow="2"
     inkscape:zoom="1.4078653"
     inkscape:cx="293.1637"
     inkscape:cy="77.355653"
     inkscape:document-units="px"
     inkscape:current-layer="layer1"
     showgrid="false"
     units="in"
     inkscape:window-width="1920"
     inkscape:window-height="1017"
     inkscape:window-x="1912"
     inkscape:window-y="-8"
     inkscape:window-maximized="1"
     inkscape:showpageshadow="false"
     inkscape:snap-global="false"
     showguides="true"
     inkscape:guide-bbox="true"
     inkscape:snap-bbox="true"
     inkscape:bbox-paths="true"
     inkscape:bbox-nodes="true"
     inkscape:snap-bbox-midpoints="true"
     inkscape:snap-bbox-edge-midpoints="true"
     inkscape:object-paths="true"
     inkscape:snap-intersection-paths="true"
     inkscape:snap-smooth-nodes="true"
     inkscape:snap-midpoints="true"
     inkscape:snap-object-midpoints="true"
     inkscape:snap-center="true"
     inkscape:lockguides="true" />
  <metadata
     id="metadata7">
    <rdf:RDF>
      <cc:Work
         rdf:about="">
        <dc:format>image/svg+xml</dc:format>
        <dc:type
           rdf:resource="http://purl.org/dc/dcmitype/StillImage" />
        <dc:title></dc:title>
      </cc:Work>
    </rdf:RDF>
  </metadata>
  <g
     inkscape:label="Layer 1"
     inkscape:groupmode="layer"
     id="layer1"
     transform="translate(0,-722.96217)">
    <rect
       style="fill:#ffffff;fill-opacity:1;stroke:none;stroke-width:1.04940557"
       id="rect1236"
       width="375.60519"
       height="214.63153"
       x="699.85962"
       y="-204.51576"
       inkscape:export-filename="C:\Users\AntonTesh\Desktop\path1863.png"
       inkscape:export-xdpi="192.86"
       inkscape:export-ydpi="192.86"
       transform="rotate(90)" />
    <text
       xml:space="preserve"
       style="font-size:11.25px;line-height:1.25;fill:#d6d6d6;fill-opacity:1;stroke:none;stroke-width:0.9375"
       x="-131.16199"
       y="1190.1533"
       id="text2762"><tspan
         sodipodi:role="line"
         id="tspan2760"
         x="-131.16199"
         y="1200.417"
         style="stroke-width:0.9375" /></text>
    <flowRoot
       xml:space="preserve"
       id="flowRoot1559"
       style="font-size:32px;line-height:1.25;text-align:center;text-anchor:middle;fill:#d6d6d6;fill-opacity:1;stroke:none"
       transform="matrix(0.9375,0,0,0.9375,0,872.36216)"><flowRegion
         id="flowRegion1561"
         style="font-size:32px;text-align:center;text-anchor:middle"><rect
           id="rect1563"
           width="194.95944"
           height="32.324883"
           x="2.5253813"
           y="289.9848"
           style="font-size:32px;text-align:center;text-anchor:middle" /></flowRegion><flowPara
         id="flowPara1565">F</flowPara></flowRoot>    <flowRoot
       xml:space="preserve"
       id="flowRoot1571"
       style="font-size:16px;line-height:1.25;text-align:center;text-anchor:middle;fill:#000000;fill-opacity:1;stroke:none"><flowRegion
         id="flowRegion1573"
         style="font-size:16px"><rect
           id="rect1575"
           width="178.797"
           height="143.94673"
           x="12.12183"
           y="327.86551"
           style="font-size:16px" /></flowRegion><flowPara
         id="flowPara1577" /></flowRoot>    <text
       xml:space="preserve"
       style="font-size:15px;line-height:1.25;text-align:start;text-anchor:start;fill:#000000;fill-opacity:1;stroke:none;stroke-width:0.9375"
       x="61.149254"
       y="1203.885"
       id="text1581"><tspan
         sodipodi:role="line"
         id="tspan1579"
         x="61.149254"
         y="1217.5699"
         style="text-align:start;text-anchor:start;stroke-width:0.9375" /></text>
    <path
       style="fill:#000000;fill-opacity:1;stroke:none;stroke-width:0.55634534"
       d="m 191.9716,984.91859 -0.2691,-0.4596 -2.4829,-0.1739 -3.2447,0.3552 -0.9942,0.6134 c 0,0 0.5871,0.439 0.9045,0.4175 l 1.1298,0.1978 4.3689,-0.2271 z m -0.6811,-119.59164 -0.5896,-0.72326 -4.3689,-0.22706 -1.1279,0.19592 c -0.3175,-0.0215 -0.9064,0.41749 -0.9064,0.41749 l 0.9961,0.6134 3.2428,0.35705 2.4829,-0.17394 z m -2.9425,59.90661 -1.3056,-0.30395 h -3.9148 l -1.0693,0.53283 1.6626,0.60975 3.2043,0.15381 1.3038,-0.30579 z m -4.8505,60.00733 -1.3806,-0.4376 -2.5983,-0.2436 -3.1677,0.1465 -0.5695,0.5841 0.8936,0.3882 3.7372,0.05 c 0,0 2.1928,-0.1458 2.5177,-0.097 z m -0.683,-120.23804 -0.5676,-0.38818 c -0.3248,0.0487 -2.5177,-0.097 -2.5177,-0.097 l -3.7372,0.0476 -0.8917,0.39002 0.5676,0.5841 3.1677,0.14648 2.5983,-0.24352 z m -2.4133,60.3186 -0.8936,-0.65002 -2.0324,-0.0586 -3.6933,0.0732 -0.1831,0.89355 2.1845,0.25635 3.3307,-0.0586 z m -7.0276,59.42134 -2.1826,-0.2581 -3.3307,0.06 -1.2872,0.4541 0.8935,0.6519 2.0325,0.058 3.6914,-0.073 z m -0.6811,-119.24006 -0.1831,-0.89355 -3.6933,-0.0733 -2.0325,0.0586 -0.8935,0.65002 1.2872,0.45594 3.3307,0.0586 z m -1.5436,59.8407 -0.586,-0.81849 -3.2647,-0.20324 -2.6789,0.34058 -1.4227,0.6134 0.5859,0.54565 c 0.3348,-0.0682 2.5947,0.13551 2.5947,0.13551 l 3.8507,-0.0678 z m -6.1469,59.90846 -0.1501,-0.7489 h -3.8233 l -1.4263,0.2032 -0.749,0.6812 1.2745,0.4779 3.75,-0.2051 z m -0.6811,-120.2582 -1.1261,-0.41015 -3.75,-0.20324 -1.2744,0.47607 0.7489,0.68115 1.4264,0.20508 h 3.825 z m -2.8235,60.4651 -0.9961,-0.61341 -3.2428,-0.35523 -2.4829,0.17213 -0.271,0.46142 0.5896,0.72144 4.3689,0.22705 1.1279,-0.19592 c 0.3175,0.0215 0.9064,-0.41748 0.9064,-0.41748 z m -5.5957,59.7913 -0.1502,-0.7489 h -3.8232 l -1.4264,0.2032 -0.7489,0.6812 1.2744,0.4779 3.75,-0.2051 z m -0.6812,-120.25456 -1.1261,-0.41015 -3.75,-0.20325 -1.2744,0.47607 0.7508,0.68115 1.4245,0.20508 h 3.8251 z m -2.2924,60.5841 -0.7489,-0.68115 -1.4264,-0.20508 h -3.8251 l -0.1483,0.74891 1.1242,0.41015 3.75,0.20324 z m -4.7535,59.34996 -0.2691,-0.4596 -2.4829,-0.1739 -3.2447,0.357 -0.99417,0.6134 c 0,0 0.5889,0.439 0.90627,0.4175 l 1.128,0.1959 4.3689,-0.227 z m -0.6811,-119.61546 -0.5896,-0.72143 -4.3689,-0.22706 -1.12787,0.19593 c -0.3175,-0.0215 -0.9064,0.41748 -0.9064,0.41748 l 0.9961,0.6134 3.24277,0.35523 2.4829,-0.17396 z m -2.1826,60.30396 -0.185,-0.89356 -3.69137,-0.0732 -2.0324,0.0586 -0.8936,0.65185 1.2872,0.4541 3.33067,0.0604 z m -6.36107,59.4836 -0.586,-0.5456 c -0.3348,0.068 -2.5946,-0.1373 -2.5946,-0.1373 l -3.85067,0.07 -0.92102,0.5439 0.58594,0.8184 3.26475,0.2051 2.6789,-0.3406 z m -0.6812,-119.95785 -1.2433,-0.6134 -2.34187,-0.34058 -2.85096,0.20508 -0.51269,0.81665 0.80383,0.54566 3.36549,0.0677 c 0,0 1.9743,-0.2037 2.2668,-0.13549 z m -1.1535,60.26185 -1.1243,-0.41016 -3.75,-0.20325 -1.27441,0.47607 0.7489,0.68115 1.42639,0.20508 h 3.82322 z m -6.72,-60.23621 -1.94825,-0.54566 -3.75915,-0.13549 -1.53076,0.27099 -0.13916,0.61341 1.53076,0.27282 h 1.82556 l 0.35523,3.22815 0.6134,0.99426 c 0,0 0.43715,-0.58711 0.41565,-0.90453 l 0.19775,-1.12794 -0.0879,-2.18994 h 1.27442 z m -0.36438,119.93591 -0.95398,-0.4779 h -1.16089 l -0.18677,-1.474 -0.45776,-1.062 -0.4065,0.4376 c 0.0509,0.25 -0.10254,1.9373 -0.10254,1.9373 l 0.004,0.1611 h -1.18836 l -1.16638,0.2728 0.1062,0.6134 1.16638,0.2729 1.10047,-0.051 0.0293,1.6077 0.4065,0.6866 0.61157,-0.4376 0.11902,-1.9135 0.59509,-0.027 z m -0.13367,-60.00366 -0.79468,-0.43396 -1.37512,-0.022 -0.0183,-0.34241 -0.54565,-1.2854 -0.47608,0.82763 v 0.78187 l -0.9082,-0.0147 c 0,0 -1.95038,0.16406 -2.23938,0.10986 l -0.5072,0.43213 1.22863,0.48889 2.31263,0.27099 0.11352,-0.007 v 0.9668 l 0.271,1.01075 0.6134,-0.0916 0.27283,-1.01074 -0.0513,-0.93934 1.59851,-0.0915 z m -1.66077,28.17076 -0.19958,-3.1677 -0.79285,-0.5676 -0.52917,0.8935 -0.0659,3.7354 c 0,0 0.19804,2.1928 0.13183,2.5177 l 0.52918,0.5694 0.59509,-1.3824 z m -0.0989,94.47881 -0.15198,-3.2044 -0.60974,-1.6626 -0.53467,1.0694 v 3.9148 l 0.30579,1.3055 0.68664,-0.119 z m -0.0458,-84.44281 -0.35522,-3.2428 -0.61524,-0.9942 c 0,0 -0.43715,0.5871 -0.41565,0.9045 l -0.19775,1.1279 0.22705,4.3689 0.72327,0.5896 0.45959,-0.271 z m -0.0256,29.3372 -0.20325,-1.6644 -0.68115,-0.8753 -0.47791,1.4887 0.20508,4.3817 0.40832,1.3147 0.74891,-0.1758 z m -0.0806,27.64341 -0.22705,-4.3689 -0.72327,-0.5877 -0.45959,0.2691 -0.17395,2.4829 0.35522,3.2447 0.61524,0.9942 c 0,0 0.43714,-0.5889 0.41565,-0.9063 z m -0.0165,-7.8094 -0.20508,-3.75 -0.40832,-1.1243 -0.75074,0.1501 v 3.8251 l 0.20508,1.4246 0.68115,0.7489 z m -0.002,-100.84904 -0.22705,-4.36707 -0.72144,-0.58959 -0.46142,0.27099 -0.17212,2.48291 0.35522,3.2428 0.6134,0.99426 c 0,0 0.43899,-0.58711 0.41749,-0.90454 z m -0.0147,-16.90796 -0.20325,-3.75 -0.41015,-1.1261 -0.7489,0.15014 v 3.82508 l 0.20507,1.42456 0.68116,0.75073 z m -0.002,9.10034 -0.20325,-3.75 -0.41015,-1.1261 -0.74891,0.15015 v 3.82507 l 0.20508,1.42457 0.68116,0.75073 z m -0.0623,65.99125 -0.20507,-1.4246 -0.68116,-0.7507 -0.4779,1.2744 0.20508,3.75 0.40832,1.1261 0.75073,-0.1502 z m -0.0146,-37.43961 -0.20324,-1.65711 -0.68299,-0.87158 -0.47607,1.48315 0.20508,4.36155 0.40832,1.3092 0.7489,-0.1739 z m -0.005,94.82852 c 0,0 -0.2037,-2.2598 -0.1355,-2.5946 l -0.54565,-0.586 -0.6134,1.4228 -0.34058,2.6788 0.20508,3.2648 0.81665,0.5859 0.54565,-0.921 z m -0.0183,-108.66763 -0.28015,-2.21375 -0.50354,-1.17553 -0.44678,0.48339 c 0.056,0.27667 -0.11169,2.14417 -0.11169,2.14417 l 0.0549,3.18237 0.44861,0.76172 0.67016,-0.48523 z m -0.0238,61.18282 -0.1355,-2.8637 -0.54566,-1.4832 -0.47607,0.954 v 3.4991 l 0.27283,1.1664 0.6134,-0.1062 z m -0.011,-105.28011 c 0,0 -0.14574,-2.19286 -0.0971,-2.51771 l -0.39001,-0.56762 -0.43762,1.38061 -0.24353,2.59828 0.14648,3.16771 0.58411,0.56763 0.39001,-0.89355 z m -0.007,70.22641 -0.0586,-3.8232 -0.45593,-1.4758 -0.65185,1.0254 -0.0586,2.3309 0.0732,4.2389 0.89356,0.2105 z m -0.011,-59.31332 -0.0732,-3.69325 -0.89356,-0.1831 -0.25818,2.18445 0.0604,3.33068 0.4541,1.28724 0.65186,-0.89539 z m -0.009,118.60103 -0.0586,-3.3306 -0.45593,-1.28731 -0.65003,0.89361 -0.0586,2.0325 0.0732,3.6932 0.89356,0.1831 z m -0.0385,32.6569 -0.25818,-2.1844 -0.89355,0.1831 -0.0732,3.6932 0.0586,2.0325 0.65186,0.8935 0.4541,-1.2872 z m -5.84106,-51.70901 -1.27625,-0.4761 -3.75,0.2033 -1.12426,0.4102 0.15014,0.7489 h 3.82508 l 1.42456,-0.2051 z m -0.68298,-119.55686 -0.75074,-0.68115 -1.42456,-0.20325 h -3.82507 l -0.15015,0.7489 1.1261,0.40833 3.75,0.20507 z m -0.30396,59.66675 -1.16638,-0.27283 h -3.49915 l -0.95398,0.47608 1.48316,0.54565 2.86377,0.1355 1.16638,-0.271 z m -6.73279,60.27831 -0.89538,-0.65 -2.03064,-0.059 -3.69324,0.073 -0.18311,0.8936 2.18445,0.2563 3.33069,-0.059 z m -0.68298,-120.33324 -1.28723,-0.45411 -3.33069,-0.0604 -2.18445,0.25818 0.18311,0.89355 3.69323,0.0732 2.03064,-0.0586 z m -0.54199,60.27099 -1.1261,-0.40833 -3.75,-0.20507 -1.27442,0.4779 0.75074,0.68115 1.42456,0.20325 h 3.82507 z m -7.65015,59.93045 -0.89355,-0.5292 -3.73536,-0.066 c 0,0 -2.192854,0.198 -2.517704,0.1318 l -0.56945,0.5292 1.38061,0.5951 2.600104,0.3296 3.16589,-0.1978 z m -0.0769,-59.61001 -0.5896,-0.72327 -4.3689,-0.22706 -1.127934,0.19593 c -0.31743,-0.0215 -0.90637,0.41748 -0.90637,0.41748 l 0.99609,0.61341 3.242804,0.35705 2.48291,-0.17395 z m -0.60608,-60.45776 -0.56763,-0.79286 -3.16773,-0.19958 -2.600094,0.33142 -1.38062,0.59509 0.56946,0.52918 c 0.32485,-0.0662 2.517704,0.13183 2.517704,0.13183 l 3.73535,-0.0659 z m -8.204964,60.30944 -0.56763,-0.52917 c -0.32485,0.0662 -2.5177,-0.13185 -2.5177,-0.13184 l -3.73535,0.0659 -0.89356,0.52917 0.56763,0.79285 3.16773,0.19775 2.59827,-0.32959 z m -0.64636,59.63563 c 0,0 -0.58711,-0.439 -0.90454,-0.4175 l -1.12976,-0.1959 -4.3689,0.227 -0.58777,0.7233 0.26916,0.4596 2.48292,0.174 3.24463,-0.3571 z m -0.68299,-119.82423 -0.99426,-0.61341 -3.24279,-0.35521 -2.48292,0.17394 -0.27099,0.4596 0.58959,0.72326 4.36708,0.22705 1.12975,-0.19775 c 0.31743,0.0215 0.90454,-0.41748 0.90454,-0.41748 z m -7.88452,119.70523 -1.27624,-0.4779 -3.75,0.205 -1.12427,0.4084 0.15014,0.7489 h 3.82508 l 1.42456,-0.2033 z m -0.57311,-59.19253 -0.18311,-0.89356 -3.69324,-0.0732 -2.03064,0.0586 -0.89538,0.65002 1.28722,0.45593 3.3307,0.0586 z m -0.10987,-60.39185 -0.75073,-0.68116 -1.42456,-0.20506 h -3.82507 l -0.15015,0.75073 1.12609,0.40832 3.75,0.20507 z m -7.34619,119.87548 -1.13526,-0.4779 h -4.16198 l -1.38794,0.2728 0.12634,0.6134 1.38794,0.2729 3.40576,-0.1374 z m -0.68115,-120.16662 -1.48499,-0.54565 -2.86376,-0.1355 -1.16639,0.27282 -0.10621,0.61341 1.16639,0.27099 h 3.49915 z m -0.23438,60.17396 -1.12609,-0.41016 -3.75,-0.20325 -1.27442,0.47607 0.75073,0.68116 1.42456,0.20508 h 3.82507 z m -6.83898,60.08426 -0.58594,-0.5457 c -0.33483,0.068 -2.59461,-0.1373 -2.59461,-0.1373 l -0.39551,0.01 -0.28381,-2.2321 -0.61341,-1.4227 -0.54382,0.5859 c 0.0682,0.3349 -0.13733,2.5965 -0.13733,2.5965 l 0.009,0.4998 -1.88597,0.035 -0.92103,0.5439 0.58594,0.8184 2.24853,0.141 0.0311,1.8109 0.54566,0.9211 0.81848,-0.586 0.13366,-2.1478 2.16614,-0.2747 z m -0.0311,-120.17215 -1.42456,-0.61341 -2.67883,-0.34058 -3.26294,0.20325 -0.58594,0.81848 0.91919,0.54565 1.86035,0.033 0.25269,1.29823 0.6134,0.99425 c 0,0 0.43899,-0.58711 0.41748,-0.90453 l 0.19593,-1.12794 -0.0879,-0.2362 0.59875,0.011 c 0,0 2.26162,-0.2037 2.59643,-0.1355 z m -1.073,59.92125 -1.16638,-0.27282 h -1.45019 l -0.0421,-1.10229 -0.54381,-1.87134 -0.47791,1.203 v 1.77063 h -0.98511 l -0.95398,0.4779 1.48315,0.54566 0.45594,0.022 v 1.59485 l 0.27283,1.47034 0.61339,-0.13367 0.27284,-1.47033 -0.0531,-1.40992 1.30187,0.0623 1.16638,-0.27283 z m -2.34008,26.4221 -0.19776,-3.1677 -0.79468,-0.5676 -0.52917,0.8935 -0.0659,3.7354 c 0,0 0.19803,2.1928 0.13183,2.5177 l 0.52918,0.5694 0.59509,-1.3806 z m -0.0934,-34.07041 -0.34058,-2.15698 -0.61341,-1.14624 -0.54565,0.47241 c 0.0682,0.2696 -0.1355,2.08923 -0.1355,2.08923 l 0.0677,3.10181 0.54565,0.74158 0.81849,-0.47241 z m -0.005,128.54922 -0.15198,-3.2044 -0.60974,-1.6607 -0.53466,1.0675 v 3.9148 l 0.30578,1.3055 0.68665,-0.119 z m -0.0458,-84.44281 -0.35522,-3.2428 -0.6134,-0.9942 c 0,0 -0.43899,0.5871 -0.41749,0.9045 l -0.19592,1.1279 0.22706,4.3689 0.72143,0.5896 0.46143,-0.271 z m -0.0238,30.6592 -0.20508,-1.4264 -0.68115,-0.7489 -0.47791,1.2744 0.20508,3.75 0.40833,1.1243 0.75073,-0.1483 z m -0.0824,26.32141 -0.22705,-4.3689 -0.72326,-0.5877 -0.4596,0.2691 -0.17395,2.4829 0.35706,3.2447 0.6134,0.9942 c 0,0 0.43898,-0.587 0.41749,-0.9045 z m -0.009,-40.27401 -0.13732,-2.8638 -0.54565,-1.485 -0.47608,0.9558 v 3.4974 l 0.27283,1.1663 0.6134,-0.1043 z m -0.007,-68.38259 -0.22705,-4.36889 -0.72326,-0.5896 -0.45959,0.27099 -0.17396,2.48291 0.35522,3.2428 0.61524,0.99426 c 0,0 0.43715,-0.58712 0.41565,-0.90453 z m 0,100.8472 -0.20508,-3.75 -0.40832,-1.1243 -0.7489,0.1502 v 3.825 l 0.20324,1.4246 0.68116,0.7489 z m -0.0146,-117.75699 -0.20508,-3.75 -0.40833,-1.1261 -0.75073,0.15015 v 3.82507 l 0.20508,1.42457 0.68115,0.75073 z m -0.002,9.10034 -0.20508,-3.75 -0.40832,-1.1261 -0.75074,0.15015 v 3.82508 l 0.20509,1.42456 0.68115,0.75073 z m -0.0604,41.45694 -0.0586,-3.3307 -0.45594,-1.2872 -0.65185,0.8953 -0.0568,2.0307 0.0733,3.6932 0.89355,0.1831 z m -0.004,24.5343 -0.20507,-1.4246 -0.68115,-0.7507 -0.47608,1.2744 0.20325,3.75 0.41016,1.1261 0.74889,-0.1501 z m -0.0128,-34.6967 -0.20508,-1.42454 -0.68115,-0.75073 -0.47791,1.27442 0.20508,3.75005 0.40833,1.126 0.75073,-0.1501 z m -0.005,92.08561 c 0,0 -0.20552,-2.2598 -0.13732,-2.5946 l -0.54383,-0.586 -0.6134,1.4228 -0.3424,2.6788 0.20507,3.2648 0.81849,0.5859 0.54565,-0.921 z m -0.0531,-152.76491 c 0,0 -0.14574,-2.19286 -0.097,-2.5177 l -0.39001,-0.56763 -0.43763,1.38061 -0.24352,2.59827 0.14465,3.16772 0.5841,0.56763 0.39002,-0.89355 z m -0.0201,10.91309 -0.0732,-3.69324 -0.89355,-0.18311 -0.25635,2.18445 0.0586,3.33069 0.45594,1.28723 0.65002,-0.89539 z m -0.007,118.60112 -0.0604,-3.33071 -0.45409,-1.2873 -0.65187,0.8936 -0.0586,2.03251 0.0733,3.6932 0.89355,0.1831 z m -0.0403,32.6568 -0.25818,-2.1844 -0.89356,0.1831 -0.0732,3.6932 0.0586,2.0325 0.65185,0.8935 0.4541,-1.2872 z m -4.47143,-109.59777 -0.92103,-0.54382 -3.85071,-0.0696 c 0,0 -2.2598,0.20552 -2.5946,0.13733 l -0.58594,0.54382 1.42273,0.6134 2.67883,0.34241 3.26478,-0.20507 z m -0.6189,59.70706 -1.27442,-0.4761 -3.75,0.2032 -1.12427,0.4102 0.15015,0.7489 h 3.82507 l 1.42456,-0.2032 z m -0.0311,-119.76382 -0.7489,-0.68115 -1.4264,-0.20508 h -3.82507 l -0.15014,0.75073 1.12609,0.40833 3.75,0.20508 z m -6.85913,120.03482 -0.89539,-0.6519 -2.03063,-0.059 -3.69325,0.073 -0.1831,0.8935 2.18445,0.2582 3.33068,-0.059 z m -0.68299,-120.12638 -1.28723,-0.45592 -3.33069,-0.0586 -2.18445,0.25634 0.18311,0.89356 3.69324,0.0732 2.03247,-0.0586 z m -1.99402,60.3827 -0.99426,-0.61341 -3.2428,-0.35706 -2.48291,0.17396 -0.27099,0.45959 0.5896,0.72327 4.36706,0.22704 1.12977,-0.19591 c 0.3174,0.0215 0.90453,-0.41748 0.90453,-0.41748 z m -5.59387,59.82418 -0.15014,-0.7489 h -3.82508 l -1.42456,0.2051 -0.75073,0.6812 1.27624,0.476 3.75,-0.2032 z m -0.68298,-120.28928 -1.12427,-0.40832 -3.75,-0.20507 -1.27442,0.4779 0.74891,0.68116 1.42456,0.20507 h 3.82507 z m -2.29065,60.58411 -0.75073,-0.68115 -1.42456,-0.20325 h -3.82507 l -0.15015,0.74891 1.12609,0.40832 3.75,0.20508 z m -4.75341,59.38657 -0.26917,-0.4596 -2.48291,-0.1739 -3.24463,0.3552 -0.99427,0.6134 c 0,0 0.58704,0.439 0.90455,0.4175 l 1.12976,0.1959 4.36889,-0.227 z m -0.68299,-119.65024 -0.58777,-0.72326 -4.3689,-0.22705 -1.12976,0.19775 c -0.31749,-0.0215 -0.90454,0.41565 -0.90454,0.41565 l 0.99427,0.61524 3.24462,0.35521 2.48291,-0.17394 z m -3.66394,60.2655 -0.75073,-0.68115 -1.42457,-0.20324 h -3.82507 l -0.15015,0.74889 1.1261,0.40833 3.75,0.20508 z m -4.34327,59.53674 -1.42456,-0.6134 -2.67883,-0.3406 -3.26477,0.2051 -0.58411,0.8167 0.91919,0.5456 3.85071,0.068 c 0,0 2.25981,-0.2037 2.59461,-0.1355 z m -0.68298,-119.95422 -0.58593,-0.54565 c -0.3348,0.0682 -2.59461,-0.13733 -2.59461,-0.13733 l -3.85071,0.0696 -0.92102,0.54382 0.58594,0.81849 3.26477,0.20507 2.67883,-0.34057 z m -2.69348,60.0293 -1.28723,-0.4541 -3.33069,-0.0604 -2.18445,0.25818 0.18311,0.89356 3.69324,0.0732 2.03063,-0.0586 z m -7.02759,60.22892 -0.1831,-0.8936 -3.69324,-0.073 -2.03064,0.059 -0.89356,0.65 1.28541,0.4559 3.33251,0.059 z m -0.68115,-120.56217 -2.18445,-0.25818 -3.33069,0.0604 -1.28722,0.4541 0.89355,0.65185 2.03247,0.0586 3.6914,-0.0732 z m -1.50147,60.62439 -0.56762,-0.58411 -3.16772,-0.14648 -2.59828,0.24353 -1.38061,0.43762 0.56763,0.39002 c 0.3248,-0.0487 2.5177,0.097 2.5177,0.097 l 3.73535,-0.0495 z m -6.27685,59.82058 -1.0675,-0.5329 H 6.9820963 l -1.30554,0.304 0.11902,0.6866 1.30554,0.3058 3.2043497,-0.1519 z m -0.68298,-120.32961 -1.6607697,-0.60974 -3.20435,-0.15198 -1.30554,0.30395 -0.11719,0.68665 1.30372,0.30578 h 3.9166197 z m -2.2393897,60.47241 -0.99425,-0.6134 -3.24281,-0.35523 -2.4829,0.17395 -0.271,0.45959 0.5896,0.72327 4.36706,0.22706 1.12977,-0.19776 c 0.3175,0.0215 0.90453,-0.41748 0.90453,-0.41748 z"
       id="path1822-4"
       inkscape:connector-curvature="0" />
    <text
       xml:space="preserve"
       style="font-style:normal;font-variant:normal;font-weight:normal;font-stretch:normal;font-size:10px;line-height:1.25;font-family:Roboto;-inkscape-font-specification:Roboto;text-align:start;writing-mode:lr-tb;text-anchor:start;fill:#ffffff;fill-opacity:1;stroke:none;stroke-width:0.9375"
       x="-175.63216"
       y="1066.959"
       id="text2677"><tspan
         sodipodi:role="line"
         id="tspan2675"
         x="-175.63216"
         y="1075.709"
         style="stroke-width:0.9375" /></text>
    <text
       xml:space="preserve"
       style="font-style:normal;font-variant:normal;font-weight:normal;font-stretch:normal;font-size:7.5px;line-height:1;font-family:Roboto;-inkscape-font-specification:'Roboto, Normal';font-variant-ligatures:normal;font-variant-caps:normal;font-variant-numeric:normal;font-feature-settings:normal;text-align:start;writing-mode:lr-tb;text-anchor:start;fill:#ffffff;fill-opacity:1;stroke:none;stroke-width:0.9375"
       x="-248.38139"
       y="905.53082"
       id="text2735"><tspan
         sodipodi:role="line"
         id="tspan2733"
         x="-248.38139"
         y="911.15582"
         style="stroke-width:0.9375" /></text>
    <g
       id="g1870"
       transform="matrix(0.93610275,0,0,0.93610275,-117.3238,59.459532)">
      <path
         id="path1749"
         transform="matrix(0.9375,0,0,0.9375,0,872.36216)"
         d="m 167.7168,139.29297 -2.36914,0.66992 -3.03711,2.00977 -1.69727,2.40625 -1.68359,6.82226 -0.0156,0.0606 -0.10548,0.0352 -0.49023,0.2246 -7.10352,3.90625 -1.9375,2.41993 -2.21875,7.63672 0.14844,2.67773 2.57422,6.21484 2.33203,2.24805 5.50391,2.04102 1.70312,0.24218 4.31836,-0.31054 3.07227,-0.21289 1.37109,-0.0879 0.73438,-0.0527 0.61132,-0.0781 1.84766,-0.25586 5.27539,-0.76563 7.49219,-1.11133 1.49805,-0.54101 8.86132,-5.36914 0.25977,-0.0899 1.67187,0.17188 1.80469,0.13281 2.96875,-0.54687 1.36719,-0.45118 2.32306,-2.84892 0.42609,-4.11258 -2.04798,-3.42325 -2.23437,-1.13672 -3.22657,-0.50977 -0.1289,-1.65625 -0.0684,-0.49218 -1.50196,-7.41211 -1.95312,-2.70703 -5.56055,-3.19141 -1.33789,-0.48047 -10.19922,-1.73047 -0.54296,-0.0547 z"
         style="fill:#000000;fill-opacity:1;stroke:none;stroke-width:1"
         inkscape:connector-curvature="0"
         sodipodi:nodetypes="ccccccccccccccccccccccccccccccccccccccccccccc" />
      <path
         inkscape:export-ydpi="192.86"
         inkscape:export-xdpi="192.86"
         inkscape:export-filename="C:\Users\AntonTesh\Desktop\path1863.png"
         inkscape:connector-curvature="0"
         id="path1551"
         d="m 189.1695,1025.7859 -0.64744,1.7657 c 0,0 -1.94231,0.7063 -2.76633,0.7063 -0.82402,0 -9.06412,-0.9417 -9.06412,-0.9417 l 0.35314,-0.824"
         style="fill:#61431e;fill-opacity:1;stroke:none;stroke-width:0.9375" />
      <path
         inkscape:export-ydpi="192.86"
         inkscape:export-xdpi="192.86"
         inkscape:export-filename="C:\Users\AntonTesh\Desktop\path1863.png"
         inkscape:connector-curvature="0"
         id="path1547"
         d="m 157.10812,1006.7437 -2.84729,1.8842 -1.72669,6.9928 -0.2124,1.7358 -2.06909,0.3845 -6.65955,3.6622 -2.08008,7.1594 2.41333,5.8264 5.15992,1.9134 c 0,0 7.99117,-0.5822 8.4906,-0.5822 0.49942,0 14.40125,-2.0801 14.40125,-2.0801 l 8.65539,-5.2441 5.32837,-1.8311 2.33093,0.249 1.33118,-0.9155 -1.83105,-1.8311 c 0,0 -3.07746,-0.4841 -5.98939,-0.9466 l -0.35156,-4.541 -1.40808,-6.9489 -5.21302,-2.9919 -9.56176,-1.6223 z"
         style="fill:#88571d;fill-opacity:1;stroke:none;stroke-width:0.9375" />
      <path
         inkscape:export-ydpi="192.86"
         inkscape:export-xdpi="192.86"
         inkscape:export-filename="C:\Users\AntonTesh\Desktop\path1863.png"
         inkscape:connector-curvature="0"
         id="path1553"
         d="m 152.13497,1018.9019 -0.55114,4.5209 2.33093,2.4207 7.6831,2.0617 h 10.01221 l 8.45947,-1.8823 1.81275,-1.8842 -0.25452,-3.2922 -3.19886,1.181 c 1e-5,0 -5.82721,1.4154 -6.20177,1.4154 -0.37457,0 -10.03052,-0.3332 -10.03052,-0.3332 l -7.28211,-2.0801 z"
         style="fill:#cc7c1d;fill-opacity:1;stroke:none;stroke-width:0.9375" />
      <path
         inkscape:export-ydpi="192.86"
         inkscape:export-xdpi="192.86"
         inkscape:export-filename="C:\Users\AntonTesh\Desktop\path1863.png"
         inkscape:connector-curvature="0"
         id="path1558"
         d="m 165.50859,1007.8931 -4.82635,0.1765 -3.17833,0.3532 -1.35374,0.824 0.58859,0.6474 c 0,0 4.4732,-0.1765 4.76749,-0.1765 0.29429,0 9.77042,0.6474 9.77042,0.6474 l 2.35432,-0.059 -0.23543,-0.8829 c 0,0 -2.11889,-0.6474 -3.06062,-0.824 -0.94172,-0.1766 -4.82635,-0.7063 -4.82635,-0.7063 z"
         style="fill:#61431e;fill-opacity:1;stroke:none;stroke-width:0.9375" />
    </g>
    <path
       inkscape:connector-curvature="0"
       style="fill:#000000;fill-opacity:1;stroke:none;stroke-width:0.87759632"
       d="m 32.267696,870.53868 -1.07985,0.14912 -6.77909,2.02601 -1.3284,0.73533 -5.14217,4.51996 -1.08327,1.74149 -2.10487,7.79038 -0.11998,0.77989 -0.85703,20.72807 -0.004,0.10456 -0.0771,6.46713 0.11999,0.95987 0.31196,1.16899 2.43909,2.49395 1.87004,0.54507 1.19298,0.13712 1.40209,-0.0788 2.58995,-0.88274 25.63369,-0.33767 0.0703,0.084 2.59337,1.2564 2.33797,0.0788 3.14871,-1.69177 0.62221,-1.01301 0.5245,-1.76719 0.74047,-28.24591 -0.11141,-0.97702 -2.18029,-8.49314 -1.29753,-1.94888 -5.76602,-4.36398 -1.56664,-0.67363 -6.62311,-1.09014 -0.51593,-0.0463 z"
       id="path1757" />
    <path
       style="fill:#34231a;fill-opacity:1;stroke:none;stroke-width:0.87759632;stroke-opacity:1"
       d="m 19.972296,914.99947 0.38959,-27.50543 4.67515,-8.80485 11.68785,-2.18174 8.64903,1.01295 5.37641,3.6622 2.96092,6.46728 -1.32462,26.96"
       id="path1598"
       inkscape:connector-curvature="0"
       inkscape:export-filename="C:\Users\AntonTesh\Desktop\path1863.png"
       inkscape:export-xdpi="192.86"
       inkscape:export-ydpi="192.86" />
    <path
       style="fill:#472f26;fill-opacity:1;stroke:none;stroke-width:0.87759632"
       d="m 20.699066,911.18678 31.57064,0.0551 1.04684,4.73835 -33.55413,0.44078"
       id="path1574"
       inkscape:connector-curvature="0"
       inkscape:export-filename="C:\Users\AntonTesh\Desktop\path1863.png"
       inkscape:export-xdpi="192.86"
       inkscape:export-ydpi="192.86" />
    <path
       style="fill:#5b3c30;fill-opacity:1;stroke:none;stroke-width:0.87759632"
       d="m 20.313386,910.9113 3.08543,-2.20389 28.87089,1.54273 0.22038,2.14878 -32.94806,-0.11019"
       id="path1576"
       inkscape:connector-curvature="0"
       inkscape:export-filename="C:\Users\AntonTesh\Desktop\path1863.png"
       inkscape:export-xdpi="192.86"
       inkscape:export-ydpi="192.86" />
    <path
       style="fill:#5b3c30;fill-opacity:1;stroke:none;stroke-width:0.87759632"
       d="m 48.101066,889.87057 5.02579,-0.11687 0.15583,11.92162 -2.33756,-2.72717"
       id="path1596"
       inkscape:connector-curvature="0"
       inkscape:export-filename="C:\Users\AntonTesh\Desktop\path1863.png"
       inkscape:export-xdpi="192.86"
       inkscape:export-ydpi="192.86" />
    <path
       style="fill:#472f26;fill-opacity:1;stroke:none;stroke-width:0.87759632"
       d="m 47.555646,892.79254 0.54542,-2.92197 4.28556,11.29827 -0.97399,0.27272 -3.97387,-7.90878"
       id="path1594"
       inkscape:connector-curvature="0"
       inkscape:export-filename="C:\Users\AntonTesh\Desktop\path1863.png"
       inkscape:export-xdpi="192.86"
       inkscape:export-ydpi="192.86" />
    <path
       style="fill:#5b3c30;fill-opacity:1;stroke:none;stroke-width:0.87759632"
       d="m 41.633796,893.0263 5.92185,-0.23376 5.45433,10.05156 -0.58439,0.66231 -10.75284,-9.11653"
       id="path1592"
       inkscape:connector-curvature="0"
       inkscape:export-filename="C:\Users\AntonTesh\Desktop\path1863.png"
       inkscape:export-xdpi="192.86"
       inkscape:export-ydpi="192.86" />
    <path
       style="fill:#472f26;fill-opacity:1;stroke:none;stroke-width:0.87759632"
       d="m 41.205236,895.36387 0.42856,-2.33757 10.71387,9.85676 -0.35064,0.66231 -11.33722,-7.20752"
       id="path1590"
       inkscape:connector-curvature="0"
       inkscape:export-filename="C:\Users\AntonTesh\Desktop\path1863.png"
       inkscape:export-xdpi="192.86"
       inkscape:export-ydpi="192.86" />
    <path
       style="fill:#5b3c30;fill-opacity:1;stroke:none;stroke-width:0.87759632"
       d="m 34.621076,895.63658 6.58416,-0.27271 11.57098,8.3763 -0.27272,0.85711 -17.53178,-7.16856"
       id="path1588"
       inkscape:connector-curvature="0"
       inkscape:export-filename="C:\Users\AntonTesh\Desktop\path1863.png"
       inkscape:export-xdpi="192.86"
       inkscape:export-ydpi="192.86" />
    <path
       style="fill:#472f26;fill-opacity:1;stroke:none;stroke-width:0.87759632"
       d="m 34.387326,898.44167 0.23375,-2.80509 17.25908,8.33734 0.002,0.8832 -17.44866,-5.50973"
       id="path1586"
       inkscape:connector-curvature="0"
       sodipodi:nodetypes="ccccc"
       inkscape:export-filename="C:\Users\AntonTesh\Desktop\path1863.png"
       inkscape:export-xdpi="192.86"
       inkscape:export-ydpi="192.86" />
    <path
       style="fill:#5b3c30;fill-opacity:1;stroke:none;stroke-width:0.87759632"
       d="m 27.881086,899.10398 6.50624,-0.66231 17.45387,6.15561 -0.27273,1.28567 -22.09005,-5.18162"
       id="path1584"
       inkscape:connector-curvature="0"
       inkscape:export-filename="C:\Users\AntonTesh\Desktop\path1863.png"
       inkscape:export-xdpi="192.86"
       inkscape:export-ydpi="192.86" />
    <path
       style="fill:#472f26;fill-opacity:1;stroke:none;stroke-width:0.87759632"
       d="m 27.530446,903.38953 0.35064,-4.28555 24.27178,6.0777 v 2.72716 l -24.46659,-3.2726"
       id="path1582"
       inkscape:connector-curvature="0"
       inkscape:export-filename="C:\Users\AntonTesh\Desktop\path1863.png"
       inkscape:export-xdpi="192.86"
       inkscape:export-ydpi="192.86" />
    <path
       style="fill:#5b3c30;fill-opacity:1;stroke:none;stroke-width:0.87759632"
       d="m 23.564116,905.01591 3.96633,-1.62638 25.36266,3.97387 -0.11689,2.0259 -28.44046,-3.23364"
       id="path1580"
       inkscape:connector-curvature="0"
       inkscape:export-filename="C:\Users\AntonTesh\Desktop\path1863.png"
       inkscape:export-xdpi="192.86"
       inkscape:export-ydpi="192.86" />
    <path
       style="fill:#472f26;fill-opacity:1;stroke:none;stroke-width:0.87759632"
       d="m 23.398816,908.70741 0.1653,-3.6915 28.375,3.08544 0.1653,3.25073"
       id="path1578"
       inkscape:connector-curvature="0"
       sodipodi:nodetypes="cccc"
       inkscape:export-filename="C:\Users\AntonTesh\Desktop\path1863.png"
       inkscape:export-xdpi="192.86"
       inkscape:export-ydpi="192.86" />
    <path
       style="fill:#795342;fill-opacity:1;stroke:none;stroke-width:0.87759632"
       d="m 17.245126,915.62282 0.31169,1.16879 1.87004,0.5454 1.40255,-0.0779 0.62335,-1.6363 c 0,0 0.62336,-25.86913 0.46751,-26.1808 -0.15583,-0.31168 1.48046,-6.46729 1.48046,-6.46729 l 9.66197,-4.98682 9.8178,0.54544 7.48023,4.75306 1.40255,6.85688 -0.58439,26.21977 0.8571,1.01294 2.33758,0.0779 0.62335,-1.01295 0.74022,-28.24566 -2.18172,-8.49319 -5.76601,-4.36346 -6.62313,-1.09087 -8.96069,-0.15584 -6.77896,2.0259 -5.14265,4.51931 -2.10382,7.7919 -0.85712,20.72648 z"
       id="path1572"
       inkscape:connector-curvature="0"
       sodipodi:nodetypes="ccccccccccccccccccccccccc"
       inkscape:export-filename="C:\Users\AntonTesh\Desktop\path1863.png"
       inkscape:export-xdpi="192.86"
       inkscape:export-ydpi="192.86" />
    <g
       id="g1863"
       transform="matrix(0.93610275,0,0,0.93610275,-115.9921,54.132322)">
      <path
         id="path1751"
         transform="matrix(0.9375,0,0,0.9375,0,872.36216)"
         d="m 171.58594,66.40625 -1.82422,0.400391 -7.03125,3.388671 -2.00977,2.166016 -2.96093,7.523438 -1.70899,0.125 -4.64453,1.380859 -2.01953,1.367187 -2.38672,3.013672 -0.86914,2.289063 -0.25,4.519531 0.91797,2.798828 3.51562,4.269532 0.0371,0.04687 3.00391,3.539072 3.01758,9.16796 0.58593,1.13672 5.27344,7.15821 2.02344,1.45312 13.31055,4.26758 1.89062,0.14062 7.66016,-1.2539 0.9082,-0.25977 6.9043,-2.88867 1.57422,-1.17578 3.89257,-4.77149 0.7461,-1.4082 1.00586,-3.39062 0.0449,-2.13477 -0.37695,-1.50586 -2.3577,-2.67899 -3.05051,-0.14327 -2.96679,3.01953 -0.0234,0.0976 -0.91992,0.63282 -0.0215,-0.23243 1.75,-3.75976 4.01367,-4.01367 0.75782,-1.052742 3.01367,-6.027344 0.39258,-2.345703 -0.50196,-3.767578 -1.23828,-2.414063 -2.13476,-2.009765 -1.98242,-1.021485 -3.39844,-0.67768 v -1.503906 l -0.72461,-2.3125 -4.01953,-5.775391 -1.28321,-1.185547 -6.02539,-3.515625 -1.97461,-0.550781 z"
         style="fill:#000000;fill-opacity:1;stroke:none;stroke-width:1"
         inkscape:connector-curvature="0"
         sodipodi:nodetypes="ccccccccccccccccccccccccccccccccccccccccccccccccccccc" />
      <path
         inkscape:export-ydpi="192.86"
         inkscape:export-xdpi="192.86"
         inkscape:export-filename="C:\Users\AntonTesh\Desktop\path1863.png"
         inkscape:connector-curvature="0"
         id="path1600"
         d="m 140.55281,959.36657 0.23544,-4.23777 2.2366,-2.82518 4.35548,-1.29488 3.41377,1.4126 0.58858,-3.6492 2.82519,-7.18067 6.59208,-3.17833 7.06296,0.11772 5.65036,3.29604 3.76691,5.41493 v 6.47438 l 2.70747,-1.41259 3.53148,0.70629 2.00117,1.88346 0.47086,3.53148 -2.82519,5.65036 -4.23777,4.23777 -2.35431,5.06179 0.35314,3.88463 0.94173,1.05944 3.06061,0.23543 3.76691,-2.58975 0.35315,-1.53031 0.47087,-0.11771 0.35315,1.41259 -0.94173,3.17833 -3.64919,4.4732 -6.47439,2.70747 -7.18067,1.17716 -12.47789,-4.00234 -4.94406,-6.70981 -3.06061,-9.29956 -3.29605,-3.88462 z"
         style="fill:#ffffff;fill-opacity:1;stroke:none;stroke-width:0.9375;stroke-opacity:1" />
      <path
         inkscape:export-ydpi="192.86"
         inkscape:export-xdpi="192.86"
         inkscape:export-filename="C:\Users\AntonTesh\Desktop\path1863.png"
         inkscape:connector-curvature="0"
         id="path1602"
         d="m 156.47755,946.1045 -1.66475,0.49943 -1.5399,2.08094 0.37457,2.2058 2.74684,0.62429 1.95609,-0.91562 0.70752,-2.33065 -0.91562,-1.62314 z"
         style="fill:#1b1b1b;fill-opacity:1;stroke:none;stroke-width:0.9375;stroke-opacity:1" />
      <path
         inkscape:export-ydpi="192.86"
         inkscape:export-xdpi="192.86"
         inkscape:export-filename="C:\Users\AntonTesh\Desktop\path1863.png"
         inkscape:connector-curvature="0"
         id="path1604"
         d="m 170.83606,949.35078 -1.45666,1.74799 0.49943,2.2058 1.45665,1.3318 1.99771,0.37457 2.08094,-0.79076 0.54105,-1.91446 -0.74914,-1.78962 -1.87285,-1.08209 z"
         style="fill:#1b1b1b;fill-opacity:1;stroke:none;stroke-width:0.9375;stroke-opacity:1" />
      <path
         inkscape:export-ydpi="192.86"
         inkscape:export-xdpi="192.86"
         inkscape:export-filename="C:\Users\AntonTesh\Desktop\path1863.png"
         sodipodi:nodetypes="cccccccccccccccccccc"
         inkscape:connector-curvature="0"
         id="path1606"
         d="m 159.93191,956.00979 h -1.62313 l -1.87286,1.16533 -0.4578,2.28904 0.91562,0.83238 1.70637,-0.45781 1.08209,0.49943 1.33181,1.41504 1.29018,0.45781 1.70637,-0.24971 1.16533,-0.66591 1.87285,-0.16648 1.7896,0.49943 0.95724,-1.41504 -0.12485,-1.49828 -1.29018,-2.2058 -2.49714,-1.04047 -1.99771,0.33295 -1.91447,0.79076 z"
         style="fill:#1b1b1b;fill-opacity:1;stroke:none;stroke-width:0.9375;stroke-opacity:1" />
    </g>
    <g
       id="g1825"
       transform="matrix(0.93610275,0,0,0.93610275,-112.6626,51.468672)">
      <path
         transform="matrix(0.9375,0,0,0.9375,0,872.36216)"
         id="path1761"
         d="m 221.19304,1.236007 -3.22851,2.1207727 -3.93984,0.8498631 1.2626,5.6689999 0.94711,3.1888103 -6.00782,11.271485 -0.18945,0.353515 -0.01,0.01758 -0.3457,0.650391 -0.4082,2.626953 0.16015,0.878906 1.08789,2.101563 13.03321,13.349609 -2.84187,0.99873 -0.20264,5.451385 -1.77247,4.591275 0.69625,1.618833 4.9377,0.159836 4.72695,2.778427 2.30178,-5.153173 -0.13672,-0.59961 0.1543,-0.109375 0.8418,-0.818359 1.26562,1.294922 0.56055,0.478515 3.49218,2.466797 1.11133,0.552735 1.16407,0.36914 2.98242,-0.210937 0.17578,-0.08594 h -0.92188 l 2.89258,-1.214844 0.0937,-0.0957 1.15625,-1.169921 1.45313,-1.466797 L 248,53.794922 256.82812,42.5 l 0.041,0.820312 -0.67969,0.511719 -0.69723,5.154271 4.86245,1.925972 3.12169,1.959814 3.80294,-3.668959 -0.0156,-0.412109 1.52308,-3.202229 -1.22704,-2.924257 -3.3197,-0.26046 -1.6622,-3.310574 -2.16176,-1.185293 7.87304,-10.072265 0.85156,-2.707032 -0.0664,-1.259765 v -0.002 l -0.0137,-0.257813 -0.80078,-2.210937 -0.37696,-0.503907 -0.002,-0.0039 -7.61328,-10.150391 -0.002,-0.002 -0.63671,-0.847656 -1.42774,-1.1894531 -0.17187,-0.087891 -0.93946,-0.4707031 -1.86523,-0.4296875 -0.29883,0.00391 -2.8164,-0.8652344 -0.68946,0.050781 -3.94812,-1.1412002 -3.69055,2.0904189 -4.84367,0.058675 -0.9375,0.00977 h -0.006 l -10.92759,0.1328125 -2.04493,-3.3183594 -0.0234,-0.013672 0.24686,0.6096291 -3.07519,-4.0055383 z"
         style="fill:#000000;fill-opacity:1;stroke:none;stroke-width:1"
         inkscape:connector-curvature="0" />
      <path
         inkscape:export-ydpi="192.86"
         inkscape:export-xdpi="192.86"
         inkscape:export-filename="C:\Users\AntonTesh\Desktop\path1863.png"
         sodipodi:nodetypes="cccccccccccccc"
         inkscape:connector-curvature="0"
         id="path1560"
         d="m 207.19349,884.28817 0.97348,-0.52419 31.15134,-0.37441 1.04836,0.52419 8.08737,10.78315 0.0748,1.42278 -19.02028,24.33697 -2.55038,2.57595 -0.94832,0.45674 -1.09115,-0.34679 -3.27286,-2.31148 -21.56631,-22.09049 -0.14977,-0.82372 z"
         style="fill:#dc1058;fill-opacity:1;stroke:none;stroke-width:0.84340149" />
      <path
         inkscape:export-ydpi="192.86"
         inkscape:export-xdpi="192.86"
         inkscape:export-filename="C:\Users\AntonTesh\Desktop\path1863.png"
         inkscape:connector-curvature="0"
         id="path1562"
         d="m 224.92831,883.56272 -1.76331,0.0201 -4.80285,13.63037 -10.177,-13.44909 h -0.0183 l -0.66651,0.35888 10.24475,13.65601 -17.14782,-1.11511 -0.34425,0.6427 17.22107,1.21399 6.65772,24.06555 0.69397,0.49072 -6.41785,-24.52148 13.62671,-0.50171 -5.93628,25.39306 0.8606,-0.41381 0.0879,-0.0897 c 0.75303,-2.89147 6.19139,-24.43805 6.35376,-25.08178 l 15.06591,-2.92237 -0.0128,-0.24169 -0.35339,-0.47242 -14.53309,2.70996 7.39564,-12.22595 -0.59693,-0.79468 -0.16479,-0.0824 -7.4762,13.20373 z m -1.1499,0.81848 h 0.58776 l 7.32605,12.84851 -12.85584,0.53833 z"
         style="fill:#f71e6b;fill-opacity:1;stroke:none;stroke-width:0.9375" />
      <path
         inkscape:export-ydpi="192.86"
         inkscape:export-xdpi="192.86"
         inkscape:export-filename="C:\Users\AntonTesh\Desktop\path1863.png"
         sodipodi:nodetypes="ccccccccc"
         inkscape:connector-curvature="0"
         id="path1611"
         d="m 206.04194,878.90483 1.09724,-1.9237 0.21109,2.13894 1.7379,0.98457 -2.14068,0.19085 -1.15523,2.09523 0.0731,-2.66447 -1.73789,-1.04762 z"
         style="fill:#fcaeca;fill-opacity:1;stroke:none;stroke-width:0.9375;stroke-opacity:1" />
      <path
         inkscape:export-ydpi="192.86"
         inkscape:export-xdpi="192.86"
         inkscape:export-filename="C:\Users\AntonTesh\Desktop\path1863.png"
         sodipodi:nodetypes="ccccccccc"
         inkscape:connector-curvature="0"
         id="path1611-9"
         d="m 246.67662,915.72632 0.10431,2.90027 -1.71055,-2.23767 -2.61554,0.1017 2.25356,-1.68921 -0.158,-3.13139 1.75638,3.01924 2.65902,-0.0314 z"
         style="fill:#fcaeca;fill-opacity:1;stroke:none;stroke-width:1.228544;stroke-opacity:1" />
      <path
         inkscape:export-ydpi="192.86"
         inkscape:export-xdpi="192.86"
         inkscape:export-filename="C:\Users\AntonTesh\Desktop\path1863.png"
         sodipodi:nodetypes="ccccccccc"
         inkscape:connector-curvature="0"
         id="path1611-9-5"
         d="m 232.44438,883.4852 -0.20767,-2.89471 1.78926,2.17525 2.61025,-0.19491 -2.19189,1.7685 0.26957,3.12376 -1.86293,-2.95468 -2.65621,0.1262 z"
         style="fill:#fcaeca;fill-opacity:1;stroke:none;stroke-width:1.228544;stroke-opacity:1" />
      <path
         inkscape:export-ydpi="192.86"
         inkscape:export-xdpi="192.86"
         inkscape:export-filename="C:\Users\AntonTesh\Desktop\path1863.png"
         sodipodi:nodetypes="ccccccccc"
         inkscape:connector-curvature="0"
         id="path1611-2"
         d="m 212.55255,921.52298 0.68224,3.01566 -2.23288,-2.0046 -2.71811,0.62327 2.0255,-2.2137 -0.78415,-3.24701 2.43532,2.81378 2.77749,-0.5583 z"
         style="fill:#fcaeca;fill-opacity:1;stroke:none;stroke-width:1.30886233;stroke-opacity:1" />
    </g>
    <g
       id="g1883"
       transform="matrix(0.93610275,0,0,0.93610275,-112.6625,59.459532)">
      <path
         id="path1747"
         transform="matrix(0.9375,0,0,0.9375,0,872.36216)"
         d="m 230.93359,139.29297 -2.36914,0.66992 -3.03711,2.00977 -1.69726,2.40625 -1.6836,6.82226 -0.0156,0.0606 -0.10548,0.0352 -0.49023,0.2246 -7.10352,3.90625 -1.9375,2.41993 -2.21875,7.63672 0.14844,2.67773 2.57422,6.21484 2.33203,2.24805 5.5039,2.04102 1.70313,0.24218 4.31836,-0.31054 3.07226,-0.21289 1.3711,-0.0879 0.73437,-0.0527 0.61133,-0.0781 1.84766,-0.25586 5.27539,-0.76563 7.49219,-1.11133 1.49804,-0.54101 8.86133,-5.36719 0.25977,-0.0898 1.67382,0.17187 1.80274,0.13086 2.96875,-0.54687 1.36719,-0.45118 2.32306,-2.84892 0.42609,-4.11258 -2.04797,-3.42325 -2.23438,-1.13672 -3.22656,-0.50977 -0.12891,-1.65625 -0.0684,-0.49218 -1.50196,-7.41211 -1.95312,-2.70703 -5.56055,-3.19141 -1.33789,-0.48047 -10.19922,-1.73047 -0.54297,-0.0547 z"
         style="fill:#000000;fill-opacity:1;stroke:none;stroke-width:1"
         inkscape:connector-curvature="0"
         sodipodi:nodetypes="ccccccccccccccccccccccccccccccccccccccccccccc" />
      <path
         inkscape:export-ydpi="192.86"
         inkscape:export-xdpi="192.86"
         inkscape:export-filename="C:\Users\AntonTesh\Desktop\path1863.png"
         style="fill:#d6c85a;fill-opacity:1;stroke:none;stroke-width:0.9375"
         d="m 248.43476,1025.7859 -0.64744,1.7657 c 0,0 -1.94231,0.7063 -2.76633,0.7063 -0.82402,0 -9.06412,-0.9417 -9.06412,-0.9417 l 0.35314,-0.824"
         id="path1736"
         inkscape:connector-curvature="0" />
      <path
         inkscape:export-ydpi="192.86"
         inkscape:export-xdpi="192.86"
         inkscape:export-filename="C:\Users\AntonTesh\Desktop\path1863.png"
         style="fill:#e8de8f;fill-opacity:1;stroke:none;stroke-width:0.9375"
         d="m 216.37338,1006.7437 -2.84729,1.8842 -1.72669,6.9928 -0.2124,1.7358 -2.06909,0.3845 -6.65955,3.6622 -2.08008,7.1594 2.41333,5.8264 5.15992,1.9134 c 0,0 7.99117,-0.5822 8.4906,-0.5822 0.49942,0 14.40125,-2.0801 14.40125,-2.0801 l 8.65539,-5.2441 5.32837,-1.8311 2.33093,0.249 1.33118,-0.9155 -1.83105,-1.8311 c 0,0 -3.07746,-0.4841 -5.98939,-0.9466 l -0.35156,-4.541 -1.40808,-6.9489 -5.21302,-2.9919 -9.56176,-1.6223 z"
         id="path1738"
         inkscape:connector-curvature="0" />
      <path
         inkscape:export-ydpi="192.86"
         inkscape:export-xdpi="192.86"
         inkscape:export-filename="C:\Users\AntonTesh\Desktop\path1863.png"
         style="fill:#fbf5c2;fill-opacity:1;stroke:none;stroke-width:0.9375"
         d="m 211.40023,1018.9019 -0.55114,4.5209 2.33093,2.4207 7.6831,2.0617 h 10.01221 l 8.45947,-1.8823 1.81275,-1.8842 -0.25452,-3.2922 -3.19886,1.181 c 10e-6,0 -5.82721,1.4154 -6.20177,1.4154 -0.37457,0 -10.03052,-0.3332 -10.03052,-0.3332 l -7.28211,-2.0801 z"
         id="path1740"
         inkscape:connector-curvature="0" />
      <path
         inkscape:export-ydpi="192.86"
         inkscape:export-xdpi="192.86"
         inkscape:export-filename="C:\Users\AntonTesh\Desktop\path1863.png"
         style="fill:#d6c85a;fill-opacity:1;stroke:none;stroke-width:0.9375"
         d="m 224.77385,1007.8931 -4.82635,0.1765 -3.17833,0.3532 -1.35374,0.824 0.58859,0.6474 c 0,0 4.4732,-0.1765 4.76749,-0.1765 0.29429,0 9.77042,0.6474 9.77042,0.6474 l 2.35432,-0.059 -0.23543,-0.8829 c 0,0 -2.11889,-0.6474 -3.06062,-0.824 -0.94172,-0.1766 -4.82635,-0.7063 -4.82635,-0.7063 z"
         id="path1742"
         inkscape:connector-curvature="0" />
    </g>
    <path
       sodipodi:nodetypes="ccccccccccccccccccccccccccccccccccccccccccccc"
       inkscape:connector-curvature="0"
       style="fill:#000000;fill-opacity:1;stroke:none;stroke-width:0.87759632"
       d="m 150.8366,998.32319 -2.0791,0.5879 -2.6654,1.76371 -1.4895,2.1118 -1.4775,5.9872 -0.014,0.053 -0.093,0.031 -0.4302,0.1971 -6.23406,3.4281 -1.70034,2.1237 -1.94717,6.702 0.13027,2.3499 2.25912,5.4541 2.04659,1.9729 4.8302,1.7912 1.49469,0.2125 3.7897,-0.2725 2.6963,-0.1868 1.2032,-0.077 0.6445,-0.046 0.5365,-0.068 1.6215,-0.2246 4.6297,-0.6719 6.5751,-0.9753 1.3147,-0.4748 7.7766,-4.7119 0.228,-0.079 1.4689,0.1508 1.5838,0.1166 2.6054,-0.48 1.1998,-0.3959 2.0405,-2.502 0.3705,-3.6074 -1.7973,-3.0043 -1.9609,-0.9976 -2.8316,-0.4473 -0.1132,-1.4535 -0.06,-0.432 -1.3181,-6.5048 -1.714,-2.3757 -4.88,-2.8008 -1.1741,-0.4216 -8.9508,-1.51871 -0.4765,-0.048 z"
       id="path1577" />
    <path
       style="fill:#502517;fill-opacity:1;stroke:none;stroke-width:0.87759632"
       d="m 180.7317,1019.7005 -0.606,1.6529 c 0,0 -1.8182,0.6612 -2.5896,0.6612 -0.7714,0 -8.485,-0.8815 -8.485,-0.8815 l 0.3306,-0.7714"
       id="path1744"
       inkscape:connector-curvature="0"
       inkscape:export-filename="C:\Users\AntonTesh\Desktop\path1863.png"
       inkscape:export-xdpi="192.86"
       inkscape:export-ydpi="192.86" />
    <path
       style="fill:#701e18;fill-opacity:1;stroke:none;stroke-width:0.87759632"
       d="m 150.719,1001.8751 -2.6654,1.7638 -1.6163,6.546 -0.1989,1.6249 -1.9368,0.3599 -6.23406,3.4282 -1.94717,6.7019 2.25912,5.4541 4.83021,1.7912 c 0,0 7.4806,-0.545 7.9481,-0.545 0.4675,0 13.481,-1.9472 13.481,-1.9472 l 8.1024,-4.909 4.9879,-1.7141 2.182,0.2331 1.2461,-0.857 -1.7141,-1.7141 c 0,0 -2.8808,-0.4532 -5.6067,-0.8862 l -0.3291,-4.2508 -1.3181,-6.5049 -4.8799,-2.8007 -8.9508,-1.5186 z"
       id="path1746"
       inkscape:connector-curvature="0"
       inkscape:export-filename="C:\Users\AntonTesh\Desktop\path1863.png"
       inkscape:export-xdpi="192.86"
       inkscape:export-ydpi="192.86" />
    <path
       style="fill:#91211a;fill-opacity:1;stroke:none;stroke-width:0.87759632"
       d="m 146.0636,1013.2564 -0.5159,4.232 2.182,2.2661 7.1921,1.9299 h 9.3725 l 7.9189,-1.762 1.697,-1.7638 -0.2383,-3.0818 -2.9945,1.1055 c 0,0 -5.4548,1.325 -5.8055,1.325 -0.3506,0 -9.3896,-0.312 -9.3896,-0.312 l -6.8168,-1.9471 z"
       id="path1748"
       inkscape:connector-curvature="0"
       inkscape:export-filename="C:\Users\AntonTesh\Desktop\path1863.png"
       inkscape:export-xdpi="192.86"
       inkscape:export-ydpi="192.86" />
    <path
       style="fill:#521c18;fill-opacity:1;stroke:none;stroke-width:0.87759632"
       d="m 158.5827,1002.951 -4.518,0.1653 -2.9752,0.3306 -1.2673,0.7713 0.551,0.6061 c 0,0 4.1874,-0.1652 4.4629,-0.1652 0.2755,0 9.1461,0.606 9.1461,0.606 l 2.2039,-0.055 -0.2204,-0.8265 c 0,0 -1.9835,-0.6061 -2.8651,-0.7714 -0.8815,-0.1653 -4.5179,-0.6611 -4.5179,-0.6611 z"
       id="path1750"
       inkscape:connector-curvature="0"
       inkscape:export-filename="C:\Users\AntonTesh\Desktop\path1863.png"
       inkscape:export-xdpi="192.86"
       inkscape:export-ydpi="192.86" />
    <g
       id="g1856"
       transform="matrix(0.93610275,0,0,0.93610275,-112.9955,54.132322)">
      <path
         transform="matrix(0.9375,0,0,0.9375,0,872.36216)"
         id="path1753"
         d="m 237.25586,65.589844 -1.82617,0.402344 -7.03125,3.390624 -2.00782,2.164063 -2.96093,7.521484 -1.70899,0.125 -4.64453,1.38086 -2.01953,1.367187 -2.38672,3.013672 -0.86914,2.289063 -0.25,4.519531 0.91797,2.798828 3.51563,4.269531 0.0371,0.04492 3.00391,3.541019 3.01758,9.16797 0.58594,1.13672 5.27343,7.1582 2.02344,1.45312 13.31055,4.26954 1.89258,0.14062 7.6582,-1.25586 0.90625,-0.25976 6.90625,-2.88868 1.57422,-1.17578 3.89258,-4.77148 0.74609,-1.4082 1.00586,-3.39063 0.0449,-2.13477 -0.37695,-1.50586 -2.3577,-2.67899 -3.05051,-0.14327 -2.96679,3.01953 -0.0234,0.0977 -0.91992,0.63281 -0.0215,-0.23242 1.75,-3.75977 4.01368,-4.013672 0.75781,-1.052734 3.01367,-6.027344 0.39258,-2.345703 -0.50195,-3.767578 -1.24024,-2.414063 -2.13476,-2.007812 -1.97852,-1.021485 -3.40039,-0.679687 v -1.503906 l -0.72461,-2.3125 -4.01953,-5.775391 -1.2832,-1.185547 -6.02735,-3.515625 -1.97461,-0.550781 z"
         style="fill:#000000;fill-opacity:1;stroke:none;stroke-width:1"
         inkscape:connector-curvature="0"
         sodipodi:nodetypes="ccccccccccccccccccccccccccccccccccccccccccccccccccccc" />
      <path
         inkscape:export-ydpi="192.86"
         inkscape:export-xdpi="192.86"
         inkscape:export-filename="C:\Users\AntonTesh\Desktop\path1863.png"
         inkscape:connector-curvature="0"
         id="path1600-5"
         d="m 202.11824,958.60142 0.23544,-4.23777 2.2366,-2.82518 4.35548,-1.29488 3.41377,1.4126 0.58858,-3.6492 2.82519,-7.18067 6.59208,-3.17833 7.06296,0.11772 5.65036,3.29604 3.76691,5.41493 v 6.47438 l 2.70747,-1.41259 3.53148,0.70629 2.00117,1.88346 0.47086,3.53148 -2.82519,5.65036 -4.23777,4.23777 -2.35431,5.06179 0.35314,3.88463 0.94173,1.05944 3.06061,0.23543 3.76691,-2.58975 0.35315,-1.53031 0.47087,-0.11771 0.35315,1.41259 -0.94173,3.17833 -3.64919,4.4732 -6.47439,2.70747 -7.18067,1.17716 -12.47789,-4.00234 -4.94406,-6.70981 -3.06061,-9.29956 -3.29605,-3.88462 z"
         style="fill:#ffffff;fill-opacity:1;stroke:none;stroke-width:0.9375;stroke-opacity:1" />
      <path
         inkscape:export-ydpi="192.86"
         inkscape:export-xdpi="192.86"
         inkscape:export-filename="C:\Users\AntonTesh\Desktop\path1863.png"
         inkscape:connector-curvature="0"
         id="path1602-3"
         d="m 219.53839,945.57893 -1.64846,0.55083 -1.47461,2.1277 0.44282,2.19312 2.76488,0.53879 1.92674,-0.97586 0.6349,-2.35147 -0.96553,-1.59396 z"
         style="fill:#1b1b1b;fill-opacity:1;stroke:none;stroke-width:0.9375;stroke-opacity:1" />
      <path
         inkscape:export-ydpi="192.86"
         inkscape:export-xdpi="192.86"
         inkscape:export-filename="C:\Users\AntonTesh\Desktop\path1863.png"
         inkscape:connector-curvature="0"
         id="path1604-9"
         d="m 227.61165,945.9506 -1.45666,1.74799 0.49943,2.2058 1.45665,1.3318 1.99771,0.37457 2.08094,-0.79076 0.54105,-1.91446 -0.74914,-1.78962 -1.87285,-1.08209 z"
         style="fill:#1b1b1b;fill-opacity:1;stroke:none;stroke-width:0.9375;stroke-opacity:1" />
      <path
         inkscape:export-ydpi="192.86"
         inkscape:export-xdpi="192.86"
         inkscape:export-filename="C:\Users\AntonTesh\Desktop\path1863.png"
         sodipodi:nodetypes="ccccccccccccc"
         inkscape:connector-curvature="0"
         id="path1861"
         d="m 219.81901,956.09651 -3.24627,-2.08095 -2.91332,2.4139 1.08209,3.32951 3.41275,3.91217 8.73996,0.99885 5.24398,-2.74685 2.08094,-4.57807 -1.9977,-2.49713 -4.57808,0.16647 -2.83009,2.08095 -3.3295,0.16644 z"
         style="fill:#1b1b1b;fill-opacity:1;stroke:none;stroke-width:0.9375" />
    </g>
    <g
       id="g1849"
       transform="matrix(0.93610275,0,0,0.93610275,-109.9989,54.132322)">
      <path
         id="path1755"
         transform="matrix(0.9375,0,0,0.9375,0,872.36216)"
         d="m 301.79492,65.337891 -1.82617,0.402343 -7.03125,3.390625 -2.00781,2.164063 -2.95899,7.521484 -1.70898,0.125 -4.64649,1.38086 -2.01953,1.367187 -2.38672,3.013672 -0.86914,2.291016 -0.25,4.521484 0.91797,2.796875 3.51563,4.267578 0.0371,0.04492 3.0039,3.542972 3.01953,9.16797 0.58594,1.13672 5.27344,7.15625 2.02344,1.45312 13.30859,4.26953 1.89063,0.14063 7.66015,-1.25586 0.90821,-0.25977 6.90624,-2.88867 1.57422,-1.17578 3.89258,-4.77149 0.7461,-1.41015 1.0039,-3.38867 0.0449,-2.13282 -0.37695,-1.50781 -2.3577,-2.67899 -3.0505,-0.14327 -2.9668,3.01953 -0.0234,0.0996 -0.91992,0.63281 -0.0215,-0.23242 1.75,-3.76172 4.01367,-4.013675 0.75781,-1.052735 3.01367,-6.027343 0.39258,-2.345703 -0.50195,-3.765625 -1.23828,-2.414063 -2.13477,-2.009766 -1.98047,-1.021484 -3.40039,-0.68164 v -1.5 l -0.72461,-2.3125 -4.01758,-5.775391 -1.2832,-1.185547 -6.02734,-3.517578 -1.97461,-0.550781 z"
         style="fill:#000000;fill-opacity:1;stroke:none;stroke-width:1"
         inkscape:connector-curvature="0"
         sodipodi:nodetypes="ccccccccccccccccccccccccccccccccccccccccccccccccccccc" />
      <path
         inkscape:export-ydpi="192.86"
         inkscape:export-xdpi="192.86"
         inkscape:export-filename="C:\Users\AntonTesh\Desktop\path1863.png"
         inkscape:connector-curvature="0"
         id="path1600-0"
         d="m 262.62422,958.36599 0.23544,-4.23777 2.2366,-2.82518 4.35548,-1.29488 3.41377,1.4126 0.58858,-3.6492 2.82519,-7.18067 6.59208,-3.17833 7.06296,0.11772 5.65036,3.29604 3.76692,5.41493 v 6.47438 l 2.70747,-1.41259 3.53148,0.70629 2.00116,1.88346 0.47087,3.53148 -2.82519,5.65036 -4.23777,4.23777 -2.35431,5.06179 0.35313,3.88463 0.94173,1.05944 3.06061,0.23543 3.76691,-2.58975 0.35316,-1.53031 0.47086,-0.11771 0.35316,1.41259 -0.94174,3.17833 -3.64919,4.4732 -6.47439,2.70747 -7.18067,1.17716 -12.47789,-4.00234 -4.94406,-6.70981 -3.06061,-9.29956 -3.29605,-3.88462 z"
         style="fill:#ffffff;fill-opacity:1;stroke:none;stroke-width:0.9375;stroke-opacity:1" />
      <path
         inkscape:export-ydpi="192.86"
         inkscape:export-xdpi="192.86"
         inkscape:export-filename="C:\Users\AntonTesh\Desktop\path1863.png"
         inkscape:connector-curvature="0"
         id="path1602-5"
         d="m 276.75935,946.85191 -1.66475,0.49943 -1.5399,2.08094 0.37457,2.2058 2.74684,0.62429 1.95609,-0.91562 0.70752,-2.33065 -0.91562,-1.62314 z"
         style="fill:#1b1b1b;fill-opacity:1;stroke:none;stroke-width:0.9375;stroke-opacity:1" />
      <path
         inkscape:export-ydpi="192.86"
         inkscape:export-xdpi="192.86"
         inkscape:export-filename="C:\Users\AntonTesh\Desktop\path1863.png"
         inkscape:connector-curvature="0"
         id="path1604-0"
         d="m 293.03232,947.80915 -1.45666,1.74799 0.49943,2.2058 1.45665,1.3318 1.99771,0.37457 2.08094,-0.79076 0.54105,-1.91446 -0.74914,-1.78962 -1.87285,-1.08209 z"
         style="fill:#1b1b1b;fill-opacity:1;stroke:none;stroke-width:0.9375;stroke-opacity:1" />
      <path
         inkscape:export-ydpi="192.86"
         inkscape:export-xdpi="192.86"
         inkscape:export-filename="C:\Users\AntonTesh\Desktop\path1863.png"
         sodipodi:nodetypes="ccccccccccccc"
         inkscape:connector-curvature="0"
         id="path1863"
         d="m 277.43133,954.89078 4.07866,-3.82894 4.74454,-1.58151 4.16189,2.24742 2.91332,5.82664 -0.62429,1.99771 -2.83007,0.54104 -2.91332,-1.29018 -3.62084,-0.4162 -2.83009,1.58152 -3.03817,-0.70752 -0.70752,-2.58037 z"
         style="fill:#1b1b1b;fill-opacity:1;stroke:none;stroke-width:0.9375" />
    </g>
    <g
       id="g1816"
       transform="matrix(0.93610275,0,0,0.93610275,-109.0001,51.468672)">
      <path
         transform="matrix(0.9375,0,0,0.9375,0,872.36216)"
         id="path1759"
         d="m 301.79688,1.0488281 -1.82813,0.4023438 -7.03125,3.390625 -2.00781,2.1640625 -2.95899,7.5214846 -1.70898,0.125 -4.64649,1.380859 -2.01953,1.367188 -2.38672,3.013671 -0.86914,2.291016 -0.25,4.521484 0.91797,2.796876 3.51563,4.269531 0.0371,0.04492 3.0039,3.541015 3.01953,9.167969 0.58594,1.136719 5.27344,7.15625 2.02344,1.453125 13.30859,4.269531 1.89063,0.140625 7.66015,-1.255859 0.90821,-0.259766 6.90624,-2.886719 1.57423,-1.175779 3.89258,-4.771484 0.7461,-1.410157 1.0039,-3.390625 0.0449,-2.132812 -0.37695,-1.507813 -2.37137,-2.67509 -3.0505,-0.141316 -2.95313,3.013672 -0.0234,0.09766 -0.91992,0.634766 -0.0215,-0.232422 1.75,-3.759766 4.01367,-4.015625 0.75781,-1.052734 3.01367,-6.027344 0.39258,-2.345703 -0.50195,-3.765625 -1.23828,-2.414062 -2.13477,-2.009766 -1.98047,-1.021484 -3.40039,-0.681641 v -1.5 l -0.72461,-2.3125 -4.01758,-5.7753906 -1.2832,-1.1855469 -6.02734,-3.515625 -1.97266,-0.5507853 z"
         style="fill:#000000;fill-opacity:1;stroke:none;stroke-width:1"
         inkscape:connector-curvature="0"
         sodipodi:nodetypes="ccccccccccccccccccccccccccccccccccccccccccccccccccccc" />
      <path
         inkscape:export-ydpi="192.86"
         inkscape:export-xdpi="192.86"
         inkscape:export-filename="C:\Users\AntonTesh\Desktop\path1863.png"
         style="fill:#ffffff;fill-opacity:1;stroke:none;stroke-width:0.9375;stroke-opacity:1"
         d="m 262.62422,898.09544 0.23544,-4.23777 2.2366,-2.82518 4.35548,-1.29488 3.41377,1.4126 0.58858,-3.6492 2.82519,-7.18067 6.59208,-3.17833 7.06296,0.11772 5.65036,3.29604 3.76692,5.41493 v 6.47438 l 2.70747,-1.41259 3.53148,0.70629 2.00116,1.88346 0.47087,3.53148 -2.82519,5.65036 -4.23777,4.23777 -2.35431,5.06179 0.35313,3.88463 0.94173,1.05944 3.06061,0.23543 3.76691,-2.58975 0.35316,-1.53031 0.47086,-0.11771 0.35316,1.41259 -0.94174,3.17833 -3.64919,4.4732 -6.47439,2.70747 -7.18067,1.17716 -12.47789,-4.00234 -4.94406,-6.70981 -3.06061,-9.29956 -3.29605,-3.88462 z"
         id="path1752"
         inkscape:connector-curvature="0" />
      <path
         inkscape:export-ydpi="192.86"
         inkscape:export-xdpi="192.86"
         inkscape:export-filename="C:\Users\AntonTesh\Desktop\path1863.png"
         style="fill:#1b1b1b;fill-opacity:1;stroke:none;stroke-width:0.9375;stroke-opacity:1"
         d="m 281.07985,889.30658 -1.66475,0.49943 -1.5399,2.08094 0.37457,2.2058 2.74684,0.62429 1.95609,-0.91562 0.70752,-2.33065 -0.91562,-1.62314 z"
         id="path1754"
         inkscape:connector-curvature="0" />
      <path
         inkscape:export-ydpi="192.86"
         inkscape:export-xdpi="192.86"
         inkscape:export-filename="C:\Users\AntonTesh\Desktop\path1863.png"
         style="fill:#1b1b1b;fill-opacity:1;stroke:none;stroke-width:0.9375;stroke-opacity:1"
         d="m 288.49312,890.25739 -1.45666,1.74799 0.49943,2.2058 1.45665,1.3318 1.99771,0.37457 2.08094,-0.79076 0.54105,-1.91446 -0.74914,-1.78962 -1.87285,-1.08209 z"
         id="path1756"
         inkscape:connector-curvature="0" />
      <path
         inkscape:connector-curvature="0"
         id="path1865"
         d="m 283.84065,898.03941 -1.3318,2.49713 0.99885,1.99771 2.99656,0.83238 1.66475,-1.99771 -0.16647,-1.9977 -1.83124,-1.49828 z"
         style="fill:#1b1b1b;fill-opacity:1;stroke:none;stroke-width:0.9375" />
    </g>
    <flowRoot
       xml:space="preserve"
       id="flowRoot1583"
       style="font-style:normal;font-variant:normal;font-weight:normal;font-stretch:normal;font-size:8px;line-height:1;font-family:Roboto;-inkscape-font-specification:'Roboto, Normal';font-variant-ligatures:normal;font-variant-caps:normal;font-variant-numeric:normal;font-feature-settings:normal;text-align:start;writing-mode:lr-tb;text-anchor:start;fill:#000000;fill-opacity:1;stroke:none"
       transform="matrix(0.9375,0,0,0.9375,29.333896,423.96401)"
       inkscape:export-filename="C:\Users\AntonTesh\Desktop\Back.png"
       inkscape:export-xdpi="192.86"
       inkscape:export-ydpi="192.86"><flowRegion
         id="flowRegion1585"
         style="font-style:normal;font-variant:normal;font-weight:normal;font-stretch:normal;font-size:8px;font-family:Roboto;-inkscape-font-specification:'Roboto, Normal';font-variant-ligatures:normal;font-variant-caps:normal;font-variant-numeric:normal;font-feature-settings:normal;text-align:start;writing-mode:lr-tb;text-anchor:start"><rect
           id="rect1587"
           width="162.50432"
           height="149.71002"
           x="1.2137291"
           y="330.34741"
           style="font-style:normal;font-variant:normal;font-weight:normal;font-stretch:normal;font-size:8px;font-family:Roboto;-inkscape-font-specification:'Roboto, Normal';font-variant-ligatures:normal;font-variant-caps:normal;font-variant-numeric:normal;font-feature-settings:normal;text-align:start;writing-mode:lr-tb;text-anchor:start" /></flowRegion><flowPara
         id="flowPara1566">	Tear the pieces on the dotted lines</flowPara><flowPara
         id="flowPara1568">	Place the exit and hat tokens (explorers) in the same place</flowPara><flowPara
         id="flowPara1570">	Place the gem down and the ghosts between the gem and exit</flowPara><flowPara
         id="flowPara1572">	Place other business cards down as traps</flowPara><flowPara
         id="flowPara1574">	Players take turns flicking their pieces</flowPara><flowPara
         id="flowPara1576">	The explorers must flick their piece to the gem and back to the exit</flowPara><flowPara
         id="flowPara1578">	The ghosts can only use their pinky to flick their pieces</flowPara><flowPara
         id="flowPara1580">	Ghosts cant be closer than a finger to the gem or exit</flowPara><flowPara
         id="flowPara1582">	If a ghost hits an explorer or an explorer hits a trap that explorer loses!</flowPara><flowPara
         id="flowPara1584">	The first explorer to reach the gem and make it to the exit wins!</flowPara></flowRoot>    <text
       xml:space="preserve"
       style="font-size:26.678545px;line-height:1.25;text-align:center;text-anchor:middle;fill:#d6d6d6;fill-opacity:1;stroke:none;stroke-width:0.83370453"
       x="-797.86969"
       y="24.502886"
       id="text1569"
       inkscape:export-filename="C:\Users\AntonTesh\Desktop\Back.png"
       inkscape:export-xdpi="192.86"
       inkscape:export-ydpi="192.86"
       transform="rotate(-90)"><tspan
         sodipodi:role="line"
         x="-797.86969"
         y="24.502886"
         style="font-style:normal;font-variant:normal;font-weight:bold;font-stretch:normal;font-size:17.50000191px;font-family:Roboto;-inkscape-font-specification:'Roboto, Bold';font-variant-ligatures:normal;font-variant-caps:normal;font-variant-numeric:normal;font-feature-settings:normal;text-align:center;writing-mode:lr-tb;text-anchor:middle;fill:#000000;fill-opacity:1;stroke-width:0.83370453"
         id="tspan1586">Indiana Clones</tspan></text>
  </g>
</svg>
