<?xml version="1.0" encoding="UTF-8" standalone="no"?>
<!-- Created with Inkscape (http://www.inkscape.org/) -->

<svg
   xmlns:dc="http://purl.org/dc/elements/1.1/"
   xmlns:cc="http://creativecommons.org/ns#"
   xmlns:rdf="http://www.w3.org/1999/02/22-rdf-syntax-ns#"
   xmlns:svg="http://www.w3.org/2000/svg"
   xmlns="http://www.w3.org/2000/svg"
   xmlns:sodipodi="http://sodipodi.sourceforge.net/DTD/sodipodi-0.dtd"
   xmlns:inkscape="http://www.inkscape.org/namespaces/inkscape"
   width="3.6600001in"
   height="2.1600001in"
   viewBox="0 0 329.40001 194.40001"
   id="svg2"
   version="1.1"
   inkscape:version="0.92.2 (5c3e80d, 2017-08-06)"
   sodipodi:docname="Busienss Card Game Indiana.svg"
   inkscape:export-filename="C:\Users\AntonTesh\Desktop\FrontClones.png"
   inkscape:export-xdpi="300"
   inkscape:export-ydpi="300">
  <defs
     id="defs4" />
  <sodipodi:namedview
     id="base"
     pagecolor="#ffffff"
     bordercolor="#666666"
     borderopacity="1.0"
     inkscape:pageopacity="0.0"
     inkscape:pageshadow="2"
     inkscape:zoom="90.103376"
     inkscape:cx="47.482034"
     inkscape:cy="52.918317"
     inkscape:document-units="px"
     inkscape:current-layer="layer1"
     showgrid="false"
     units="in"
     inkscape:window-width="1920"
     inkscape:window-height="1017"
     inkscape:window-x="1912"
     inkscape:window-y="-8"
     inkscape:window-maximized="1"
     inkscape:showpageshadow="false"
     inkscape:snap-global="false"
     showguides="true"
     inkscape:guide-bbox="true"
     inkscape:snap-bbox="true"
     inkscape:bbox-paths="true"
     inkscape:bbox-nodes="true"
     inkscape:snap-bbox-midpoints="true"
     inkscape:snap-bbox-edge-midpoints="true"
     inkscape:object-paths="true"
     inkscape:snap-intersection-paths="true"
     inkscape:snap-smooth-nodes="true"
     inkscape:snap-midpoints="true"
     inkscape:snap-object-midpoints="true"
     inkscape:snap-center="true"
     inkscape:lockguides="true" />
  <metadata
     id="metadata7">
    <rdf:RDF>
      <cc:Work
         rdf:about="">
        <dc:format>image/svg+xml</dc:format>
        <dc:type
           rdf:resource="http://purl.org/dc/dcmitype/StillImage" />
        <dc:title></dc:title>
      </cc:Work>
    </rdf:RDF>
  </metadata>
  <g
     inkscape:label="Layer 1"
     inkscape:groupmode="layer"
     id="layer1"
     transform="translate(0,-857.96216)">
    <rect
       style="fill:#ffffff;fill-opacity:1;stroke:none;stroke-width:0.95638227"
       id="rect1236"
       width="342.31009"
       height="195.60576"
       x="-335.85504"
       y="-1052.9651"
       inkscape:export-filename="C:\Users\AntonTesh\Desktop\path1863.png"
       inkscape:export-xdpi="192.86"
       inkscape:export-ydpi="192.86"
       transform="scale(-1)" />
    <text
       xml:space="preserve"
       style="font-size:11.25px;line-height:1.25;fill:#d6d6d6;fill-opacity:1;stroke:none;stroke-width:0.9375"
       x="-131.16199"
       y="1190.1533"
       id="text2762"><tspan
         sodipodi:role="line"
         id="tspan2760"
         x="-131.16199"
         y="1200.417"
         style="stroke-width:0.9375" /></text>
    <flowRoot
       xml:space="preserve"
       id="flowRoot1559"
       style="font-size:32px;line-height:1.25;text-align:center;text-anchor:middle;fill:#d6d6d6;fill-opacity:1;stroke:none"
       transform="matrix(0.9375,0,0,0.9375,0,872.36216)"><flowRegion
         id="flowRegion1561"
         style="font-size:32px;text-align:center;text-anchor:middle"><rect
           id="rect1563"
           width="194.95944"
           height="32.324883"
           x="2.5253813"
           y="289.9848"
           style="font-size:32px;text-align:center;text-anchor:middle" /></flowRegion><flowPara
         id="flowPara1565">F</flowPara></flowRoot>    <flowRoot
       xml:space="preserve"
       id="flowRoot1571"
       style="font-size:16px;line-height:1.25;text-align:center;text-anchor:middle;fill:#000000;fill-opacity:1;stroke:none"><flowRegion
         id="flowRegion1573"
         style="font-size:16px"><rect
           id="rect1575"
           width="178.797"
           height="143.94673"
           x="12.12183"
           y="327.86551"
           style="font-size:16px" /></flowRegion><flowPara
         id="flowPara1577" /></flowRoot>    <text
       xml:space="preserve"
       style="font-size:15px;line-height:1.25;text-align:start;text-anchor:start;fill:#000000;fill-opacity:1;stroke:none;stroke-width:0.9375"
       x="61.149254"
       y="1203.885"
       id="text1581"><tspan
         sodipodi:role="line"
         id="tspan1579"
         x="61.149254"
         y="1217.5699"
         style="text-align:start;text-anchor:start;stroke-width:0.9375" /></text>
    <path
       style="fill:#000000;fill-opacity:1;stroke:none;stroke-width:0.55634534"
       d="m 67.443554,1049.9338 0.45959,-0.2691 0.173953,-2.4829 -0.355228,-3.2447 -0.613406,-0.9942 c 0,0 -0.438975,0.5871 -0.417478,0.9045 l -0.197756,1.1298 0.227053,4.3689 z m 119.591666,-0.6811 0.72326,-0.5896 0.22706,-4.3689 -0.19592,-1.1279 c 0.0215,-0.3175 -0.41749,-0.9064 -0.41749,-0.9064 l -0.6134,0.9961 -0.35705,3.2428 0.17394,2.4829 z m -59.90661,-2.9425 0.30395,-1.3056 v -3.9148 l -0.53283,-1.0693 -0.60975,1.6626 -0.15381,3.2043 0.30579,1.3038 z m -60.007322,-4.8505 0.437616,-1.3806 0.243534,-2.5983 -0.146484,-3.1677 -0.58411,-0.5695 -0.388181,0.8936 -0.04944,3.7372 c 0,0 0.145753,2.1928 0.09705,2.5177 z m 120.238032,-0.683 0.38818,-0.5676 c -0.0487,-0.3248 0.097,-2.5177 0.097,-2.5177 l -0.0476,-3.7372 -0.39002,-0.8917 -0.5841,0.5676 -0.14648,3.1677 0.24352,2.5983 z m -60.3186,-2.4133 0.65002,-0.8936 0.0586,-2.0324 -0.0732,-3.6933 -0.89355,-0.1831 -0.25635,2.1845 0.0586,3.3307 z m -59.421385,-7.0276 0.258178,-2.1826 -0.06043,-3.3307 -0.454097,-1.2872 -0.651853,0.8935 -0.05859,2.0325 0.07324,3.6914 z m 119.240105,-0.6811 0.89355,-0.1831 0.0733,-3.6933 -0.0586,-2.0325 -0.65002,-0.8935 -0.45594,1.2872 -0.0586,3.3307 z m -59.8407,-1.5436 0.81849,-0.586 0.20324,-3.2647 -0.34058,-2.6789 -0.6134,-1.4227 -0.54565,0.5859 c 0.0682,0.3348 -0.13551,2.5947 -0.13551,2.5947 l 0.0678,3.8507 z m -59.90844,-6.1469 0.748894,-0.1501 v -3.8233 l -0.20324,-1.4263 -0.68115,-0.749 -0.47791,1.2745 0.205078,3.75 z m 120.25818,-0.6811 0.41015,-1.1261 0.20324,-3.75 -0.47607,-1.2744 -0.68115,0.7489 -0.20508,1.4264 v 3.825 z m -60.4651,-2.8235 0.61341,-0.9961 0.35523,-3.2428 -0.17213,-2.4829 -0.46142,-0.271 -0.72144,0.5896 -0.22705,4.3689 0.19592,1.1279 c -0.0215,0.3175 0.41748,0.9064 0.41748,0.9064 z m -59.791251,-5.5957 0.748903,-0.1502 v -3.8232 l -0.20325,-1.4264 -0.68115,-0.7489 -0.47791,1.2744 0.205078,3.75 z m 120.254511,-0.6812 0.41015,-1.1261 0.20325,-3.75 -0.47607,-1.2744 -0.68115,0.7508 -0.20508,1.4245 v 3.8251 z m -60.5841,-2.2924 0.68115,-0.7489 0.20508,-1.4264 v -3.8251 l -0.74891,-0.1483 -0.41015,1.1242 -0.20324,3.75 z m -59.349974,-4.7535 0.459591,-0.2691 0.173953,-2.4829 -0.357056,-3.2447 -0.613407,-0.99417 c 0,0 -0.438975,0.5889 -0.417478,0.90627 l -0.195919,1.128 0.227044,4.3689 z m 119.615474,-0.6811 0.72143,-0.5896 0.22706,-4.3689 -0.19593,-1.12787 c 0.0215,-0.3175 -0.41748,-0.9064 -0.41748,-0.9064 l -0.6134,0.9961 -0.35523,3.24277 0.17396,2.4829 z m -60.30396,-2.1826 0.89356,-0.185 0.0732,-3.69137 -0.0586,-2.0324 -0.65185,-0.8936 -0.4541,1.2872 -0.0604,3.33067 z m -59.483639,-6.36107 0.545653,-0.586 c -0.06819,-0.3348 0.137335,-2.5946 0.137335,-2.5946 l -0.06958,-3.85067 -0.543825,-0.92102 -0.818484,0.58594 -0.205069,3.26475 0.340575,2.6789 z m 119.957889,-0.6812 0.6134,-1.2433 0.34058,-2.34187 -0.20508,-2.85096 -0.81665,-0.51269 -0.54566,0.80383 -0.0677,3.36549 c 0,0 0.2037,1.9743 0.13549,2.2668 z m -60.26185,-1.1535 0.41016,-1.1243 0.20325,-3.75 -0.47607,-1.27441 -0.68115,0.7489 -0.20508,1.42639 v 3.82322 z m 60.23621,-6.72 0.54566,-1.94825 0.13549,-3.75915 -0.27099,-1.53076 -0.61341,-0.13916 -0.27282,1.53076 v 1.82556 l -3.22815,0.35523 -0.99426,0.6134 c 0,0 0.58711,0.43715 0.90453,0.41565 l 1.12794,0.19775 2.18994,-0.0879 v 1.27442 z m -119.935905,-0.36438 0.4779,-0.95398 v -1.16089 l 1.474003,-0.18677 1.062009,-0.45776 -0.437625,-0.4065 c -0.250003,0.0509 -1.93725,-0.10254 -1.93725,-0.10254 l -0.161137,0.004 v -1.18836 l -0.272822,-1.16638 -0.613406,0.1062 -0.272832,1.16638 0.05127,1.10047 -1.607662,0.0293 -0.686644,0.4065 0.437616,0.61157 1.913456,0.11902 0.02747,0.59509 z m 60.003655,-0.13367 0.43396,-0.79468 0.022,-1.37512 0.34241,-0.0183 1.2854,-0.54565 -0.82763,-0.47608 h -0.78187 l 0.0147,-0.9082 c 0,0 -0.16406,-1.95038 -0.10986,-2.23938 l -0.43213,-0.5072 -0.48889,1.22863 -0.27099,2.31263 0.007,0.11352 h -0.9668 l -1.01075,0.271 0.0916,0.6134 1.01074,0.27283 0.93934,-0.0513 0.0915,1.59851 z m -28.170777,-1.66077 3.167727,-0.19958 0.56763,-0.79285 -0.89355,-0.52917 -3.735357,-0.0659 c 0,0 -2.19285,0.19804 -2.517703,0.13183 l -0.569456,0.52918 1.382446,0.59509 z m -94.4787563,-0.0989 3.2043468,-0.15198 1.6626001,-0.60974 -1.0693407,-0.53467 H 4.4937192 l -1.3055438,0.30579 0.119025,0.68664 z m 84.4427533,-0.0458 3.242794,-0.35522 0.994265,-0.61524 c 0,0 -0.587109,-0.43715 -0.904547,-0.41565 l -1.127925,-0.19775 -4.3689,0.22705 -0.589593,0.72327 0.270993,0.45959 z m -29.33716,-0.0256 1.664429,-0.20325 0.87524,-0.68115 -1.488647,-0.47791 -4.381715,0.20508 -1.314694,0.40832 0.175781,0.74891 z m -27.643434,-0.0806 4.3689,-0.22705 0.587766,-0.72327 -0.269166,-0.45959 -2.482912,-0.17395 -3.244622,0.35522 -0.994266,0.61524 c 0,0 0.588872,0.43714 0.906366,0.41565 z m 7.80945,-0.0165 3.75,-0.20508 1.124269,-0.40832 -0.15015,-0.75074 H 40.78156 l -1.42456,0.20508 -0.748903,0.68115 z m 100.848994,-0.002 4.36707,-0.22705 0.58959,-0.72144 -0.27099,-0.46142 -2.48291,-0.17212 -3.2428,0.35522 -0.99426,0.6134 c 0,0 0.58711,0.43899 0.90454,0.41749 z m 16.90796,-0.0147 3.75,-0.20325 1.1261,-0.41015 -0.15014,-0.7489 h -3.82508 l -1.42456,0.20507 -0.75073,0.68116 z m -9.10034,-0.002 3.75,-0.20325 1.1261,-0.41015 -0.15015,-0.74891 h -3.82507 l -1.42457,0.20508 -0.75073,0.68116 z m -65.991214,-0.0623 1.424559,-0.20507 0.750741,-0.68116 -1.274419,-0.4779 -3.75,0.20508 -1.126097,0.40832 0.15015,0.75073 z m 37.439574,-0.0146 1.65711,-0.20324 0.87158,-0.68299 -1.48315,-0.47607 -4.36158,0.20508 -1.3092,0.40832 0.17394,0.7489 z m -94.828486,-0.005 c 0,0 2.259806,-0.2037 2.594606,-0.1355 l 0.585937,-0.54565 -1.422731,-0.6134 -2.678831,-0.34058 -3.264769,0.20508 -0.585937,0.81665 0.921018,0.54565 z m 108.667596,-0.0183 2.21375,-0.28015 1.17553,-0.50354 -0.48339,-0.44678 c -0.27667,0.056 -2.14417,-0.11169 -2.14417,-0.11169 l -3.18237,0.0549 -0.76172,0.44861 0.48523,0.67016 z m -61.182856,-0.0238 2.863772,-0.1355 1.483153,-0.54566 -0.953981,-0.47607 h -3.499144 l -1.166381,0.27283 0.1062,0.6134 z m 105.280146,-0.011 c 0,0 2.19286,-0.14574 2.51771,-0.0971 l 0.56762,-0.39001 -1.38061,-0.43762 -2.59828,-0.24353 -3.16771,0.14648 -0.56763,0.58411 0.89355,0.39001 z m -70.22643,-0.007 3.82323,-0.0586 1.47584,-0.45593 -1.0254,-0.65185 -2.33093,-0.0586 -4.23888,0.0732 -0.21058,0.89356 z m 59.31334,-0.011 3.69325,-0.0732 0.1831,-0.89356 -2.18445,-0.25818 -3.33068,0.0604 -1.28724,0.4541 0.89539,0.65186 z m -118.601065,-0.009 3.330694,-0.0586 1.287225,-0.45593 -0.89355,-0.65003 -2.032472,-0.0586 -3.693235,0.0732 -0.183112,0.89356 z m -32.656856,-0.0385 2.18444,-0.25818 -0.183103,-0.89355 -3.693234,-0.0732 -2.032472,0.0586 -0.89355,0.65186 1.287225,0.4541 z m 51.708984,-5.84106 0.476072,-1.27625 -0.20325,-3.75 -0.410156,-1.12426 -0.748904,0.15014 v 3.82508 l 0.205079,1.42456 z m 119.556877,-0.68298 0.68115,-0.75074 0.20325,-1.42456 v -3.82507 l -0.7489,-0.15015 -0.40833,1.1261 -0.20507,3.75 z m -59.66675,-0.30396 0.27283,-1.16638 v -3.49915 l -0.47608,-0.95398 -0.54565,1.48316 -0.1355,2.86377 0.271,1.16638 z m -60.278318,-6.73279 0.650025,-0.89538 0.05859,-2.03064 -0.07324,-3.69324 -0.89356,-0.18311 -0.25634,2.18445 0.05859,3.33069 z m 120.333248,-0.68298 0.45411,-1.28723 0.0604,-3.33069 -0.25818,-2.18445 -0.89355,0.18311 -0.0732,3.69323 0.0586,2.03064 z m -60.27099,-0.54199 0.40833,-1.1261 0.20507,-3.75 -0.4779,-1.27442 -0.68115,0.75074 -0.20325,1.42456 v 3.82507 z m -59.930417,-7.65015 0.529172,-0.89355 0.06592,-3.73536 c 0,0 -0.198028,-2.19285 -0.131831,-2.5177 l -0.529172,-0.56945 -0.595097,1.38061 -0.329587,2.6001 0.197756,3.16589 z m 59.609977,-0.0769 0.72327,-0.5896 0.22706,-4.3689 -0.19593,-1.12793 c 0.0215,-0.31743 -0.41748,-0.90637 -0.41748,-0.90637 l -0.61341,0.99609 -0.35705,3.2428 0.17395,2.48291 z m 60.45776,-0.60608 0.79286,-0.56763 0.19958,-3.16773 -0.33142,-2.60009 -0.59509,-1.38062 -0.52918,0.56946 c 0.0662,0.32485 -0.13183,2.5177 -0.13183,2.5177 l 0.0659,3.73535 z m -60.30944,-8.20496 0.52917,-0.56763 c -0.0662,-0.32485 0.13185,-2.5177 0.13184,-2.5177 l -0.0659,-3.73535 -0.52917,-0.89356 -0.79285,0.56763 -0.19775,3.16773 0.32959,2.59827 z M 67.328194,953.7417 c 0,0 0.438975,-0.58711 0.417478,-0.90454 l 0.195928,-1.12976 -0.227053,-4.3689 -0.723272,-0.58777 -0.45959,0.26916 -0.173953,2.48292 0.357056,3.24463 z m 119.824216,-0.68299 0.61341,-0.99426 0.35521,-3.24279 -0.17394,-2.48292 -0.4596,-0.27099 -0.72326,0.58959 -0.22705,4.36708 0.19775,1.12975 c -0.0215,0.31743 0.41748,0.90454 0.41748,0.90454 z m -119.7052,-7.88452 0.477909,-1.27624 -0.205078,-3.75 -0.408328,-1.12427 -0.748903,0.15014 v 3.82508 l 0.20325,1.42456 z m 59.1925,-0.57311 0.89356,-0.18311 0.0732,-3.69324 -0.0586,-2.03064 -0.65002,-0.89538 -0.45593,1.28722 -0.0586,3.3307 z m 60.39185,-0.10987 0.68116,-0.75073 0.20506,-1.42456 v -3.82507 l -0.75073,-0.15015 -0.40832,1.12609 -0.20507,3.75 z m -119.875491,-7.34619 0.47791,-1.13526 v -4.16198 l -0.272822,-1.38794 -0.613407,0.12634 -0.272831,1.38794 0.137335,3.40576 z m 120.166631,-0.68115 0.54565,-1.48499 0.1355,-2.86376 -0.27282,-1.16639 -0.61341,-0.10621 -0.27099,1.16639 v 3.49915 z m -60.17396,-0.23438 0.41016,-1.12609 0.20325,-3.75 -0.47607,-1.27442 -0.68116,0.75073 -0.20508,1.42456 v 3.82507 z m -60.084218,-6.83898 0.545653,-0.58594 c -0.0682,-0.33483 0.137325,-2.59461 0.137325,-2.59461 l -0.0073,-0.39551 2.232056,-0.28381 1.422731,-0.61341 -0.585937,-0.54382 c -0.334829,0.0682 -2.596435,-0.13733 -2.596435,-0.13733 l -0.499875,0.009 -0.03479,-1.88597 -0.543825,-0.92103 -0.818485,0.58594 -0.14099,2.24853 -1.810913,0.0311 -0.921019,0.54566 0.585938,0.81848 2.147822,0.13366 0.274659,2.16614 z m 120.172108,-0.0311 0.61341,-1.42456 0.34058,-2.67883 -0.20325,-3.26294 -0.81848,-0.58594 -0.54565,0.91919 -0.033,1.86035 -1.29823,0.25269 -0.99425,0.6134 c 0,0 0.58711,0.43899 0.90453,0.41748 l 1.12794,0.19593 0.2362,-0.0879 -0.011,0.59875 c 0,0 0.2037,2.26162 0.1355,2.59643 z m -59.92125,-1.073 0.27282,-1.16638 v -1.45019 l 1.10229,-0.0421 1.87134,-0.54381 -1.203,-0.47791 h -1.77063 v -0.98511 l -0.4779,-0.95398 -0.54566,1.48315 -0.022,0.45594 h -1.59485 l -1.47034,0.27283 0.13367,0.61339 1.47033,0.27284 1.40992,-0.0531 -0.0623,1.30187 0.27283,1.16638 z m -26.42213,-2.34008 3.16773,-0.19776 0.56763,-0.79468 -0.89356,-0.52917 -3.735346,-0.0659 c 0,0 -2.19286,0.19803 -2.517704,0.13183 l -0.569456,0.52918 1.380619,0.59509 z m 34.07044,-0.0934 2.15698,-0.34058 1.14624,-0.61341 -0.47241,-0.54565 c -0.2696,0.0682 -2.08923,-0.1355 -2.08923,-0.1355 l -3.10181,0.0677 -0.74158,0.54565 0.47241,0.81849 z m -128.5491927,-0.005 3.2043469,-0.15198 1.6607628,-0.60974 -1.067503,-0.53466 H 6.2973098 l -1.3055437,0.30578 0.1190156,0.68665 z m 84.4427527,-0.0458 3.242794,-0.35522 0.994266,-0.6134 c 0,0 -0.587119,-0.43899 -0.904547,-0.41749 l -1.127925,-0.19592 -4.3689,0.22706 -0.589594,0.72143 0.270994,0.46143 z m -30.659184,-0.0238 1.426388,-0.20508 0.748903,-0.68115 -1.27441,-0.47791 -3.75,0.20508 -1.124268,0.40833 0.148312,0.75073 z m -26.321409,-0.0824 4.36889,-0.22705 0.587775,-0.72326 -0.269165,-0.4596 -2.482913,-0.17395 -3.244631,0.35706 -0.994256,0.6134 c 0,0 0.587034,0.43898 0.904537,0.41749 z m 40.274043,-0.009 2.863772,-0.13732 1.484982,-0.54565 -0.95581,-0.47608 h -3.497315 l -1.166382,0.27283 0.104372,0.6134 z m 68.38257,-0.007 4.36889,-0.22705 0.5896,-0.72326 -0.27099,-0.45959 -2.48291,-0.17396 -3.2428,0.35522 -0.99426,0.61524 c 0,0 0.58712,0.43715 0.90453,0.41565 z m -100.847163,0 3.75,-0.20508 1.124268,-0.40832 -0.15015,-0.7489 H 42.58515 l -1.424559,0.20324 -0.748903,0.68116 z m 117.756953,-0.0146 3.75,-0.20508 1.1261,-0.40833 -0.15015,-0.75073 h -3.82507 l -1.42457,0.20508 -0.75073,0.68115 z m -9.10034,-0.002 3.75,-0.20508 1.1261,-0.40832 -0.15015,-0.75074 h -3.82508 l -1.42456,0.20509 -0.75073,0.68115 z m -41.45692,-0.0604 3.3307,-0.0586 1.28722,-0.45594 -0.89538,-0.65185 -2.03064,-0.0568 -3.69323,0.0733 -0.1831,0.89355 z m -24.534293,-0.004 1.424559,-0.20507 0.750731,-0.68115 -1.274409,-0.47608 -3.75,0.20325 -1.126097,0.41016 0.150141,0.74889 z m 34.696653,-0.0128 1.42456,-0.20508 0.75073,-0.68115 -1.27442,-0.47791 -3.75,0.20508 -1.12609,0.40833 0.15015,0.75073 z m -92.085566,-0.005 c 0,0 2.259806,-0.20552 2.594606,-0.13732 l 0.585938,-0.54383 -1.422731,-0.6134 -2.678832,-0.3424 -3.264778,0.20507 -0.585937,0.81849 0.921028,0.54565 z m 152.764886,-0.0531 c 0,0 2.19286,-0.14574 2.5177,-0.097 l 0.56763,-0.39001 -1.38061,-0.43763 -2.59827,-0.24352 -3.16772,0.14465 -0.56763,0.5841 0.89355,0.39002 z m -10.91309,-0.0201 3.69324,-0.0732 0.18311,-0.89355 -2.18445,-0.25635 -3.33069,0.0586 -1.28723,0.45594 0.89539,0.65002 z m -118.601065,-0.007 3.330685,-0.0604 1.287234,-0.45409 -0.89355,-0.65187 -2.032472,-0.0586 -3.693243,0.0733 -0.183104,0.89355 z m -32.656856,-0.0403 2.184441,-0.25818 -0.183103,-0.89356 -3.693235,-0.0732 -2.032472,0.0586 -0.893559,0.65185 1.287234,0.4541 z m 109.597771,-4.47143 0.54382,-0.92103 0.0696,-3.85071 c 0,0 -0.20552,-2.2598 -0.13733,-2.5946 l -0.54382,-0.58594 -0.6134,1.42273 -0.34241,2.67883 0.20507,3.26478 z m -59.70703,-0.6189 0.476072,-1.27442 -0.203241,-3.75 -0.410156,-1.12427 -0.748903,0.15015 v 3.82507 l 0.20325,1.42456 z m 119.76379,-0.0311 0.68115,-0.7489 0.20508,-1.4264 v -3.82507 l -0.75073,-0.15014 -0.40833,1.12609 -0.20508,3.75 z m -120.034784,-6.85913 0.651853,-0.89539 0.05859,-2.03063 -0.07324,-3.69325 -0.893559,-0.1831 -0.258178,2.18445 0.05859,3.33068 z m 120.126344,-0.68299 0.45592,-1.28723 0.0586,-3.33069 -0.25634,-2.18445 -0.89356,0.18311 -0.0732,3.69324 0.0586,2.03247 z m -60.3827,-1.99402 0.61341,-0.99426 0.35706,-3.2428 -0.17396,-2.48291 -0.45959,-0.27099 -0.72327,0.5896 -0.22704,4.36706 0.19591,1.12977 c -0.0215,0.3174 0.41748,0.90453 0.41748,0.90453 z m -59.824213,-5.59387 0.748903,-0.15014 v -3.82508 l -0.205078,-1.42456 -0.68115,-0.75073 -0.476072,1.27624 0.203241,3.75 z m 120.289313,-0.68298 0.40832,-1.12427 0.20507,-3.75 -0.4779,-1.27442 -0.68116,0.74891 -0.20507,1.42456 v 3.82507 z m -60.58411,-2.29065 0.68115,-0.75073 0.20325,-1.42456 v -3.82507 l -0.74891,-0.15015 -0.40832,1.12609 -0.20508,3.75 z m -59.386593,-4.75341 0.45959,-0.26917 0.173953,-2.48291 -0.355228,-3.24463 -0.613406,-0.99427 c 0,0 -0.438975,0.58704 -0.417478,0.90455 l -0.195919,1.12976 0.227044,4.36889 z m 119.650263,-0.68299 0.72326,-0.58777 0.22705,-4.3689 -0.19775,-1.12976 c 0.0215,-0.31749 -0.41565,-0.90454 -0.41565,-0.90454 l -0.61524,0.99427 -0.35521,3.24462 0.17394,2.48291 z m -60.2655,-3.66394 0.68115,-0.75073 0.20324,-1.42457 v -3.82507 l -0.74889,-0.15015 -0.40833,1.1261 -0.20508,3.75 z m -59.536741,-4.34327 0.613396,-1.42456 0.340575,-2.67883 -0.205078,-3.26477 -0.816647,-0.58411 -0.545653,0.91919 -0.06775,3.85071 c 0,0 0.2037,2.25981 0.135506,2.59461 z m 119.954221,-0.68298 0.54565,-0.58593 c -0.0682,-0.3348 0.13733,-2.59461 0.13733,-2.59461 l -0.0696,-3.85071 -0.54382,-0.92102 -0.81849,0.58594 -0.20507,3.26477 0.34057,2.67883 z m -60.0293,-2.69348 0.4541,-1.28723 0.0604,-3.33069 -0.25818,-2.18445 -0.89356,0.18311 -0.0732,3.69324 0.0586,2.03063 z m -60.228878,-7.02759 0.89355,-0.1831 0.07325,-3.69324 -0.05859,-2.03064 -0.650025,-0.89356 -0.455934,1.28541 -0.05859,3.33251 z m 120.562128,-0.68115 0.25818,-2.18445 -0.0604,-3.33069 -0.4541,-1.28722 -0.65185,0.89355 -0.0586,2.03247 0.0732,3.6914 z m -60.62439,-1.50147 0.58411,-0.56762 0.14648,-3.16772 -0.24353,-2.59828 -0.43762,-1.38061 -0.39002,0.56763 c 0.0487,0.3248 -0.097,2.5177 -0.097,2.5177 l 0.0495,3.73535 z m -59.82055,-6.27685 0.532837,-1.0675 v -3.91663 l -0.303956,-1.30554 -0.686644,0.11902 -0.305793,1.30554 0.151978,3.20435 z m 120.32958,-0.68298 0.60974,-1.66077 0.15198,-3.20435 -0.30395,-1.30554 -0.68665,-0.11719 -0.30578,1.30372 v 3.91662 z m -60.47241,-2.23939 0.6134,-0.99425 0.35523,-3.24281 -0.17395,-2.4829 -0.45959,-0.271 -0.72327,0.5896 -0.22706,4.36706 0.19776,1.12977 c -0.0215,0.3175 0.41748,0.90453 0.41748,0.90453 z"
       id="path1822-4"
       inkscape:connector-curvature="0" />
    <text
       xml:space="preserve"
       style="font-style:normal;font-variant:normal;font-weight:normal;font-stretch:normal;font-size:10px;line-height:1.25;font-family:Roboto;-inkscape-font-specification:Roboto;text-align:start;writing-mode:lr-tb;text-anchor:start;fill:#ffffff;fill-opacity:1;stroke:none;stroke-width:0.9375"
       x="-175.63216"
       y="1066.959"
       id="text2677"><tspan
         sodipodi:role="line"
         id="tspan2675"
         x="-175.63216"
         y="1075.709"
         style="stroke-width:0.9375" /></text>
    <text
       xml:space="preserve"
       style="font-style:normal;font-variant:normal;font-weight:normal;font-stretch:normal;font-size:7.5px;line-height:1;font-family:Roboto;-inkscape-font-specification:'Roboto, Normal';font-variant-ligatures:normal;font-variant-caps:normal;font-variant-numeric:normal;font-feature-settings:normal;text-align:start;writing-mode:lr-tb;text-anchor:start;fill:#ffffff;fill-opacity:1;stroke:none;stroke-width:0.9375"
       x="-248.38139"
       y="905.53082"
       id="text2735"><tspan
         sodipodi:role="line"
         id="tspan2733"
         x="-248.38139"
         y="911.15582"
         style="stroke-width:0.9375" /></text>
    <g
       id="g1870"
       transform="matrix(0,0.93610275,-0.93610275,0,992.90264,740.6384)">
      <path
         id="path1749"
         transform="matrix(0.9375,0,0,0.9375,0,872.36216)"
         d="m 167.7168,139.29297 -2.36914,0.66992 -3.03711,2.00977 -1.69727,2.40625 -1.68359,6.82226 -0.0156,0.0606 -0.10548,0.0352 -0.49023,0.2246 -7.10352,3.90625 -1.9375,2.41993 -2.21875,7.63672 0.14844,2.67773 2.57422,6.21484 2.33203,2.24805 5.50391,2.04102 1.70312,0.24218 4.31836,-0.31054 3.07227,-0.21289 1.37109,-0.0879 0.73438,-0.0527 0.61132,-0.0781 1.84766,-0.25586 5.27539,-0.76563 7.49219,-1.11133 1.49805,-0.54101 8.86132,-5.36914 0.25977,-0.0899 1.67187,0.17188 1.80469,0.13281 2.96875,-0.54687 1.36719,-0.45118 2.32306,-2.84892 0.42609,-4.11258 -2.04798,-3.42325 -2.23437,-1.13672 -3.22657,-0.50977 -0.1289,-1.65625 -0.0684,-0.49218 -1.50196,-7.41211 -1.95312,-2.70703 -5.56055,-3.19141 -1.33789,-0.48047 -10.19922,-1.73047 -0.54296,-0.0547 z"
         style="fill:#000000;fill-opacity:1;stroke:none;stroke-width:1"
         inkscape:connector-curvature="0"
         sodipodi:nodetypes="ccccccccccccccccccccccccccccccccccccccccccccc" />
      <path
         inkscape:export-ydpi="192.86"
         inkscape:export-xdpi="192.86"
         inkscape:export-filename="C:\Users\AntonTesh\Desktop\path1863.png"
         inkscape:connector-curvature="0"
         id="path1551"
         d="m 189.1695,1025.7859 -0.64744,1.7657 c 0,0 -1.94231,0.7063 -2.76633,0.7063 -0.82402,0 -9.06412,-0.9417 -9.06412,-0.9417 l 0.35314,-0.824"
         style="fill:#61431e;fill-opacity:1;stroke:none;stroke-width:0.9375" />
      <path
         inkscape:export-ydpi="192.86"
         inkscape:export-xdpi="192.86"
         inkscape:export-filename="C:\Users\AntonTesh\Desktop\path1863.png"
         inkscape:connector-curvature="0"
         id="path1547"
         d="m 157.10812,1006.7437 -2.84729,1.8842 -1.72669,6.9928 -0.2124,1.7358 -2.06909,0.3845 -6.65955,3.6622 -2.08008,7.1594 2.41333,5.8264 5.15992,1.9134 c 0,0 7.99117,-0.5822 8.4906,-0.5822 0.49942,0 14.40125,-2.0801 14.40125,-2.0801 l 8.65539,-5.2441 5.32837,-1.8311 2.33093,0.249 1.33118,-0.9155 -1.83105,-1.8311 c 0,0 -3.07746,-0.4841 -5.98939,-0.9466 l -0.35156,-4.541 -1.40808,-6.9489 -5.21302,-2.9919 -9.56176,-1.6223 z"
         style="fill:#88571d;fill-opacity:1;stroke:none;stroke-width:0.9375" />
      <path
         inkscape:export-ydpi="192.86"
         inkscape:export-xdpi="192.86"
         inkscape:export-filename="C:\Users\AntonTesh\Desktop\path1863.png"
         inkscape:connector-curvature="0"
         id="path1553"
         d="m 152.13497,1018.9019 -0.55114,4.5209 2.33093,2.4207 7.6831,2.0617 h 10.01221 l 8.45947,-1.8823 1.81275,-1.8842 -0.25452,-3.2922 -3.19886,1.181 c 1e-5,0 -5.82721,1.4154 -6.20177,1.4154 -0.37457,0 -10.03052,-0.3332 -10.03052,-0.3332 l -7.28211,-2.0801 z"
         style="fill:#cc7c1d;fill-opacity:1;stroke:none;stroke-width:0.9375" />
      <path
         inkscape:export-ydpi="192.86"
         inkscape:export-xdpi="192.86"
         inkscape:export-filename="C:\Users\AntonTesh\Desktop\path1863.png"
         inkscape:connector-curvature="0"
         id="path1558"
         d="m 165.50859,1007.8931 -4.82635,0.1765 -3.17833,0.3532 -1.35374,0.824 0.58859,0.6474 c 0,0 4.4732,-0.1765 4.76749,-0.1765 0.29429,0 9.77042,0.6474 9.77042,0.6474 l 2.35432,-0.059 -0.23543,-0.8829 c 0,0 -2.11889,-0.6474 -3.06062,-0.824 -0.94172,-0.1766 -4.82635,-0.7063 -4.82635,-0.7063 z"
         style="fill:#61431e;fill-opacity:1;stroke:none;stroke-width:0.9375" />
    </g>
    <path
       inkscape:connector-curvature="0"
       style="fill:#000000;fill-opacity:1;stroke:none;stroke-width:0.87759632"
       d="m 181.82349,890.2299 -0.14912,-1.07985 -2.02601,-6.77909 -0.73533,-1.3284 -4.51996,-5.14217 -1.74149,-1.08327 -7.79038,-2.10487 -0.77989,-0.11998 -20.72807,-0.85703 -0.10456,-0.004 -6.46713,-0.0771 -0.95987,0.11999 -1.16899,0.31196 -2.49395,2.43909 -0.54507,1.87004 -0.13712,1.19298 0.0788,1.40209 0.88274,2.58995 0.33767,25.63369 -0.084,0.0703 -1.2564,2.59337 -0.0788,2.33797 1.69177,3.14871 1.01301,0.62221 1.76719,0.5245 28.24591,0.74047 0.97702,-0.11141 8.49314,-2.18029 1.94888,-1.29753 4.36398,-5.76602 0.67363,-1.56664 1.09014,-6.62311 0.0463,-0.51593 z"
       id="path1757" />
    <path
       style="fill:#34231a;fill-opacity:1;stroke:none;stroke-width:0.87759632;stroke-opacity:1"
       d="m 137.3627,877.9345 27.50543,0.38959 8.80485,4.67515 2.18174,11.68785 -1.01295,8.64903 -3.6622,5.37641 -6.46728,2.96092 -26.96,-1.32462"
       id="path1598"
       inkscape:connector-curvature="0"
       inkscape:export-filename="C:\Users\AntonTesh\Desktop\path1863.png"
       inkscape:export-xdpi="192.86"
       inkscape:export-ydpi="192.86" />
    <path
       style="fill:#472f26;fill-opacity:1;stroke:none;stroke-width:0.87759632"
       d="m 141.17539,878.66127 -0.0551,31.57064 -4.73835,1.04684 -0.44078,-33.55413"
       id="path1574"
       inkscape:connector-curvature="0"
       inkscape:export-filename="C:\Users\AntonTesh\Desktop\path1863.png"
       inkscape:export-xdpi="192.86"
       inkscape:export-ydpi="192.86" />
    <path
       style="fill:#5b3c30;fill-opacity:1;stroke:none;stroke-width:0.87759632"
       d="m 141.45087,878.27559 2.20389,3.08543 -1.54273,28.87089 -2.14878,0.22038 0.11019,-32.94806"
       id="path1576"
       inkscape:connector-curvature="0"
       inkscape:export-filename="C:\Users\AntonTesh\Desktop\path1863.png"
       inkscape:export-xdpi="192.86"
       inkscape:export-ydpi="192.86" />
    <path
       style="fill:#5b3c30;fill-opacity:1;stroke:none;stroke-width:0.87759632"
       d="m 162.4916,906.06327 0.11687,5.02579 -11.92162,0.15583 2.72717,-2.33756"
       id="path1596"
       inkscape:connector-curvature="0"
       inkscape:export-filename="C:\Users\AntonTesh\Desktop\path1863.png"
       inkscape:export-xdpi="192.86"
       inkscape:export-ydpi="192.86" />
    <path
       style="fill:#472f26;fill-opacity:1;stroke:none;stroke-width:0.87759632"
       d="m 159.56963,905.51785 2.92197,0.54542 -11.29827,4.28556 -0.27272,-0.97399 7.90878,-3.97387"
       id="path1594"
       inkscape:connector-curvature="0"
       inkscape:export-filename="C:\Users\AntonTesh\Desktop\path1863.png"
       inkscape:export-xdpi="192.86"
       inkscape:export-ydpi="192.86" />
    <path
       style="fill:#5b3c30;fill-opacity:1;stroke:none;stroke-width:0.87759632"
       d="m 159.33587,899.596 0.23376,5.92185 -10.05156,5.45433 -0.66231,-0.58439 9.11653,-10.75284"
       id="path1592"
       inkscape:connector-curvature="0"
       inkscape:export-filename="C:\Users\AntonTesh\Desktop\path1863.png"
       inkscape:export-xdpi="192.86"
       inkscape:export-ydpi="192.86" />
    <path
       style="fill:#472f26;fill-opacity:1;stroke:none;stroke-width:0.87759632"
       d="m 156.9983,899.16744 2.33757,0.42856 -9.85676,10.71387 -0.66231,-0.35064 7.20752,-11.33722"
       id="path1590"
       inkscape:connector-curvature="0"
       inkscape:export-filename="C:\Users\AntonTesh\Desktop\path1863.png"
       inkscape:export-xdpi="192.86"
       inkscape:export-ydpi="192.86" />
    <path
       style="fill:#5b3c30;fill-opacity:1;stroke:none;stroke-width:0.87759632"
       d="m 156.72559,892.58328 0.27271,6.58416 -8.3763,11.57098 -0.85711,-0.27272 7.16856,-17.53178"
       id="path1588"
       inkscape:connector-curvature="0"
       inkscape:export-filename="C:\Users\AntonTesh\Desktop\path1863.png"
       inkscape:export-xdpi="192.86"
       inkscape:export-ydpi="192.86" />
    <path
       style="fill:#472f26;fill-opacity:1;stroke:none;stroke-width:0.87759632"
       d="m 153.9205,892.34953 2.80509,0.23375 -8.33734,17.25908 -0.8832,0.002 5.50973,-17.44866"
       id="path1586"
       inkscape:connector-curvature="0"
       sodipodi:nodetypes="ccccc"
       inkscape:export-filename="C:\Users\AntonTesh\Desktop\path1863.png"
       inkscape:export-xdpi="192.86"
       inkscape:export-ydpi="192.86" />
    <path
       style="fill:#5b3c30;fill-opacity:1;stroke:none;stroke-width:0.87759632"
       d="m 153.25819,885.84329 0.66231,6.50624 -6.15561,17.45387 -1.28567,-0.27273 5.18162,-22.09005"
       id="path1584"
       inkscape:connector-curvature="0"
       inkscape:export-filename="C:\Users\AntonTesh\Desktop\path1863.png"
       inkscape:export-xdpi="192.86"
       inkscape:export-ydpi="192.86" />
    <path
       style="fill:#472f26;fill-opacity:1;stroke:none;stroke-width:0.87759632"
       d="m 148.97264,885.49265 4.28555,0.35064 -6.0777,24.27178 h -2.72716 l 3.2726,-24.46659"
       id="path1582"
       inkscape:connector-curvature="0"
       inkscape:export-filename="C:\Users\AntonTesh\Desktop\path1863.png"
       inkscape:export-xdpi="192.86"
       inkscape:export-ydpi="192.86" />
    <path
       style="fill:#5b3c30;fill-opacity:1;stroke:none;stroke-width:0.87759632"
       d="m 147.34626,881.52632 1.62638,3.96633 -3.97387,25.36266 -2.0259,-0.11689 3.23364,-28.44046"
       id="path1580"
       inkscape:connector-curvature="0"
       inkscape:export-filename="C:\Users\AntonTesh\Desktop\path1863.png"
       inkscape:export-xdpi="192.86"
       inkscape:export-ydpi="192.86" />
    <path
       style="fill:#472f26;fill-opacity:1;stroke:none;stroke-width:0.87759632"
       d="m 143.65476,881.36102 3.6915,0.1653 -3.08544,28.375 -3.25073,0.1653"
       id="path1578"
       inkscape:connector-curvature="0"
       sodipodi:nodetypes="cccc"
       inkscape:export-filename="C:\Users\AntonTesh\Desktop\path1863.png"
       inkscape:export-xdpi="192.86"
       inkscape:export-ydpi="192.86" />
    <path
       style="fill:#795342;fill-opacity:1;stroke:none;stroke-width:0.87759632"
       d="m 136.73935,875.20733 -1.16879,0.31169 -0.5454,1.87004 0.0779,1.40255 1.6363,0.62335 c 0,0 25.86913,0.62336 26.1808,0.46751 0.31168,-0.15583 6.46729,1.48046 6.46729,1.48046 l 4.98682,9.66197 -0.54544,9.8178 -4.75306,7.48023 -6.85688,1.40255 -26.21977,-0.58439 -1.01294,0.8571 -0.0779,2.33758 1.01295,0.62335 28.24566,0.74022 8.49319,-2.18172 4.36346,-5.76601 1.09087,-6.62313 0.15584,-8.96069 -2.0259,-6.77896 -4.51931,-5.14265 -7.7919,-2.10382 -20.72648,-0.85712 z"
       id="path1572"
       inkscape:connector-curvature="0"
       sodipodi:nodetypes="ccccccccccccccccccccccccc"
       inkscape:export-filename="C:\Users\AntonTesh\Desktop\path1863.png"
       inkscape:export-xdpi="192.86"
       inkscape:export-ydpi="192.86" />
    <g
       id="g1863"
       transform="matrix(0,0.93610275,-0.93610275,0,998.22985,741.9701)">
      <path
         id="path1751"
         transform="matrix(0.9375,0,0,0.9375,0,872.36216)"
         d="m 171.58594,66.40625 -1.82422,0.400391 -7.03125,3.388671 -2.00977,2.166016 -2.96093,7.523438 -1.70899,0.125 -4.64453,1.380859 -2.01953,1.367187 -2.38672,3.013672 -0.86914,2.289063 -0.25,4.519531 0.91797,2.798828 3.51562,4.269532 0.0371,0.04687 3.00391,3.539072 3.01758,9.16796 0.58593,1.13672 5.27344,7.15821 2.02344,1.45312 13.31055,4.26758 1.89062,0.14062 7.66016,-1.2539 0.9082,-0.25977 6.9043,-2.88867 1.57422,-1.17578 3.89257,-4.77149 0.7461,-1.4082 1.00586,-3.39062 0.0449,-2.13477 -0.37695,-1.50586 -2.3577,-2.67899 -3.05051,-0.14327 -2.96679,3.01953 -0.0234,0.0976 -0.91992,0.63282 -0.0215,-0.23243 1.75,-3.75976 4.01367,-4.01367 0.75782,-1.052742 3.01367,-6.027344 0.39258,-2.345703 -0.50196,-3.767578 -1.23828,-2.414063 -2.13476,-2.009765 -1.98242,-1.021485 -3.39844,-0.67768 v -1.503906 l -0.72461,-2.3125 -4.01953,-5.775391 -1.28321,-1.185547 -6.02539,-3.515625 -1.97461,-0.550781 z"
         style="fill:#000000;fill-opacity:1;stroke:none;stroke-width:1"
         inkscape:connector-curvature="0"
         sodipodi:nodetypes="ccccccccccccccccccccccccccccccccccccccccccccccccccccc" />
      <path
         inkscape:export-ydpi="192.86"
         inkscape:export-xdpi="192.86"
         inkscape:export-filename="C:\Users\AntonTesh\Desktop\path1863.png"
         inkscape:connector-curvature="0"
         id="path1600"
         d="m 140.55281,959.36657 0.23544,-4.23777 2.2366,-2.82518 4.35548,-1.29488 3.41377,1.4126 0.58858,-3.6492 2.82519,-7.18067 6.59208,-3.17833 7.06296,0.11772 5.65036,3.29604 3.76691,5.41493 v 6.47438 l 2.70747,-1.41259 3.53148,0.70629 2.00117,1.88346 0.47086,3.53148 -2.82519,5.65036 -4.23777,4.23777 -2.35431,5.06179 0.35314,3.88463 0.94173,1.05944 3.06061,0.23543 3.76691,-2.58975 0.35315,-1.53031 0.47087,-0.11771 0.35315,1.41259 -0.94173,3.17833 -3.64919,4.4732 -6.47439,2.70747 -7.18067,1.17716 -12.47789,-4.00234 -4.94406,-6.70981 -3.06061,-9.29956 -3.29605,-3.88462 z"
         style="fill:#ffffff;fill-opacity:1;stroke:none;stroke-width:0.9375;stroke-opacity:1" />
      <path
         inkscape:export-ydpi="192.86"
         inkscape:export-xdpi="192.86"
         inkscape:export-filename="C:\Users\AntonTesh\Desktop\path1863.png"
         inkscape:connector-curvature="0"
         id="path1602"
         d="m 156.47755,946.1045 -1.66475,0.49943 -1.5399,2.08094 0.37457,2.2058 2.74684,0.62429 1.95609,-0.91562 0.70752,-2.33065 -0.91562,-1.62314 z"
         style="fill:#1b1b1b;fill-opacity:1;stroke:none;stroke-width:0.9375;stroke-opacity:1" />
      <path
         inkscape:export-ydpi="192.86"
         inkscape:export-xdpi="192.86"
         inkscape:export-filename="C:\Users\AntonTesh\Desktop\path1863.png"
         inkscape:connector-curvature="0"
         id="path1604"
         d="m 170.83606,949.35078 -1.45666,1.74799 0.49943,2.2058 1.45665,1.3318 1.99771,0.37457 2.08094,-0.79076 0.54105,-1.91446 -0.74914,-1.78962 -1.87285,-1.08209 z"
         style="fill:#1b1b1b;fill-opacity:1;stroke:none;stroke-width:0.9375;stroke-opacity:1" />
      <path
         inkscape:export-ydpi="192.86"
         inkscape:export-xdpi="192.86"
         inkscape:export-filename="C:\Users\AntonTesh\Desktop\path1863.png"
         sodipodi:nodetypes="cccccccccccccccccccc"
         inkscape:connector-curvature="0"
         id="path1606"
         d="m 159.93191,956.00979 h -1.62313 l -1.87286,1.16533 -0.4578,2.28904 0.91562,0.83238 1.70637,-0.45781 1.08209,0.49943 1.33181,1.41504 1.29018,0.45781 1.70637,-0.24971 1.16533,-0.66591 1.87285,-0.16648 1.7896,0.49943 0.95724,-1.41504 -0.12485,-1.49828 -1.29018,-2.2058 -2.49714,-1.04047 -1.99771,0.33295 -1.91447,0.79076 z"
         style="fill:#1b1b1b;fill-opacity:1;stroke:none;stroke-width:0.9375;stroke-opacity:1" />
    </g>
    <g
       id="g1825"
       transform="matrix(0,0.93610275,-0.93610275,0,1000.8935,745.2996)">
      <path
         transform="matrix(0.9375,0,0,0.9375,0,872.36216)"
         id="path1761"
         d="m 221.19304,1.236007 -3.22851,2.1207727 -3.93984,0.8498631 1.2626,5.6689999 0.94711,3.1888103 -6.00782,11.271485 -0.18945,0.353515 -0.01,0.01758 -0.3457,0.650391 -0.4082,2.626953 0.16015,0.878906 1.08789,2.101563 13.03321,13.349609 -2.84187,0.99873 -0.20264,5.451385 -1.77247,4.591275 0.69625,1.618833 4.9377,0.159836 4.72695,2.778427 2.30178,-5.153173 -0.13672,-0.59961 0.1543,-0.109375 0.8418,-0.818359 1.26562,1.294922 0.56055,0.478515 3.49218,2.466797 1.11133,0.552735 1.16407,0.36914 2.98242,-0.210937 0.17578,-0.08594 h -0.92188 l 2.89258,-1.214844 0.0937,-0.0957 1.15625,-1.169921 1.45313,-1.466797 L 248,53.794922 256.82812,42.5 l 0.041,0.820312 -0.67969,0.511719 -0.69723,5.154271 4.86245,1.925972 3.12169,1.959814 3.80294,-3.668959 -0.0156,-0.412109 1.52308,-3.202229 -1.22704,-2.924257 -3.3197,-0.26046 -1.6622,-3.310574 -2.16176,-1.185293 7.87304,-10.072265 0.85156,-2.707032 -0.0664,-1.259765 v -0.002 l -0.0137,-0.257813 -0.80078,-2.210937 -0.37696,-0.503907 -0.002,-0.0039 -7.61328,-10.150391 -0.002,-0.002 -0.63671,-0.847656 -1.42774,-1.1894531 -0.17187,-0.087891 -0.93946,-0.4707031 -1.86523,-0.4296875 -0.29883,0.00391 -2.8164,-0.8652344 -0.68946,0.050781 -3.94812,-1.1412002 -3.69055,2.0904189 -4.84367,0.058675 -0.9375,0.00977 h -0.006 l -10.92759,0.1328125 -2.04493,-3.3183594 -0.0234,-0.013672 0.24686,0.6096291 -3.07519,-4.0055383 z"
         style="fill:#000000;fill-opacity:1;stroke:none;stroke-width:1"
         inkscape:connector-curvature="0" />
      <path
         inkscape:export-ydpi="192.86"
         inkscape:export-xdpi="192.86"
         inkscape:export-filename="C:\Users\AntonTesh\Desktop\path1863.png"
         sodipodi:nodetypes="cccccccccccccc"
         inkscape:connector-curvature="0"
         id="path1560"
         d="m 207.19349,884.28817 0.97348,-0.52419 31.15134,-0.37441 1.04836,0.52419 8.08737,10.78315 0.0748,1.42278 -19.02028,24.33697 -2.55038,2.57595 -0.94832,0.45674 -1.09115,-0.34679 -3.27286,-2.31148 -21.56631,-22.09049 -0.14977,-0.82372 z"
         style="fill:#dc1058;fill-opacity:1;stroke:none;stroke-width:0.84340149" />
      <path
         inkscape:export-ydpi="192.86"
         inkscape:export-xdpi="192.86"
         inkscape:export-filename="C:\Users\AntonTesh\Desktop\path1863.png"
         inkscape:connector-curvature="0"
         id="path1562"
         d="m 224.92831,883.56272 -1.76331,0.0201 -4.80285,13.63037 -10.177,-13.44909 h -0.0183 l -0.66651,0.35888 10.24475,13.65601 -17.14782,-1.11511 -0.34425,0.6427 17.22107,1.21399 6.65772,24.06555 0.69397,0.49072 -6.41785,-24.52148 13.62671,-0.50171 -5.93628,25.39306 0.8606,-0.41381 0.0879,-0.0897 c 0.75303,-2.89147 6.19139,-24.43805 6.35376,-25.08178 l 15.06591,-2.92237 -0.0128,-0.24169 -0.35339,-0.47242 -14.53309,2.70996 7.39564,-12.22595 -0.59693,-0.79468 -0.16479,-0.0824 -7.4762,13.20373 z m -1.1499,0.81848 h 0.58776 l 7.32605,12.84851 -12.85584,0.53833 z"
         style="fill:#f71e6b;fill-opacity:1;stroke:none;stroke-width:0.9375" />
      <path
         inkscape:export-ydpi="192.86"
         inkscape:export-xdpi="192.86"
         inkscape:export-filename="C:\Users\AntonTesh\Desktop\path1863.png"
         sodipodi:nodetypes="ccccccccc"
         inkscape:connector-curvature="0"
         id="path1611"
         d="m 206.04194,878.90483 1.09724,-1.9237 0.21109,2.13894 1.7379,0.98457 -2.14068,0.19085 -1.15523,2.09523 0.0731,-2.66447 -1.73789,-1.04762 z"
         style="fill:#fcaeca;fill-opacity:1;stroke:none;stroke-width:0.9375;stroke-opacity:1" />
      <path
         inkscape:export-ydpi="192.86"
         inkscape:export-xdpi="192.86"
         inkscape:export-filename="C:\Users\AntonTesh\Desktop\path1863.png"
         sodipodi:nodetypes="ccccccccc"
         inkscape:connector-curvature="0"
         id="path1611-9"
         d="m 246.67662,915.72632 0.10431,2.90027 -1.71055,-2.23767 -2.61554,0.1017 2.25356,-1.68921 -0.158,-3.13139 1.75638,3.01924 2.65902,-0.0314 z"
         style="fill:#fcaeca;fill-opacity:1;stroke:none;stroke-width:1.228544;stroke-opacity:1" />
      <path
         inkscape:export-ydpi="192.86"
         inkscape:export-xdpi="192.86"
         inkscape:export-filename="C:\Users\AntonTesh\Desktop\path1863.png"
         sodipodi:nodetypes="ccccccccc"
         inkscape:connector-curvature="0"
         id="path1611-9-5"
         d="m 232.44438,883.4852 -0.20767,-2.89471 1.78926,2.17525 2.61025,-0.19491 -2.19189,1.7685 0.26957,3.12376 -1.86293,-2.95468 -2.65621,0.1262 z"
         style="fill:#fcaeca;fill-opacity:1;stroke:none;stroke-width:1.228544;stroke-opacity:1" />
      <path
         inkscape:export-ydpi="192.86"
         inkscape:export-xdpi="192.86"
         inkscape:export-filename="C:\Users\AntonTesh\Desktop\path1863.png"
         sodipodi:nodetypes="ccccccccc"
         inkscape:connector-curvature="0"
         id="path1611-2"
         d="m 212.55255,921.52298 0.68224,3.01566 -2.23288,-2.0046 -2.71811,0.62327 2.0255,-2.2137 -0.78415,-3.24701 2.43532,2.81378 2.77749,-0.5583 z"
         style="fill:#fcaeca;fill-opacity:1;stroke:none;stroke-width:1.30886233;stroke-opacity:1" />
    </g>
    <g
       id="g1883"
       transform="matrix(0,0.93610275,-0.93610275,0,992.90264,745.2997)">
      <path
         id="path1747"
         transform="matrix(0.9375,0,0,0.9375,0,872.36216)"
         d="m 230.93359,139.29297 -2.36914,0.66992 -3.03711,2.00977 -1.69726,2.40625 -1.6836,6.82226 -0.0156,0.0606 -0.10548,0.0352 -0.49023,0.2246 -7.10352,3.90625 -1.9375,2.41993 -2.21875,7.63672 0.14844,2.67773 2.57422,6.21484 2.33203,2.24805 5.5039,2.04102 1.70313,0.24218 4.31836,-0.31054 3.07226,-0.21289 1.3711,-0.0879 0.73437,-0.0527 0.61133,-0.0781 1.84766,-0.25586 5.27539,-0.76563 7.49219,-1.11133 1.49804,-0.54101 8.86133,-5.36719 0.25977,-0.0898 1.67382,0.17187 1.80274,0.13086 2.96875,-0.54687 1.36719,-0.45118 2.32306,-2.84892 0.42609,-4.11258 -2.04797,-3.42325 -2.23438,-1.13672 -3.22656,-0.50977 -0.12891,-1.65625 -0.0684,-0.49218 -1.50196,-7.41211 -1.95312,-2.70703 -5.56055,-3.19141 -1.33789,-0.48047 -10.19922,-1.73047 -0.54297,-0.0547 z"
         style="fill:#000000;fill-opacity:1;stroke:none;stroke-width:1"
         inkscape:connector-curvature="0"
         sodipodi:nodetypes="ccccccccccccccccccccccccccccccccccccccccccccc" />
      <path
         inkscape:export-ydpi="192.86"
         inkscape:export-xdpi="192.86"
         inkscape:export-filename="C:\Users\AntonTesh\Desktop\path1863.png"
         style="fill:#d6c85a;fill-opacity:1;stroke:none;stroke-width:0.9375"
         d="m 248.43476,1025.7859 -0.64744,1.7657 c 0,0 -1.94231,0.7063 -2.76633,0.7063 -0.82402,0 -9.06412,-0.9417 -9.06412,-0.9417 l 0.35314,-0.824"
         id="path1736"
         inkscape:connector-curvature="0" />
      <path
         inkscape:export-ydpi="192.86"
         inkscape:export-xdpi="192.86"
         inkscape:export-filename="C:\Users\AntonTesh\Desktop\path1863.png"
         style="fill:#e8de8f;fill-opacity:1;stroke:none;stroke-width:0.9375"
         d="m 216.37338,1006.7437 -2.84729,1.8842 -1.72669,6.9928 -0.2124,1.7358 -2.06909,0.3845 -6.65955,3.6622 -2.08008,7.1594 2.41333,5.8264 5.15992,1.9134 c 0,0 7.99117,-0.5822 8.4906,-0.5822 0.49942,0 14.40125,-2.0801 14.40125,-2.0801 l 8.65539,-5.2441 5.32837,-1.8311 2.33093,0.249 1.33118,-0.9155 -1.83105,-1.8311 c 0,0 -3.07746,-0.4841 -5.98939,-0.9466 l -0.35156,-4.541 -1.40808,-6.9489 -5.21302,-2.9919 -9.56176,-1.6223 z"
         id="path1738"
         inkscape:connector-curvature="0" />
      <path
         inkscape:export-ydpi="192.86"
         inkscape:export-xdpi="192.86"
         inkscape:export-filename="C:\Users\AntonTesh\Desktop\path1863.png"
         style="fill:#fbf5c2;fill-opacity:1;stroke:none;stroke-width:0.9375"
         d="m 211.40023,1018.9019 -0.55114,4.5209 2.33093,2.4207 7.6831,2.0617 h 10.01221 l 8.45947,-1.8823 1.81275,-1.8842 -0.25452,-3.2922 -3.19886,1.181 c 10e-6,0 -5.82721,1.4154 -6.20177,1.4154 -0.37457,0 -10.03052,-0.3332 -10.03052,-0.3332 l -7.28211,-2.0801 z"
         id="path1740"
         inkscape:connector-curvature="0" />
      <path
         inkscape:export-ydpi="192.86"
         inkscape:export-xdpi="192.86"
         inkscape:export-filename="C:\Users\AntonTesh\Desktop\path1863.png"
         style="fill:#d6c85a;fill-opacity:1;stroke:none;stroke-width:0.9375"
         d="m 224.77385,1007.8931 -4.82635,0.1765 -3.17833,0.3532 -1.35374,0.824 0.58859,0.6474 c 0,0 4.4732,-0.1765 4.76749,-0.1765 0.29429,0 9.77042,0.6474 9.77042,0.6474 l 2.35432,-0.059 -0.23543,-0.8829 c 0,0 -2.11889,-0.6474 -3.06062,-0.824 -0.94172,-0.1766 -4.82635,-0.7063 -4.82635,-0.7063 z"
         id="path1742"
         inkscape:connector-curvature="0" />
    </g>
    <path
       sodipodi:nodetypes="ccccccccccccccccccccccccccccccccccccccccccccc"
       inkscape:connector-curvature="0"
       style="fill:#000000;fill-opacity:1;stroke:none;stroke-width:0.87759632"
       d="m 54.039021,1008.7988 -0.58792,-2.0791 -1.763766,-2.6654 -2.111717,-1.4895 -5.98719,-1.4775 -0.05314,-0.014 -0.03086,-0.093 -0.197108,-0.4302 -3.42811,-6.23406 -2.123722,-1.70034 -6.701958,-1.94717 -2.349966,0.13027 -5.45412,2.25912 -1.972881,2.04659 -1.791191,4.8302 -0.212537,1.49469 0.272529,3.7897 0.186832,2.6963 0.07714,1.2032 0.04625,0.6445 0.06854,0.5365 0.224542,1.6215 0.671914,4.6297 0.975299,6.5751 0.474788,1.3147 4.711938,7.7766 0.0789,0.228 -0.150842,1.4689 -0.116553,1.5838 0.479931,2.6054 0.395954,1.1998 2.501957,2.0405 3.607474,0.3705 3.004231,-1.7973 0.997582,-1.9609 0.447372,-2.8316 1.453519,-0.1132 0.431935,-0.06 6.504841,-1.3181 2.375679,-1.714 2.80077,-4.88 0.421659,-1.1741 1.518654,-8.9508 0.048,-0.4765 z"
       id="path1577" />
    <path
       style="fill:#502517;fill-opacity:1;stroke:none;stroke-width:0.87759632"
       d="m 32.661638,1038.6939 -1.652877,-0.606 c 0,0 -0.661169,-1.8182 -0.661169,-2.5896 0,-0.7714 0.881528,-8.485 0.881528,-8.485 l 0.771349,0.3306"
       id="path1744"
       inkscape:connector-curvature="0"
       inkscape:export-filename="C:\Users\AntonTesh\Desktop\path1863.png"
       inkscape:export-xdpi="192.86"
       inkscape:export-ydpi="192.86" />
    <path
       style="fill:#701e18;fill-opacity:1;stroke:none;stroke-width:0.87759632"
       d="m 50.487094,1008.6812 -1.763805,-2.6654 -6.545979,-1.6163 -1.624887,-0.1989 -0.359932,-1.9368 -3.428195,-6.23406 -6.701934,-1.94717 -5.454109,2.25912 -1.791139,4.83021 c 0,0 0.544999,7.4806 0.544999,7.9481 0,0.4675 1.947187,13.481 1.947187,13.481 l 4.909016,8.1024 1.714098,4.9879 -0.23309,2.182 0.857003,1.2461 1.714097,-1.7141 c 0,0 0.453168,-2.8808 0.886115,-5.6067 l 4.250843,-0.3291 6.504884,-1.3181 2.800726,-4.8799 1.518639,-8.9508 z"
       id="path1746"
       inkscape:connector-curvature="0"
       inkscape:export-filename="C:\Users\AntonTesh\Desktop\path1863.png"
       inkscape:export-xdpi="192.86"
       inkscape:export-ydpi="192.86" />
    <path
       style="fill:#91211a;fill-opacity:1;stroke:none;stroke-width:0.87759632"
       d="m 39.105769,1004.0258 -4.232026,-0.5159 -2.266024,2.182 -1.929963,7.1921 v 9.3725 l 1.762026,7.9189 1.763805,1.697 3.081837,-0.2383 -1.105537,-2.9945 c 0,0 -1.32496,-5.4548 -1.32496,-5.8055 0,-0.3506 0.311909,-9.3896 0.311909,-9.3896 l 1.947188,-6.8168 z"
       id="path1748"
       inkscape:connector-curvature="0"
       inkscape:export-filename="C:\Users\AntonTesh\Desktop\path1863.png"
       inkscape:export-xdpi="192.86"
       inkscape:export-ydpi="192.86" />
    <path
       style="fill:#521c18;fill-opacity:1;stroke:none;stroke-width:0.87759632"
       d="m 49.411137,1016.5449 -0.165222,-4.518 -0.330631,-2.9752 -0.771349,-1.2673 -0.606033,0.551 c 0,0 0.165222,4.1874 0.165222,4.4629 0,0.2755 -0.606033,9.1461 -0.606033,9.1461 l 0.05523,2.2039 0.826486,-0.2204 c 0,0 0.606032,-1.9835 0.771348,-2.8651 0.165316,-0.8815 0.66117,-4.5179 0.66117,-4.5179 z"
       id="path1750"
       inkscape:connector-curvature="0"
       inkscape:export-filename="C:\Users\AntonTesh\Desktop\path1863.png"
       inkscape:export-xdpi="192.86"
       inkscape:export-ydpi="192.86" />
    <g
       id="g1856"
       transform="matrix(0,0.93610275,-0.93610275,0,998.22985,744.9667)">
      <path
         transform="matrix(0.9375,0,0,0.9375,0,872.36216)"
         id="path1753"
         d="m 237.25586,65.589844 -1.82617,0.402344 -7.03125,3.390624 -2.00782,2.164063 -2.96093,7.521484 -1.70899,0.125 -4.64453,1.38086 -2.01953,1.367187 -2.38672,3.013672 -0.86914,2.289063 -0.25,4.519531 0.91797,2.798828 3.51563,4.269531 0.0371,0.04492 3.00391,3.541019 3.01758,9.16797 0.58594,1.13672 5.27343,7.1582 2.02344,1.45312 13.31055,4.26954 1.89258,0.14062 7.6582,-1.25586 0.90625,-0.25976 6.90625,-2.88868 1.57422,-1.17578 3.89258,-4.77148 0.74609,-1.4082 1.00586,-3.39063 0.0449,-2.13477 -0.37695,-1.50586 -2.3577,-2.67899 -3.05051,-0.14327 -2.96679,3.01953 -0.0234,0.0977 -0.91992,0.63281 -0.0215,-0.23242 1.75,-3.75977 4.01368,-4.013672 0.75781,-1.052734 3.01367,-6.027344 0.39258,-2.345703 -0.50195,-3.767578 -1.24024,-2.414063 -2.13476,-2.007812 -1.97852,-1.021485 -3.40039,-0.679687 v -1.503906 l -0.72461,-2.3125 -4.01953,-5.775391 -1.2832,-1.185547 -6.02735,-3.515625 -1.97461,-0.550781 z"
         style="fill:#000000;fill-opacity:1;stroke:none;stroke-width:1"
         inkscape:connector-curvature="0"
         sodipodi:nodetypes="ccccccccccccccccccccccccccccccccccccccccccccccccccccc" />
      <path
         inkscape:export-ydpi="192.86"
         inkscape:export-xdpi="192.86"
         inkscape:export-filename="C:\Users\AntonTesh\Desktop\path1863.png"
         inkscape:connector-curvature="0"
         id="path1600-5"
         d="m 202.11824,958.60142 0.23544,-4.23777 2.2366,-2.82518 4.35548,-1.29488 3.41377,1.4126 0.58858,-3.6492 2.82519,-7.18067 6.59208,-3.17833 7.06296,0.11772 5.65036,3.29604 3.76691,5.41493 v 6.47438 l 2.70747,-1.41259 3.53148,0.70629 2.00117,1.88346 0.47086,3.53148 -2.82519,5.65036 -4.23777,4.23777 -2.35431,5.06179 0.35314,3.88463 0.94173,1.05944 3.06061,0.23543 3.76691,-2.58975 0.35315,-1.53031 0.47087,-0.11771 0.35315,1.41259 -0.94173,3.17833 -3.64919,4.4732 -6.47439,2.70747 -7.18067,1.17716 -12.47789,-4.00234 -4.94406,-6.70981 -3.06061,-9.29956 -3.29605,-3.88462 z"
         style="fill:#ffffff;fill-opacity:1;stroke:none;stroke-width:0.9375;stroke-opacity:1" />
      <path
         inkscape:export-ydpi="192.86"
         inkscape:export-xdpi="192.86"
         inkscape:export-filename="C:\Users\AntonTesh\Desktop\path1863.png"
         inkscape:connector-curvature="0"
         id="path1602-3"
         d="m 219.53839,945.57893 -1.64846,0.55083 -1.47461,2.1277 0.44282,2.19312 2.76488,0.53879 1.92674,-0.97586 0.6349,-2.35147 -0.96553,-1.59396 z"
         style="fill:#1b1b1b;fill-opacity:1;stroke:none;stroke-width:0.9375;stroke-opacity:1" />
      <path
         inkscape:export-ydpi="192.86"
         inkscape:export-xdpi="192.86"
         inkscape:export-filename="C:\Users\AntonTesh\Desktop\path1863.png"
         inkscape:connector-curvature="0"
         id="path1604-9"
         d="m 227.61165,945.9506 -1.45666,1.74799 0.49943,2.2058 1.45665,1.3318 1.99771,0.37457 2.08094,-0.79076 0.54105,-1.91446 -0.74914,-1.78962 -1.87285,-1.08209 z"
         style="fill:#1b1b1b;fill-opacity:1;stroke:none;stroke-width:0.9375;stroke-opacity:1" />
      <path
         inkscape:export-ydpi="192.86"
         inkscape:export-xdpi="192.86"
         inkscape:export-filename="C:\Users\AntonTesh\Desktop\path1863.png"
         sodipodi:nodetypes="ccccccccccccc"
         inkscape:connector-curvature="0"
         id="path1861"
         d="m 219.81901,956.09651 -3.24627,-2.08095 -2.91332,2.4139 1.08209,3.32951 3.41275,3.91217 8.73996,0.99885 5.24398,-2.74685 2.08094,-4.57807 -1.9977,-2.49713 -4.57808,0.16647 -2.83009,2.08095 -3.3295,0.16644 z"
         style="fill:#1b1b1b;fill-opacity:1;stroke:none;stroke-width:0.9375" />
    </g>
    <g
       id="g1849"
       transform="matrix(0,0.93610275,-0.93610275,0,998.22985,747.9633)">
      <path
         id="path1755"
         transform="matrix(0.9375,0,0,0.9375,0,872.36216)"
         d="m 301.79492,65.337891 -1.82617,0.402343 -7.03125,3.390625 -2.00781,2.164063 -2.95899,7.521484 -1.70898,0.125 -4.64649,1.38086 -2.01953,1.367187 -2.38672,3.013672 -0.86914,2.291016 -0.25,4.521484 0.91797,2.796875 3.51563,4.267578 0.0371,0.04492 3.0039,3.542972 3.01953,9.16797 0.58594,1.13672 5.27344,7.15625 2.02344,1.45312 13.30859,4.26953 1.89063,0.14063 7.66015,-1.25586 0.90821,-0.25977 6.90624,-2.88867 1.57422,-1.17578 3.89258,-4.77149 0.7461,-1.41015 1.0039,-3.38867 0.0449,-2.13282 -0.37695,-1.50781 -2.3577,-2.67899 -3.0505,-0.14327 -2.9668,3.01953 -0.0234,0.0996 -0.91992,0.63281 -0.0215,-0.23242 1.75,-3.76172 4.01367,-4.013675 0.75781,-1.052735 3.01367,-6.027343 0.39258,-2.345703 -0.50195,-3.765625 -1.23828,-2.414063 -2.13477,-2.009766 -1.98047,-1.021484 -3.40039,-0.68164 v -1.5 l -0.72461,-2.3125 -4.01758,-5.775391 -1.2832,-1.185547 -6.02734,-3.517578 -1.97461,-0.550781 z"
         style="fill:#000000;fill-opacity:1;stroke:none;stroke-width:1"
         inkscape:connector-curvature="0"
         sodipodi:nodetypes="ccccccccccccccccccccccccccccccccccccccccccccccccccccc" />
      <path
         inkscape:export-ydpi="192.86"
         inkscape:export-xdpi="192.86"
         inkscape:export-filename="C:\Users\AntonTesh\Desktop\path1863.png"
         inkscape:connector-curvature="0"
         id="path1600-0"
         d="m 262.62422,958.36599 0.23544,-4.23777 2.2366,-2.82518 4.35548,-1.29488 3.41377,1.4126 0.58858,-3.6492 2.82519,-7.18067 6.59208,-3.17833 7.06296,0.11772 5.65036,3.29604 3.76692,5.41493 v 6.47438 l 2.70747,-1.41259 3.53148,0.70629 2.00116,1.88346 0.47087,3.53148 -2.82519,5.65036 -4.23777,4.23777 -2.35431,5.06179 0.35313,3.88463 0.94173,1.05944 3.06061,0.23543 3.76691,-2.58975 0.35316,-1.53031 0.47086,-0.11771 0.35316,1.41259 -0.94174,3.17833 -3.64919,4.4732 -6.47439,2.70747 -7.18067,1.17716 -12.47789,-4.00234 -4.94406,-6.70981 -3.06061,-9.29956 -3.29605,-3.88462 z"
         style="fill:#ffffff;fill-opacity:1;stroke:none;stroke-width:0.9375;stroke-opacity:1" />
      <path
         inkscape:export-ydpi="192.86"
         inkscape:export-xdpi="192.86"
         inkscape:export-filename="C:\Users\AntonTesh\Desktop\path1863.png"
         inkscape:connector-curvature="0"
         id="path1602-5"
         d="m 276.75935,946.85191 -1.66475,0.49943 -1.5399,2.08094 0.37457,2.2058 2.74684,0.62429 1.95609,-0.91562 0.70752,-2.33065 -0.91562,-1.62314 z"
         style="fill:#1b1b1b;fill-opacity:1;stroke:none;stroke-width:0.9375;stroke-opacity:1" />
      <path
         inkscape:export-ydpi="192.86"
         inkscape:export-xdpi="192.86"
         inkscape:export-filename="C:\Users\AntonTesh\Desktop\path1863.png"
         inkscape:connector-curvature="0"
         id="path1604-0"
         d="m 293.03232,947.80915 -1.45666,1.74799 0.49943,2.2058 1.45665,1.3318 1.99771,0.37457 2.08094,-0.79076 0.54105,-1.91446 -0.74914,-1.78962 -1.87285,-1.08209 z"
         style="fill:#1b1b1b;fill-opacity:1;stroke:none;stroke-width:0.9375;stroke-opacity:1" />
      <path
         inkscape:export-ydpi="192.86"
         inkscape:export-xdpi="192.86"
         inkscape:export-filename="C:\Users\AntonTesh\Desktop\path1863.png"
         sodipodi:nodetypes="ccccccccccccc"
         inkscape:connector-curvature="0"
         id="path1863"
         d="m 277.43133,954.89078 4.07866,-3.82894 4.74454,-1.58151 4.16189,2.24742 2.91332,5.82664 -0.62429,1.99771 -2.83007,0.54104 -2.91332,-1.29018 -3.62084,-0.4162 -2.83009,1.58152 -3.03817,-0.70752 -0.70752,-2.58037 z"
         style="fill:#1b1b1b;fill-opacity:1;stroke:none;stroke-width:0.9375" />
    </g>
    <g
       id="g1816"
       transform="matrix(0,0.93610275,-0.93610275,0,1000.8935,748.9621)">
      <path
         transform="matrix(0.9375,0,0,0.9375,0,872.36216)"
         id="path1759"
         d="m 301.79688,1.0488281 -1.82813,0.4023438 -7.03125,3.390625 -2.00781,2.1640625 -2.95899,7.5214846 -1.70898,0.125 -4.64649,1.380859 -2.01953,1.367188 -2.38672,3.013671 -0.86914,2.291016 -0.25,4.521484 0.91797,2.796876 3.51563,4.269531 0.0371,0.04492 3.0039,3.541015 3.01953,9.167969 0.58594,1.136719 5.27344,7.15625 2.02344,1.453125 13.30859,4.269531 1.89063,0.140625 7.66015,-1.255859 0.90821,-0.259766 6.90624,-2.886719 1.57423,-1.175779 3.89258,-4.771484 0.7461,-1.410157 1.0039,-3.390625 0.0449,-2.132812 -0.37695,-1.507813 -2.37137,-2.67509 -3.0505,-0.141316 -2.95313,3.013672 -0.0234,0.09766 -0.91992,0.634766 -0.0215,-0.232422 1.75,-3.759766 4.01367,-4.015625 0.75781,-1.052734 3.01367,-6.027344 0.39258,-2.345703 -0.50195,-3.765625 -1.23828,-2.414062 -2.13477,-2.009766 -1.98047,-1.021484 -3.40039,-0.681641 v -1.5 l -0.72461,-2.3125 -4.01758,-5.7753906 -1.2832,-1.1855469 -6.02734,-3.515625 -1.97266,-0.5507853 z"
         style="fill:#000000;fill-opacity:1;stroke:none;stroke-width:1"
         inkscape:connector-curvature="0"
         sodipodi:nodetypes="ccccccccccccccccccccccccccccccccccccccccccccccccccccc" />
      <path
         inkscape:export-ydpi="192.86"
         inkscape:export-xdpi="192.86"
         inkscape:export-filename="C:\Users\AntonTesh\Desktop\path1863.png"
         style="fill:#ffffff;fill-opacity:1;stroke:none;stroke-width:0.9375;stroke-opacity:1"
         d="m 262.62422,898.09544 0.23544,-4.23777 2.2366,-2.82518 4.35548,-1.29488 3.41377,1.4126 0.58858,-3.6492 2.82519,-7.18067 6.59208,-3.17833 7.06296,0.11772 5.65036,3.29604 3.76692,5.41493 v 6.47438 l 2.70747,-1.41259 3.53148,0.70629 2.00116,1.88346 0.47087,3.53148 -2.82519,5.65036 -4.23777,4.23777 -2.35431,5.06179 0.35313,3.88463 0.94173,1.05944 3.06061,0.23543 3.76691,-2.58975 0.35316,-1.53031 0.47086,-0.11771 0.35316,1.41259 -0.94174,3.17833 -3.64919,4.4732 -6.47439,2.70747 -7.18067,1.17716 -12.47789,-4.00234 -4.94406,-6.70981 -3.06061,-9.29956 -3.29605,-3.88462 z"
         id="path1752"
         inkscape:connector-curvature="0" />
      <path
         inkscape:export-ydpi="192.86"
         inkscape:export-xdpi="192.86"
         inkscape:export-filename="C:\Users\AntonTesh\Desktop\path1863.png"
         style="fill:#1b1b1b;fill-opacity:1;stroke:none;stroke-width:0.9375;stroke-opacity:1"
         d="m 281.07985,889.30658 -1.66475,0.49943 -1.5399,2.08094 0.37457,2.2058 2.74684,0.62429 1.95609,-0.91562 0.70752,-2.33065 -0.91562,-1.62314 z"
         id="path1754"
         inkscape:connector-curvature="0" />
      <path
         inkscape:export-ydpi="192.86"
         inkscape:export-xdpi="192.86"
         inkscape:export-filename="C:\Users\AntonTesh\Desktop\path1863.png"
         style="fill:#1b1b1b;fill-opacity:1;stroke:none;stroke-width:0.9375;stroke-opacity:1"
         d="m 288.49312,890.25739 -1.45666,1.74799 0.49943,2.2058 1.45665,1.3318 1.99771,0.37457 2.08094,-0.79076 0.54105,-1.91446 -0.74914,-1.78962 -1.87285,-1.08209 z"
         id="path1756"
         inkscape:connector-curvature="0" />
      <path
         inkscape:connector-curvature="0"
         id="path1865"
         d="m 283.84065,898.03941 -1.3318,2.49713 0.99885,1.99771 2.99656,0.83238 1.66475,-1.99771 -0.16647,-1.9977 -1.83124,-1.49828 z"
         style="fill:#1b1b1b;fill-opacity:1;stroke:none;stroke-width:0.9375" />
    </g>
    <flowRoot
       xml:space="preserve"
       id="flowRoot1583"
       style="font-style:normal;font-variant:normal;font-weight:normal;font-stretch:normal;font-size:8px;line-height:1;font-family:Roboto;-inkscape-font-specification:'Roboto, Normal';font-variant-ligatures:normal;font-variant-caps:normal;font-variant-numeric:normal;font-feature-settings:normal;text-align:start;writing-mode:lr-tb;text-anchor:start;fill:#000000;fill-opacity:1;stroke:none"
       transform="matrix(0,0.9375,-0.9375,0,628.39816,887.2961)"
       inkscape:export-filename="C:\Users\AntonTesh\Desktop\Back.png"
       inkscape:export-xdpi="192.86"
       inkscape:export-ydpi="192.86"><flowRegion
         id="flowRegion1585"
         style="font-style:normal;font-variant:normal;font-weight:normal;font-stretch:normal;font-size:8px;font-family:Roboto;-inkscape-font-specification:'Roboto, Normal';font-variant-ligatures:normal;font-variant-caps:normal;font-variant-numeric:normal;font-feature-settings:normal;text-align:start;writing-mode:lr-tb;text-anchor:start"><rect
           id="rect1587"
           width="162.50432"
           height="149.71002"
           x="1.2137291"
           y="330.34741"
           style="font-style:normal;font-variant:normal;font-weight:normal;font-stretch:normal;font-size:8px;font-family:Roboto;-inkscape-font-specification:'Roboto, Normal';font-variant-ligatures:normal;font-variant-caps:normal;font-variant-numeric:normal;font-feature-settings:normal;text-align:start;writing-mode:lr-tb;text-anchor:start" /></flowRegion><flowPara
         id="flowPara1566">	Tear the pieces on the dotted lines</flowPara><flowPara
         id="flowPara1568">	Place the exit and hat tokens (explorers) in the same place</flowPara><flowPara
         id="flowPara1570">	Place the gem down and the ghosts between the gem and exit</flowPara><flowPara
         id="flowPara1572">	Place other business cards down as traps</flowPara><flowPara
         id="flowPara1574">	Players take turns flicking their pieces</flowPara><flowPara
         id="flowPara1576">	The explorers must flick their piece to the gem and back to the exit</flowPara><flowPara
         id="flowPara1578">	The ghosts can only use their pinky to flick their pieces</flowPara><flowPara
         id="flowPara1580">	Ghosts cant be closer than a finger to the gem or exit</flowPara><flowPara
         id="flowPara1582">	If a ghost hits an explorer or an explorer hits a trap that explorer loses!</flowPara><flowPara
         id="flowPara1584">	The first explorer to reach the gem and make it to the exit wins!</flowPara></flowRoot>    <text
       xml:space="preserve"
       style="font-size:26.678545px;line-height:1.25;text-align:center;text-anchor:middle;fill:#d6d6d6;fill-opacity:1;stroke:none;stroke-width:0.83370453"
       x="254.49249"
       y="882.46509"
       id="text1569"
       inkscape:export-filename="C:\Users\AntonTesh\Desktop\Back.png"
       inkscape:export-xdpi="192.86"
       inkscape:export-ydpi="192.86"><tspan
         sodipodi:role="line"
         x="254.49249"
         y="882.46509"
         style="font-style:normal;font-variant:normal;font-weight:bold;font-stretch:normal;font-size:17.50000191px;font-family:Roboto;-inkscape-font-specification:'Roboto, Bold';font-variant-ligatures:normal;font-variant-caps:normal;font-variant-numeric:normal;font-feature-settings:normal;text-align:center;writing-mode:lr-tb;text-anchor:middle;fill:#000000;fill-opacity:1;stroke-width:0.83370453"
         id="tspan1586">Indiana Clones</tspan></text>
  </g>
</svg>
