<?xml version="1.0" encoding="UTF-8" standalone="no"?>
<!-- Created with Inkscape (http://www.inkscape.org/) -->

<svg
   xmlns:dc="http://purl.org/dc/elements/1.1/"
   xmlns:cc="http://creativecommons.org/ns#"
   xmlns:rdf="http://www.w3.org/1999/02/22-rdf-syntax-ns#"
   xmlns:svg="http://www.w3.org/2000/svg"
   xmlns="http://www.w3.org/2000/svg"
   xmlns:sodipodi="http://sodipodi.sourceforge.net/DTD/sodipodi-0.dtd"
   xmlns:inkscape="http://www.inkscape.org/namespaces/inkscape"
   width="3.6600001in"
   height="2.1600001in"
   viewBox="0 0 329.40001 194.40001"
   id="svg2"
   version="1.1"
   inkscape:version="0.92.2 (5c3e80d, 2017-08-06)"
   sodipodi:docname="Busienss Card Game Golf.svg"
   inkscape:export-filename="C:\Users\AntonTesh\Desktop\path1828-7-1-9-27.png"
   inkscape:export-xdpi="300"
   inkscape:export-ydpi="300">
  <defs
     id="defs4" />
  <sodipodi:namedview
     id="base"
     pagecolor="#ffffff"
     bordercolor="#666666"
     borderopacity="1.0"
     inkscape:pageopacity="0.0"
     inkscape:pageshadow="2"
     inkscape:zoom="1.9910221"
     inkscape:cx="164.84341"
     inkscape:cy="128.30766"
     inkscape:document-units="px"
     inkscape:current-layer="layer1"
     showgrid="false"
     units="in"
     inkscape:window-width="1920"
     inkscape:window-height="1017"
     inkscape:window-x="1912"
     inkscape:window-y="-8"
     inkscape:window-maximized="1"
     inkscape:showpageshadow="false"
     inkscape:snap-global="true"
     showguides="true"
     inkscape:guide-bbox="true"
     inkscape:snap-bbox="true"
     inkscape:bbox-paths="true"
     inkscape:bbox-nodes="true"
     inkscape:snap-bbox-midpoints="true"
     inkscape:snap-bbox-edge-midpoints="true"
     inkscape:object-paths="true"
     inkscape:snap-intersection-paths="true"
     inkscape:snap-smooth-nodes="true"
     inkscape:snap-midpoints="true"
     inkscape:snap-object-midpoints="true"
     inkscape:snap-center="true" />
  <metadata
     id="metadata7">
    <rdf:RDF>
      <cc:Work
         rdf:about="">
        <dc:format>image/svg+xml</dc:format>
        <dc:type
           rdf:resource="http://purl.org/dc/dcmitype/StillImage" />
        <dc:title></dc:title>
      </cc:Work>
    </rdf:RDF>
  </metadata>
  <g
     inkscape:label="Layer 1"
     inkscape:groupmode="layer"
     id="layer1"
     transform="translate(0,-857.96216)">
    <rect
       style="fill:#ffffff;fill-opacity:1;stroke:none;stroke-width:1.07215059"
       id="rect1236"
       width="383.74609"
       height="219.28348"
       x="-356.57306"
       y="-1064.804"
       inkscape:export-filename="C:\Users\AntonTesh\Desktop\path1828-7-1-9-27.png"
       inkscape:export-xdpi="192.86"
       inkscape:export-ydpi="192.86"
       transform="scale(-1)" />
    <path
       style="fill:#000000;fill-opacity:1;stroke:none;stroke-width:1.20768285"
       d="m 101.52678,1044.2576 0.67017,-0.037 5.56824,-0.8313 1.68091,-0.7197 3.33252,-2.5927 1.14807,-1.5454 2.06542,-5.3504 0.23805,-1.4374 -0.1355,-3.4405 -0.45227,-1.6113 -1.88416,-3.382 -0.62622,-0.8203 -3.74634,-3.6694 -2.04346,-0.998 -4.58679,-0.6115 -2.04529,0.3296 -4.894405,2.3693 -1.173712,0.9064 -3.398438,3.9954 -0.950315,0.6555 -1.649775,0.5218 -5.53711,0.9577 -2.698978,2.1332 -0.324094,0.758 0.38086,3.5065 0.269165,0.3772 2.532347,1.4886 5.401613,0.6024 h 0.0056 l 1.591181,0.174 0.593269,0.5402 3.046875,4.0155 1.340325,1.0839 4.892442,2.2944 z m 68.23975,-5.5902 3.31238,-1.9867 1.9812,-3.9533 0.30395,-0.8642 1.15724,-5.4438 4.34142,-7.727 2.01965,-3.0176 0.20875,-1.4886 -0.16846,-1.6938 -0.35523,-1.0107 -2.74292,-2.3474 -14.40307,-2.6697 h -0.0183 l -16.96839,-3.0505 -0.0952,-0.2545 -0.22705,-0.9906 -0.62073,-2.0288 -0.9137,-2.6441 -1.68823,-1.9482 -3.45703,-1.8475 -3.75183,0.2179 -3.70239,2.5708 -1.48316,2.2796 -1.43189,7.4524 0.0238,1.4685 1.31653,5.8631 0.59143,1.3165 1.59485,2.0709 1.41357,1.5729 0.98694,0.813 3.12195,0.628 1.38977,-0.4815 1.25794,-0.5512 1.5454,-0.7233 1.80907,-1.9775 1.05103,-2.7979 5.77331,1.377 0.24902,0.051 7.36267,1.214 0.007,-0.2417 0.0659,0.7983 1.47034,7.4414 0.11902,0.4468 2.31262,6.8994 1.26526,4.1583 1.05468,1.6443 0.62239,0.553 z m -135.498045,-0.4047 0.426628,-0.01 4.8816,-0.4047 3.554072,-0.3424 1.375125,-0.1666 1.424559,-0.3223 1.060181,-0.5932 0.532838,-0.4212 1.162715,-1.0217 2.905885,-2.7265 3.938597,-3.8232 0.882572,-1.4081 3.169556,-9.3384 0.1593,-1.6461 -1.263422,-9.2157 -0.529181,-1.4428 -2.473753,-3.7958 -1.939088,-2.8144 -0.869747,-1.148 -1.171875,-1.1719 -1.604006,-0.8057 -1.651613,-0.5841 -4.284665,-1.3385 -4.194947,-1.19016 -1.528931,-0.38635 -0.6189,-0.13001 -1.400757,-0.033 -0.873412,0.20508 -1.005244,0.28564 -2.730103,0.8149 -2.744756,0.8587 -1.032713,0.3461 -1.016231,0.4248 -1.516116,0.9979 -2.169796,1.529 -2.146004,1.5637 -0.809325,0.6189 -0.899043,0.8441 -0.589603,0.91 -0.459591,0.857 -1.155403,2.2851 -1.126097,2.3657 -0.4248,0.9778 -0.375366,1.1865 v 0 l -0.631716,4.01 -0.516356,3.3692 0.117188,1.5912 1.239618,3.9697 0.952154,2.8894 0.410156,1.1334 0.682978,1.3348 0.761719,0.8497 0.917362,0.91 2.492063,2.406 3.482672,3.3124 1.268915,0.7781 6.897582,2.4482 z m 67.943105,-24.3695 0.3003,-0.026 4.58863,-0.6116 2.04345,-0.9979 3.74634,-3.6695 0.62622,-0.8203 1.88415,-3.3819 0.45227,-1.6114 0.13551,-3.4405 -0.23804,-1.4374 -2.06544,-5.35034 -1.14806,-1.54541 -3.33252,-2.59277 -1.68091,-0.71961 -5.56824,-0.8313 -2.059937,0.3003 -4.892578,2.29431 -1.340335,1.08398 -3.045037,4.01554 -0.596925,0.5401 -1.589363,0.174 h -0.0056 l -5.40344,0.6024 -2.537841,1.4941 -0.269166,0.3791 -0.373528,3.5046 0.324094,0.7562 2.697141,2.1295 5.538937,0.9577 1.649785,0.5237 0.950315,0.6537 3.398438,3.9953 1.173703,0.9064 4.892587,2.3694 1.74499,0.3552 z m 58.42713,-34.71314 1.47217,-0.26917 4.52271,-1.88598 3.27758,-1.41907 1.25611,-0.58045 1.2561,-0.74523 0.82763,-0.8899 0.37721,-0.56396 0.79284,-1.32935 1.92627,-3.48816 2.57446,-4.84863 0.40833,-1.61133 0.14648,-9.86023 -0.35705,-1.61498 -4.03382,-8.38075 -0.94482,-1.21032 -3.52112,-2.85278 -2.70996,-2.08192 -1.18103,-0.8258 -1.474,-0.75439 -1.77612,-0.27283 -1.75049,-0.0494 -4.48791,0.044 -4.35792,0.15564 -1.57287,0.10254 -0.62989,0.0678 -1.34033,0.39734 -0.002,0.002 -0.76905,0.46326 -0.86791,0.57862 -2.34925,1.61682 -2.34741,1.65893 -0.87707,0.6482 -0.8368,0.7141 -1.13708,1.41541 -1.59302,2.12402 -1.56372,2.146 -0.57862,0.83862 -0.59692,1.08032 -0.28198,1.04554 -0.17396,0.95764 -0.3955,2.53052 -0.34424,2.59643 -0.10437,1.06201 0.008,1.24146 v 0.004 l 0.6317,4.01 0.54567,3.36365 0.59875,1.47766 2.40051,3.39661 1.7926,2.45728 0.73975,0.95214 1.05835,1.05835 0.002,0.002 0.98327,0.57495 1.15357,0.58411 3.11279,1.52343 4.33045,2.08191 1.44652,0.34973 z m -65.322879,-0.802 0.228891,-0.009 9.277948,-0.65186 1.47399,-0.43213 3.95143,-2.2174 2.93701,-1.74683 1.203,-0.79285 1.24695,-1.0913 0.91004,-1.54908 0.69214,-1.60766 1.61682,-4.18762 1.46667,-4.10706 0.48706,-1.49963 0.16846,-0.60975 0.12634,-1.39526 -0.14649,-0.8844 -0.21789,-1.02173 -0.63355,-2.77771 -0.67565,-2.79602 -0.27649,-1.05469 -0.35523,-1.04003 v -0.002 l -0.89538,-1.57838 -1.38428,-2.26685 -1.41724,-2.24487 -0.5658,-0.84777 -0.78368,-0.95215 -0.86609,-0.6482 -0.82581,-0.51636 -2.20276,-1.3037 -2.28698,-1.27992 -0.94666,-0.49071 -1.15906,-0.45228 -3.9624,-0.89538 -3.327031,-0.73608 -1.596675,0.011 -4.041141,0.97595 -2.946168,0.75806 -1.15906,0.33508 -1.375115,0.59326 -0.899053,0.7013 -0.968625,0.8551 -2.56531,2.3291 -3.535762,3.25379 -0.858769,1.21582 -2.900391,6.7218 -0.294797,1.46667 0.08241,4.89807 0.1062,3.56873 0.07688,1.38244 0.227053,1.44288 0.52185,1.0968 0.384525,0.5603 0.942994,1.22681 2.526853,3.07983 3.554072,4.18213 1.347656,0.97595 9.107672,3.78113 1.404412,0.27466 z m -60.430294,-0.88623 0.587766,-0.022 9.234009,-1.11877 1.4502,-0.50721 3.834225,-2.41333 2.843625,-1.89514 1.162725,-0.85144 1.188356,-1.15356 0.8313,-1.59302 0.609741,-1.64063 1.404413,-4.26269 1.257937,-4.17481 0.410156,-1.52343 0.137325,-0.61707 0.05672,-1.39892 -0.192262,-0.87708 -0.269166,-1.00891 -0.772706,-2.74475 -0.814819,-2.75757 -0.329588,-1.03821 -0.408318,-1.02172 v -0.002 l -0.974128,-1.53258 -1.495969,-2.19178 -1.528931,-2.16979 -0.606075,-0.81849 -0.8313,-0.91187 -0.899054,-0.60424 -0.849609,-0.47425 -2.266847,-1.19018 -2.349244,-1.16272 -0.970453,-0.44129 -1.181034,-0.39367 -4.000856,-0.69397 -3.359982,-0.56763 -1.593018,0.0916 -3.988032,1.17737 -2.904056,0.90637 -1.138912,0.39185 -1.344,0.66284 -0.862425,0.74707 -0.924685,0.90271 -2.444456,2.45545 -3.367312,3.42773 -0.79651,1.25793 -2.557978,6.85913 -0.219731,1.47949 0.329596,4.88892 0.285638,3.55957 0.146484,1.37512 0.300291,1.43006 0.574959,1.06933 0.411985,0.54016 1.003415,1.1792 2.680669,2.94617 3.760988,3.99902 1.395262,0.90454 9.28711,3.31604 1.056515,0.20691 z m 4.438472,-59.68873 1.126106,-0.19591 4.621575,-1.62232 3.354497,-1.22681 1.287235,-0.5072 1.296384,-0.672 v 0.002 l 0.878906,-0.84228 0.408328,-0.54016 0.867919,-1.28174 2.125856,-3.37098 2.849119,-4.69116 0.501703,-1.58569 0.71595,-9.83459 -0.261844,-1.63331 -3.541265,-8.60046 -0.875241,-1.26343 -3.352659,-3.05236 -2.583619,-2.2339 -1.131591,-0.89172 -1.428225,-0.83862 -1.755984,-0.37537 -1.744987,-0.15015 -4.48426,-0.21605 -4.357903,-0.0971 -1.576537,0.011 -0.633554,0.0311 -1.3623,0.32044 -0.794681,0.4193 -0.900872,0.52919 -2.437134,1.47583 -2.438972,1.52343 -0.913697,0.59509 -0.87524,0.66468 -1.217654,1.34766 -1.713862,2.02697 -1.684575,2.05261 -0.626222,0.80383 -0.657347,1.0437 -0.342403,1.02722 -0.228881,0.94666 -0.543825,2.50122 -0.494391,2.57446 -0.164794,1.05286 -0.06413,1.24146 0.399178,4.04297 0.351563,3.39111 0.51269,1.50879 2.199094,3.52844 1.647957,2.55615 0.682978,0.99426 0.996094,1.11878 0.950315,0.63172 1.116947,0.65002 3.019406,1.70105 4.202269,2.3291 1.424569,0.43213 7.293084,0.63355 0.358885,0.0146 z m 118.494881,-0.0165 1.40076,-0.0238 0.86425,-0.2417 0.9906,-0.32775 2.69531,-0.92835 2.7063,-0.97229 1.01807,-0.38819 0.9961,-0.46508 1.47399,-1.06018 2.10389,-1.61865 2.08007,-1.65161 0.78187,-0.6537 0.86425,-0.88073 0.55115,-0.93201 0.42298,-0.87707 1.05834,-2.33094 1.02723,-2.41149 0.38451,-0.99427 0.32411,-1.203 0.46508,-4.03198 0.3717,-3.38745 -0.18127,-1.5857 -1.40442,-3.91296 -1.07116,-2.84729 -0.45777,-1.11694 -0.73791,-1.30372 -0.79468,-0.81664 -0.95581,-0.87159 -2.59094,-2.2998 -3.61451,-3.16406 -1.30188,-0.72327 -6.99463,-2.16065 -1.49047,-0.13549 -4.86145,0.60974 -3.53577,0.49072 -1.36596,0.22522 -1.40992,0.38087 -1.03455,0.6372 -0.51635,0.44129 -1.11878,1.06933 -2.7887,2.84546 -3.77563,3.98254 -0.82398,1.4447 -2.77771,9.46289 -0.0897,1.65162 1.64611,9.15344 0.58777,1.41906 2.63123,3.69141 2.05444,2.7301 0.91736,1.11146 1.21949,1.12243 v -0.002 l 1.63696,0.73975 1.67358,0.51452 4.33777,1.15723 4.24072,1.01441 1.54358,0.32226 0.62439,0.10254 z m -61.065675,-0.0367 0.351563,-0.006 7.333372,-0.47791 1.61866,-0.50537 7.45238,-4.47143 1.21766,-1.20667 5.25512,-8.57116 0.50354,-1.44287 0.89173,-7.26563 -0.19409,-1.68091 -3.6731,-9.99755 -1.19385,-1.62049 -9.26147,-7.07336 -1.7981,-0.71777 -9.803465,-1.06201 -1.640625,0.20324 -8.719481,3.23547 -1.582031,1.15357 -6.251222,7.97241 -0.756225,1.95191 -0.988772,13.13415 0.461428,2.05444 4.268185,7.48901 0.736087,0.90821 5.967403,5.30457 1.563722,0.81298 7.529297,1.78345 0.712284,0.0952 z"
       id="path1502"
       inkscape:connector-curvature="0"
       sodipodi:nodetypes="cccccccccccccccccccccccccccccccccccccccccccccccccccccccccccccccccccccccccccccccccccccccccccccccccccccccccccccccccccccccccccccccccccccccccccccccccccccccccccccccccccccccccccccccccccccccccccccccccccccccccccccccccccccccccccccccccccccccccccccccccccccccccccccccccccccccccccccccccccccccccccccccccccccccccccccccccccccccccccccccccccccccccccccccccccccccccccccccccccccccccccccccccccccccccccccccccccccccccccccccccccccccccccccccccccccccccccccccccccccccccccccccccccccccccccccccccccccccccccccccccccccccccccccccccccccccccc" />
    <path
       style="fill:#5a5a5a;fill-opacity:1;stroke:none;stroke-width:1.20768285"
       d="m 144.8073,1004.1355 c 0.18991,-0.4432 -1.61505,-5.41367 -1.61505,-5.41367 l -3.4574,-1.84868 -3.70172,2.57083 -1.4327,7.45302 1.31746,5.8632 c 0,0 2.75481,3.8246 3.39428,3.6789 0.63957,-0.1457 3.43164,-1.4885 3.43164,-1.4885 l 1.8675,-4.9707"
       id="path1705"
       inkscape:connector-curvature="0"
       sodipodi:nodetypes="ccccccccc" />
    <path
       style="fill:#e35619;fill-opacity:1;stroke:none;stroke-width:0.82512522"
       d="m 178.85744,1014.907 -5.74441,10.2275 -1.27143,5.9789 -1.98102,3.9542 -0.62307,-0.5537 -1.28087,-4.2049 -2.32794,-6.9477 -1.47147,-7.4409 0.0949,-3.4003"
       id="path1703"
       inkscape:connector-curvature="0" />
    <path
       style="fill:#cbcbcb;fill-opacity:1;stroke:none;stroke-width:0.82512522"
       d="m 139.92995,1005.5394 24.83617,4.4665 14.4026,2.6688 0.35491,1.0123 -0.20763,1.4882 -1.47088,0.087 -9.24069,-1.5222 -14.83036,-2.4475 -14.14685,-3.3734 -0.73548,-1.2112 z"
       id="path1701"
       inkscape:connector-curvature="0"
       sodipodi:nodetypes="ccccccccccc" />
    <g
       id="g2286"
       transform="matrix(0,0.91336192,-0.91336192,0,1627.7814,219.90647)"
       inkscape:export-filename="C:\Users\AntonTesh\Desktop\path1828-7-1-9-27.png"
       inkscape:export-xdpi="192.86"
       inkscape:export-ydpi="192.86">
      <path
         inkscape:connector-curvature="0"
         id="path1709"
         d="m 814.59794,1629.7175 c 0,0 7.24682,-5.049 7.66889,-5.6337 0.42213,-0.5845 4.85524,-9.878 4.85524,-9.878 l 0.23143,-8.0107 c 0,0 -3.96343,-9.6516 -4.49969,-10.3208 -0.53627,-0.6693 -10.9205,-6.0853 -10.9205,-6.0853 l -10.79557,-0.1598 -9.17551,4.4156 c 0,0 -6.04195,7.2858 -6.42203,8.443 -0.3801,1.1571 0.002,13.9059 0.26099,14.4183 0.25907,0.5126 4.9406,7.277 5.41669,7.7293 0.47602,0.4522 6.52053,4.9687 7.04487,5.1738 0.52435,0.2051 7.60059,1.2801 8.39024,1.1778 0.78978,-0.1018 7.94495,-1.2695 7.94495,-1.2695 z"
         style="fill:#f96728;fill-opacity:1;stroke:none;stroke-width:1.26120162" />
      <path
         inkscape:connector-curvature="0"
         id="path1711"
         d="m 804.09904,1590.6584 -0.39413,0.9582 0.11331,1.2957 0.8449,0.675 1.18238,0.1133 0.78825,-0.5075 -1.01488,0.1133 -0.95575,-0.3374 z m 6.02519,1.5223 -1.18238,1.0691 v 0.6183 l 1.0124,0.9582 1.18238,0.057 1.01488,-0.3941 -1.18238,0.1675 c 0,0 -0.90228,-0.2797 -1.01488,-0.5049 -0.1126,-0.2252 -0.22415,-0.9583 -0.22415,-0.9583 z m 1.85732,3.4905 -0.39413,0.2242 -0.39412,1.5765 0.39412,0.8449 1.12571,0.4508 0.73407,-0.3375 h -0.95822 c 0,0 -0.61828,-0.5631 -0.61828,-0.7883 0,-0.2252 0.11085,-1.0148 0.11085,-1.0148 z m -5.23448,0.2808 -0.78825,0.675 0.1675,1.2956 1.06906,0.9016 1.5765,0.1133 c 0,0 0.78932,-0.6203 0.56409,-0.5641 -0.22521,0.057 -1.18237,0.2808 -1.18237,0.2808 l -1.01241,-0.3374 -0.73407,-1.1258 z m 9.90732,0.2242 -0.67493,1.239 0.62075,1.7465 1.29322,0.3374 1.23903,-0.5074 h -1.51985 c 0,0 -0.8449,-0.5064 -0.8449,-0.7316 v -1.1257 z m -7.88251,4.8428 c 0,0 -0.61828,1.238 -0.61828,1.4632 0,0.2253 0.5641,1.3523 0.5641,1.3523 l 0.95575,0.3942 1.01487,-0.2242 0.67494,-0.7341 -1.18238,0.34 -0.78825,-0.1133 -0.67493,-1.1258 z m 6.0252,0.4508 -0.7316,0.8449 0.28082,1.1824 1.5765,0.9015 1.74646,-0.6207 -1.63315,0.2808 -0.90156,-0.505 -0.28082,-1.239 z m -2.81553,3.8279 -0.28082,0.6774 -0.45078,0.9558 0.45078,1.3523 1.06907,0.1133 1.46565,-0.3941 h -1.07153 l -0.84491,-0.17 -0.33746,-0.9582 z m 7.82584,0.6208 -0.33746,1.3499 -0.0567,1.3523 0.73407,0.4508 1.5765,0.1133 0.67493,-0.4508 -1.35234,0.1675 -1.01241,-0.2808 -0.0567,-1.239 z m -14.2427,0.1675 -0.22662,0.5074 -0.11332,1.2957 0.5641,0.8991 1.18237,0.3399 1.63316,-0.734 0.22416,-0.4483 -1.23904,0.5616 h -0.73158 l -1.12573,-0.7883 z"
         style="fill:#bd4f21;fill-opacity:1;stroke:none;stroke-width:1.26120162" />
    </g>
    <g
       id="g2294"
       transform="matrix(0,0.91336192,-0.91336192,0,1681.4268,191.38977)"
       inkscape:export-filename="C:\Users\AntonTesh\Desktop\path1828-7-1-9-27.png"
       inkscape:export-xdpi="192.86"
       inkscape:export-ydpi="192.86">
      <path
         inkscape:connector-curvature="0"
         id="path1709-4"
         d="m 767.08395,1647.3279 c 0,0 -8.33293,2.9278 -8.89597,3.3783 -0.56304,0.4504 -7.31948,8.2203 -7.31948,8.2203 l -2.36475,7.6572 c 0,0 1.23869,10.3599 1.57651,11.1481 0.3378,0.7884 8.89597,8.7835 8.89597,8.7835 l 10.35986,3.0403 10.02205,-1.8017 c 0,0 7.76992,-5.4051 8.44556,-6.4186 0.67564,-1.0134 3.71603,-13.4002 3.60341,-13.9632 -0.1126,-0.5632 -2.81517,-8.333 -3.153,-8.8961 -0.3378,-0.563 -4.95471,-6.5312 -5.40514,-6.869 -0.45043,-0.3378 -6.98165,-3.2655 -7.76989,-3.3781 -0.78825,-0.1131 -7.99513,-0.901 -7.99513,-0.901 z"
         style="fill:#f9284e;fill-opacity:1;stroke:none;stroke-width:1.26120162" />
      <path
         id="path1711-1"
         d="m 767.87147,1648.9597 -0.39413,0.9582 0.11327,1.2957 0.8449,0.675 1.18239,0.113 0.78824,-0.5075 -1.01487,0.113 -0.95576,-0.3375 z m 6.02519,1.5224 -1.18238,1.0689 v 0.6183 l 1.0124,0.9583 1.18238,0.056 1.01487,-0.3942 -1.18237,0.1676 c 0,0 -0.90228,-0.2798 -1.01488,-0.505 -0.1126,-0.2252 -0.22415,-0.9582 -0.22415,-0.9582 z m 1.85731,3.4904 -0.39412,0.2242 -0.39412,1.5765 0.39412,0.8448 1.12571,0.4508 0.73407,-0.3375 h -0.95822 c 0,0 -0.61828,-0.563 -0.61828,-0.7882 0,-0.2252 0.11085,-1.0149 0.11085,-1.0149 z m -5.23448,0.2808 -0.78824,0.6749 0.1675,1.2957 1.06906,0.9016 1.57649,0.113 c 0,0 0.78933,-0.6203 0.5641,-0.5641 -0.22521,0.056 -1.18238,0.2808 -1.18238,0.2808 l -1.0124,-0.3374 -0.73407,-1.1258 z m 9.90733,0.2241 -0.67494,1.2392 0.62075,1.7464 1.29323,0.3374 1.23902,-0.5074 h -1.51984 c 0,0 -0.84491,-0.5064 -0.84491,-0.7316 v -1.1257 z m -7.88252,4.8429 c 0,0 -0.61828,1.2379 -0.61828,1.4631 0,0.2254 0.56411,1.3524 0.56411,1.3524 l 0.95574,0.3941 1.01488,-0.2242 0.67493,-0.7339 -1.18237,0.3399 -0.78826,-0.113 -0.67492,-1.1257 z m 6.02521,0.4508 -0.73161,0.8448 0.28083,1.1824 1.5765,0.9016 1.74645,-0.6207 -1.63314,0.2808 -0.90157,-0.5051 -0.28081,-1.239 z m -2.81554,3.8279 -0.28082,0.6774 -0.45077,0.9557 0.45077,1.3524 1.06907,0.1131 1.46566,-0.3942 h -1.07153 l -0.84492,-0.1701 -0.33746,-0.9581 z m 7.82585,0.6207 -0.33746,1.35 -0.0566,1.3522 0.73407,0.4508 1.57651,0.1131 0.67492,-0.4509 -1.35233,0.1675 -1.01242,-0.2807 -0.0566,-1.2392 z m -14.2427,0.1676 -0.22662,0.5074 -0.11328,1.2957 0.56409,0.899 1.18239,0.34 1.63315,-0.734 0.22417,-0.4484 -1.23905,0.5617 h -0.73156 l -1.12573,-0.7882 z"
         style="fill:#b61633;fill-opacity:1;stroke:none;stroke-width:1.26120162"
         inkscape:connector-curvature="0" />
    </g>
    <g
       id="g2290"
       transform="matrix(0,0.91336192,-0.91336192,0,1573.1853,209.02207)"
       inkscape:export-filename="C:\Users\AntonTesh\Desktop\path1828-7-1-9-27.png"
       inkscape:export-xdpi="192.86"
       inkscape:export-ydpi="192.86">
      <path
         inkscape:connector-curvature="0"
         id="path1709-9"
         d="m 771.49002,1608.3233 -4.89553,-8.1599 -9.38338,-5.7534 -7.9544,-0.9759 -10.94585,4.0218 -7.74483,10.1394 -1.16376,10.7339 3.54256,9.5466 8.72953,6.8451 14.38002,1.0819 8.19971,-4.6739 5.80707,-6.5328 1.95346,-8.2442 z"
         style="fill:#f9ad28;fill-opacity:1;stroke:none;stroke-width:1.26120162"
         sodipodi:nodetypes="cccccccccccccc" />
      <path
         id="path1711-7"
         d="m 749.12941,1595.3962 -0.39412,0.9582 0.11327,1.2956 0.8449,0.675 1.18238,0.113 0.78826,-0.5075 -1.01488,0.113 -0.95576,-0.3374 z m 6.0252,1.5223 -1.18238,1.0691 v 0.6183 l 1.0124,0.9582 1.18238,0.056 1.01488,-0.3942 -1.18238,0.1675 c 0,0 -0.90228,-0.2796 -1.01488,-0.5048 -0.1126,-0.2252 -0.22415,-0.9583 -0.22415,-0.9583 z m 1.85732,3.4905 -0.39413,0.2241 -0.39412,1.5765 0.39412,0.845 1.12571,0.4507 0.73408,-0.3374 h -0.95823 c 0,0 -0.61828,-0.563 -0.61828,-0.7882 0,-0.2252 0.11085,-1.0149 0.11085,-1.0149 z m -5.23448,0.2808 -0.78825,0.675 0.1675,1.2956 1.06905,0.9016 1.57651,0.113 c 0,0 0.78932,-0.6203 0.56409,-0.5642 -0.22521,0.057 -1.18237,0.2809 -1.18237,0.2809 l -1.0124,-0.3375 -0.73408,-1.1258 z m 9.90732,0.2242 -0.67493,1.239 0.62075,1.7464 1.29322,0.3376 1.23903,-0.5075 H 762.643 c 0,0 -0.84491,-0.5064 -0.84491,-0.7316 v -1.1257 z m -7.88251,4.8427 c 0,0 -0.61828,1.2381 -0.61828,1.4633 0,0.2253 0.56409,1.3523 0.56409,1.3523 l 0.95576,0.3941 1.01488,-0.2241 0.67493,-0.7341 -1.18238,0.3399 -0.78826,-0.113 -0.67493,-1.1257 z m 6.0252,0.4508 -0.73159,0.845 0.28081,1.1824 1.57651,0.9014 1.74646,-0.6207 -1.63316,0.2809 -0.90156,-0.505 -0.28082,-1.239 z m -2.81553,3.828 -0.28083,0.6774 -0.45077,0.9558 0.45077,1.3523 1.06908,0.113 1.46565,-0.3942 h -1.07153 l -0.84491,-0.1699 -0.33746,-0.9582 z m 7.82584,0.6207 -0.33746,1.3499 -0.0566,1.3524 0.73408,0.4507 1.57649,0.113 0.67493,-0.4507 -1.35233,0.1675 -1.01242,-0.2809 -0.0566,-1.239 z m -14.2427,0.1675 -0.22663,0.5075 -0.11327,1.2956 0.56411,0.8992 1.18236,0.3399 1.63316,-0.7341 0.22417,-0.4482 -1.23904,0.5615 h -0.73159 l -1.12571,-0.7882 z"
         style="fill:#b7801a;fill-opacity:1;stroke:none;stroke-width:1.26120162"
         inkscape:connector-curvature="0" />
    </g>
    <path
       style="fill:#28f938;fill-opacity:1;stroke:none;stroke-width:1.15193355"
       d="m 97.399493,936.20902 c 0,0 -7.854639,1.83912 -8.410237,2.19293 -0.555506,0.35362 -7.454768,6.74474 -7.454768,6.74474 l -2.900198,6.72062 c 0,0 0.106041,9.52914 0.335295,10.27809 0.229254,0.74903 7.214372,8.85064 7.214372,8.85064 l 9.108319,3.77944 9.277744,-0.65057 c 0,0 7.58694,-4.14409 8.30018,-4.99797 0.71315,-0.85378 4.69194,-11.80278 4.64508,-12.3251 -0.0466,-0.52239 -1.73694,-7.84353 -1.98829,-8.38807 -0.25145,-0.54445 -3.85695,-6.41788 -4.2328,-6.76891 -0.37575,-0.35103 -6.01859,-3.65185 -6.72325,-3.83161 -0.70466,-0.18012 -7.171447,-1.60423 -7.171447,-1.60423 z"
       id="path1709-5"
       inkscape:connector-curvature="0" />
    <path
       inkscape:connector-curvature="0"
       style="fill:#1fb425;fill-opacity:1;stroke:none;stroke-width:1.15193355"
       d="m 115.72637,953.75922 -0.87527,-0.35999 -1.18335,0.10346 -0.61643,0.77171 -0.10321,1.07994 0.46344,0.71996 -0.10321,-0.92696 0.30817,-0.87294 z m -1.39041,5.50318 -0.97638,-1.07995 h -0.56473 l -0.87519,0.9247 -0.0511,1.07994 0.35986,0.92695 -0.15299,-1.07994 c 0,0 0.25556,-0.8241 0.46125,-0.92695 0.20569,-0.10284 0.87527,-0.20473 0.87527,-0.20473 z m -3.18809,1.69641 -0.20468,-0.35998 -1.44001,-0.35999 -0.77161,0.35999 -0.41174,1.02817 0.30817,0.67047 v -0.8752 c 0,0 0.51431,-0.56472 0.72,-0.56472 0.20569,0 0.92697,0.10126 0.92697,0.10126 z m -0.25647,-4.78097 -0.61643,-0.71997 -1.18353,0.153 -0.82331,0.97643 -0.10321,1.43991 c 0,0 0.56656,0.72094 0.51514,0.51523 -0.0511,-0.2057 -0.25656,-1.07994 -0.25656,-1.07994 l 0.30835,-0.9247 1.02817,-0.67046 z m -0.20468,9.04896 -1.13175,-0.61646 -1.59519,0.56696 -0.30816,1.1812 0.46353,1.13168 V 966.102 c 0,0 0.46243,-0.7717 0.66812,-0.7717 h 1.02826 z m -4.42332,-7.19959 c 0,0 -1.13065,-0.56471 -1.33634,-0.56471 -0.20578,0 -1.23523,0.51522 -1.23523,0.51522 l -0.36005,0.87296 0.20487,0.92693 0.6704,0.61647 -0.31054,-1.07994 0.10321,-0.71996 1.02826,-0.61646 z m -0.41175,5.50319 -0.77161,-0.66821 -1.07995,0.25649 -0.82349,1.43991 0.56692,1.59516 -0.25638,-1.49167 0.46125,-0.82344 1.13165,-0.2565 z m -3.49616,-2.57159 -0.61881,-0.2565 -0.8729,-0.41172 -1.235227,0.41172 -0.10321,0.97645 0.360047,1.33867 v -0.9787 l 0.15518,-0.77171 0.87518,-0.30821 z m -0.56711,7.14782 -1.23286,-0.30823 -1.235136,-0.0517 -0.411743,0.67046 -0.10321,1.43992 0.411744,0.61646 -0.152989,-1.23517 0.256472,-0.9247 1.131752,-0.0517 z m -0.15299,-13.00874 -0.46344,-0.20699 -1.18335,-0.10346 -0.821204,0.51523 -0.310451,1.07993 0.670316,1.49167 0.409551,0.20474 -0.512944,-1.13169 v -0.6682 l 0.719912,-1.02819 z"
       id="path1711-3" />
    <g
       id="g2298"
       transform="matrix(0,0.91336192,-0.91336192,0,1605.0346,254.92057)"
       inkscape:export-filename="C:\Users\AntonTesh\Desktop\path1828-7-1-9-27.png"
       inkscape:export-xdpi="192.86"
       inkscape:export-ydpi="192.86">
      <path
         inkscape:connector-curvature="0"
         id="path1709-59"
         d="m 744.88438,1718.7453 c 0,0 2.44501,8.4871 2.86247,9.0751 0.41736,0.588 7.78703,7.7789 7.78703,7.7789 l 7.50895,2.8001 c 0,0 10.41379,-0.6424 11.22007,-0.9345 0.80648,-0.292 9.27931,-8.3775 9.27931,-8.3775 l 3.62963,-10.1684 -1.22397,-10.1089 c 0,0 -4.95043,-8.0671 -5.9236,-8.7998 -0.97298,-0.7326 -13.16499,-4.4785 -13.73352,-4.3984 -0.56864,0.08 -8.48066,2.3326 -9.06231,2.6375 -0.58145,0.305 -6.80465,4.572 -7.16773,5.0023 -0.36308,0.4303 -3.66059,6.7828 -3.81821,7.5633 -0.15803,0.7805 -1.35812,7.9303 -1.35812,7.9303 z"
         style="fill:#1faeec;fill-opacity:1;stroke:none;stroke-width:1.26120162" />
      <path
         id="path1711-9"
         d="m 764.04282,1697.6061 -0.39413,0.9582 0.11328,1.2957 0.8449,0.6749 1.18237,0.113 0.78825,-0.5075 -1.01486,0.1131 -0.95576,-0.3374 z m 6.02518,1.5223 -1.18237,1.069 v 0.6182 l 1.01241,0.9583 1.18237,0.057 1.01488,-0.394 -1.18239,0.1674 c 0,0 -0.90226,-0.2798 -1.01486,-0.505 -0.1126,-0.2252 -0.22415,-0.9582 -0.22415,-0.9582 z m 1.85732,3.4905 -0.39412,0.2241 -0.39412,1.5765 0.39412,0.8449 1.12571,0.4508 0.73407,-0.3374 h -0.95822 c 0,0 -0.61827,-0.5632 -0.61827,-0.7884 0,-0.2252 0.11085,-1.0149 0.11085,-1.0149 z m -5.23447,0.2807 -0.78826,0.6749 0.1675,1.2958 1.06907,0.9015 1.5765,0.113 c 0,0 0.78933,-0.6203 0.5641,-0.5641 -0.22521,0.056 -1.18238,0.2809 -1.18238,0.2809 l -1.01241,-0.3375 -0.73406,-1.1257 z m 9.90732,0.2241 -0.67494,1.2392 0.62076,1.7464 1.29321,0.3374 1.23904,-0.5074 h -1.51985 c 0,0 -0.8449,-0.5064 -0.8449,-0.7316 v -1.1257 z m -7.88251,4.8429 c 0,0 -0.61828,1.238 -0.61828,1.4632 0,0.2253 0.5641,1.3524 0.5641,1.3524 l 0.95574,0.3941 1.01488,-0.2242 0.67493,-0.734 -1.18237,0.3399 -0.78825,-0.113 -0.67493,-1.1257 z m 6.0252,0.4508 -0.7316,0.8449 0.28083,1.1823 1.57649,0.9016 1.74646,-0.6207 -1.63315,0.2808 -0.90156,-0.505 -0.28082,-1.239 z m -2.81554,3.8279 -0.28081,0.6775 -0.45078,0.9557 0.45078,1.3524 1.06907,0.113 1.46566,-0.3942 h -1.07153 l -0.84492,-0.1699 -0.33747,-0.9582 z m 7.82586,0.6208 -0.33747,1.3499 -0.0566,1.3523 0.73406,0.4508 1.57651,0.113 0.67493,-0.4508 -1.35233,0.1675 -1.01242,-0.2808 -0.0566,-1.2391 z m -14.2427,0.1675 -0.22663,0.5075 -0.11327,1.2956 0.56409,0.8991 1.18238,0.3399 1.63316,-0.734 0.22416,-0.4484 -1.23904,0.5617 h -0.73158 l -1.12573,-0.7882 z"
         style="fill:#257ca1;fill-opacity:1;stroke:none;stroke-width:1.26120162"
         inkscape:connector-curvature="0" />
    </g>
    <g
       id="g2302"
       transform="matrix(0,0.91336192,-0.91336192,0,1604.0177,372.18007)"
       inkscape:export-filename="C:\Users\AntonTesh\Desktop\path1828-7-1-9-27.png"
       inkscape:export-xdpi="192.86"
       inkscape:export-ydpi="192.86">
      <path
         inkscape:connector-curvature="0"
         id="path1709-7"
         d="m 705.95925,1736.9522 c 0,0 8.44776,-2.5778 9.0291,-3.0044 0.58133,-0.4266 7.65586,-7.9081 7.65586,-7.9081 l 2.68195,-7.5519 c 0,0 -0.80565,-10.4025 -1.11032,-11.2041 -0.30464,-0.8018 -8.52201,-9.1467 -8.52201,-9.1467 l -10.22408,-3.4698 -10.08846,1.3824 c 0,0 -7.98853,5.0764 -8.70584,6.0609 -0.71731,0.9843 -4.27152,13.2336 -4.18247,13.8008 0.089,0.5673 2.46529,8.443 2.77934,9.0198 0.31403,0.5766 4.67809,6.7321 5.11404,7.0884 0.43595,0.3563 6.83942,3.5538 7.62228,3.6992 0.78286,0.1457 7.95061,1.2335 7.95061,1.2335 z"
         style="fill:#951fec;fill-opacity:1;stroke:none;stroke-width:1.26120162" />
      <path
         id="path1711-30"
         d="m 701.88359,1696.2547 -0.39412,0.9583 0.11327,1.2956 0.8449,0.6749 1.18239,0.1131 0.78825,-0.5075 -1.01488,0.113 -0.95576,-0.3374 z m 6.0252,1.5224 -1.18238,1.0691 v 0.6182 l 1.0124,0.9583 1.18238,0.056 1.01487,-0.3942 -1.18237,0.1675 c 0,0 -0.90228,-0.2797 -1.01488,-0.5049 -0.1126,-0.2252 -0.22415,-0.9582 -0.22415,-0.9582 z m 1.85732,3.4904 -0.39413,0.2241 -0.39412,1.5766 0.39412,0.845 1.12571,0.4506 0.73407,-0.3374 h -0.95822 c 0,0 -0.61828,-0.563 -0.61828,-0.7882 0,-0.2252 0.11085,-1.0149 0.11085,-1.0149 z m -5.23448,0.2809 -0.78825,0.6749 0.1675,1.2957 1.06906,0.9016 1.57649,0.113 c 0,0 0.78933,-0.6203 0.5641,-0.5642 -0.22521,0.057 -1.18238,0.2809 -1.18238,0.2809 l -1.0124,-0.3375 -0.73407,-1.1258 z m 9.90732,0.2241 -0.67493,1.239 0.62074,1.7465 1.29323,0.3375 1.23903,-0.5074 h -1.51986 c 0,0 -0.8449,-0.5064 -0.8449,-0.7316 v -1.1257 z m -7.88252,4.8428 c 0,0 -0.61828,1.2381 -0.61828,1.4633 0,0.2253 0.56411,1.3522 0.56411,1.3522 l 0.95575,0.3942 1.01487,-0.2241 0.67494,-0.7341 -1.18238,0.3399 -0.78826,-0.113 -0.67492,-1.1257 z m 6.02521,0.4508 -0.73161,0.845 0.28083,1.1823 1.5765,0.9015 1.74647,-0.6207 -1.63316,0.2809 -0.90155,-0.505 -0.28083,-1.239 z m -2.81553,3.828 -0.28083,0.6773 -0.45077,0.9559 0.45077,1.3522 1.06907,0.113 1.46566,-0.3941 h -1.07153 l -0.84492,-0.1699 -0.33745,-0.9583 z m 7.82584,0.6207 -0.33746,1.3499 -0.0566,1.3524 0.73407,0.4506 1.57651,0.113 0.67492,-0.4506 -1.35233,0.1675 -1.01242,-0.2809 -0.0566,-1.239 z m -14.2427,0.1675 -0.22662,0.5074 -0.11328,1.2957 0.56411,0.8992 1.18236,0.3399 1.63316,-0.7341 0.22417,-0.4483 -1.23905,0.5616 h -0.73157 l -1.12572,-0.7882 z"
         style="fill:#6e24a5;fill-opacity:1;stroke:none;stroke-width:1.26120162"
         inkscape:connector-curvature="0" />
    </g>
    <g
       id="g2188"
       transform="matrix(0,0.91336192,-0.91336192,0,1510.7356,273.56197)"
       inkscape:export-filename="C:\Users\AntonTesh\Desktop\path1828-7-1-9-27.png"
       inkscape:export-xdpi="192.86"
       inkscape:export-ydpi="192.86">
      <path
         inkscape:connector-curvature="0"
         id="path1709-8"
         d="m 687.3148,1633.783 c 0,0 7.52656,-4.6218 7.98174,-5.181 0.45521,-0.5592 5.41812,-9.581 5.41812,-9.581 l 0.69411,-7.9839 c 0,0 -3.39885,-9.8644 -3.89552,-10.5635 -0.4967,-0.6993 -10.55046,-6.7064 -10.55046,-6.7064 l -10.76831,-0.7837 -9.4154,3.8779 c 0,0 -6.45301,6.9243 -6.89935,8.0576 -0.44636,1.1332 -0.80192,13.8828 -0.57294,14.4093 0.22899,0.5266 4.51167,7.5503 4.96083,8.0294 0.4491,0.479 6.2224,5.3374 6.73402,5.5725 0.51161,0.235 7.51385,1.7172 8.30809,1.6608 0.79434,-0.056 8.00507,-0.808 8.00507,-0.808 z"
         style="fill:#1f4aec;fill-opacity:1;stroke:none;stroke-width:1.26120162" />
      <path
         id="path1711-4"
         d="m 677.96162,1594.2702 -0.39413,0.9581 0.11327,1.2957 0.84491,0.675 1.18236,0.113 0.78826,-0.5075 -1.01487,0.113 -0.95575,-0.3375 z m 6.02518,1.5223 -1.18237,1.0689 v 0.6183 l 1.0124,0.9583 1.18237,0.056 1.01488,-0.3942 -1.18238,0.1676 c 0,0 -0.90227,-0.2798 -1.01487,-0.505 -0.1126,-0.2252 -0.22415,-0.9582 -0.22415,-0.9582 z m 1.85732,3.4905 -0.39413,0.2241 -0.39411,1.5765 0.39411,0.8448 1.12572,0.4509 0.73407,-0.3376 h -0.95822 c 0,0 -0.61828,-0.563 -0.61828,-0.7882 0,-0.2252 0.11085,-1.0149 0.11085,-1.0149 z m -5.23448,0.2807 -0.78825,0.6749 0.1675,1.2957 1.06907,0.9016 1.57649,0.113 c 0,0 0.78933,-0.6203 0.56411,-0.5641 -0.22522,0.057 -1.18239,0.2808 -1.18239,0.2808 l -1.0124,-0.3374 -0.73407,-1.1258 z m 9.90733,0.2241 -0.67494,1.2392 0.62075,1.7464 1.29322,0.3374 1.23903,-0.5074 h -1.51984 c 0,0 -0.84491,-0.5064 -0.84491,-0.7316 v -1.1257 z m -7.88252,4.8429 c 0,0 -0.61828,1.2379 -0.61828,1.4631 0,0.2254 0.56411,1.3525 0.56411,1.3525 l 0.95574,0.394 1.01488,-0.2241 0.67493,-0.734 -1.18237,0.3399 -0.78825,-0.113 -0.67493,-1.1257 z m 6.02521,0.4508 -0.73161,0.8449 0.28083,1.1823 1.5765,0.9016 1.74646,-0.6207 -1.63315,0.2808 -0.90157,-0.505 -0.28081,-1.239 z m -2.81554,3.8279 -0.28081,0.6775 -0.45078,0.9557 0.45078,1.3524 1.06906,0.113 1.46566,-0.3942 h -1.07153 l -0.84492,-0.17 -0.33746,-0.9582 z m 7.82585,0.6207 -0.33746,1.35 -0.0566,1.3523 0.73407,0.4508 1.57651,0.113 0.67493,-0.4508 -1.35234,0.1675 -1.01241,-0.2808 -0.0566,-1.2391 z m -14.2427,0.1676 -0.22662,0.5075 -0.11328,1.2956 0.56409,0.8991 1.18239,0.3399 1.63315,-0.734 0.22417,-0.4484 -1.23905,0.5617 h -0.73157 l -1.12574,-0.7882 z"
         style="fill:#23367a;fill-opacity:1;stroke:none;stroke-width:1.26120162"
         inkscape:connector-curvature="0" />
    </g>
    <text
       xml:space="preserve"
       style="font-size:11.25px;line-height:1.25;fill:#d6d6d6;fill-opacity:1;stroke:none;stroke-width:0.9375"
       x="-453.362"
       y="-727.37091"
       id="text2762"
       transform="scale(-1)"><tspan
         sodipodi:role="line"
         id="tspan2760"
         x="-453.362"
         y="-717.10718"
         style="stroke-width:0.9375" /></text>
    <flowRoot
       xml:space="preserve"
       id="flowRoot1559"
       style="font-size:32px;line-height:1.25;text-align:center;text-anchor:middle;fill:#d6d6d6;fill-opacity:1;stroke:none"
       transform="matrix(-0.9375,0,0,-0.9375,322.2,1045.1621)"><flowRegion
         id="flowRegion1561"
         style="font-size:32px;text-align:center;text-anchor:middle"><rect
           id="rect1563"
           width="194.95944"
           height="32.324883"
           x="2.5253813"
           y="289.9848"
           style="font-size:32px;text-align:center;text-anchor:middle" /></flowRegion><flowPara
         id="flowPara1565">F</flowPara></flowRoot>    <flowRoot
       xml:space="preserve"
       id="flowRoot1571"
       style="font-size:16px;line-height:1.25;text-align:center;text-anchor:middle;fill:#000000;fill-opacity:1;stroke:none"
       transform="rotate(180,161.1,958.76214)"><flowRegion
         id="flowRegion1573"
         style="font-size:16px"><rect
           id="rect1575"
           width="178.797"
           height="143.94673"
           x="12.12183"
           y="327.86551"
           style="font-size:16px" /></flowRegion><flowPara
         id="flowPara1577" /></flowRoot>    <text
       xml:space="preserve"
       style="font-size:15px;line-height:1.25;text-align:start;text-anchor:start;fill:#000000;fill-opacity:1;stroke:none;stroke-width:0.9375"
       x="-261.05075"
       y="-713.63922"
       id="text1581"
       transform="scale(-1)"><tspan
         sodipodi:role="line"
         id="tspan1579"
         x="-261.05075"
         y="-699.95428"
         style="text-align:start;text-anchor:start;stroke-width:0.9375" /></text>
    <path
       style="fill:#000000;fill-opacity:1;stroke:none;stroke-width:0.55634534"
       d="m 67.443535,1049.9338 0.45959,-0.2691 0.173953,-2.4829 -0.355228,-3.2447 -0.613406,-0.9942 c 0,0 -0.438975,0.5871 -0.417478,0.9045 l -0.197756,1.1298 0.227053,4.3689 z m 119.591675,-0.6811 0.72326,-0.5896 0.22705,-4.3689 -0.19591,-1.1279 c 0.0215,-0.3175 -0.41749,-0.9064 -0.41749,-0.9064 l -0.6134,0.9961 -0.35706,3.2428 0.17395,2.4829 z m -59.90662,-2.9425 0.30396,-1.3056 v -3.9148 l -0.53284,-1.0693 -0.60974,1.6626 -0.15381,3.2044 0.30579,1.3037 z m -60.007321,-4.8505 0.437616,-1.3806 0.243534,-2.5983 -0.146484,-3.1677 -0.58411,-0.5694 -0.388181,0.8935 -0.04944,3.7372 c 0,0 0.145753,2.1929 0.09705,2.5177 z m 120.238031,-0.683 0.38818,-0.5676 c -0.0487,-0.3248 0.097,-2.5177 0.097,-2.5177 l -0.0476,-3.7372 -0.39002,-0.8917 -0.5841,0.5676 -0.14649,3.1678 0.24353,2.5982 z m -60.3186,-2.4133 0.65003,-0.8935 0.0586,-2.0325 -0.0733,-3.6933 -0.89355,-0.1831 -0.25635,2.1845 0.0586,3.3307 z m -59.421384,-7.0276 0.258178,-2.1826 -0.06043,-3.3307 -0.454097,-1.2872 -0.651853,0.8935 -0.05859,2.0325 0.07324,3.6914 z m 119.240114,-0.6811 0.89355,-0.1831 0.0732,-3.6933 -0.0586,-2.0324 -0.65002,-0.8936 -0.45594,1.2872 -0.0586,3.3307 z m -59.8407,-1.5436 0.81848,-0.5859 0.20324,-3.2648 -0.34057,-2.6789 -0.6134,-1.4227 -0.54565,0.586 c 0.0682,0.3348 -0.13551,2.5946 -0.13551,2.5946 l 0.0678,3.8507 z m -59.908448,-6.1469 0.748893,-0.1501 v -3.8233 l -0.20324,-1.4263 -0.68115,-0.7489 -0.47791,1.2744 0.205078,3.75 z m 120.258178,-0.6811 0.41016,-1.1261 0.20324,-3.75 -0.47607,-1.2744 -0.68115,0.7489 -0.20508,1.4264 v 3.825 z m -60.46509,-2.8235 0.6134,-0.9961 0.25818,-2.3511 0.11353,-0.1062 -0.097,-0.042 0.0806,-0.7434 -0.17212,-2.4829 -0.46142,-0.271 -0.72145,0.5896 -0.12084,2.3273 -2.60925,-0.3333 -3.26478,0.2051 -0.58593,0.8185 0.92102,0.5456 3.85071,0.068 c 0,0 0.87883,-0.078 1.62597,-0.1209 l -0.0439,0.8588 0.19592,1.1279 c -0.0215,0.3175 0.41748,0.9064 0.41748,0.9064 z m -38.111573,-2.7576 2.678831,-0.3405 1.422732,-0.6134 -0.585938,-0.5439 c -0.334809,0.068 -2.594606,-0.1373 -2.594606,-0.1373 l -3.850706,0.068 -0.921019,0.5457 0.585937,0.8185 z m 10.039669,-0.1666 2.482914,-0.1739 0.26916,-0.4596 -0.58776,-0.7233 -4.368902,-0.2271 -1.129762,0.196 c -0.317428,-0.021 -0.904538,0.4174 -0.904538,0.4174 l 0.994266,0.6134 z m -20.216672,-0.1227 3.691406,-0.073 0.184941,-0.8936 -2.18445,-0.2582 -3.330694,0.061 -1.287225,0.4541 0.89355,0.6518 z m 36.040656,-0.04 2.03247,-0.059 0.89355,-0.6518 -1.28723,-0.4541 -3.33069,-0.06 -2.18444,0.2581 0.1831,0.8936 z m -5.495,-0.042 0.15015,-0.7489 -1.12427,-0.4083 -3.75,-0.2051 -1.27441,0.4761 0.74889,0.683 1.42456,0.2032 z m -36.198125,-0.2343 1.067513,-0.5347 -1.660772,-0.6098 -3.204347,-0.1538 -1.305544,0.3058 -0.117187,0.6867 1.305544,0.3058 z m -5.850215,-2.2321 0.748903,-0.1502 v -3.8232 l -0.20325,-1.4264 -0.68115,-0.7489 -0.47791,1.2744 0.205079,3.75 z m 120.25451,-0.6812 0.41016,-1.1261 0.20325,-3.75 -0.47607,-1.2744 -0.68115,0.7508 -0.20508,1.4245 v 3.8251 z m -60.5841,-2.2924 0.68115,-0.7489 0.20508,-1.4264 v -3.8251 l -0.7489,-0.1483 -0.41016,1.1242 -0.20324,3.75 z m -59.349973,-4.7535 0.459591,-0.2691 0.173953,-2.4829 -0.357056,-3.2447 -0.613407,-0.9942 c 0,0 -0.438975,0.5889 -0.417478,0.9063 l -0.195918,1.128 0.227043,4.3689 z m 119.615473,-0.6811 0.72144,-0.5896 0.22705,-4.3689 -0.19593,-1.1279 c 0.0215,-0.3175 -0.41747,-0.9064 -0.41747,-0.9064 l -0.6134,0.9961 -0.35523,3.2428 0.17395,2.4829 z m -60.30395,-2.1826 0.89356,-0.185 0.0732,-3.6914 -0.0586,-2.0324 -0.65185,-0.8936 -0.45411,1.2872 -0.0604,3.3307 z m -59.483648,-6.3611 0.545653,-0.5859 c -0.06819,-0.3349 0.137335,-2.5947 0.137335,-2.5947 l -0.06958,-3.85066 -0.543825,-0.92102 -0.818484,0.58594 -0.205069,3.26474 0.340575,2.6789 z m 119.957888,-0.6812 0.61341,-1.2432 0.34057,-2.34197 -0.20508,-2.85095 -0.81664,-0.51269 -0.54566,0.80383 -0.0677,3.36548 c 0,0 0.2037,1.9743 0.1355,2.2668 z m -60.26184,-1.1535 0.41015,-1.1243 0.20325,-3.74999 -0.47607,-1.27442 -0.68115,0.7489 -0.20508,1.4264 v 3.82321 z m 60.23621,-6.72 0.54565,-1.94824 0.1355,-3.75915 -0.27099,-1.53077 -0.61341,-0.13916 -0.27282,1.53077 v 1.82556 l -3.22815,0.35522 -0.99427,0.61341 c 0,0 0.58711,0.43714 0.90454,0.41565 l 1.12793,0.19775 2.18995,-0.0879 v 1.27441 z m -119.935914,-0.36438 0.4779,-0.95398 v -1.16088 l 1.474003,-0.18677 1.062009,-0.45777 -0.437625,-0.40649 c -0.250003,0.0509 -1.93725,-0.10254 -1.93725,-0.10254 l -0.161137,0.004 v -1.18835 l -0.272822,-1.16638 -0.613406,0.1062 -0.272831,1.16638 0.05127,1.10046 -1.607662,0.0293 -0.686644,0.40649 0.437616,0.61158 1.913456,0.11902 0.02747,0.59509 z m 60.003654,-0.13366 0.43396,-0.79468 0.022,-1.37512 0.34241,-0.0183 1.2854,-0.54566 -0.82764,-0.47607 h -0.78186 l 0.0147,-0.9082 c 0,0 -0.16406,-1.95038 -0.10986,-2.23938 l -0.43214,-0.50721 -0.48888,1.22864 -0.271,2.31262 0.007,0.11353 h -0.96679 l -1.01075,0.27099 0.0916,0.61341 1.01073,0.27282 0.93934,-0.0513 0.0916,1.59852 z m -28.170776,-1.66077 3.167726,-0.19958 0.56763,-0.79285 -0.89355,-0.52918 -3.735356,-0.0659 c 0,0 -2.19285,0.19803 -2.517703,0.13183 l -0.569456,0.52918 1.382447,0.59509 z m -94.4787564,-0.0989 3.2043469,-0.15197 1.6625999,-0.60975 -1.0693406,-0.53466 H 4.4937001 l -1.3055438,0.30578 0.119025,0.68665 z m 84.4427534,-0.0458 3.242794,-0.35523 0.994265,-0.61523 c 0,0 -0.587109,-0.43715 -0.904547,-0.41565 l -1.127925,-0.19775 -4.3689,0.22705 -0.589593,0.72326 0.270993,0.4596 z m -29.337159,-0.0256 1.664428,-0.20324 0.87524,-0.68116 -1.488647,-0.4779 -4.381715,0.20508 -1.314694,0.40832 0.175781,0.7489 z m -27.643435,-0.0806 4.3689,-0.22705 0.587766,-0.72327 -0.269166,-0.4596 -2.482912,-0.17395 -3.244622,0.35523 -0.994266,0.61523 c 0,0 0.588872,0.43715 0.906366,0.41565 z m 7.80945,-0.0165 3.75,-0.20508 1.124269,-0.40833 -0.15015,-0.75073 h -3.825075 l -1.424559,0.20508 -0.748904,0.68115 z m 100.848993,-0.002 4.36707,-0.22706 0.5896,-0.72143 -0.271,-0.46143 -2.48291,-0.17212 -3.24279,0.35523 -0.99427,0.6134 c 0,0 0.58711,0.43898 0.90455,0.41748 z m 16.90797,-0.0146 3.75,-0.20325 1.12609,-0.41016 -0.15014,-0.7489 h -3.82507 l -1.42456,0.20508 -0.75073,0.68115 z m -9.10035,-0.002 3.75,-0.20325 1.1261,-0.41016 -0.15015,-0.7489 H 149.44 l -1.42457,0.20508 -0.75073,0.68115 z m -65.991213,-0.0623 1.42456,-0.20508 0.75074,-0.68115 -1.274419,-0.47791 -3.75,0.20508 -1.126096,0.40833 0.15015,0.75073 z m 37.439583,-0.0147 1.6571,-0.20325 0.87159,-0.68298 -1.48316,-0.47607 -4.36157,0.20508 -1.3092,0.40832 0.17394,0.7489 z m -94.828495,-0.005 c 0,0 2.259806,-0.2037 2.594606,-0.1355 l 0.585937,-0.54565 -1.422731,-0.61341 -2.678831,-0.34057 -3.264769,0.20507 -0.585937,0.81666 0.921018,0.54565 z m 108.667605,-0.0183 2.21375,-0.28015 1.17553,-0.50354 -0.4834,-0.44678 c -0.27666,0.056 -2.14416,-0.11169 -2.14416,-0.11169 l -3.18237,0.0549 -0.76172,0.4486 0.48523,0.67017 z m -61.182865,-0.0238 2.863772,-0.13549 1.483153,-0.54566 -0.953981,-0.47607 h -3.499144 l -1.166381,0.27282 0.1062,0.61341 z m 105.280155,-0.011 c 0,0 2.19286,-0.14575 2.5177,-0.097 l 0.56762,-0.39001 -1.38061,-0.43762 -2.59827,-0.24354 -3.16772,0.14649 -0.56763,0.58411 0.89355,0.39001 z m -70.22644,-0.007 3.82324,-0.0586 1.47583,-0.45593 -1.02539,-0.65186 -2.33093,-0.0586 -4.23889,0.0732 -0.21058,0.89356 z m 59.31335,-0.011 3.69324,-0.0732 0.18311,-0.89356 -2.18445,-0.25818 -3.33069,0.0604 -1.28723,0.4541 0.89539,0.65185 z m -118.601074,-0.009 3.330694,-0.0586 1.287225,-0.45593 -0.89355,-0.65003 -2.032472,-0.0586 -3.693235,0.0732 -0.183112,0.89355 z m -32.656857,-0.0385 2.184441,-0.25818 -0.183103,-0.89355 -3.693234,-0.0732 -2.032472,0.0586 -0.89355,0.65185 1.287225,0.4541 z m 51.708985,-5.84106 0.476072,-1.27625 -0.20325,-3.75 -0.410156,-1.12427 -0.748903,0.15015 v 3.82507 l 0.205078,1.42456 z m 119.556886,-0.68299 0.68115,-0.75073 0.20325,-1.42456 v -3.82507 l -0.74891,-0.15015 -0.40832,1.1261 -0.20507,3.75 z m -59.66675,-0.30395 0.27282,-1.16638 v -3.49915 l -0.47607,-0.95398 -0.54565,1.48315 -0.1355,2.86377 0.27099,1.16639 z m -60.278327,-6.73279 0.650025,-0.89539 0.05859,-2.03064 -0.07324,-3.69323 -0.89356,-0.18311 -0.25634,2.18445 0.05859,3.33069 z m 120.333257,-0.68298 0.4541,-1.28724 0.0604,-3.33068 -0.25818,-2.18445 -0.89355,0.1831 -0.0733,3.69324 0.0586,2.03064 z m -60.271,-0.542 0.40833,-1.1261 0.20508,-3.75 -0.47791,-1.27441 -0.68115,0.75073 -0.20325,1.42456 v 3.82508 z m -59.930416,-7.65014 0.529172,-0.89356 0.06592,-3.73535 c 0,0 -0.198029,-2.19285 -0.131832,-2.5177 l -0.529172,-0.56946 -0.595096,1.38062 -0.329588,2.6001 0.197756,3.16589 z m 59.609986,-0.0769 0.72327,-0.5896 0.22705,-4.36889 -0.19593,-1.12793 c 0.0215,-0.31743 -0.41747,-0.90638 -0.41747,-0.90638 l -0.61341,0.9961 -0.35706,3.2428 0.17396,2.48291 z m 60.45776,-0.60608 0.79285,-0.56762 0.19959,-3.16773 -0.33143,-2.6001 -0.59509,-1.38061 -0.52918,0.56946 c 0.0662,0.32485 -0.13183,2.5177 -0.13183,2.5177 l 0.0659,3.73535 z m -60.30944,-8.20495 0.52917,-0.56763 c -0.0662,-0.32485 0.13184,-2.5177 0.13183,-2.5177 l -0.0659,-3.73535 -0.52918,-0.89356 -0.79284,0.56763 -0.19776,3.16773 0.32959,2.59826 z m -59.635625,-0.64636 c 0,0 0.438975,-0.58712 0.417478,-0.90455 l 0.195929,-1.12976 -0.227054,-4.36889 -0.723271,-0.58778 -0.459591,0.26917 -0.173953,2.48291 0.357056,3.24463 z m 119.824225,-0.68299 0.6134,-0.99426 0.35522,-3.2428 -0.17394,-2.48291 -0.4596,-0.27099 -0.72327,0.58959 -0.22705,4.36707 0.19776,1.12976 c -0.0215,0.31743 0.41748,0.90454 0.41748,0.90454 z m -119.705209,-7.88452 0.477909,-1.27624 -0.205078,-3.75 -0.408328,-1.12427 -0.748903,0.15014 v 3.82508 l 0.20325,1.42456 z m 59.192509,-0.57312 0.89356,-0.18311 0.0732,-3.69323 -0.0586,-2.03065 -0.65003,-0.89537 -0.45592,1.28722 -0.0586,3.33069 z m 60.39184,-0.10986 0.68116,-0.75073 0.20507,-1.42456 v -3.82508 l -0.75073,-0.15015 -0.40832,1.1261 -0.20508,3.75 z m -119.87549,-7.34619 0.47791,-1.13526 v -4.16199 l -0.272822,-1.38794 -0.613406,0.12635 -0.272832,1.38793 0.137335,3.40577 z m 120.16663,-0.68115 0.54566,-1.485 0.13549,-2.86376 -0.27282,-1.16638 -0.6134,-0.10621 -0.271,1.16638 v 3.49916 z m -60.17395,-0.23438 0.41016,-1.1261 0.20325,-3.75 -0.47608,-1.27442 -0.68115,0.75074 -0.20508,1.42456 v 3.82507 z m -60.084227,-6.83899 0.545654,-0.58593 c -0.0682,-0.33483 0.137325,-2.59461 0.137325,-2.59461 l -0.0073,-0.39551 2.232056,-0.28381 1.422731,-0.61341 -0.585937,-0.54382 c -0.334828,0.0682 -2.596435,-0.13733 -2.596435,-0.13733 l -0.499875,0.009 -0.03479,-1.88598 -0.543825,-0.92103 -0.818485,0.58594 -0.14099,2.24854 -1.810913,0.0311 -0.921019,0.54567 0.585938,0.81847 2.147822,0.13367 0.274659,2.16614 z m 120.172117,-0.0311 0.61341,-1.42456 0.34057,-2.67883 -0.20325,-3.26294 -0.81847,-0.58594 -0.54566,0.91919 -0.033,1.86035 -1.29822,0.25269 -0.99426,0.6134 c 0,0 0.58711,0.43898 0.90454,0.41748 l 1.12794,0.19592 0.2362,-0.0879 -0.011,0.59876 c 0,0 0.2037,2.26161 0.1355,2.59643 z m -59.92126,-1.073 0.27282,-1.16638 v -1.45019 l 1.1023,-0.0421 1.87134,-0.54382 -1.20301,-0.47791 h -1.77063 v -0.9851 l -0.4779,-0.95398 -0.54565,1.48315 -0.022,0.45593 h -1.59485 l -1.47034,0.27283 0.13367,0.6134 1.47033,0.27283 1.40991,-0.0531 -0.0623,1.30188 0.27284,1.16638 z m -26.42213,-2.34008 3.16773,-0.19776 0.56763,-0.79468 -0.89356,-0.52917 -3.735345,-0.0659 c 0,0 -2.19286,0.19804 -2.517703,0.13183 l -0.569457,0.52918 1.380619,0.59509 z m 34.07044,-0.0934 2.15699,-0.34057 1.14624,-0.61341 -0.47242,-0.54565 c -0.26959,0.0682 -2.08922,-0.1355 -2.08922,-0.1355 l -3.10182,0.0678 -0.74157,0.54565 0.47241,0.81848 z m -128.5491918,-0.005 3.2043469,-0.15198 1.6607629,-0.60974 -1.067504,-0.53467 H 6.2972907 l -1.3055438,0.30579 0.1190157,0.68664 z m 84.4427538,-0.0458 3.242793,-0.35523 0.994266,-0.61339 c 0,0 -0.587119,-0.43899 -0.904547,-0.41749 l -1.127925,-0.19592 -4.3689,0.22705 -0.589594,0.72144 0.270994,0.46143 z m -30.659185,-0.0238 1.426388,-0.20508 0.748903,-0.68115 -1.27441,-0.47791 -3.75,0.20508 -1.124268,0.40833 0.148312,0.75073 z m -26.321409,-0.0824 4.36889,-0.22705 0.587775,-0.72326 -0.269165,-0.4596 -2.482913,-0.17395 -3.244631,0.35706 -0.994256,0.61339 c 0,0 0.587034,0.43899 0.904537,0.41749 z m 40.274044,-0.009 2.863771,-0.13732 1.484982,-0.54566 -0.95581,-0.47607 H 74.04631 l -1.166382,0.27282 0.104372,0.61341 z m 68.382578,-0.007 4.36889,-0.22705 0.5896,-0.72327 -0.27099,-0.45959 -2.48292,-0.17395 -3.24279,0.35522 -0.99427,0.61523 c 0,0 0.58712,0.43716 0.90454,0.41565 z m -100.847172,0 3.75,-0.20508 1.124269,-0.40833 -0.15015,-0.74889 h -3.825075 l -1.42456,0.20324 -0.748903,0.68116 z m 117.756962,-0.0146 3.75,-0.20508 1.12609,-0.40833 -0.15015,-0.75073 h -3.82506 l -1.42457,0.20508 -0.75073,0.68115 z m -9.10034,-0.002 3.75,-0.20508 1.12609,-0.40832 -0.15015,-0.75074 h -3.82507 l -1.42456,0.20509 -0.75073,0.68115 z m -41.45692,-0.0604 3.33069,-0.0586 1.28723,-0.45593 -0.89538,-0.65185 -2.03064,-0.0568 -3.69324,0.0732 -0.1831,0.89355 z m -24.534302,-0.004 1.424559,-0.20508 0.750731,-0.68115 -1.274409,-0.47607 -3.75,0.20325 -1.126097,0.41016 0.150141,0.74889 z m 34.696662,-0.0128 1.42456,-0.20508 0.75073,-0.68115 -1.27442,-0.47791 -3.75,0.20508 -1.1261,0.40832 0.15015,0.75074 z m -92.085575,-0.005 c 0,0 2.259807,-0.20553 2.594607,-0.13732 l 0.585937,-0.54383 -1.422731,-0.6134 -2.678831,-0.34241 -3.264779,0.20508 -0.585937,0.81848 0.921028,0.54566 z m 152.764895,-0.0531 c 0,0 2.19286,-0.14574 2.51769,-0.097 l 0.56763,-0.39002 -1.38061,-0.43762 -2.59827,-0.24353 -3.16772,0.14466 -0.56763,0.5841 0.89355,0.39002 z m -10.91309,-0.0201 3.69323,-0.0732 0.18312,-0.89355 -2.18445,-0.25635 -3.3307,0.0586 -1.28722,0.45594 0.89539,0.65002 z m -118.601073,-0.007 3.330684,-0.0604 1.287234,-0.4541 -0.89355,-0.65186 -2.032472,-0.0586 -3.693243,0.0732 -0.183103,0.89355 z m -32.656857,-0.0403 2.184441,-0.25818 -0.183103,-0.89356 -3.693235,-0.0732 -2.032472,0.0586 -0.893559,0.65185 1.287234,0.4541 z m 109.59777,-4.47144 0.54383,-0.92102 0.0696,-3.85071 c 0,0 -0.20553,-2.25981 -0.13733,-2.59461 l -0.54382,-0.58593 -0.61341,1.42273 -0.3424,2.67883 0.20507,3.26478 z m -59.707029,-0.6189 0.476072,-1.27442 -0.203241,-3.75 -0.410156,-1.12426 -0.748903,0.15015 v 3.82507 l 0.20325,1.42456 z m 119.763799,-0.0311 0.68115,-0.7489 0.20508,-1.4264 v -3.82508 l -0.75073,-0.15014 -0.40833,1.1261 -0.20508,3.75 z m -120.034793,-6.85914 0.651853,-0.89538 0.05859,-2.03064 -0.07324,-3.69324 -0.89356,-0.1831 -0.258178,2.18445 0.05859,3.33068 z m 120.126353,-0.68298 0.45592,-1.28723 0.0586,-3.33069 -0.25634,-2.18445 -0.89356,0.18311 -0.0732,3.69323 0.0586,2.03248 z m -60.3827,-1.99402 0.61341,-0.99426 0.35705,-3.2428 -0.17395,-2.48291 -0.45959,-0.27099 -0.72327,0.5896 -0.22705,4.36706 0.19592,1.12976 c -0.0215,0.3174 0.41748,0.90454 0.41748,0.90454 z m -59.824222,-5.59387 0.748904,-0.15014 v -3.82508 l -0.205079,-1.42456 -0.68115,-0.75073 -0.476071,1.27624 0.20324,3.75 z m 120.289312,-0.68298 0.40832,-1.12427 0.20508,-3.75 -0.4779,-1.27442 -0.68116,0.7489 -0.20508,1.42456 v 3.82508 z m -60.58411,-2.29065 0.68115,-0.75073 0.20325,-1.42456 v -3.82508 l -0.7489,-0.15015 -0.40833,1.1261 -0.20508,3.75 z m -59.386592,-4.75342 0.45959,-0.26916 0.173954,-2.48292 -0.355229,-3.24463 -0.613406,-0.99426 c 0,0 -0.438975,0.58704 -0.417478,0.90454 l -0.195919,1.12977 0.227044,4.36889 z m 119.650272,-0.68299 0.72326,-0.58776 0.22705,-4.3689 -0.19776,-1.12976 c 0.0215,-0.3175 -0.41565,-0.90454 -0.41565,-0.90454 l -0.61523,0.99426 -0.35522,3.24463 0.17395,2.48291 z m -60.2655,-3.66393 0.68115,-0.75073 0.20324,-1.42457 v -3.82507 l -0.7489,-0.15015 -0.40833,1.1261 -0.20507,3.75 z m -59.53675,-4.34327 0.613397,-1.42456 0.340575,-2.67883 -0.205079,-3.26477 -0.816646,-0.58411 -0.545654,0.91919 -0.06775,3.85071 c 0,0 0.2037,2.2598 0.135507,2.5946 z m 119.95422,-0.68298 0.54566,-0.58594 c -0.0682,-0.3348 0.13732,-2.5946 0.13732,-2.5946 l -0.0696,-3.85071 -0.54383,-0.92102 -0.81848,0.58594 -0.20508,3.26477 0.34058,2.67883 z m -60.02929,-2.69348 0.45409,-1.28723 0.0604,-3.33069 -0.25817,-2.18445 -0.89356,0.18311 -0.0732,3.69323 0.0586,2.03064 z m -60.228887,-7.02759 0.89355,-0.1831 0.07325,-3.69325 -0.05859,-2.03063 -0.650025,-0.89356 -0.455935,1.28541 -0.05859,3.33251 z m 120.562137,-0.68115 0.25818,-2.18445 -0.0604,-3.33069 -0.4541,-1.28723 -0.65185,0.89355 -0.0586,2.03247 0.0732,3.69141 z m -60.62439,-1.50147 0.58411,-0.56762 0.14648,-3.16773 -0.24353,-2.59827 -0.43762,-1.38061 -0.39002,0.56763 c 0.0487,0.3248 -0.097,2.51769 -0.097,2.51769 l 0.0494,3.73536 z m -59.820559,-6.27685 0.532837,-1.06751 v -3.91663 l -0.303956,-1.30553 -0.686644,0.11901 -0.305793,1.30555 0.151978,3.20434 z m 120.329589,-0.68298 0.60974,-1.66077 0.15198,-3.20435 -0.30396,-1.30554 -0.68664,-0.11719 -0.30579,1.30371 v 3.91663 z m -60.47242,-2.23939 0.61341,-0.99426 0.35523,-3.2428 -0.17395,-2.4829 -0.45959,-0.271 -0.72328,0.5896 -0.22705,4.36706 0.19776,1.12976 c -0.0215,0.31751 0.41747,0.90454 0.41747,0.90454 z"
       id="path1822-4"
       inkscape:connector-curvature="0" />
    <path
       style="fill:#7b7b7b;fill-opacity:1;stroke:none;stroke-width:0.85627681"
       d="m 112.39055,999.19397 -2.06544,-5.35006 -3.33312,-2.59392 -5.56747,-0.83119 -4.893492,2.29456 -3.248547,4.28138 -1.706577,1.54865 -2.751123,0.30271 -5.402858,0.60231 -0.269265,0.37797 0.324452,0.75762 5.779149,0.9989 2.393234,0.7593 1.785174,1.2275 3.708466,4.3576 4.893487,2.3698 4.58744,-0.6121 3.74621,-3.6693 1.88481,-3.3816 z"
       id="path2049"
       inkscape:connector-curvature="0"
       sodipodi:nodetypes="cccccccccccccccccccc" />
    <path
       style="fill:#cbcbcb;fill-opacity:1;stroke:none;stroke-width:0.85627681"
       d="m 111.0132,998.5355 v 0.72632 l -0.5734,1.03208 -0.5734,0.1529 -0.5734,-1.0703 -0.45872,-2.44651 -0.91744,-1.64374 -0.9939,-1.14681 0.38227,-0.26759 0.49694,0.15292 2.21715,2.29359 z"
       id="path2056"
       inkscape:connector-curvature="0" />
    <path
       style="fill:#7b7b7b;fill-opacity:1;stroke:none;stroke-width:0.85627681"
       d="m 112.63284,1031.8851 -2.06543,5.35 -3.33312,2.594 -5.56748,0.8312 -4.893486,-2.2946 -3.248545,-4.2814 -1.70658,-1.5486 -2.75112,-0.3028 -5.402864,-0.6023 -0.269259,-0.3779 0.324444,-0.7576 5.779152,-0.9989 2.393236,-0.7593 1.785175,-1.2276 3.70846,-4.3576 4.893487,-2.3698 4.58744,0.6121 3.74622,3.6693 1.8848,3.3816 z"
       id="path2049-3"
       inkscape:connector-curvature="0"
       sodipodi:nodetypes="cccccccccccccccccccc" />
    <path
       style="fill:#cbcbcb;fill-opacity:1;stroke:none;stroke-width:0.85627681"
       d="m 111.25546,1028.8986 v 0.7264 l -0.5734,1.0321 -0.5734,0.1529 -0.5734,-1.0704 -0.45871,-2.4465 -0.91745,-1.6437 -0.99389,-1.1468 0.38227,-0.2676 0.49694,0.1529 2.21715,2.2936 z"
       id="path2056-9"
       inkscape:connector-curvature="0" />
    <text
       xml:space="preserve"
       style="font-style:normal;font-variant:normal;font-weight:normal;font-stretch:normal;font-size:10px;line-height:1.25;font-family:Roboto;-inkscape-font-specification:Roboto;text-align:start;writing-mode:lr-tb;text-anchor:start;fill:#ffffff;fill-opacity:1;stroke:none;stroke-width:0.9375"
       x="-497.83215"
       y="-850.56525"
       id="text2677"
       transform="scale(-1)"><tspan
         sodipodi:role="line"
         id="tspan2675"
         x="-497.83215"
         y="-841.81525"
         style="stroke-width:0.9375" /></text>
    <text
       xml:space="preserve"
       style="font-style:normal;font-variant:normal;font-weight:normal;font-stretch:normal;font-size:7.5px;line-height:1;font-family:Roboto;-inkscape-font-specification:'Roboto, Normal';font-variant-ligatures:normal;font-variant-caps:normal;font-variant-numeric:normal;font-feature-settings:normal;text-align:start;writing-mode:lr-tb;text-anchor:start;fill:#ffffff;fill-opacity:1;stroke:none;stroke-width:0.9375"
       x="-570.58142"
       y="-1011.9935"
       id="text2735"
       transform="scale(-1)"><tspan
         sodipodi:role="line"
         id="tspan2733"
         x="-570.58142"
         y="-1006.3685"
         style="stroke-width:0.9375" /></text>
    <flowRoot
       xml:space="preserve"
       id="flowRoot1583"
       style="font-style:normal;font-variant:normal;font-weight:normal;font-stretch:normal;font-size:8px;line-height:1;font-family:Roboto;-inkscape-font-specification:'Roboto, Normal';font-variant-ligatures:normal;font-variant-caps:normal;font-variant-numeric:normal;font-feature-settings:normal;text-align:start;writing-mode:lr-tb;text-anchor:start;fill:#000000;fill-opacity:1;stroke:none"
       transform="matrix(0,0.9375,-0.9375,0,605.48066,887.29617)"
       inkscape:export-filename="C:\Users\AntonTesh\Desktop\Back.png"
       inkscape:export-xdpi="192.86"
       inkscape:export-ydpi="192.86"><flowRegion
         id="flowRegion1585"
         style="font-style:normal;font-variant:normal;font-weight:normal;font-stretch:normal;font-size:8px;font-family:Roboto;-inkscape-font-specification:'Roboto, Normal';font-variant-ligatures:normal;font-variant-caps:normal;font-variant-numeric:normal;font-feature-settings:normal;text-align:start;writing-mode:lr-tb;text-anchor:start"><rect
           id="rect1587"
           width="162.50432"
           height="149.71002"
           x="1.2137291"
           y="330.34741"
           style="font-style:normal;font-variant:normal;font-weight:normal;font-stretch:normal;font-size:8px;font-family:Roboto;-inkscape-font-specification:'Roboto, Normal';font-variant-ligatures:normal;font-variant-caps:normal;font-variant-numeric:normal;font-feature-settings:normal;text-align:start;writing-mode:lr-tb;text-anchor:start" /></flowRegion><flowPara
         id="flowPara1550">	Tear the pieces on the dotted lines</flowPara><flowPara
         id="flowPara1552">	Place the flag and tee box far apart</flowPara><flowPara
         id="flowPara1554">	Place other business cards to mark water hazards</flowPara><flowPara
         id="flowPara1556">	Players take turns flicking their golf ball towards the flag starting at the tee box</flowPara><flowPara
         id="flowPara1558">	If the ball falls off the table or goes into the water put it back to where it was flicked from and that counts as two flicks</flowPara><flowPara
         id="flowPara1560">	Lowest number of flicks to reach the flag wins!</flowPara></flowRoot>    <text
       xml:space="preserve"
       style="font-size:26.678545px;line-height:1.25;text-align:center;text-anchor:middle;fill:#d6d6d6;fill-opacity:1;stroke:none;stroke-width:0.83370453"
       x="254.49248"
       y="882.46515"
       id="text1569"
       inkscape:export-filename="C:\Users\AntonTesh\Desktop\Back.png"
       inkscape:export-xdpi="192.86"
       inkscape:export-ydpi="192.86"><tspan
         sodipodi:role="line"
         x="254.49248"
         y="882.46515"
         style="font-style:normal;font-variant:normal;font-weight:bold;font-stretch:normal;font-size:17.50000191px;font-family:Roboto;-inkscape-font-specification:'Roboto, Bold';font-variant-ligatures:normal;font-variant-caps:normal;font-variant-numeric:normal;font-feature-settings:normal;text-align:center;writing-mode:lr-tb;text-anchor:middle;fill:#000000;fill-opacity:1;stroke-width:0.83370453"
         id="tspan1546">Flick Golf</tspan></text>
  </g>
</svg>
