<?xml version="1.0" encoding="UTF-8" standalone="no"?>
<svg
   xmlns:dc="http://purl.org/dc/elements/1.1/"
   xmlns:cc="http://creativecommons.org/ns#"
   xmlns:rdf="http://www.w3.org/1999/02/22-rdf-syntax-ns#"
   xmlns:svg="http://www.w3.org/2000/svg"
   xmlns="http://www.w3.org/2000/svg"
   xmlns:xlink="http://www.w3.org/1999/xlink"
   xmlns:sodipodi="http://sodipodi.sourceforge.net/DTD/sodipodi-0.dtd"
   xmlns:inkscape="http://www.inkscape.org/namespaces/inkscape"
   inkscape:version="1.0 (4035a4fb49, 2020-05-01)"
   sodipodi:docname="SocialIcons.svg"
   id="svg8"
   version="1.1"
   viewBox="0 0 270.93333 270.93334"
   height="1024"
   width="1024">
  <defs
     id="defs2">
    <linearGradient
       inkscape:collect="always"
       id="linearGradient919-7-9">
      <stop
         style="stop-color:#6a31ca;stop-opacity:1"
         offset="0"
         id="stop915" />
      <stop
         id="stop935"
         offset="0.42883813"
         style="stop-color:#e03c28;stop-opacity:1" />
      <stop
         style="stop-color:#ffe738;stop-opacity:1"
         offset="1"
         id="stop917" />
    </linearGradient>
    <linearGradient
       inkscape:collect="always"
       xlink:href="#linearGradient919-7-9"
       id="linearGradient923"
       gradientUnits="userSpaceOnUse"
       x1="558.57141"
       y1="131.42857"
       x2="427.14288"
       y2="267.14288" />
  </defs>
  <sodipodi:namedview
     inkscape:window-maximized="1"
     inkscape:window-y="-8"
     inkscape:window-x="1912"
     inkscape:window-height="1017"
     inkscape:window-width="1920"
     units="px"
     showgrid="false"
     inkscape:document-rotation="0"
     inkscape:current-layer="layer1"
     inkscape:document-units="px"
     inkscape:cy="399.85539"
     inkscape:cx="685.31967"
     inkscape:zoom="0.9899495"
     inkscape:pageshadow="2"
     inkscape:pageopacity="0.0"
     borderopacity="1.0"
     bordercolor="#666666"
     pagecolor="#ffffff"
     id="base"
     inkscape:snap-global="false" />
  <metadata
     id="metadata5">
    <rdf:RDF>
      <cc:Work
         rdf:about="">
        <dc:format>image/svg+xml</dc:format>
        <dc:type
           rdf:resource="http://purl.org/dc/dcmitype/StillImage" />
        <dc:title />
      </cc:Work>
    </rdf:RDF>
  </metadata>
  <g
     id="layer1"
     inkscape:groupmode="layer"
     inkscape:label="Layer 1">
    <rect
       inkscape:export-ydpi="42.799999"
       inkscape:export-xdpi="42.799999"
       style="fill:#ffffff;stroke-width:0.324263;stroke-linecap:square;stroke-miterlimit:4.2"
       id="rect832"
       width="75.970375"
       height="75.970375"
       x="9.4494047"
       y="13.607143" />
    <rect
       inkscape:export-ydpi="42.799999"
       inkscape:export-xdpi="42.799999"
       y="13.607143"
       x="94.221214"
       height="75.970375"
       width="75.970375"
       id="rect834"
       style="fill:#ffffff;stroke-width:0.324263;stroke-linecap:square;stroke-miterlimit:4.2" />
    <path
       id="path880"
       style="fill:url(#linearGradient923);fill-opacity:1;stroke-width:0.999999;stroke-linecap:square;stroke-miterlimit:4.2"
       sodipodi:type="inkscape:offset"
       inkscape:radius="2.0654759"
       inkscape:original="M 464.98633 111.76562 L 440.23828 112.26953 L 432.66211 115.30078 L 425.58984 123.88672 L 423.57031 140.55469 L 424.07422 253.69141 L 428.11523 265.30859 L 437.71289 270.35938 L 456.9043 272.88477 L 563.47656 273.38867 L 579.13281 269.85352 L 583.17383 261.77344 L 586.20508 249.14648 L 584.68945 130.45312 L 581.6582 122.37109 L 571.55664 113.78516 L 556.91016 111.76562 L 509.9375 112.26953 L 464.98633 111.76562 z M 453.875 124.39258 L 486.20117 124.39258 L 512.96875 124.39258 L 551.35547 126.41211 L 566.00195 128.9375 L 572.0625 138.0293 L 571.05273 152.67578 L 572.56836 222.37695 L 571.55859 249.14648 L 565.49609 258.74219 L 554.38477 260.76367 L 449.83594 258.74219 L 439.22852 253.69141 L 437.20898 230.45703 L 436.19922 157.72656 L 437.20703 141.06055 L 441.75391 128.9375 L 453.875 124.39258 z M 545.79883 139.03906 L 541.68359 140.35352 L 536.91016 144.29297 L 541.88477 152.17188 L 549.78906 150.85742 L 552.0625 144.29297 L 545.79883 139.03906 z M 498.82617 158.23242 L 478.11914 165.30273 L 464.98633 184.49609 L 467.00586 215.30469 L 489.73438 230.45703 L 515.99805 233.48828 L 535.69727 220.35547 L 543.27344 190.55664 L 530.14062 167.32422 L 514.48438 158.73633 L 498.82617 158.23242 z M 500.8457 171.36328 L 510.44336 171.86914 L 524.08008 179.44531 L 530.14062 195.60742 L 524.08008 212.7793 L 511.45312 220.35547 L 496.30078 219.3457 L 484.17969 212.27539 L 478.11914 202.17383 L 478.62305 186.51562 L 487.7168 175.91016 L 500.8457 171.36328 z "
       d="m 464.94336,109.70117 -24.74805,0.50391 a 2.0656825,2.0656825 0 0 0 -0.72461,0.14648 l -7.57617,3.03125 a 2.0656825,2.0656825 0 0 0 -0.82617,0.60547 l -7.07227,8.58594 a 2.0656825,2.0656825 0 0 0 -0.45703,1.06445 l -2.01953,16.66797 a 2.0656825,2.0656825 0 0 0 -0.0156,0.25781 l 0.5039,113.13672 a 2.0656825,2.0656825 0 0 0 0.11524,0.66797 l 4.04101,11.61719 a 2.0656825,2.0656825 0 0 0 0.99024,1.15039 l 9.59765,5.05078 a 2.0656825,2.0656825 0 0 0 0.69141,0.21875 l 19.19141,2.52539 a 2.0656825,2.0656825 0 0 0 0.25976,0.0195 l 106.57227,0.50391 a 2.0656825,2.0656825 0 0 0 0.46484,-0.0508 l 15.65625,-3.53516 a 2.0656825,2.0656825 0 0 0 1.39258,-1.0918 l 4.04101,-8.08007 a 2.0656825,2.0656825 0 0 0 0.16016,-0.44141 l 3.03125,-12.62695 a 2.0656825,2.0656825 0 0 0 0.0566,-0.50977 l -1.51562,-118.69336 a 2.0656825,2.0656825 0 0 0 -0.13086,-0.69726 l -3.03125,-8.08204 a 2.0656825,2.0656825 0 0 0 -0.59571,-0.8496 l -10.10156,-8.58594 a 2.0656825,2.0656825 0 0 0 -1.05664,-0.47266 l -14.64648,-2.01953 a 2.0656825,2.0656825 0 0 0 -0.30274,-0.0176 l -46.95117,0.50195 -44.92773,-0.50195 a 2.0656825,2.0656825 0 0 0 -0.0664,0 z m -10.69727,16.75781 h 31.95508 26.71289 l 38.21094,2.00977 13.65039,2.35352 5.17773,7.76757 -0.96093,13.94336 a 2.0656825,2.0656825 0 0 0 -0.004,0.1875 l 1.51367,69.64063 -0.98633,26.15234 -5.28124,8.35938 -10.01563,1.82226 -103.89648,-2.00976 -9.13868,-4.35157 -1.91015,-21.98046 -1.00782,-72.57813 0.98438,-16.2793 4.10742,-10.95507 z m 91.54493,10.51368 a 2.0656825,2.0656825 0 0 0 -0.6211,0.0996 l -4.11523,1.31445 a 2.0656825,2.0656825 0 0 0 -0.68555,0.37305 l -4.77344,3.93945 a 2.0656825,2.0656825 0 0 0 -0.43164,2.69726 l 4.97461,7.87891 a 2.0656825,2.0656825 0 0 0 2.08399,0.93359 l 7.90429,-1.31445 a 2.0656825,2.0656825 0 0 0 1.61328,-1.36133 l 2.27344,-6.56445 a 2.0656825,2.0656825 0 0 0 -0.62305,-2.25781 l -6.26367,-5.25391 a 2.0656825,2.0656825 0 0 0 -1.33593,-0.48437 z m -47.01954,19.19531 a 2.0656825,2.0656825 0 0 0 -0.61328,0.10937 l -20.70703,7.07032 a 2.0656825,2.0656825 0 0 0 -1.03711,0.78906 l -13.13281,19.19336 a 2.0656825,2.0656825 0 0 0 -0.35547,1.30078 l 2.01953,30.80859 a 2.0656825,2.0656825 0 0 0 0.91407,1.58399 l 22.72851,15.15234 a 2.0656825,2.0656825 0 0 0 0.91016,0.33399 l 26.26367,3.03125 a 2.0656825,2.0656825 0 0 0 1.38281,-0.33399 l 19.69922,-13.13281 a 2.0656825,2.0656825 0 0 0 0.85547,-1.20899 l 7.57617,-29.79882 a 2.0656825,2.0656825 0 0 0 -0.20312,-1.52539 l -13.13282,-23.23243 a 2.0656825,2.0656825 0 0 0 -0.80468,-0.79492 l -15.65625,-8.58789 a 2.0656825,2.0656825 0 0 0 -0.92774,-0.2539 l -15.6582,-0.50391 a 2.0656825,2.0656825 0 0 0 -0.1211,0 z m 2.36719,17.2793 8.71875,0.45898 12.55469,6.97656 5.53125,14.7461 -5.56445,15.76171 -11.4336,6.86133 -14.02343,-0.93554 -11.24415,-6.5586 -5.47461,-9.125 0.46094,-14.32422 8.25782,-9.6289 z"
       transform="matrix(0.42164437,0,0,0.42164437,-80.367128,-30.246502)" />
    <rect
       inkscape:export-ydpi="42.799999"
       inkscape:export-xdpi="42.799999"
       style="fill:#ffffff;stroke-width:0.324263;stroke-linecap:square;stroke-miterlimit:4.2"
       id="rect836"
       width="75.970375"
       height="75.970375"
       x="179.91949"
       y="13.607143" />
    <path
       sodipodi:nodetypes="ccccccccccccccccc"
       d="m 249.60686,26.250108 -61.49549,0.99846 -1.69149,0.414388 -2.32736,1.162786 -2.17017,3.409767 -0.99668,37.728927 0.1161,1.055617 0.66266,2.659583 3.72772,2.975733 62.15993,1.328898 1.70757,-0.351873 3.65804,-1.661122 2.30414,-3.57588 V 31.840769 l -1.15028,-2.777469 -1.66291,-1.662909 z"
       style="fill:#343434;stroke-width:0.329071;stroke-linecap:square;stroke-miterlimit:4.2"
       id="path858" />
    <rect
       inkscape:export-ydpi="42.799999"
       inkscape:export-xdpi="42.799999"
       y="96.989265"
       x="9.4494047"
       height="75.970375"
       width="75.970375"
       id="rect838"
       style="fill:#ffffff;stroke-width:0.324263;stroke-linecap:square;stroke-miterlimit:4.2" />
    <path
       style="fill:#343434;fill-opacity:1;stroke-width:0.343432;stroke-linecap:square;stroke-miterlimit:4.2"
       d="m 53.049958,98.386456 -9.321743,-0.490624 -11.529526,3.556988 -13.00138,8.70847 -8.340507,13.7373 -0.367963,17.41695 6.745997,16.31305 13.369343,11.28422 7.481928,2.45308 13.61465,0.61328 12.265454,-2.57575 16.313052,-15.08651 4.292909,-15.0865 -0.735928,-14.59589 -9.567052,-15.69978 -10.302981,-7.23663 z"
       id="path974"
       sodipodi:nodetypes="ccccccccccccccccc" />
    <rect
       inkscape:export-ydpi="42.799999"
       inkscape:export-xdpi="42.799999"
       style="fill:#ffffff;stroke-width:0.324263;stroke-linecap:square;stroke-miterlimit:4.2"
       id="rect840"
       width="75.970375"
       height="75.970375"
       x="94.221214"
       y="96.989265" />
    <rect
       y="96.989265"
       x="179.91949"
       height="75.970375"
       width="75.970375"
       id="rect842"
       style="fill:#ffffff;stroke-width:0.324263;stroke-linecap:square;stroke-miterlimit:4.2" />
    <rect
       style="fill:#ffffff;stroke-width:0.324263;stroke-linecap:square;stroke-miterlimit:4.2"
       id="rect844"
       width="75.970375"
       height="75.970375"
       x="9.4494047"
       y="181.29785" />
    <rect
       y="181.29785"
       x="94.221214"
       height="75.970375"
       width="75.970375"
       id="rect846"
       style="fill:#ffffff;stroke-width:0.324263;stroke-linecap:square;stroke-miterlimit:4.2" />
    <rect
       style="fill:#ffffff;stroke-width:0.324263;stroke-linecap:square;stroke-miterlimit:4.2"
       id="rect848"
       width="75.970375"
       height="75.970375"
       x="179.91949"
       y="181.29785" />
    <path
       id="path860"
       style="fill:#0a89ff;stroke-width:0.312378;stroke-linecap:square;stroke-miterlimit:4.2"
       d="m 18.755238,23.588055 -1.316016,6.137137 0.874904,5.763139 3.303157,3.854091 5.144484,2.448388 -3.52219,1.249514 -3.470329,-1.125662 4.020042,8.947937 4.594771,3.229943 4.591717,0.694311 -3.734507,1.784584 -2.320266,-0.508227 2.437408,3.106091 7.149319,5.504452 0.852327,0.175713 -8.881432,4.993782 -10.612325,0.694921 -7.086477,-2.193969 4.758891,4.109117 8.623963,4.609413 15.01064,2.021919 17.979455,-3.4685 8.994303,-5.315313 6.529441,-9.468363 2.66193,-10.30788 0.979231,-11.55312 0.865142,-0.200119 4.718623,-3.491682 2.244611,-2.441678 -5.5496,1.911487 -2.035951,0.117754 0.995706,-0.400847 3.674108,-2.941359 2.310504,-2.581392 -1.615584,0.791926 -4.434309,1.172032 -3.666786,0.203168 -0.48016,-1.232433 -7.520267,-5.630132 -10.37377,0.194625 -6.273194,5.204275 -1.594839,7.10844 -0.0604,1.33981 -5.726531,0.624148 -10.013805,-3.168324 -7.092578,-6.370811 z" />
    <path
       style="fill:#ffffff;stroke-width:0.329071;stroke-linecap:square;stroke-miterlimit:4.2"
       d="m 188.17497,31.175549 -2.32688,1.163442 -0.99724,37.728801 1.333,2.592481 61.49292,1.396467 3.65655,-1.662061 V 31.840372 l -1.66206,-1.662061 z"
       id="path886"
       sodipodi:nodetypes="ccccccccc" />
    <path
       id="path895"
       style="fill:#ffffff;stroke-width:0.343432;stroke-linecap:square;stroke-miterlimit:4.2"
       d="m 30.399023,112.58046 -1.670213,0.39843 -1.226161,3.31828 0.797543,6.01209 -2.818562,9.86363 1.108776,8.35709 3.901851,4.3895 6.217341,2.71861 3.946121,0.7734 -1.833876,2.96143 -0.05836,2.05926 -3.068757,0.96322 -4.521641,-1.52197 -2.533486,-3.83075 -3.418231,-1.5099 -2.573731,-0.15093 -0.623142,0.85188 1.458246,1.24293 2.194082,1.25098 1.068528,3.20091 3.390728,3.96288 3.6644,1.38984 4.543775,-0.4407 0.269649,-0.11738 -0.245502,8.67771 -0.772723,2.12498 -1.827169,1.07995 2.317501,0.75998 13.614557,0.61307 6.533941,-1.37239 -1.851988,-2.63208 -0.389045,-14.39332 -2.166579,-4.50018 7.189952,-1.57697 4.660488,-2.75417 2.656909,-4.05411 1.000113,-8.52277 -1.483066,-8.47379 -1.366353,-1.54881 0.674793,-5.0871 -1.226161,-3.31895 -1.670213,-0.39844 -4.194305,2.78301 -2.112245,2.19609 -8.536181,-2.25243 -12.668775,1.53605 -2.158525,-2.24572 z" />
    <path
       style="fill:#343434;fill-opacity:1;stroke-width:0.228319;stroke-linecap:square;stroke-miterlimit:4.2"
       d="m 196.50027,43.744962 13.86227,-0.815428 v 3.914052 l -9.82346,0.978512 0.36449,4.24022 4.89257,-0.326169 -0.48926,3.261711 -4.89256,0.97851 0.16308,4.240222 10.27438,-0.652342 v 5.055647 l -15.81928,-0.326169 1.30563,-9.719324 z"
       id="path937"
       sodipodi:nodetypes="cccccccccccccc" />
    <path
       id="path940"
       style="fill:#da655e;fill-opacity:1;stroke-width:0.387162;stroke-linecap:square;stroke-miterlimit:4.2"
       d="m 160.78228,101.19954 -2.18577,-0.42575 -31.69377,1.53194 -24.79801,3.10609 -6.913721,8.57278 1.106286,10.50858 1.813236,3.47577 3.440679,1.7789 4.35255,-0.57696 2.73736,-2.15057 1.07528,-2.73812 0.78264,2.44473 2.54227,2.54226 3.77894,0.44776 4.98698,-1.27113 1.95547,-4.49698 1.69578,4.14676 3.71525,1.75985 h 6.15981 l 3.42155,-3.03098 0.88019,-3.03076 2.54249,4.30212 3.22585,1.17283 4.88921,-0.48872 2.63981,-2.73735 0.68434,-2.73812 2.24887,2.83566 3.4217,1.95547 6.14545,0.54596 3.03067,-3.38854 1.11771,-5.18423 -1.65905,-9.67906 z"
       sodipodi:nodetypes="ccccccccccccccccccccccccccccccccc" />
    <path
       id="path942"
       style="fill:#da655e;fill-opacity:1;stroke-width:0.427722;stroke-linecap:square;stroke-miterlimit:4.2"
       d="m 154.35501,127.7644 -2.46513,2.55588 -1.37625,0.66694 -4.88943,0.48849 -0.9785,-0.1225 -3.22584,-1.17283 -1.15242,-0.9558 -0.30096,-0.50967 -3.16233,2.80088 -1.47076,0.55806 h -6.15981 l -0.94976,-0.214 -3.7151,-1.75962 -0.75693,-0.58831 -1.39666,1.0836 -4.98698,1.27114 -0.80911,0.0529 -3.77861,-0.44766 -1.30743,-0.63443 -1.80348,-1.80348 -2.39557,1.88136 -1.07831,0.45447 -4.35255,0.57696 -1.31045,-0.22837 -0.23744,-0.12249 0.30171,28.9487 0.91649,5.80441 1.22198,1.83373 22.60816,1.83297 27.80159,-0.91649 11.91507,-2.75021 0.91648,-4.58243 0.3055,-25.35762 -0.97925,-5.58437 -0.0665,0.0265 -6.14545,-0.54596 -0.90438,-0.28357 -3.4217,-1.95547 z m -10.7982,10.24921 3.95556,1.39818 3.38011,8.87977 2.21484,9.18075 -1.16527,2.40766 -4.38809,0.41514 -2.83188,-1.34372 -2.33205,-2.02656 -0.64048,-1.90481 -5.22064,1.03521 -6.18477,0.15048 -3.92834,-0.99059 -1.04881,2.70862 -2.7971,3.01034 -3.96312,0.90287 -3.73022,-0.75239 -0.93237,-2.25795 4.07958,-14.89969 2.09838,-4.66561 3.62965,-1.09722 3.27727,0.84087 1.94035,2.40767 4.32306,0.55805 4.39566,-0.25709 2.44774,-2.40767 z" />
    <path
       style="fill:#da655e;fill-opacity:1;stroke-width:0.387162;stroke-linecap:square;stroke-miterlimit:4.2"
       d="m 133.63059,144.1973 -5.11608,5.39262 3.11113,-0.0692 -0.0691,3.31854 5.11606,-0.34567 -0.34568,-3.11113 3.11112,0.20741 -5.0742,-4.9375 z"
       id="path958"
       sodipodi:nodetypes="ccccccccc" />
    <path
       style="fill:#ffe737;fill-opacity:1;stroke-width:0.434758;stroke-linecap:square;stroke-miterlimit:4.2"
       d="m 234.38559,33.18087 -4.26997,0.465814 -0.38816,1.009261 1.00924,9.23862 0.93164,1.086895 11.10186,-1.3198 0.62109,-0.698722 -1.0869,-9.238619 -0.93161,-1.009261 z"
       id="path960" />
    <path
       transform="matrix(0.29021022,0,0,0.29062344,-24.023711,-3.0698327)"
       d="m 935.24023,125.14648 a 1.3948225,1.3948225 0 0 0 -0.44726,0.084 l -7.33008,2.66601 a 1.3948225,1.3948225 0 0 0 -0.41992,0.24219 l -5.31055,4.46094 -3.20898,0.82422 -6.40821,-1.85938 -5.22656,-2.50586 a 1.3948225,1.3948225 0 0 0 -0.72656,-0.13086 l -6.33008,0.55665 a 1.3948225,1.3948225 0 0 0 -0.46094,0.12304 l -7.125,3.28711 -9.16406,2.69531 -4.28906,0.10352 -8.14453,-2.06445 a 1.3948225,1.3948225 0 0 0 -0.01,-0.002 l -6.33008,-1.55468 a 1.3948225,1.3948225 0 0 0 -0.58593,-0.0176 l -7.21875,1.33398 a 1.3948225,1.3948225 0 0 0 -0.35352,0.11524 l -3.66406,1.77539 a 1.3948225,1.3948225 0 0 0 -0.61719,0.58789 l -0.66602,1.22265 a 1.3948225,1.3948225 0 0 0 1.37891,2.05469 l 1,-0.11133 a 1.3948225,1.3948225 0 0 0 0.79102,-0.36132 l 1.16797,-1.07813 5.5957,-1.24414 2.89062,-0.49805 13.8125,3.58789 a 1.3948225,1.3948225 0 0 0 0.35157,0.0449 h 4.77343 a 1.3948225,1.3948225 0 0 0 0.32813,-0.0391 l 6.44141,-1.55469 a 1.3948225,1.3948225 0 0 0 0.23437,-0.0801 l 7.49219,-3.30274 4.35351,-1.45117 4.18164,0.19727 5.89844,2.25195 a 1.3948225,1.3948225 0 0 0 0.1543,0.0488 l 6.55273,1.66601 a 1.3948225,1.3948225 0 0 0 0.77344,-0.0254 l 4.10938,-1.33203 a 1.3948225,1.3948225 0 0 0 0.48046,-0.26953 l 4.54297,-3.91016 7.3711,-2.13671 a 1.3948225,1.3948225 0 0 0 0.89843,-0.80274 l 0.55664,-1.33203 a 1.3948225,1.3948225 0 0 0 -0.73632,-1.81836 l -0.77735,-0.33398 a 1.3948225,1.3948225 0 0 0 -0.58008,-0.11329 z m -3.64257,9.81641 a 1.3948225,1.3948225 0 0 0 -0.61719,0.1543 l -3.66406,1.88672 a 1.3948225,1.3948225 0 0 0 -0.26368,0.17773 l -4.11328,3.49609 -7.84765,0.81446 -9.95313,-2.91992 a 1.3948225,1.3948225 0 0 0 -0.59375,-0.043 l -6.10742,0.88867 a 1.3948225,1.3948225 0 0 0 -0.36133,0.10351 l -8.1914,3.60547 -7.74415,1.5918 -8.46093,-0.96484 -8.35157,-2.08789 a 1.3948225,1.3948225 0 0 0 -0.58789,-0.0195 l -9.77148,1.77735 a 1.3948225,1.3948225 0 0 0 -0.43945,0.16015 l -7.9961,4.55274 a 1.3948225,1.3948225 0 0 0 -0.55859,0.58984 l -0.55469,1.10938 a 1.3948225,1.3948225 0 0 0 0.86328,1.96289 l 0.77735,0.22265 a 1.3948225,1.3948225 0 0 0 1.05468,-0.11718 l 7.91993,-4.33789 8.39648,-1.67969 9.93945,2.05078 a 1.3948225,1.3948225 0 0 0 0.084,0.0156 l 8.55078,1.22266 a 1.3948225,1.3948225 0 0 0 0.52344,-0.0254 l 8.32812,-2 a 1.3948225,1.3948225 0 0 0 0.25,-0.0859 l 6.93946,-3.14257 5.63671,-0.92188 9.71094,2.48242 a 1.3948225,1.3948225 0 0 0 0.44727,0.0391 l 9.10547,-0.66796 a 1.3948225,1.3948225 0 0 0 0.73437,-0.2754 l 3.99609,-2.99609 3.88477,-2.88476 a 1.3948225,1.3948225 0 0 0 0.55664,-1.2461 l -0.11133,-1.2207 a 1.3948225,1.3948225 0 0 0 -1.41015,-1.26758 z m -3.12891,11.65234 a 1.3948225,1.3948225 0 0 0 -0.14648,0.006 l -1.22071,0.11133 a 1.3948225,1.3948225 0 0 0 -0.79492,0.3418 l -2.49023,2.1914 -5.33985,1.00586 -7.50195,-0.42773 -5.7832,-1.20117 a 1.3948225,1.3948225 0 0 0 -0.32813,-0.0293 l -6.88672,0.22266 a 1.3948225,1.3948225 0 0 0 -0.51953,0.11914 l -7.72461,3.42187 -7.09375,2.54102 -8.95117,-0.96094 -7.93555,-1.54297 a 1.3948225,1.3948225 0 0 0 -0.39648,-0.0195 l -8.21875,0.77735 a 1.3948225,1.3948225 0 0 0 -0.39063,0.0957 l -7.99609,3.2207 a 1.3948225,1.3948225 0 0 0 -0.0801,0.0352 l -9.77148,4.66406 a 1.3948225,1.3948225 0 0 0 -0.74024,0.87695 l -0.2207,0.77735 a 1.3948225,1.3948225 0 0 0 0.82227,1.67578 l 1.10937,0.44531 a 1.3948225,1.3948225 0 0 0 1.11328,-0.0332 L 852.25,159.625 l 6.21484,-2.25 6.66211,-0.63281 13.3711,1.7539 4.75195,0.77344 a 1.3948225,1.3948225 0 0 0 0.74609,-0.084 l 6.33008,-2.55469 a 1.3948225,1.3948225 0 0 0 0.0215,-0.008 l 6.93945,-2.92774 4.30078,-0.61328 8.58594,1.08594 a 1.3948225,1.3948225 0 0 0 0.11719,0.01 l 10.66015,0.44336 a 1.3948225,1.3948225 0 0 0 0.5,-0.0703 l 4.66406,-1.55469 a 1.3948225,1.3948225 0 0 0 0.54493,-0.33593 l 1.99804,-1.99805 a 1.3948225,1.3948225 0 0 0 0.27735,-0.39649 l 0.77734,-1.66601 a 1.3948225,1.3948225 0 0 0 -1.24414,-1.98438 z"
       inkscape:original="M 935.26953 126.54102 L 927.93945 129.20703 L 922.38672 133.87109 L 918.5 134.86914 L 911.61523 132.87109 L 906.28516 130.31641 L 899.95508 130.87305 L 892.73828 134.20312 L 883.29883 136.98047 L 878.63477 137.0918 L 870.30664 134.98047 L 863.97656 133.42578 L 856.75781 134.75977 L 853.09375 136.53516 L 852.42773 137.75781 L 853.42773 137.64648 L 854.87109 136.31445 L 860.86719 134.98047 L 864.08789 134.42578 L 878.19141 138.08984 L 882.96484 138.08984 L 889.40625 136.53516 L 896.95703 133.20508 L 901.62109 131.65039 L 906.28516 131.87109 L 912.39258 134.20312 L 918.94531 135.86914 L 923.05469 134.53711 L 927.82812 130.42773 L 935.49023 128.20703 L 936.04688 126.875 L 935.26953 126.54102 z M 931.61914 136.35742 L 927.95508 138.24414 L 923.51367 142.01953 L 914.96289 142.9082 L 904.74609 139.91016 L 898.63867 140.79883 L 890.31055 144.46289 L 882.20312 146.12891 L 873.42969 145.12891 L 864.99023 143.01953 L 855.21875 144.79688 L 847.22266 149.34961 L 846.66797 150.45898 L 847.44531 150.68164 L 855.55273 146.24023 L 864.43555 144.46289 L 874.65234 146.57227 L 883.20312 147.79492 L 891.53125 145.79492 L 898.63867 142.57617 L 904.74609 141.57617 L 914.74023 144.13086 L 923.8457 143.46289 L 927.84375 140.46484 L 931.73047 137.57812 L 931.61914 136.35742 z M 928.44922 148.00977 L 927.22852 148.12109 L 924.45117 150.56445 L 918.56641 151.67383 L 910.79297 151.23047 L 904.9082 150.00781 L 898.02148 150.23047 L 890.25 153.67188 L 882.80859 156.33789 L 873.48047 155.33789 L 865.48633 153.7832 L 857.26758 154.56055 L 849.27148 157.78125 L 839.5 162.44531 L 839.2793 163.22266 L 840.38867 163.66797 L 851.71484 158.33594 L 858.15625 156.00391 L 865.15234 155.33789 L 878.70117 157.11523 L 883.47461 157.89258 L 889.80469 155.33789 L 896.91211 152.33984 L 901.57617 151.67383 L 910.34961 152.78516 L 921.00977 153.22852 L 925.67383 151.67383 L 927.67188 149.67578 L 928.44922 148.00977 z "
       inkscape:radius="1.394683"
       sodipodi:type="inkscape:offset"
       style="fill:#343434;fill-opacity:1;stroke-width:1.24373;stroke-linecap:square;stroke-miterlimit:4.2"
       id="path962" />
    <path
       sodipodi:nodetypes="ccccccccccccccccccccc"
       id="path862"
       d="m 213.50169,64.110294 -0.11547,-8.819896 1.2701,-0.334087 0.63504,2.80633 1.15463,-2.739512 2.42472,-0.200451 0.63505,2.138156 0.80823,-2.204974 1.50102,-0.267271 1.50101,2.004523 0.57732,7.617182 -1.66141,-0.180883 -0.59011,-4.830421 -0.63505,-1.403164 -0.57731,1.00226 -1.93315,0.459614 -0.63505,-1.737251 -0.98144,0.668173 -1.29981,2.079447 -0.0914,3.80859 z"
       style="fill:#343434;stroke-width:0.245937;stroke-linecap:square;stroke-miterlimit:4.2" />
    <path
       d="m 231.48059,54.449463 -1.81849,0.133842 -0.22687,1.60352 -1.06091,-1.336352 -1.8185,-0.06718 -1.9699,1.536856 -0.30334,5.412589 1.59112,2.137854 2.80396,-0.267165 0.90899,-1.603521 -0.15142,1.804025 1.96991,0.06666 z m -3.84421,2.436026 0.70848,0.613916 0.56689,1.03973 -0.23616,2.031402 -0.80305,1.181322 -0.99219,0.04702 -0.75602,-0.80305 -0.18914,-2.834971 0.75603,-1.133779 z"
       style="fill:#343434;stroke-width:0.281749;stroke-linecap:square;stroke-miterlimit:4.2"
       id="path864" />
    <path
       id="path868"
       d="m 233.37469,54.335385 h -0.66817 l -0.26727,9.020347 0.33409,0.467722 h 0.86862 l 0.46772,-9.421251 z"
       style="fill:#343434;stroke-width:0.264583;stroke-linecap:square;stroke-miterlimit:4.2" />
    <path
       id="path870"
       d="m 233.24106,51.662691 -0.80181,0.334087 0.13363,0.801806 1.20272,0.334087 0.4009,-0.935442 z"
       style="fill:#343434;stroke-width:0.264583;stroke-linecap:square;stroke-miterlimit:4.2" />
    <path
       id="path874"
       d="m 236.32961,49.703869 -0.56696,0.188986 0.0945,13.796132 0.56696,0.283482 h 0.85045 V 50.081845 Z"
       style="fill:#343434;stroke-width:0.264583;stroke-linecap:square;stroke-miterlimit:4.2" />
  </g>
</svg>
