<?xml version="1.0" encoding="UTF-8" standalone="no"?>
<!-- Created with Inkscape (http://www.inkscape.org/) -->

<svg
   xmlns:dc="http://purl.org/dc/elements/1.1/"
   xmlns:cc="http://creativecommons.org/ns#"
   xmlns:rdf="http://www.w3.org/1999/02/22-rdf-syntax-ns#"
   xmlns:svg="http://www.w3.org/2000/svg"
   xmlns="http://www.w3.org/2000/svg"
   xmlns:sodipodi="http://sodipodi.sourceforge.net/DTD/sodipodi-0.dtd"
   xmlns:inkscape="http://www.inkscape.org/namespaces/inkscape"
   width="1024"
   height="1024"
   viewBox="0 0 270.93333 270.93334"
   version="1.1"
   id="svg8"
   sodipodi:docname="social.svg"
   inkscape:version="0.92.2 (5c3e80d, 2017-08-06)">
  <defs
     id="defs2" />
  <sodipodi:namedview
     id="base"
     pagecolor="#ffffff"
     bordercolor="#666666"
     borderopacity="1.0"
     inkscape:pageopacity="0.0"
     inkscape:pageshadow="2"
     inkscape:zoom="0.7"
     inkscape:cx="497.73314"
     inkscape:cy="512.07621"
     inkscape:document-units="mm"
     inkscape:current-layer="layer1"
     showgrid="true"
     units="px"
     inkscape:window-width="1920"
     inkscape:window-height="1017"
     inkscape:window-x="1912"
     inkscape:window-y="-8"
     inkscape:window-maximized="1"
     inkscape:snap-global="false"
     inkscape:snap-bbox="true">
    <inkscape:grid
       type="xygrid"
       id="grid830"
       spacingx="67.733334"
       spacingy="67.733334" />
  </sodipodi:namedview>
  <metadata
     id="metadata5">
    <rdf:RDF>
      <cc:Work
         rdf:about="">
        <dc:format>image/svg+xml</dc:format>
        <dc:type
           rdf:resource="http://purl.org/dc/dcmitype/StillImage" />
        <dc:title></dc:title>
      </cc:Work>
    </rdf:RDF>
  </metadata>
  <g
     inkscape:label="Layer 1"
     inkscape:groupmode="layer"
     id="layer1"
     transform="translate(0,-26.06665)">
    <rect
       style="opacity:1;fill:#ffffff;fill-opacity:0;stroke:none;stroke-width:0.065;stroke-miterlimit:4;stroke-dasharray:none;stroke-dashoffset:0;stroke-opacity:1"
       id="rect832"
       width="135.46666"
       height="135.46666"
       x="0"
       y="26.066647"
       inkscape:export-xdpi="96"
       inkscape:export-ydpi="96" />
    <path
       style="opacity:1;fill:#31a2f2;fill-opacity:1;stroke:none;stroke-width:0.08797187;stroke-miterlimit:4;stroke-dasharray:none;stroke-dashoffset:0;stroke-opacity:1"
       d="M 70.090747,61.416987 26.096752,53.232058 4.6113106,82.902428 20.469614,107.45722 l 31.205044,-3.06935 9.719609,24.04323 35.809059,1.02311 34.785974,-6.1387 v -20.97387 l -13.30053,-10.231155 -16.88142,7.673376 2.04623,-10.742729 -17.39297,0.51155 -11.765833,-11.254269 z"
       id="path812"
       inkscape:connector-curvature="0"
       sodipodi:nodetypes="ccccccccccccccc"
       inkscape:export-xdpi="96"
       inkscape:export-ydpi="96" />
    <path
       style="opacity:1;fill:#c331f2;fill-opacity:1;stroke:none;stroke-width:0.08441909;stroke-miterlimit:4;stroke-dasharray:none;stroke-dashoffset:0;stroke-opacity:1"
       d="m 190.45389,46.627046 -38.29008,-4.418087 -9.81798,34.362899 8.83617,54.980642 c 0,0 42.21728,10.30887 47.61716,10.79976 5.39988,0.49091 31.41751,-1.96358 31.41751,-1.96358 L 256.23429,129.5889 260.65237,85.408028 252.3071,56.935914 225.30769,46.627046 Z"
       id="path814"
       inkscape:connector-curvature="0"
       inkscape:export-xdpi="96"
       inkscape:export-ydpi="96" />
    <path
       style="opacity:1;fill:#e19938;fill-opacity:1;stroke:none;stroke-width:0.08441909;stroke-miterlimit:4;stroke-dasharray:none;stroke-dashoffset:0;stroke-opacity:1"
       d="m 240.03463,58.408612 -28.963,35.835592 -52.52614,26.508526 48.10804,14.72696 41.23548,-14.23606 V 67.735682 Z"
       id="path816"
       inkscape:connector-curvature="0"
       inkscape:export-xdpi="96"
       inkscape:export-ydpi="96" />
    <path
       style="opacity:1;fill:#ffffff;fill-opacity:1;stroke:none;stroke-width:0.08441909;stroke-miterlimit:4;stroke-dasharray:none;stroke-dashoffset:0;stroke-opacity:1"
       d="m 211.07163,80.989944 -17.67235,-6.381682 -13.74516,15.217856 -2.94539,21.599542 h 38.78098 l 8.83618,-14.236065 z"
       id="path818"
       inkscape:connector-curvature="0"
       sodipodi:nodetypes="ccccccc"
       inkscape:export-xdpi="96"
       inkscape:export-ydpi="96" />
    <path
       style="opacity:1;fill:#000000;fill-opacity:1;stroke:none;stroke-width:0.07918018;stroke-miterlimit:4;stroke-dasharray:none;stroke-dashoffset:0;stroke-opacity:1"
       d="m 53.532425,175.87553 -38.216041,14.7339 c 0,0 -10.5899867,47.88516 -10.1295527,49.72689 0.4604339,1.84173 30.8490947,38.21604 33.6116997,39.1369 2.762603,0.92088 59.85645,1.84175 63.079489,1.38131 3.22303,-0.46043 29.92822,-51.56863 29.92822,-51.56863 L 113.38888,179.559 Z"
       id="path820"
       inkscape:connector-curvature="0"
       inkscape:export-xdpi="96"
       inkscape:export-ydpi="96" />
    <path
       style="opacity:1;fill:#ffffff;fill-opacity:1;stroke:none;stroke-width:0.07918018;stroke-miterlimit:4;stroke-dasharray:none;stroke-dashoffset:0;stroke-opacity:1"
       d="m 48.007213,215.93331 0.920871,-11.51085 13.352592,9.66912 c 0,0 7.82738,-5.52522 9.669119,-5.52522 1.841734,0 14.733892,2.30217 14.733892,2.30217 l 8.748246,-13.3526 v 16.57565 l -2.762597,25.7843 12.431714,1.84175 9.20869,-4.60434 -11.05042,18.41736 -19.338236,0.92088 -0.460436,8.74824 -6.44608,9.20869 -2.302168,-8.74825 0.460434,-15.19434 -12.431724,3.68349 -6.44608,10.58998 -0.460434,9.20868 -9.669119,-14.7339 -19.338236,-9.66912 3.683473,-5.06476 17.956936,2.30217 8.287814,-11.51087 -8.287814,-17.03606 z"
       id="path822"
       inkscape:connector-curvature="0"
       inkscape:export-xdpi="96"
       inkscape:export-ydpi="96" />
    <path
       style="opacity:1;fill:#be2633;fill-opacity:1;stroke:none;stroke-width:0.08035055;stroke-miterlimit:4;stroke-dasharray:none;stroke-dashoffset:0;stroke-opacity:1"
       d="m 202.6426,182.85149 -58.40499,2.80345 -3.73792,17.75511 2.3362,64.94635 14.0172,11.21376 105.59622,-1.40172 4.67241,-3.73792 -1.86897,-79.43079 -11.21376,-8.41032 z"
       id="path824"
       inkscape:connector-curvature="0"
       inkscape:export-xdpi="96.000008"
       inkscape:export-ydpi="96.000008" />
    <path
       style="opacity:1;fill:#ffffff;fill-opacity:1;stroke:none;stroke-width:0.08035055;stroke-miterlimit:4;stroke-dasharray:none;stroke-dashoffset:0;stroke-opacity:1"
       d="m 161.52549,194.53248 44.38779,26.63268 42.98607,-18.68959 -1.40171,-6.54136 -61.67567,-2.3362 z"
       id="path826"
       inkscape:connector-curvature="0"
       inkscape:export-xdpi="96.000008"
       inkscape:export-ydpi="96.000008" />
    <path
       style="opacity:1;fill:#ffffff;fill-opacity:1;stroke:none;stroke-width:0.08035055;stroke-miterlimit:4;stroke-dasharray:none;stroke-dashoffset:0;stroke-opacity:1"
       d="m 152.64793,253.87196 1.86895,-39.24815 51.3964,21.96027 42.51884,-18.22235 2.80344,49.06019 -88.30835,2.3362 z"
       id="path828"
       inkscape:connector-curvature="0"
       inkscape:export-xdpi="96.000008"
       inkscape:export-ydpi="96.000008" />
    <rect
       style="opacity:1;fill:#ffffff;fill-opacity:0;stroke:none;stroke-width:0.065;stroke-miterlimit:4;stroke-dasharray:none;stroke-dashoffset:0;stroke-opacity:1"
       id="rect836"
       width="135.46666"
       height="135.46666"
       x="135.46666"
       y="26.066647"
       inkscape:export-xdpi="96"
       inkscape:export-ydpi="96" />
    <rect
       style="opacity:1;fill:#ffffff;fill-opacity:0;stroke:none;stroke-width:0.065;stroke-miterlimit:4;stroke-dasharray:none;stroke-dashoffset:0;stroke-opacity:1"
       id="rect838"
       width="135.46666"
       height="135.46666"
       x="135.46666"
       y="161.53331"
       inkscape:export-xdpi="96.000008"
       inkscape:export-ydpi="96.000008" />
    <rect
       style="opacity:1;fill:#ffffff;fill-opacity:0;stroke:none;stroke-width:0.065;stroke-miterlimit:4;stroke-dasharray:none;stroke-dashoffset:0;stroke-opacity:1"
       id="rect840"
       width="135.46666"
       height="135.46666"
       x="0"
       y="161.53331"
       inkscape:export-xdpi="96"
       inkscape:export-ydpi="96" />
  </g>
</svg>
