<?xml version="1.0" encoding="UTF-8" standalone="no"?>
<!-- Created with Inkscape (http://www.inkscape.org/) -->

<svg
   xmlns:dc="http://purl.org/dc/elements/1.1/"
   xmlns:cc="http://creativecommons.org/ns#"
   xmlns:rdf="http://www.w3.org/1999/02/22-rdf-syntax-ns#"
   xmlns:svg="http://www.w3.org/2000/svg"
   xmlns="http://www.w3.org/2000/svg"
   xmlns:sodipodi="http://sodipodi.sourceforge.net/DTD/sodipodi-0.dtd"
   xmlns:inkscape="http://www.inkscape.org/namespaces/inkscape"
   width="3in"
   height="3in"
   id="svg2"
   version="1.1"
   inkscape:version="0.92.2 (5c3e80d, 2017-08-06)"
   sodipodi:docname="ATLogoPrint.svg"
   inkscape:export-filename="C:\Projects\GithubWebsite\images\ATLogoPrint.png"
   inkscape:export-xdpi="400"
   inkscape:export-ydpi="400">
  <defs
     id="defs4" />
  <sodipodi:namedview
     id="base"
     pagecolor="#ffffff"
     bordercolor="#666666"
     borderopacity="1.0"
     inkscape:pageopacity="0.0"
     inkscape:pageshadow="2"
     inkscape:zoom="1.979899"
     inkscape:cx="104.86121"
     inkscape:cy="138.73897"
     inkscape:document-units="px"
     inkscape:current-layer="g841"
     showgrid="true"
     inkscape:window-width="1920"
     inkscape:window-height="1017"
     inkscape:window-x="1912"
     inkscape:window-y="-8"
     inkscape:window-maximized="1"
     inkscape:snap-global="false"
     units="in">
    <inkscape:grid
       type="xygrid"
       id="grid2985"
       empspacing="5"
       visible="true"
       enabled="true"
       snapvisiblegridlinesonly="true"
       color="#000000"
       opacity="0.07058824"
       empcolor="#000000"
       empopacity="0.16078431"
       spacingx="10"
       spacingy="10"
       dotted="false"
       originx="0"
       originy="0" />
  </sodipodi:namedview>
  <metadata
     id="metadata7">
    <rdf:RDF>
      <cc:Work
         rdf:about="">
        <dc:format>image/svg+xml</dc:format>
        <dc:type
           rdf:resource="http://purl.org/dc/dcmitype/StillImage" />
        <dc:title></dc:title>
      </cc:Work>
    </rdf:RDF>
  </metadata>
  <g
     inkscape:label="Layer 1"
     inkscape:groupmode="layer"
     id="layer1"
     transform="translate(0,-764.36223)">
    <g
       id="g817"
       transform="translate(2.1098435,-1.469075)">
      <g
         id="g841"
         transform="translate(0.267857)">
        <g
           id="g819"
           transform="translate(4.35e-5)">
          <path
             sodipodi:nodetypes="ccccccccccccccccccccccccccccccccccccccccccccccccccccc"
             inkscape:connector-curvature="0"
             id="path2995"
             d="m 146.31475,769.95151 -3.72974,0.74026 -21.21117,9.1393 -16.48494,17.50989 -21.495873,35.38991 -0.05693,0.0854 -19.559828,33.42538 -0.113886,0.19931 -16.798104,29.9234 -9.527287,23.35956 0.342648,20.69967 10.665588,14.50583 15.754428,2.83493 9.572184,-3.83055 9.806616,-10.90481 13.666254,-26.79157 4.15681,-0.79724 21.35354,-0.65483 -0.22778,3.92904 -0.0283,0.68332 -0.1993,35.04824 -2.96107,36.8989 3.04645,30.60675 4.38458,15.4316 5.55192,7.2601 6.83313,4.2137 11.90103,0.8541 7.48797,-3.2456 6.6623,-6.6054 5.92204,-15.0613 3.58739,-38.72112 0.0284,-0.99645 0.85413,-57.93927 0.0283,-0.11388 0.0569,-11.10384 4.84014,0.28471 h 0.34164 l 22.15074,0.71179 27.44648,-3.95752 9.4824,-5.12967 6.06297,-14.06004 -0.48402,-10.1358 -4.61236,-9.25319 -13.3246,-8.99696 -20.81258,-3.90057 -30.83448,1.16733 v -39.83145 l -0.0283,-0.62636 -1.56593,-23.11876 -5.26721,-16.57033 -7.82962,-8.19976 -9.76568,-3.58739 z"
             style="fill:#000000;fill-opacity:1;fill-rule:nonzero;stroke:none;stroke-width:0.58678347" />
          <path
             inkscape:connector-curvature="0"
             id="path2988"
             d="m 147.21693,782.29383 -16.2002,5.83663 -16.48492,17.50989 -19.787616,33.16914 -19.559835,33.42539 -16.798106,29.9234 -8.455991,21.80907 v 9.76568 l 6.83313,9.76568 7.146305,0.65484 10.733713,-10.76217 11.388539,-23.74513 4.868609,-8.51294 10.278162,0.9111 35.47533,-1.1104 -1.08191,18.02237 -0.1993,35.44687 -3.04643,35.13369 3.04643,30.60666 3.90058,13.0115 6.83313,4.2137 7.48797,-3.2457 4.86861,-11.0469 3.58739,-38.72111 0.85413,-57.9392 0.14236,-24.68467 18.42097,1.08192 22.15072,0.71177 25.08329,-3.81516 4.61236,-5.83663 -0.48401,-10.13581 -7.43104,-6.20675 -20.81256,-3.90058 -22.63473,1.56592 -17.5099,-0.56942 h -1.25275 l 0.0283,-3.18881 V 822.2961 l -0.96803,-19.84456 -5.26721,-16.57032 -9.76567,-3.58739 z m -10.36357,45.86737 3.27421,3.90058 -0.65485,22.46391 -1.22427,20.04384 -32.11571,-0.0569 16.74116,-29.75258 9.42404,-13.35307 4.55542,-3.24573 z"
             style="fill:#ffffff;fill-opacity:1;fill-rule:nonzero;stroke:none;stroke-width:0.58678347" />
        </g>
      </g>
    </g>
  </g>
</svg>
