<?xml version="1.0" encoding="UTF-8" standalone="no"?>
<!-- Created with Inkscape (http://www.inkscape.org/) -->

<svg
   xmlns:dc="http://purl.org/dc/elements/1.1/"
   xmlns:cc="http://creativecommons.org/ns#"
   xmlns:rdf="http://www.w3.org/1999/02/22-rdf-syntax-ns#"
   xmlns:svg="http://www.w3.org/2000/svg"
   xmlns="http://www.w3.org/2000/svg"
   xmlns:sodipodi="http://sodipodi.sourceforge.net/DTD/sodipodi-0.dtd"
   xmlns:inkscape="http://www.inkscape.org/namespaces/inkscape"
   width="500"
   height="500"
   id="svg2"
   version="1.1"
   inkscape:version="0.92.2 (5c3e80d, 2017-08-06)"
   sodipodi:docname="Logo.svg"
   inkscape:export-filename="C:\Users\RPM\Desktop\Logo.png"
   inkscape:export-xdpi="96.650764"
   inkscape:export-ydpi="96.650764">
  <defs
     id="defs4" />
  <sodipodi:namedview
     id="base"
     pagecolor="#ffffff"
     bordercolor="#666666"
     borderopacity="1.0"
     inkscape:pageopacity="0.0"
     inkscape:pageshadow="2"
     inkscape:zoom="0.98994949"
     inkscape:cx="6.3877842"
     inkscape:cy="185.92734"
     inkscape:document-units="px"
     inkscape:current-layer="g841"
     showgrid="true"
     inkscape:window-width="1920"
     inkscape:window-height="1017"
     inkscape:window-x="1912"
     inkscape:window-y="-8"
     inkscape:window-maximized="1"
     inkscape:snap-global="false">
    <inkscape:grid
       type="xygrid"
       id="grid2985"
       empspacing="5"
       visible="true"
       enabled="true"
       snapvisiblegridlinesonly="true"
       color="#000000"
       opacity="0.07058824"
       empcolor="#000000"
       empopacity="0.16078431"
       spacingx="10"
       spacingy="10"
       dotted="false"
       originx="0"
       originy="0" />
  </sodipodi:namedview>
  <metadata
     id="metadata7">
    <rdf:RDF>
      <cc:Work
         rdf:about="">
        <dc:format>image/svg+xml</dc:format>
        <dc:type
           rdf:resource="http://purl.org/dc/dcmitype/StillImage" />
        <dc:title />
      </cc:Work>
    </rdf:RDF>
  </metadata>
  <g
     inkscape:label="Layer 1"
     inkscape:groupmode="layer"
     id="layer1"
     transform="translate(0,-552.36218)">
    <g
       id="g817"
       transform="translate(2.1098435,-1.469075)">
      <g
         id="g841"
         transform="translate(0.267857)">
        <path
           style="fill:#000000;fill-opacity:1;fill-rule:nonzero;stroke:none;stroke-width:1.03895271"
           d="m 255.93069,556.16151 -6.60386,1.31068 -37.55628,16.18197 -29.18805,31.00282 -38.06038,62.66102 -0.10078,0.15115 -34.63244,59.18264 -0.20164,0.35288 -29.742547,52.98207 -16.868914,41.36019 0.606684,36.65062 18.88438,25.68387 27.894637,5.0195 16.9484,-6.78234 17.36349,-19.30794 24.19734,-47.43686 7.36002,-1.41159 37.80835,-1.15946 -0.4033,6.95674 -0.0503,1.20987 -0.35288,62.05606 -5.24284,65.3328 5.394,54.192 7.76331,27.3228 9.83017,12.8549 12.09865,7.4608 21.07186,1.5123 13.25811,-5.7468 11.7962,-11.6954 10.48552,-26.6674 6.35179,-68.55917 0.0504,-1.76439 1.51233,-102.5866 0.0503,-0.20165 0.10077,-19.66033 8.5699,0.50411 h 0.60493 l 39.21984,1.26028 48.59648,-7.00715 16.78942,-9.08253 10.73504,-24.89456 -0.85699,-17.94635 -8.1666,-16.38361 -23.5924,-15.92992 -36.85052,-6.90631 -54.59523,2.06685 v -70.52514 l -0.0503,-1.10904 -2.77262,-40.93382 -9.32605,-29.33927 -13.86306,-14.5184 -17.29101,-6.35179 z"
           id="path2995"
           inkscape:connector-curvature="0"
           sodipodi:nodetypes="ccccccccccccccccccccccccccccccccccccccccccccccccccccc" />
        <path
           style="fill:#ffffff;fill-opacity:1;fill-rule:nonzero;stroke:none;stroke-width:1.03895271"
           d="m 257.06122,578.92258 -28.68392,10.33428 -29.18803,31.00283 -35.03574,58.72894 -34.63243,59.18264 -29.742555,52.98208 -14.972098,38.61491 v 17.29101 l 12.098666,17.29101 12.653187,1.15945 19.00499,-19.05539 20.16444,-42.04288 8.6203,-15.07292 18.19841,1.61317 62.81225,-1.96605 -1.91562,31.91024 -0.35287,62.76183 -5.39399,62.20731 5.39399,54.19196 6.90632,23.0378 12.09866,7.4608 13.25813,-5.7468 8.6203,-19.5594 6.3518,-68.55918 1.51233,-102.58661 0.25206,-43.70644 32.61598,1.91564 39.21984,1.26027 44.41219,-6.75509 8.1666,-10.33427 -0.85699,-17.94636 -13.15729,-10.98962 -36.85053,-6.90632 -40.07683,2.77261 -31.00283,-1.00822 h -2.21809 l 0.0503,-5.64605 v -87.00958 l -1.71397,-35.13654 -9.32606,-29.33927 -17.29101,-6.35179 z m -18.34965,81.2123 5.79729,6.90631 -1.15946,39.77437 -2.16767,35.48942 -56.86376,-0.10078 29.64175,-52.67961 16.68608,-23.64281 8.06577,-5.74686 z"
           id="path2988"
           inkscape:connector-curvature="0" />
      </g>
    </g>
  </g>
</svg>
