<?xml version="1.0" encoding="UTF-8" standalone="no"?>
<!-- Created with Inkscape (http://www.inkscape.org/) -->

<svg
   xmlns:dc="http://purl.org/dc/elements/1.1/"
   xmlns:cc="http://creativecommons.org/ns#"
   xmlns:rdf="http://www.w3.org/1999/02/22-rdf-syntax-ns#"
   xmlns:svg="http://www.w3.org/2000/svg"
   xmlns="http://www.w3.org/2000/svg"
   xmlns:sodipodi="http://sodipodi.sourceforge.net/DTD/sodipodi-0.dtd"
   xmlns:inkscape="http://www.inkscape.org/namespaces/inkscape"
   width="1024"
   height="256"
   id="svg2989"
   version="1.1"
   inkscape:version="0.48.4 r9939"
   sodipodi:docname="Banner.svg"
   inkscape:export-filename="C:\Users\Anthony\Desktop\Projects\GithubWebsite\press\Banner.png"
   inkscape:export-xdpi="360"
   inkscape:export-ydpi="360">
  <defs
     id="defs2991" />
  <sodipodi:namedview
     id="base"
     pagecolor="#ffffff"
     bordercolor="#666666"
     borderopacity="1.0"
     inkscape:pageopacity="0.0"
     inkscape:pageshadow="2"
     inkscape:zoom="0.49"
     inkscape:cx="261.37414"
     inkscape:cy="186.93872"
     inkscape:document-units="px"
     inkscape:current-layer="layer1"
     showgrid="true"
     units="px"
     inkscape:window-width="1600"
     inkscape:window-height="837"
     inkscape:window-x="-8"
     inkscape:window-y="-8"
     inkscape:window-maximized="1"
     inkscape:snap-bbox="true"
     inkscape:bbox-paths="true"
     inkscape:bbox-nodes="true"
     inkscape:snap-bbox-edge-midpoints="true"
     inkscape:snap-bbox-midpoints="true"
     inkscape:snap-global="false">
    <inkscape:grid
       type="xygrid"
       id="grid2982"
       empspacing="5"
       visible="true"
       enabled="true"
       snapvisiblegridlinesonly="true"
       spacingx="16px"
       spacingy="16px" />
  </sodipodi:namedview>
  <metadata
     id="metadata2994">
    <rdf:RDF>
      <cc:Work
         rdf:about="">
        <dc:format>image/svg+xml</dc:format>
        <dc:type
           rdf:resource="http://purl.org/dc/dcmitype/StillImage" />
        <dc:title></dc:title>
      </cc:Work>
    </rdf:RDF>
  </metadata>
  <g
     inkscape:label="Layer 1"
     inkscape:groupmode="layer"
     id="layer1"
     transform="translate(0,-796.3598)">
    <rect
       style="fill:#332f2b;fill-opacity:1;fill-rule:nonzero;stroke:none"
       id="rect3164"
       width="1074.5522"
       height="341.52435"
       x="-22.907122"
       y="-48.039982"
       transform="translate(0,796.3598)" />
    <path
       style="fill:#eec469;fill-opacity:1;fill-rule:nonzero;stroke:none"
       d="m 172.60515,1173.7445 4.1411,15.4548 35.05073,7.1726 26.76852,-23.737 35.05073,7.1726 26.76852,-23.737 35.05073,7.1726 26.76853,-23.7371 35.05073,7.1726 26.76852,-23.737 35.05073,7.1727 26.76853,-23.7371 35.05073,7.1726 26.76852,-23.737 35.05073,7.1726 26.76852,-23.737 35.05073,7.1726 26.76852,-23.737 35.05074,7.1726 26.76852,-23.737 35.05073,7.1726 26.76852,-23.7371 35.05073,7.1726 26.76852,-23.737 35.05073,7.1726 26.76853,-23.737 35.05073,7.17261 26.76852,-23.73703 35.05076,7.17261 26.7685,-23.73703 35.0507,7.17261 26.7685,-23.73702 35.0508,7.1726 26.7685,-23.73702 35.0507,7.1726 26.7685,-23.73702 35.0508,7.1726 26.7685,-23.73702 35.0507,7.1726 26.7686,-23.73702 35.0507,7.1726 26.7685,-23.73702 -4.1411,-15.45481 -26.7685,23.73702 -35.0507,-7.1726 -26.7686,23.73702 -35.0507,-7.1726 -26.7685,23.73702 -35.0508,-7.17261 -26.7685,23.73703 -35.0507,-7.17261 -26.7685,23.73703 -35.0508,-7.17261 -26.7685,23.73703 -35.0507,-7.17261 -26.7685,23.73702 -35.05077,-7.1726 -26.76852,23.73702 -35.05073,-7.1726 -26.76852,23.73702 -35.05073,-7.1726 -26.76852,23.73699 -35.05073,-7.1726 -26.76853,23.737 -35.05073,-7.1726 -26.76852,23.7371 -35.05073,-7.1726 -26.76852,23.737 -35.05073,-7.1726 -26.76853,23.737 -35.05073,-7.1726 -26.76852,23.737 -35.05073,-7.1726 -26.76852,23.737 -35.05074,-7.1726 -26.76852,23.737 -35.05073,-7.1725 -26.76852,23.7369 -35.05073,-7.1726 -26.76852,23.7371 -35.05073,-7.1726 -26.76852,23.737 -35.05073,-7.1726 z"
       id="path2984"
       inkscape:connector-curvature="0" />
    <path
       style="fill:#5985aa;fill-opacity:1;fill-rule:nonzero;stroke:none"
       d="m -198.98025,980.11802 4.1411,15.45475 35.05073,7.17263 26.76852,-23.73698 35.050729,7.17255 26.76852,-23.73695 35.05073,7.1726 26.7685258,-23.7371 35.0507302,7.1726 26.768517,-23.73698 35.05073,7.1727 26.768528,-23.7371 35.05073,7.1726 26.76852,-23.737 35.05073,7.1726 26.76852,-23.737 35.05073,7.1726 26.76852,-23.737 35.05074,7.1726 26.76852,-23.73704 35.05073,7.17264 26.76852,-23.73714 35.05073,7.1726 26.76852,-23.737 35.05073,7.1726 26.76853,-23.737 35.05073,7.17261 26.76852,-23.73703 35.05076,7.17261 26.7685,-23.73703 35.0507,7.17261 26.7685,-23.73702 35.0508,7.1726 26.7685,-23.73702 35.05065,7.1726 26.7686,-23.73702 35.05085,7.1726 26.7684,-23.73702 35.0508,7.1726 26.7685,-23.73702 35.05081,7.1726 26.7684,-23.73702 -4.1411,-15.45481 -26.7685,23.73702 -35.05061,-7.1726 -26.7687,23.73702 -35.0507,-7.1726 -26.7685,23.73702 -35.05085,-7.17261 -26.7684,23.73703 -35.05075,-7.17261 -26.7685,23.73703 -35.0508,-7.17261 -26.7685,23.73703 -35.0507,-7.17261 -26.7685,23.73702 -35.05077,-7.1726 -26.76852,23.73702 -35.05073,-7.1726 -26.76852,23.73702 -35.05073,-7.1726 -26.76852,23.73699 -35.05073,-7.1726 -26.76853,23.737 -35.05073,-7.1726 -26.76852,23.73714 -35.05073,-7.17264 -26.76852,23.73704 -35.05073,-7.1726 -26.76853,23.737 -35.05073,-7.1726 -26.76852,23.737 -35.05073,-7.1726 -26.768518,23.737 -35.050737,-7.1726 -26.76852,23.737 -35.05073,-7.1725 -26.768516,23.73688 -35.05073,-7.1726 -26.768519,23.7371 -35.05073,-7.1726 -26.76852,23.73695 -35.05073,-7.17255 z"
       id="path2984-5"
       inkscape:connector-curvature="0" />
    <path
       style="fill:#ff005a;fill-opacity:1;fill-rule:nonzero;stroke:none"
       d="m -388.48463,950.96352 4.1411,15.4548 35.05073,7.1726 26.76852,-23.737 35.05073,7.1726 26.76852,-23.737 35.05073,7.1726 26.76853,-23.7371 35.05073,7.1726 26.76852,-23.737 35.05073,7.1727 26.768535,-23.7371 35.050731,7.1726 26.768519,-23.737 35.05073,7.1726 26.76852,-23.737 35.050727,7.1726 26.768518,-23.737 35.05074,7.1726 26.76852,-23.73704 35.05073,7.17264 26.76852,-23.73714 35.05073,7.1726 26.76852,-23.737 35.05073,7.1726 26.76853,-23.737 35.05073,7.17261 26.76852,-23.73703 35.05076,7.17261 26.7685,-23.73703 35.0507,7.17261 26.7685,-23.73702 35.0508,7.1726 26.7685,-23.73702 35.05065,7.1726 26.7686,-23.73702 35.0508,7.1726 26.7684,-23.73702 35.0508,7.1726 26.7685,-23.73702 35.0508,7.1726 26.7684,-23.73702 -4.1411,-15.45481 -26.7685,23.73702 -35.0506,-7.1726 -26.7687,23.73702 -35.0507,-7.1726 -26.7685,23.73702 -35.0508,-7.17261 -26.7684,23.73703 -35.05075,-7.17261 -26.7685,23.73703 -35.0508,-7.17261 -26.7685,23.73703 -35.0507,-7.17261 -26.7685,23.73702 -35.05077,-7.1726 -26.76852,23.73702 -35.05073,-7.1726 -26.76852,23.73702 -35.05073,-7.1726 -26.76852,23.73699 -35.05073,-7.1726 -26.76853,23.737 -35.05073,-7.1726 -26.76852,23.73714 -35.05073,-7.17264 -26.768518,23.73704 -35.050727,-7.1726 -26.76853,23.737 -35.05073,-7.1726 -26.768519,23.737 -35.050731,-7.1726 -26.768525,23.737 -35.05074,-7.1726 -26.76852,23.737 -35.05073,-7.1725 -26.76852,23.7369 -35.05073,-7.1726 -26.76852,23.7371 -35.05073,-7.1726 -26.76852,23.737 -35.05073,-7.1726 z"
       id="path2984-1"
       inkscape:connector-curvature="0" />
    <path
       style="fill:#ff005a;fill-opacity:1;fill-rule:nonzero;stroke:none"
       d="m -105.6858,1162.9586 4.1411,15.4548 35.050735,7.1726 26.768525,-23.737 35.0507296,7.1726 26.7685204,-23.737 35.05073,7.1726 26.76853,-23.7371 35.05073,7.1726 26.76851,-23.737 35.05073,7.1727 26.76853,-23.7371 35.05073,7.1726 26.76852,-23.737 35.05073,7.1726 26.76852,-23.737 35.05073,7.1726 26.76852,-23.7371 35.05074,7.1726 26.76852,-23.737 35.05073,7.1726 26.76852,-23.7371 35.05073,7.1726 26.76852,-23.73702 35.05073,7.17262 26.76853,-23.73702 35.05073,7.17261 26.76852,-23.73703 35.05076,7.17261 26.7685,-23.73703 35.0507,7.17261 26.7685,-23.73702 35.0508,7.1726 26.7685,-23.73702 35.05065,7.1726 26.7686,-23.73702 35.0508,7.1726 26.7684,-23.73702 35.0508,7.1726 26.7685,-23.73702 35.0508,7.1726 26.7684,-23.73702 -4.1411,-15.45481 -26.7685,23.73702 -35.0506,-7.1726 -26.7687,23.73702 -35.0507,-7.1726 -26.7685,23.73702 -35.0508,-7.17261 -26.7684,23.73703 -35.05075,-7.17261 -26.7685,23.73703 -35.0508,-7.17261 -26.7685,23.73703 -35.0507,-7.17261 -26.7685,23.73702 -35.05077,-7.1726 -26.76852,23.73702 -35.05073,-7.1726 -26.76852,23.73702 -35.05073,-7.1726 -26.76852,23.73701 -35.05073,-7.17262 -26.76853,23.73702 -35.05073,-7.1726 -26.76852,23.7371 -35.05073,-7.1726 -26.76852,23.7371 -35.05073,-7.1727 -26.76853,23.7371 -35.05073,-7.1726 -26.76852,23.737 -35.05073,-7.1726 -26.76852,23.737 -35.05074,-7.1726 -26.76851,23.737 -35.05073,-7.1725 -26.76852,23.7369 -35.05073,-7.1726 -26.7685204,23.7371 -35.0507296,-7.1726 -26.768525,23.737 -35.050735,-7.1726 z"
       id="path2984-7"
       inkscape:connector-curvature="0" />
    <path
       style="fill:#a260aa;fill-opacity:1;fill-rule:nonzero;stroke:none"
       d="m -127.78375,856.65971 -4.14105,15.45471 26.76852,23.73702 35.050657,-7.1725 26.76857,23.73694 35.0506797,-7.1725 26.7685203,23.73702 35.05077,-7.17267 26.76852,23.73702 35.050723,-7.17259 26.76847,23.73711 35.05078,-7.17267 26.76852,23.73702 35.05072,-7.17259 26.76852,23.73702 35.05072,-7.17258 26.76852,23.73703 35.05072,-7.1726 26.76853,23.737 35.05077,-7.1726 26.76847,23.7371 35.05082,-7.1728 26.76852,23.737 35.05072,-7.1726 26.76852,23.7371 35.05072,-7.1726 26.76851,23.737 35.05074,-7.1726 26.76857,23.7371 35.0507,-7.1727 26.7685,23.737 35.0507,-7.1726 26.7686,23.7371 35.0507,-7.1726 26.7684,23.7369 35.0508,-7.1725 26.7686,23.737 35.0506,-7.1726 26.76858,23.737 35.0507,-7.1726 26.7686,23.7371 35.0506,-7.1727 4.1411,-15.4548 -35.0507,7.1726 -26.7684,-23.7369 -35.0509,7.1725 -26.76848,-23.737 -35.0507,7.1726 -26.7685,-23.7371 -35.0507,7.1727 -26.7685,-23.737 -35.0507,7.1726 -26.7686,-23.7371 -35.0507,7.1726 -26.7685,-23.737 -35.0507,7.1726 -26.76857,-23.737 -35.05073,7.1726 -26.76853,-23.737 -35.0507,7.1726 -26.76855,-23.737 -35.05069,7.1725 -26.76853,-23.737 -35.05072,7.1726 -26.76853,-23.737 -35.05082,7.1727 -26.76847,-23.73708 -35.05077,7.17267 -26.76852,-23.73702 -35.05073,7.17258 -26.76852,-23.73702 -35.05072,7.17258 -26.76852,-23.73701 -35.05072,7.17258 -26.76853,-23.73702 -35.050723,7.17258 -26.76857,-23.73693 -35.05066,7.1725 -26.7685203,-23.73702 -35.0507797,7.17267 -26.76852,-23.73702 -35.050657,7.1725 -26.76857,-23.73693 z"
       id="path2984-5-1-3"
       inkscape:connector-curvature="0" />
    <path
       style="fill:#eec469;fill-opacity:1;fill-rule:nonzero;stroke:none"
       d="m -53.207657,1050.7136 4.1411,15.4548 35.05073,7.1726 26.76852,-23.737 35.050735,7.1726 26.76852,-23.737 35.050732,7.1726 26.76853,-23.7371 35.05073,7.1726 26.76852,-23.73698 35.05073,7.17268 26.76853,-23.73708 35.05073,7.1726 26.76852,-23.737 35.05073,7.1726 26.76852,-23.737 35.05073,7.1726 26.76852,-23.737 35.05074,7.1726 26.76852,-23.73704 35.05073,7.17264 26.76852,-23.73714 35.05073,7.1726 26.76852,-23.737 35.05073,7.1726 26.76853,-23.737 35.05073,7.17261 26.76852,-23.73703 35.05076,7.17261 26.7685,-23.73703 35.0507,7.17261 26.7685,-23.73702 35.0508,7.1726 26.76846,-23.73702 35.0507,7.1726 26.76864,-23.73702 35.0508,7.1726 26.7684,-23.73702 35.0508,7.1726 26.7685,-23.73702 35.0508,7.1726 26.7684,-23.73702 -4.1411,-15.45481 -26.7685,23.73702 -35.0506,-7.1726 -26.7687,23.73702 -35.0507,-7.1726 -26.7685,23.73702 -35.05084,-7.17261 -26.7684,23.73703 -35.0508,-7.17261 -26.76846,23.73703 -35.0508,-7.17261 -26.7685,23.73703 -35.0507,-7.17261 -26.7685,23.73702 -35.05077,-7.1726 -26.76852,23.73702 -35.05073,-7.1726 -26.76852,23.73702 -35.05073,-7.1726 -26.76852,23.73699 -35.05073,-7.1726 -26.76853,23.737 -35.05073,-7.1726 -26.76852,23.73714 -35.05073,-7.17264 -26.76852,23.73704 -35.05073,-7.1726 -26.76853,23.737 -35.05073,-7.1726 -26.76852,23.737 -35.05073,-7.1726 -26.76852,23.737 -35.05074,-7.1726 -26.76852,23.73698 -35.05073,-7.1725 -26.76852,23.7369 -35.050732,-7.1726 -26.76852,23.7371 -35.0507347,-7.1726 -26.7685203,23.737 -35.05073,-7.1726 z"
       id="path2984-11"
       inkscape:connector-curvature="0" />
    <path
       style="fill:#5985aa;fill-opacity:1;fill-rule:nonzero;stroke:none"
       d="m -137.44421,807.16113 -4.14105,15.45471 26.76852,23.73702 35.050663,-7.1725 26.768575,23.73694 35.050675,-7.1725 26.7685204,23.73702 35.0507696,-7.17267 26.76852,23.73702 35.050717,-7.17259 26.76847,23.73711 35.05078,-7.17267 26.76852,23.73702 35.05072,-7.17259 26.76852,23.73702 35.05072,-7.17258 26.76852,23.73702 35.05072,-7.17259 26.76853,23.737 35.05077,-7.1726 26.76847,23.7371 35.05082,-7.1728 26.76852,23.73698 35.05072,-7.1726 26.76852,23.7371 35.05072,-7.1726 26.76851,23.737 35.05074,-7.1726 26.76854,23.7371 35.05072,-7.1727 26.76849,23.737 35.05071,-7.1726 26.76858,23.7371 35.05071,-7.1726 26.76839,23.7369 35.0508,-7.1725 26.7686,23.737 35.0506,-7.1726 26.7686,23.737 35.05067,-7.1726 26.7686,23.7371 35.0506,-7.1727 4.1411,-15.4548 -35.0507,7.1726 -26.7684,-23.7369 -35.0509,7.1725 -26.76847,-23.737 -35.0507,7.1726 -26.7685,-23.7371 -35.0507,7.1727 -26.76847,-23.737 -35.05072,7.1726 -26.76858,-23.7371 -35.05071,7.1726 -26.7685,-23.737 -35.05071,7.1726 -26.76855,-23.737 -35.05073,7.1726 -26.76853,-23.737 -35.0507,7.1726 -26.76855,-23.73698 -35.05069,7.1725 -26.76853,-23.737 -35.05072,7.1726 -26.76853,-23.73704 -35.05082,7.17274 -26.76847,-23.73708 -35.05077,7.17267 -26.76852,-23.73702 -35.05073,7.17258 -26.76852,-23.73702 -35.05072,7.17258 -26.76852,-23.73701 -35.05072,7.17258 -26.76853,-23.73702 -35.050717,7.17258 -26.76857,-23.73693 -35.05066,7.1725 -26.76852,-23.73702 -35.050775,7.17267 -26.768523,-23.73702 -35.050665,7.1725 -26.76857,-23.73693 z"
       id="path2984-5-1"
       inkscape:connector-curvature="0" />
    <path
       style="fill:#59cfaa;fill-opacity:1;fill-rule:nonzero;stroke:none"
       d="m 982.40388,739.97025 -4.14107,-15.4549 -35.05073,-7.1726 -26.76852,23.7371 -35.05073,-7.1726 -26.76852,23.737 -35.05073,-7.1726 -26.76853,23.7371 -35.05072,-7.1726 -26.76852,23.737 -35.05073,-7.1727 -26.76854,23.7371 -35.05073,-7.1726 -26.76852,23.73696 -35.05073,-7.1726 -26.76852,23.737 -35.05073,-7.1726 -26.76852,23.737 -35.05074,-7.1726 -26.76852,23.73704 -35.05073,-7.17264 -26.76852,23.73714 -35.05073,-7.1726 -26.76852,23.737 -35.05073,-7.1726 -26.76853,23.737 -35.05073,-7.17261 -26.76852,23.73703 -35.05076,-7.17261 -26.7685,23.73703 -35.050701,-7.17261 -26.7685,23.73702 -35.0508,-7.1726 -26.7685,23.73698 -35.05065,-7.1726 -26.7686,23.73702 -35.050799,-7.17262 -26.7684,23.73712 -35.0508,-7.1727 -26.7685,23.7371 -35.0508,-7.1726 -26.76848,23.737 4.14118,15.4548 26.7685,-23.737 35.0506,7.1726 26.7687,-23.737 35.0507,7.1726 26.7685,-23.7371 35.050799,7.1726 26.7684,-23.73702 35.0507504,7.17262 26.7684996,-23.73702 35.0508,7.1726 26.768497,-23.73699 35.050704,7.17261 26.7685,-23.73702 35.05077,7.1726 26.76852,-23.73702 35.05073,7.1726 26.76852,-23.73702 35.05073,7.1726 26.76852,-23.73699 35.05073,7.1726 26.76853,-23.737 35.05073,7.1726 26.76852,-23.73714 35.05073,7.17264 26.76852,-23.73704 35.05073,7.1726 26.76853,-23.737 35.05073,7.1726 26.76852,-23.737 35.05074,7.1726 26.76852,-23.73696 35.05073,7.1726 26.76853,-23.737 35.05073,7.1725 26.76851,-23.7369 35.05073,7.1726 26.76852,-23.7371 35.05073,7.1726 26.76852,-23.737 35.0507,7.1726 z"
       id="path2984-52"
       inkscape:connector-curvature="0" />
    <path
       style="fill:#ff005a;fill-opacity:1;fill-rule:nonzero;stroke:none"
       d="m 157.51404,712.96958 -4.14105,15.45471 26.76852,23.73702 35.05066,-7.1725 26.76857,23.73694 35.05068,-7.1725 26.76852,23.73702 35.05077,-7.17267 26.76852,23.73702 35.05072,-7.17259 26.76847,23.73711 35.05078,-7.17267 26.76852,23.73702 35.05072,-7.17259 26.76852,23.73702 35.05072,-7.17258 26.76852,23.73702 35.05072,-7.17259 26.76853,23.737 35.05077,-7.1726 26.76847,23.73715 35.05084,-7.17285 26.7685,23.73705 35.0507,-7.1727 26.7685,23.7372 35.0508,-7.1726 26.7685,23.737 35.0507,-7.1726 26.7685,23.7371 35.05077,-7.1727 26.7685,23.737 35.0507,-7.1726 26.7685,23.73708 35.0508,-7.17258 26.7684,23.73688 35.0508,-7.1725 26.7686,23.737 35.0506,-7.1726 26.7686,23.737 35.0507,-7.1726 26.7686,23.7371 35.0506,-7.1727 4.1411,-15.4548 -35.0507,7.1726 -26.7684,-23.7369 -35.0509,7.1725 -26.7685,-23.737 -35.0507,7.1726 -26.7685,-23.73708 -35.0507,7.17268 -26.7685,-23.73698 -35.0507,7.1726 -26.7686,-23.7371 -35.0507,7.1726 -26.7685,-23.737 -35.05067,7.1726 -26.7686,-23.737 -35.0507,7.1726 -26.7686,-23.7371 -35.0507,7.1727 -26.7685,-23.73705 -35.0507,7.17255 -26.7685,-23.73705 -35.0507,7.1726 -26.76857,-23.73704 -35.05082,7.17274 -26.76847,-23.73708 -35.05077,7.17267 -26.76852,-23.73702 -35.05073,7.17258 -26.76852,-23.73702 -35.05072,7.17258 -26.76852,-23.73701 -35.05072,7.17258 -26.76853,-23.73702 -35.05072,7.17258 -26.76857,-23.73693 -35.05066,7.1725 -26.76852,-23.73702 -35.05078,7.17267 -26.76852,-23.73702 -35.05066,7.1725 -26.76857,-23.73693 z"
       id="path2984-5-1-2"
       inkscape:connector-curvature="0" />
    <path
       style="fill:#59cfaa;fill-opacity:1;fill-rule:nonzero;stroke:none"
       d="m -69.450886,1104.6495 4.1411,15.4548 35.050727,7.1726 26.7685203,-23.737 35.0507307,7.1726 26.768519,-23.737 35.05073,7.1726 26.768529,-23.7371 35.05073,7.1726 26.76852,-23.737 35.05073,7.1727 26.76853,-23.7371 35.05073,7.1726 26.76852,-23.737 35.05073,7.1726 26.76852,-23.737 35.05073,7.1726 26.76852,-23.73702 35.05074,7.1726 26.76852,-23.73703 35.05073,7.17263 26.76852,-23.73713 35.05073,7.1726 26.76852,-23.737 35.05073,7.1726 26.76853,-23.737 35.05073,7.17261 26.76852,-23.73703 35.05076,7.17261 26.7685,-23.73703 35.0507,7.17261 26.7685,-23.73702 35.0508,7.1726 26.7685,-23.73702 35.05065,7.1726 26.7686,-23.73702 35.05079,7.1726 26.7684,-23.73702 35.0508,7.1726 26.7685,-23.73702 35.0508,7.1726 26.7684,-23.73702 -4.1411,-15.45481 -26.7685,23.73702 -35.0506,-7.1726 -26.7687,23.73702 -35.0507,-7.1726 -26.7685,23.73702 -35.05079,-7.17261 -26.7684,23.73703 -35.05075,-7.17261 -26.7685,23.73703 -35.0508,-7.17261 -26.7685,23.73703 -35.0507,-7.17261 -26.7685,23.73702 -35.05077,-7.1726 -26.76852,23.73702 -35.05073,-7.1726 -26.76852,23.73702 -35.05073,-7.1726 -26.76852,23.73699 -35.05073,-7.1726 -26.76853,23.737 -35.05073,-7.1726 -26.76852,23.73713 -35.05073,-7.17263 -26.76852,23.73703 -35.05073,-7.1726 -26.76853,23.73702 -35.05073,-7.1726 -26.76852,23.737 -35.05073,-7.1726 -26.76852,23.737 -35.05074,-7.1726 -26.76852,23.737 -35.05073,-7.1725 -26.768519,23.7369 -35.05073,-7.1726 -26.76852,23.7371 -35.0507297,-7.1726 -26.7685203,23.737 -35.050727,-7.1726 z"
       id="path2984-76"
       inkscape:connector-curvature="0" />
    <path
       style="fill:#a260aa;fill-opacity:1;fill-rule:nonzero;stroke:none"
       d="m -617.89128,939.57391 4.1411,15.45469 35.05073,7.17261 26.7685,-23.7369 35.05073,7.17251 26.76854,-23.73691 35.05073,7.1726 26.76852,-23.7371 35.05073,7.17261 26.76852,-23.73701 35.05073,7.17271 26.76853,-23.73711 35.05073,7.1726 26.76852,-23.737 35.05073,7.1726 26.76852,-23.737 35.05073,7.17262 26.76852,-23.73702 35.050725,7.17258 26.768558,-23.73704 35.050725,7.1727 26.7685004,-23.73724 35.0507226,7.1726 26.768509,-23.73702 35.05077,7.17268 26.76852,-23.73702 35.05071,7.17259 26.76853,-23.73702 35.05081,7.17264 26.76845,-23.73709 35.0507,7.1726 26.76849,-23.73701 35.05084,7.17264 26.7685,-23.73701 35.05054,7.17257 26.76864,-23.73697 35.05079,7.17255 26.76841,-23.73696 35.05078,7.17255 26.7685,-23.737 35.05084,7.17263 26.76836,-23.73704 -4.1411,-15.4548 -26.7685,23.737 -35.05057,-7.17256 -26.76872,23.73702 -35.0507,-7.1726 -26.76849,23.73701 -35.05075,-7.17268 -26.76845,23.73709 -35.05068,-7.17261 -26.7685,23.73701 -35.05084,-7.17264 -26.7685,23.73701 -35.0507,-7.1726 -26.76849,23.73701 -35.05076,-7.17256 -26.76853,23.73702 -35.05073,-7.17259 -26.76849,23.73701 -35.050749,-7.17258 -26.768538,23.73691 -35.0507268,-7.17258 -26.7685142,23.73702 -35.050727,-7.17258 -26.768551,23.73715 -35.050714,-7.17268 -26.76852,23.7371 -35.05073,-7.1726 -26.76854,23.737 -35.05072,-7.17261 -26.76853,23.737 -35.05072,-7.17259 -26.76852,23.73699 -35.05074,-7.17259 -26.76853,23.73699 -35.05072,-7.1725 -26.76851,23.7369 -35.05073,-7.1726 -26.76854,23.73711 -35.05073,-7.1726 -26.7685,23.73689 -35.05073,-7.1725 z"
       id="path2984-5-1-3-2"
       inkscape:connector-curvature="0" />
  </g>
</svg>
