<?xml version="1.0" encoding="UTF-8" standalone="no"?>
<!-- Created with Inkscape (http://www.inkscape.org/) -->

<svg
   xmlns:dc="http://purl.org/dc/elements/1.1/"
   xmlns:cc="http://creativecommons.org/ns#"
   xmlns:rdf="http://www.w3.org/1999/02/22-rdf-syntax-ns#"
   xmlns:svg="http://www.w3.org/2000/svg"
   xmlns="http://www.w3.org/2000/svg"
   xmlns:sodipodi="http://sodipodi.sourceforge.net/DTD/sodipodi-0.dtd"
   xmlns:inkscape="http://www.inkscape.org/namespaces/inkscape"
   width="500"
   height="500"
   id="svg2"
   version="1.1"
   inkscape:version="0.48.5 r10040"
   sodipodi:docname="Logo.svg"
   inkscape:export-filename="C:\Users\RPM\Desktop\Logo.png"
   inkscape:export-xdpi="270"
   inkscape:export-ydpi="270">
  <defs
     id="defs4" />
  <sodipodi:namedview
     id="base"
     pagecolor="#ffffff"
     bordercolor="#666666"
     borderopacity="1.0"
     inkscape:pageopacity="0.0"
     inkscape:pageshadow="2"
     inkscape:zoom="1.979899"
     inkscape:cx="422.07832"
     inkscape:cy="452.58127"
     inkscape:document-units="px"
     inkscape:current-layer="layer1"
     showgrid="true"
     inkscape:window-width="1920"
     inkscape:window-height="1018"
     inkscape:window-x="-8"
     inkscape:window-y="-8"
     inkscape:window-maximized="1"
     inkscape:snap-grids="true"
     inkscape:snap-to-guides="true">
    <inkscape:grid
       type="xygrid"
       id="grid2985"
       empspacing="5"
       visible="true"
       enabled="true"
       snapvisiblegridlinesonly="true"
       color="#000000"
       opacity="0.07058824"
       empcolor="#000000"
       empopacity="0.16078431"
       spacingx="10px"
       spacingy="10px"
       dotted="false" />
  </sodipodi:namedview>
  <metadata
     id="metadata7">
    <rdf:RDF>
      <cc:Work
         rdf:about="">
        <dc:format>image/svg+xml</dc:format>
        <dc:type
           rdf:resource="http://purl.org/dc/dcmitype/StillImage" />
        <dc:title></dc:title>
      </cc:Work>
    </rdf:RDF>
  </metadata>
  <g
     inkscape:label="Layer 1"
     inkscape:groupmode="layer"
     id="layer1"
     transform="translate(0,-552.36218)">
    <path
       style="fill:#eea740;fill-opacity:1;fill-rule:nonzero;stroke:none"
       d="m 30,682.36218 20,20 110,-110 -20,-20 z"
       id="path2983"
       inkscape:connector-curvature="0" />
    <path
       style="fill:#362648;fill-opacity:1;fill-rule:nonzero;stroke:none"
       d="m 30,652.36218 20,0 50,-50 0,100 10,-10 0,-120 z"
       id="path2985"
       inkscape:connector-curvature="0"
       sodipodi:nodetypes="ccccccc" />
    <path
       style="fill:#362648;fill-opacity:1;fill-rule:nonzero;stroke:none"
       d="m 70,622.36218 90,0 -10,10 -90,0 z"
       id="path2989"
       inkscape:connector-curvature="0" />
    <path
       style="fill:#7eae53;fill-opacity:1;fill-rule:nonzero;stroke:none"
       d="m 20,642.36218 20,0 50,-50 0,100 10,-10 0,-120 z"
       id="path2985-1"
       inkscape:connector-curvature="0"
       sodipodi:nodetypes="ccccccc" />
    <path
       style="fill:#7eae53;fill-opacity:1;fill-rule:nonzero;stroke:none"
       d="m 60,612.36218 90,0 -10,10 -90,0 z"
       id="path2989-7"
       inkscape:connector-curvature="0" />
    <path
       style="fill:#d9311e;fill-opacity:1;fill-rule:nonzero;stroke:none"
       d="m 30,842.36218 20,20 110,-110 -20,-20 z"
       id="path2983-4"
       inkscape:connector-curvature="0" />
    <path
       style="fill:#000000;fill-opacity:1;fill-rule:nonzero;stroke:none"
       d="m 30,812.36218 20,0 50,-50 0,100 10,-10 0,-120 z"
       id="path2985-0"
       inkscape:connector-curvature="0"
       sodipodi:nodetypes="ccccccc" />
    <path
       style="fill:#000000;fill-opacity:1;fill-rule:nonzero;stroke:none"
       d="m 70,782.36218 90,0 -10,10 -90,0 z"
       id="path2989-9"
       inkscape:connector-curvature="0" />
    <path
       style="fill:#373746;fill-opacity:1;fill-rule:nonzero;stroke:none"
       d="m 210,682.36218 20,20 110,-110 -20,-20 z"
       id="path2983-8"
       inkscape:connector-curvature="0" />
    <path
       style="fill:#682128;fill-opacity:1;fill-rule:nonzero;stroke:none"
       d="m 210,652.36218 20,0 50,-50 0,100 10,-10 0,-120 z"
       id="path2985-2"
       inkscape:connector-curvature="0"
       sodipodi:nodetypes="ccccccc" />
    <path
       style="fill:#682128;fill-opacity:1;fill-rule:nonzero;stroke:none"
       d="m 250,622.36218 90,0 -10,10 -90,0 z"
       id="path2989-4"
       inkscape:connector-curvature="0" />
    <path
       style="fill:#eea740;fill-opacity:1;fill-rule:nonzero;stroke:none"
       d="m 200,642.36218 20,0 50,-50 0,100 10,-10 0,-120 z"
       id="path2985-1-5"
       inkscape:connector-curvature="0"
       sodipodi:nodetypes="ccccccc" />
    <path
       style="fill:#eea740;fill-opacity:1;fill-rule:nonzero;stroke:none"
       d="m 240,612.36218 90,0 -10,10 -90,0 z"
       id="path2989-7-5"
       inkscape:connector-curvature="0" />
    <path
       style="fill:#7eae53;fill-opacity:1;fill-rule:nonzero;stroke:none"
       d="m 200,842.36218 20,20 110,-110 -20,-20 z"
       id="path2983-4-1"
       inkscape:connector-curvature="0" />
    <path
       style="fill:#3e608c;fill-opacity:1;fill-rule:nonzero;stroke:none"
       d="m 200,812.36218 20,0 50,-50 0,100 10,-10 0,-120 z"
       id="path2985-0-7"
       inkscape:connector-curvature="0"
       sodipodi:nodetypes="ccccccc" />
    <path
       style="fill:#3e608c;fill-opacity:1;fill-rule:nonzero;stroke:none"
       d="m 240,782.36218 90,0 -10,10 -90,0 z"
       id="path2989-9-1"
       inkscape:connector-curvature="0" />
    <path
       style="fill:#ff8011;fill-opacity:1;fill-rule:nonzero;stroke:none"
       d="m 370,682.36218 20,20 110,-110 -20,-20 z"
       id="path2983-1"
       inkscape:connector-curvature="0"
       inkscape:export-filename="C:\Users\RPM\Desktop\Projects\GithubWebsite\jettison\images\ateshlogo.png"
       inkscape:export-xdpi="270"
       inkscape:export-ydpi="270" />
    <path
       style="fill:#366136;fill-opacity:1;fill-rule:nonzero;stroke:none"
       d="m 370,652.36218 20,0 50,-50 0,100 10,-10 0,-120 z"
       id="path2985-7"
       inkscape:connector-curvature="0"
       sodipodi:nodetypes="ccccccc"
       inkscape:export-filename="C:\Users\RPM\Desktop\Projects\GithubWebsite\jettison\images\ateshlogo.png"
       inkscape:export-xdpi="270"
       inkscape:export-ydpi="270" />
    <path
       style="fill:#366136;fill-opacity:1;fill-rule:nonzero;stroke:none"
       d="m 410,622.36218 90,0 -10,10 -90,0 z"
       id="path2989-40"
       inkscape:connector-curvature="0"
       inkscape:export-filename="C:\Users\RPM\Desktop\Projects\GithubWebsite\jettison\images\ateshlogo.png"
       inkscape:export-xdpi="270"
       inkscape:export-ydpi="270" />
    <path
       style="fill:#7eae53;fill-opacity:1;fill-rule:nonzero;stroke:none"
       d="m 360,642.36218 20,0 50,-50 0,100 10,-10 0,-120 z"
       id="path2985-1-9"
       inkscape:connector-curvature="0"
       sodipodi:nodetypes="ccccccc"
       inkscape:export-filename="C:\Users\RPM\Desktop\Projects\GithubWebsite\jettison\images\ateshlogo.png"
       inkscape:export-xdpi="270"
       inkscape:export-ydpi="270" />
    <path
       style="fill:#7eae53;fill-opacity:1;fill-rule:nonzero;stroke:none"
       d="m 400,612.36218 90,0 -10,10 -90,0 z"
       id="path2989-7-4"
       inkscape:connector-curvature="0"
       inkscape:export-filename="C:\Users\RPM\Desktop\Projects\GithubWebsite\jettison\images\ateshlogo.png"
       inkscape:export-xdpi="270"
       inkscape:export-ydpi="270" />
  </g>
</svg>
