<?xml version="1.0" encoding="UTF-8" standalone="no"?>
<!-- Created with Inkscape (http://www.inkscape.org/) -->

<svg
   xmlns:dc="http://purl.org/dc/elements/1.1/"
   xmlns:cc="http://creativecommons.org/ns#"
   xmlns:rdf="http://www.w3.org/1999/02/22-rdf-syntax-ns#"
   xmlns:svg="http://www.w3.org/2000/svg"
   xmlns="http://www.w3.org/2000/svg"
   xmlns:sodipodi="http://sodipodi.sourceforge.net/DTD/sodipodi-0.dtd"
   xmlns:inkscape="http://www.inkscape.org/namespaces/inkscape"
   width="256"
   height="256"
   id="svg2989"
   version="1.1"
   inkscape:version="0.48.4 r9939"
   sodipodi:docname="Avatar.svg"
   inkscape:export-filename="C:\Users\Anthony\Desktop\Projects\GithubWebsite\press\social\Avatar.png"
   inkscape:export-xdpi="360"
   inkscape:export-ydpi="360">
  <defs
     id="defs2991" />
  <sodipodi:namedview
     id="base"
     pagecolor="#ffffff"
     bordercolor="#666666"
     borderopacity="1.0"
     inkscape:pageopacity="0.0"
     inkscape:pageshadow="2"
     inkscape:zoom="1.882384"
     inkscape:cx="162.41941"
     inkscape:cy="136.75667"
     inkscape:document-units="px"
     inkscape:current-layer="layer1"
     showgrid="false"
     units="px"
     inkscape:window-width="1600"
     inkscape:window-height="837"
     inkscape:window-x="-8"
     inkscape:window-y="-8"
     inkscape:window-maximized="1"
     inkscape:snap-global="false"
     inkscape:snap-bbox="true"
     inkscape:bbox-paths="true"
     inkscape:bbox-nodes="true"
     inkscape:snap-bbox-edge-midpoints="true"
     inkscape:snap-bbox-midpoints="true" />
  <metadata
     id="metadata2994">
    <rdf:RDF>
      <cc:Work
         rdf:about="">
        <dc:format>image/svg+xml</dc:format>
        <dc:type
           rdf:resource="http://purl.org/dc/dcmitype/StillImage" />
        <dc:title />
      </cc:Work>
    </rdf:RDF>
  </metadata>
  <g
     inkscape:label="Layer 1"
     inkscape:groupmode="layer"
     id="layer1"
     transform="translate(0,-796.3598)">
    <rect
       style="fill:#ffecd7;fill-opacity:1;fill-rule:nonzero;stroke:none"
       id="rect3816"
       width="269.87054"
       height="268.80807"
       x="-5.8436537"
       y="-4.3082051"
       transform="translate(0,796.3598)" />
    <path
       style="fill:#d2aa69;fill-opacity:1;fill-rule:nonzero;stroke:none"
       d="m 139.22132,778.79699 c -0.11462,-0.006 -0.20151,0.0134 -0.3125,0.0312 -3.55181,0.57063 -4.96193,13.7944 -7.5,16.34375 -2.53807,2.54935 -15.75763,4.00819 -16.3125,7.5625 -0.55487,3.5543 11.57848,8.98586 13.21875,12.1875 1.64027,3.20164 -1.05263,16.21769 2.15625,17.84375 3.20888,1.62605 12.13569,-8.24187 15.6875,-8.8125 3.55181,-0.57063 15.08693,6.0181 17.625,3.46875 2.53807,-2.54935 -4.08612,-14.0707 -3.53125,-17.625 0.55487,-3.55431 10.39027,-12.51711 8.75,-15.71875 -1.64027,-3.20164 -14.66612,-0.43645 -17.875,-2.0625 -3.1086,-1.57524 -8.35298,-13.02459 -11.90625,-13.21875 z m -95.625001,33.9375 c -0.23237,-0.0132 -0.46238,-0.004 -0.6875,0.0312 -7.20397,1.14099 -10.12378,27.96753 -15.28125,33.125 -5.15747,5.15747 -31.9840008,8.04603 -33.1250007,15.25 -1.141,7.20396 23.5012007,18.25121 26.8125007,24.75 3.3113,6.49879 -2.24879,32.90745 4.25,36.21875 6.49879,3.3113 24.63978,-16.67151 31.84375,-17.8125 7.20397,-1.141 30.59253,12.28247 35.75,7.125 5.15747,-5.15747 -8.266,-28.57729 -7.125,-35.78125 1.141,-7.20397 21.155051,-25.31371 17.843741,-31.8125 -3.31129,-6.49879 -29.719951,-0.96995 -36.218741,-4.28125 -6.29571,-3.20782 -16.859,-26.40286 -24.0625,-26.8125 z m 142.968751,35.78125 c -3.05057,0.48721 -8.88918,6.13111 -11.3125,6.40625 -2.76951,0.31444 -11.50675,-5.19477 -13.5625,-3.3125 -2.05575,1.88227 2.68177,11.05012 2.125,13.78125 -0.55677,2.73113 -8.49863,9.30696 -7.34375,11.84375 1.15488,2.53679 11.32459,0.87651 13.75,2.25 2.42541,1.37348 6.23049,10.93944 9,10.625 2.76951,-0.31445 4.3505,-10.49273 6.40625,-12.375 2.05575,-1.88227 12.31823,-2.55012 12.875,-5.28125 0.55677,-2.73113 -8.62637,-7.33821 -9.78125,-9.875 -1.15488,-2.53679 1.39416,-12.53277 -1.03125,-13.90625 -0.30318,-0.17169 -0.6892,-0.22585 -1.125,-0.15625 z m 52.375,34.4375 c -0.11365,0.0161 -0.23835,0.0547 -0.34375,0.0937 -3.37293,1.25071 -2.16264,14.50559 -4.15625,17.5 -1.99361,2.99441 -14.67846,6.9994 -14.53125,10.59375 0.14721,3.59434 13.11196,6.55364 15.34375,9.375 2.23179,2.82136 2.12984,16.12304 5.59375,17.09375 3.46391,0.97071 10.28332,-10.46804 13.65625,-11.71875 3.37293,-1.25071 15.97514,2.96316 17.96875,-0.0312 1.99361,-2.99441 -6.75904,-12.99941 -6.90625,-16.59375 -0.14721,-3.59435 7.76304,-14.30364 5.53125,-17.125 -2.23179,-2.82136 -14.44234,2.43946 -17.90625,1.46875 -3.35567,-0.94038 -10.72684,-11.15708 -14.25,-10.65625 z m -250.250001,31.6875 c -2.7393,0.31415 -6.26211,9.38818 -8.59375,10.75 -2.40685,1.40575 -12.59785,-0.11449 -13.71875,2.4375 -1.1209,2.55199 6.90681,8.9953 7.5,11.71875 0.59319,2.72345 -4.0182,11.95785 -1.9375,13.8125 2.0807,1.85465 10.72654,-3.77744 13.5,-3.5 2.77346,0.27744 10.1243992,7.4995 12.5312492,6.09375 2.40685,-1.40575 -0.27715,-11.35426 0.84375,-13.90625 1.1209,-2.55199 10.24944,-7.3078 9.65625,-10.03125 -0.59319,-2.72345 -10.88805,-3.2391 -12.96875,-5.09375 -2.0806999,-1.85465 -3.7577899,-12.00382 -6.5312492,-12.28125 -0.08667,-0.009 -0.19289,-0.0101 -0.28125,0 z m 241.531251,35.125 c -7.38292,-0.3199 -23.2165,17.77223 -29.9375,19.03125 -7.16906,1.34295 -30.95822,-11.39409 -35.96875,-6.09375 -5.01053,5.30034 9.06314,28.29807 8.125,35.53125 -0.93814,7.23321 -20.39884,25.90931 -16.90625,32.31251 3.49259,6.4032 29.72324,0.1226 36.3125,3.25 6.58926,3.1274 18.33094,27.4367 25.5,26.0938 7.16906,-1.343 9.30197,-28.2309 14.3125,-33.5313 5.01053,-5.3003 31.74936,-8.9543 32.6875,-16.1875 0.93814,-7.2332 -23.97616,-17.59682 -27.46875,-24.00001 -3.49259,-6.40319 1.27676,-32.96635 -5.3125,-36.09375 -0.41183,-0.19546 -0.85156,-0.29117 -1.34375,-0.3125 z m -189.218751,13.5625 c -4.17789,0.013 -11.01005,13.09084 -14.75,14.75 -3.8606,1.71268 -18.9771508,-2.27979 -21.0937507,1.375 -2.1166001,3.65479 8.9078807,14.73661 9.3437507,18.9375 0.43587,4.20086 -8.0718508,17.32636 -5.2500008,20.46876 2.8218508,3.1424 16.7762708,-3.9148 20.9062508,-3.0312 4.12998,0.8836 13.98315,13.0252 17.84375,11.3125 3.8606,-1.7127 1.47715,-17.1578 3.59375,-20.8126 2.1166,-3.6547 16.68587,-9.26782 16.25,-13.46871 -0.43587,-4.20089 -15.8344,-6.7326 -18.65625,-9.875 -2.82185,-3.1424 -3.68252,-18.74138 -7.8125,-19.625 -0.12906,-0.0276 -0.24023,-0.0317 -0.375,-0.0312 z m 35.59375,70.56256 c -0.24274,-0.011 -0.47669,0.047 -0.6875,0.125 -3.37293,1.2507 -2.19389,14.5056 -4.1875,17.5 -1.99361,2.9944 -14.67846,6.9681 -14.53125,10.5625 0.14721,3.5943 13.14321,6.5536 15.375,9.375 2.23179,2.8213 2.09859,16.123 5.5625,17.0937 3.46391,0.9707 10.28332,-10.4368 13.65625,-11.6875 3.37293,-1.2507 16.006391,2.9632 18.000001,-0.031 1.99361,-2.9944 -6.75905,-12.9994 -6.90626,-16.5938 -0.14721,-3.5943 7.76305,-14.3036 5.53126,-17.125 -2.23179,-2.8213 -14.473591,2.4082 -17.937501,1.4375 -3.24742,-0.91 -10.2339,-10.4932 -13.875,-10.6562 z m 83.937501,20.9687 c -0.18687,0.023 -0.38022,0.069 -0.53125,0.1563 -2.41648,1.3891 0.20097,11.362 -0.9375,13.9062 -1.13847,2.5442 -10.29315,7.2413 -9.71875,9.9688 0.5744,2.7274 10.86963,3.3185 12.9375,5.1875 2.06787,1.8689 3.66602,12.0472 6.4375,12.3437 2.77148,0.2966 6.52102,-9.3296 8.9375,-10.7187 2.41648,-1.3892 12.61153,0.2317 13.75,-2.3125 1.13847,-2.5442 -6.8631,-9.0851 -7.4375,-11.8125 -0.5744,-2.7275 4.09912,-11.9123 2.03125,-13.7813 -2.06787,-1.8689 -10.72852,3.7028 -13.5,3.4063 -2.59827,-0.278 -9.16568,-6.6871 -11.96875,-6.3438 z"
       id="path3818-0-9-8"
       inkscape:connector-curvature="0" />
    <path
       sodipodi:type="star"
       style="fill:#eec469;fill-opacity:1;fill-rule:nonzero;stroke:none"
       id="path3818-0-9"
       sodipodi:sides="5"
       sodipodi:cx="42.878757"
       sodipodi:cy="24.530605"
       sodipodi:r1="33.310276"
       sodipodi:r2="19.719683"
       sodipodi:arg1="0.78539816"
       sodipodi:arg2="1.4137167"
       inkscape:flatsided="false"
       inkscape:rounded="0.2"
       inkscape:randomized="0"
       d="M 66.43268,48.084527 C 63.481051,51.036156 50.086437,43.354512 45.963595,44.007506 41.840754,44.6605 31.475477,56.105341 27.756209,54.210279 24.03694,52.315217 27.203454,37.202423 25.308391,33.483154 23.413329,29.763885 9.3255923,23.442571 9.9785862,19.31973 10.63158,15.196889 25.983208,13.538312 28.934836,10.586684 31.886465,7.6350555 33.545041,-7.7165721 37.667882,-8.3695659 41.790723,-9.0225598 48.112037,5.0651774 51.831306,6.9602394 55.550575,8.8553015 70.663369,5.6887876 72.558431,9.4080564 74.453493,13.127325 63.008652,23.492602 62.355658,27.615443 c -0.652994,4.122842 7.02865,17.517456 4.077022,20.469084 z"
       transform="matrix(0.55696355,-0.36833214,0.36833214,0.55696355,152.07416,857.53204)"
       inkscape:transform-center-x="-0.64252805"
       inkscape:transform-center-y="1.2732566" />
    <path
       sodipodi:type="star"
       style="fill:#eec469;fill-opacity:1;fill-rule:nonzero;stroke:none"
       id="path3818-4"
       sodipodi:sides="5"
       sodipodi:cx="42.878757"
       sodipodi:cy="24.530605"
       sodipodi:r1="33.310276"
       sodipodi:r2="19.719683"
       sodipodi:arg1="0.78539816"
       sodipodi:arg2="1.4137167"
       inkscape:flatsided="false"
       inkscape:rounded="0.2"
       inkscape:randomized="0"
       d="M 66.43268,48.084527 C 63.481051,51.036156 50.086437,43.354512 45.963595,44.007506 41.840754,44.6605 31.475477,56.105341 27.756209,54.210279 24.03694,52.315217 27.203454,37.202423 25.308391,33.483154 23.413329,29.763885 9.3255923,23.442571 9.9785862,19.31973 10.63158,15.196889 25.983208,13.538312 28.934836,10.586684 31.886465,7.6350555 33.545041,-7.7165721 37.667882,-8.3695659 41.790723,-9.0225598 48.112037,5.0651774 51.831306,6.9602394 55.550575,8.8553015 70.663369,5.6887876 72.558431,9.4080564 74.453493,13.127325 63.008652,23.492602 62.355658,27.615443 c -0.652994,4.122842 7.02865,17.517456 4.077022,20.469084 z"
       transform="matrix(1.4419187,0.98693209,-0.98693209,1.4419187,177.26993,912.36639)"
       inkscape:transform-center-x="-3.072121"
       inkscape:transform-center-y="1.9479864" />
    <path
       sodipodi:type="star"
       style="fill:#eec469;fill-opacity:1;fill-rule:nonzero;stroke:none"
       id="path3818"
       sodipodi:sides="5"
       sodipodi:cx="42.878757"
       sodipodi:cy="24.530605"
       sodipodi:r1="33.310276"
       sodipodi:r2="19.719683"
       sodipodi:arg1="0.78539816"
       sodipodi:arg2="1.4137167"
       inkscape:flatsided="false"
       inkscape:rounded="0.2"
       inkscape:randomized="0"
       d="M 66.43268,48.084527 C 63.481051,51.036156 50.086437,43.354512 45.963595,44.007506 41.840754,44.6605 31.475477,56.105341 27.756209,54.210279 24.03694,52.315217 27.203454,37.202423 25.308391,33.483154 23.413329,29.763885 9.3255923,23.442571 9.9785862,19.31973 10.63158,15.196889 25.983208,13.538312 28.934836,10.586684 31.886465,7.6350555 33.545041,-7.7165721 37.667882,-8.3695659 41.790723,-9.0225598 48.112037,5.0651774 51.831306,6.9602394 55.550575,8.8553015 70.663369,5.6887876 72.558431,9.4080564 74.453493,13.127325 63.008652,23.492602 62.355658,27.615443 c -0.652994,4.122842 7.02865,17.517456 4.077022,20.469084 z"
       transform="matrix(1.7473307,0,0,1.7473307,-14.651509,814.77279)"
       inkscape:transform-center-x="2.8136389"
       inkscape:transform-center-y="-2.8136382" />
    <path
       style="fill:#ffdaa8;fill-opacity:1;fill-rule:nonzero;stroke:none"
       d="m 70.36236,894.55946 0.379458,49.32955 15.178321,46.67333 37.186881,26.18266 26.56206,-6.4508 20.49073,-19.73186 12.14266,-42.11984 4.17404,-41.74038 -15.55778,-42.4993 -39.46363,-14.79886 -39.029967,7.58917 z"
       id="path2982"
       inkscape:connector-curvature="0"
       sodipodi:nodetypes="cccccccccccc" />
    <path
       sodipodi:type="arc"
       style="fill:#ffffff;fill-opacity:1;fill-rule:nonzero;stroke:none"
       id="path3752"
       sodipodi:cx="96.490753"
       sodipodi:cy="104.75887"
       sodipodi:rx="18.9729"
       sodipodi:ry="18.9729"
       d="m 115.46365,104.75887 c 0,10.47845 -8.49445,18.9729 -18.972897,18.9729 -10.478443,0 -18.9729,-8.49445 -18.9729,-18.9729 0,-10.478441 8.494457,-18.972897 18.9729,-18.972897 10.478447,0 18.972897,8.494456 18.972897,18.972897 z"
       transform="translate(8.1312434,805.30417)" />
    <path
       sodipodi:type="arc"
       style="fill:#ffffff;fill-opacity:1;fill-rule:nonzero;stroke:none"
       id="path3754"
       sodipodi:cx="175.63486"
       sodipodi:cy="110.45074"
       sodipodi:rx="3.7945802"
       sodipodi:ry="3.7945802"
       d="m 179.42944,110.45074 c 0,2.09569 -1.69889,3.79458 -3.79458,3.79458 -2.09569,0 -3.79458,-1.69889 -3.79458,-3.79458 0,-2.09569 1.69889,-3.79458 3.79458,-3.79458 2.09569,0 3.79458,1.69889 3.79458,3.79458 z"
       transform="translate(-1.8972901,800.69646)" />
    <path
       sodipodi:type="arc"
       style="fill:#2b1900;fill-opacity:1;fill-rule:nonzero;stroke:none"
       id="path3760"
       sodipodi:cx="104.35096"
       sodipodi:cy="111.80595"
       sodipodi:rx="8.9443674"
       sodipodi:ry="8.9443674"
       d="m 113.29533,111.80595 c 0,4.93983 -4.00453,8.94436 -8.94437,8.94436 -4.939838,0 -8.944368,-4.00453 -8.944368,-8.94436 0,-4.93984 4.00453,-8.94437 8.944368,-8.94437 4.93984,0 8.94437,4.00453 8.94437,8.94437 z"
       transform="matrix(1.1877374,0,0,1.1877374,-19.319545,777.26694)" />
    <path
       sodipodi:type="arc"
       style="fill:#000000;fill-opacity:1;fill-rule:nonzero;stroke:none"
       id="path3762"
       sodipodi:cx="104.60382"
       sodipodi:cy="113.3674"
       sodipodi:rx="4.7412496"
       sodipodi:ry="4.7412496"
       d="m 109.34507,113.3674 c 0,2.61852 -2.12273,4.74125 -4.74125,4.74125 -2.61852,0 -4.741249,-2.12273 -4.741249,-4.74125 0,-2.61852 2.122729,-4.74125 4.741249,-4.74125 2.61852,0 4.74125,2.12273 4.74125,4.74125 z"
       transform="matrix(1.5,0,0,1.5,-52.283739,740.01194)" />
    <path
       sodipodi:type="arc"
       style="fill:#2b1900;fill-opacity:1;fill-rule:nonzero;stroke:none"
       id="path3760-1"
       sodipodi:cx="104.35096"
       sodipodi:cy="111.80595"
       sodipodi:rx="8.9443674"
       sodipodi:ry="8.9443674"
       d="m 113.29533,111.80595 c 0,4.93983 -4.00453,8.94436 -8.94437,8.94436 -4.939838,0 -8.944368,-4.00453 -8.944368,-8.94436 0,-4.93984 4.00453,-8.94437 8.944368,-8.94437 4.93984,0 8.94437,4.00453 8.94437,8.94437 z"
       transform="matrix(0.22538582,0,0,0.22538582,150.21834,885.94773)" />
    <path
       sodipodi:type="arc"
       style="fill:#000000;fill-opacity:1;fill-rule:nonzero;stroke:none"
       id="path3762-7"
       sodipodi:cx="104.60382"
       sodipodi:cy="113.3674"
       sodipodi:rx="4.7412496"
       sodipodi:ry="4.7412496"
       d="m 109.34507,113.3674 c 0,2.61852 -2.12273,4.74125 -4.74125,4.74125 -2.61852,0 -4.741249,-2.12273 -4.741249,-4.74125 0,-2.61852 2.122729,-4.74125 4.741249,-4.74125 2.61852,0 4.74125,2.12273 4.74125,4.74125 z"
       transform="matrix(0.28464097,0,0,0.28464097,143.96303,878.8782)" />
    <path
       style="fill:#ffcb85;fill-opacity:1;fill-rule:nonzero;stroke:none"
       d="m 140.45952,103.98368 2.39433,21.63195 3.58756,8.36435 7.65315,3.60731 -8.59746,-13.65085 0.39511,-17.38458 14.71763,-5.13636 20.09499,6.73257 -10.30826,-36.744679 -63.78561,-1.892549 -34.453087,23.062229 10.56113,4.330341 29.277217,-6.542924 23.32695,9.869702 z"
       id="path3785"
       inkscape:connector-curvature="0"
       transform="translate(0,796.3598)"
       sodipodi:nodetypes="ccccccccccccccc" />
    <path
       style="fill:#ffcb85;fill-opacity:1;fill-rule:nonzero;stroke:none"
       d="m 140.85463,148.23534 1.08653,7.80331 5.43268,1.08653 -2.56817,-12.14945 z"
       id="path3787"
       inkscape:connector-curvature="0"
       transform="translate(0,796.3598)"
       sodipodi:nodetypes="ccccc" />
    <path
       style="fill:#ffcb85;fill-opacity:1;fill-rule:nonzero;stroke:none"
       d="m 104.05068,975.53749 -1.18531,-3.47691 32.33927,7.15138 27.10414,-7.82306 -12.64334,12.07043 -16.41657,9.58127 -18.7872,-10.64805 z"
       id="path3789"
       inkscape:connector-curvature="0"
       sodipodi:nodetypes="cccccccc" />
    <path
       style="fill:#5c0020;fill-opacity:1;fill-rule:nonzero;stroke:none"
       d="m 93.835507,959.29056 10.988923,12.46702 22.60799,4.0145 6.54998,1.37339 6.65564,-2.1129 16.16366,-5.49354 12.99431,-12.2548 -22.13767,0.84331 -13.91987,1.87574 -17.12833,-1.97155 z"
       id="path3793"
       inkscape:connector-curvature="0"
       sodipodi:nodetypes="ccccccccccc" />
    <path
       style="fill:#ffecd7;fill-opacity:1;fill-rule:nonzero;stroke:none"
       d="m 101.04789,162.26154 17.2858,4.64247 19.75521,1.87675 15.01396,-1.97552 7.30942,-6.32167 -36.44835,-0.0988 z"
       id="path3032"
       inkscape:connector-curvature="0"
       transform="translate(0,796.3598)" />
    <path
       style="fill:#ffecd7;fill-opacity:1;fill-rule:nonzero;stroke:none"
       d="m 105.88791,174.60855 28.94138,1.28408 17.28581,-3.95104 4.74125,2.37063 -20.94052,7.90208 -23.5087,-2.27185 z"
       id="path3034"
       inkscape:connector-curvature="0"
       transform="translate(0,796.3598)" />
    <path
       style="fill:#ff005a;fill-opacity:1;fill-rule:nonzero;stroke:none"
       d="M 117.5625 158.5 L 91.5 160.71875 L 104.0625 180.125 L 124.8125 185.53125 L 146.25 184.6875 L 163.53125 175.15625 L 171.71875 159.46875 L 148.65625 158.65625 L 117.5625 158.5 z M 168.71875 161.46875 L 156.5625 172.9375 L 141.4375 178.0625 L 135.21875 180.03125 L 129.09375 178.75 L 107.96875 175 L 97.6875 163.34375 L 118.96875 162.15625 L 135 164 L 148 162.25 L 168.71875 161.46875 z "
       transform="translate(0,796.3598)"
       id="path3791" />
    <path
       style="fill:#392200;fill-opacity:1;fill-rule:nonzero;stroke:none"
       d="m 95.970798,182.15503 4.840022,8.71205 15.21151,9.95663 11.20121,-0.96801 4.56345,-9.40348 5.25488,-0.69143 3.87202,9.68005 8.02062,-1.93601 13.41378,-7.32918 5.94632,-14.52008 8.43548,-17.42409 -4.97832,-3.87202 -18.94524,1.24458 -9.26519,-3.04231 -11.61606,2.48916 -16.04123,-1.38286 -28.210439,2.07429 0.553145,8.85034 14.105214,27.79557 -1.87674,13.95282 -17.068499,-12.29338 -2.627443,-11.47778 -8.020614,-25.72128 -4.70174,-9.26519 1.382865,-19.63667 10.92463,-4.28688 4.840026,22.95555 16.041225,1.38286 16.17952,-1.93601 11.2012,1.65944 10.78634,0.55314 8.57376,1.52115 13.41379,-1.79772 12.99893,0.55315 5.80803,-23.64699 8.02061,-2.21258 -1.79772,30.14645 -6.36118,18.11552 -6.49946,20.74297 -3.73374,6.49946 -17.42409,17.97724 -19.77496,5.25489 -14.24351,0.41486 -10.09491,-7.74404 -18.668669,-15.90295 z"
       id="path3795"
       inkscape:connector-curvature="0"
       transform="translate(0,796.3598)"
       sodipodi:nodetypes="cccccccccccccccccccccccccccccccccccccccccccccc" />
    <path
       style="fill:#392200;fill-opacity:1;fill-rule:nonzero;stroke:none"
       d="m 48.516419,124.5449 9.215409,-5.69187 8.402285,-18.43082 -0.542083,-12.467907 7.186496,-12.779564 -5.114084,5.706511 9.311329,-14.339221 21.954357,-18.70186 29.543522,-6.233953 25.2167,2.843121 -9.89105,0.644897 13.67578,1.932811 23.85165,15.178321 9.32357,21.525595 -5.94482,-9.797417 6.1077,21.067837 1.89729,19.243939 8.94437,18.15978 -8.67333,-10.02853 -0.27104,6.77603 -4.06562,-4.33666 2.43937,7.8602 3.2525,5.42083 -9.21541,-7.58916 -3.52354,-5.96291 -4.33666,-18.9729 -10.57062,-13.823116 5.42083,12.738946 -10.02854,-10.299573 -14.36519,-8.673327 8.13124,9.486451 -14.90728,-8.944368 -9.48645,-5.69187 18.15978,28.188307 -15.44936,-14.094152 -13.28104,-9.215409 4.87875,10.299575 -18.15978,-12.738948 -10.841654,16.80457 -4.607704,15.720404 0.271041,-16.80457 5.691871,-11.654782 -11.383741,5.962911 3.252497,-6.776036 -10.570616,11.925824 -4.336663,13.552073 7.860202,18.43082 -5.149788,2.16833 -17.346652,4.06562 10.028533,-14.09416 -10.570617,5.14979 5.420829,-9.21541 -6.504994,5.14979 z"
       id="path3799"
       inkscape:connector-curvature="0"
       transform="translate(0,796.3598)"
       sodipodi:nodetypes="cccccccccccccccccccccccccccccccccccccccccccccccccccccc" />
    <path
       style="fill:#130b00;fill-opacity:1;fill-rule:nonzero;stroke:none"
       d="m 138.42474,137.6268 -3.59545,0.82972 0.41486,2.21258 2.90402,0.69143 3.87202,-1.10629 0.968,-2.0743 z"
       id="path3801"
       inkscape:connector-curvature="0"
       transform="translate(0,796.3598)" />
    <path
       style="fill:#130b00;fill-opacity:1;fill-rule:nonzero;stroke:none"
       d="m 149.34937,138.87138 -1.10629,1.38286 2.35087,0.69143 1.52115,-1.52115 -1.79773,-2.21258 z"
       id="path3803"
       inkscape:connector-curvature="0"
       transform="translate(0,796.3598)" />
    <path
       style="fill:#1a1816;fill-opacity:1;fill-rule:nonzero;stroke:none"
       d="M 123.53125 93.1875 L 82.46875 95.90625 L 81.71875 104.09375 L 76.0625 101.71875 L 76.15625 103.59375 L 74.875 105.15625 L 74.875 107.4375 L 81.28125 108.875 L 80.9375 112.75 L 85.75 133.0625 L 105.5 138.28125 L 122.5625 131.5 L 127.96875 124.75 L 128.5625 109.25 L 151.59375 113.71875 L 152.375 118.53125 L 158.75 132.09375 L 170.1875 137.53125 L 184.125 133.65625 L 190.5 119.5 L 189.9375 105.1875 L 159.53125 102.46875 L 153.71875 109.25 L 126.8125 103.625 L 123.53125 93.1875 z "
       transform="translate(0,796.3598)"
       id="path3805" />
    <path
       style="fill:#59cfaa;fill-opacity:1;fill-rule:nonzero;stroke:none"
       d="m 86.312873,902.1586 2.344206,-4.01949 29.595841,-2.16543 3.34512,2.06951 0.0996,17.44068 -2.16833,7.58916 -12.19686,4.60771 -15.449369,-1.89729 -4.900873,-12.29643 z"
       id="path3807"
       inkscape:connector-curvature="0"
       sodipodi:nodetypes="cccccccccc" />
    <path
       style="fill:#59cfaa;fill-opacity:1;fill-rule:nonzero;stroke:none"
       d="m 159.21196,108.84662 3.52353,-2.71042 21.84373,1.87517 2.16834,3.52354 -0.54209,11.38374 -4.87874,7.31812 -8.94437,1.89729 -9.75749,-5.42083 -4.33667,-10.57062 z"
       id="path3809"
       inkscape:connector-curvature="0"
       transform="translate(0,796.3598)"
       sodipodi:nodetypes="cccccccccc" />
    <path
       style="fill:#4f2e00;fill-opacity:1;fill-rule:nonzero;stroke:none"
       d="m 124.55516,845.73329 20.32811,2.51681 18.5857,8.51845 12.39047,18.3921 -14.32648,-14.52008 3.09762,7.16324 -14.90728,-11.42246 -12.77767,-3.48482 11.42246,9.68005 6.96964,12.58407 -12.19687,-11.80967 -17.61769,-8.71204 3.29122,8.32484 -8.71205,-7.55044 -7.55044,0.96801 -6.58244,6.19523 -2.71041,13.74567 -0.5808,-12.19686 3.48481,-7.74404 -14.907277,7.74404 -16.649689,19.5537 15.294482,-24.20013 14.132874,-9.29285 z"
       id="path3814"
       inkscape:connector-curvature="0" />
    <path
       sodipodi:type="star"
       style="fill:#eec469;fill-opacity:1;fill-rule:nonzero;stroke:none"
       id="path3818-0"
       sodipodi:sides="5"
       sodipodi:cx="42.878757"
       sodipodi:cy="24.530605"
       sodipodi:r1="33.310276"
       sodipodi:r2="19.719683"
       sodipodi:arg1="0.78539816"
       sodipodi:arg2="1.4137167"
       inkscape:flatsided="false"
       inkscape:rounded="0.2"
       inkscape:randomized="0"
       d="M 66.43268,48.084527 C 63.481051,51.036156 50.086437,43.354512 45.963595,44.007506 41.840754,44.6605 31.475477,56.105341 27.756209,54.210279 24.03694,52.315217 27.203454,37.202423 25.308391,33.483154 23.413329,29.763885 9.3255923,23.442571 9.9785862,19.31973 10.63158,15.196889 25.983208,13.538312 28.934836,10.586684 31.886465,7.6350555 33.545041,-7.7165721 37.667882,-8.3695659 41.790723,-9.0225598 48.112037,5.0651774 51.831306,6.9602394 55.550575,8.8553015 70.663369,5.6887876 72.558431,9.4080564 74.453493,13.127325 63.008652,23.492602 62.355658,27.615443 c -0.652994,4.122842 7.02865,17.517456 4.077022,20.469084 z"
       transform="matrix(0.94410211,0.36385298,-0.36385298,0.94410211,11.045355,944.95042)"
       inkscape:transform-center-x="-1.9936546"
       inkscape:transform-center-y="-1.1362226" />
    <path
       sodipodi:type="star"
       style="fill:#eec469;fill-opacity:1;fill-rule:nonzero;stroke:none"
       id="path3818-0-9-7"
       sodipodi:sides="5"
       sodipodi:cx="42.878757"
       sodipodi:cy="24.530605"
       sodipodi:r1="33.310276"
       sodipodi:r2="19.719683"
       sodipodi:arg1="0.78539816"
       sodipodi:arg2="1.4137167"
       inkscape:flatsided="false"
       inkscape:rounded="0.2"
       inkscape:randomized="0"
       d="M 66.43268,48.084527 C 63.481051,51.036156 50.086437,43.354512 45.963595,44.007506 41.840754,44.6605 31.475477,56.105341 27.756209,54.210279 24.03694,52.315217 27.203454,37.202423 25.308391,33.483154 23.413329,29.763885 9.3255923,23.442571 9.9785862,19.31973 10.63158,15.196889 25.983208,13.538312 28.934836,10.586684 31.886465,7.6350555 33.545041,-7.7165721 37.667882,-8.3695659 41.790723,-9.0225598 48.112037,5.0651774 51.831306,6.9602394 55.550575,8.8553015 70.663369,5.6887876 72.558431,9.4080564 74.453493,13.127325 63.008652,23.492602 62.355658,27.615443 c -0.652994,4.122842 7.02865,17.517456 4.077022,20.469084 z"
       transform="matrix(0.26449295,-0.8202096,0.8202096,0.26449295,120.25956,823.23109)"
       inkscape:transform-center-x="1.4270639"
       inkscape:transform-center-y="-1.23514" />
    <path
       sodipodi:type="star"
       style="fill:#eec469;fill-opacity:1;fill-rule:nonzero;stroke:none"
       id="path3818-0-9-7-4"
       sodipodi:sides="5"
       sodipodi:cx="42.878757"
       sodipodi:cy="24.530605"
       sodipodi:r1="33.310276"
       sodipodi:r2="19.719683"
       sodipodi:arg1="0.78539816"
       sodipodi:arg2="1.4137167"
       inkscape:flatsided="false"
       inkscape:rounded="0.2"
       inkscape:randomized="0"
       d="M 66.43268,48.084527 C 63.481051,51.036156 50.086437,43.354512 45.963595,44.007506 41.840754,44.6605 31.475477,56.105341 27.756209,54.210279 24.03694,52.315217 27.203454,37.202423 25.308391,33.483154 23.413329,29.763885 9.3255923,23.442571 9.9785862,19.31973 10.63158,15.196889 25.983208,13.538312 28.934836,10.586684 31.886465,7.6350555 33.545041,-7.7165721 37.667882,-8.3695659 41.790723,-9.0225598 48.112037,5.0651774 51.831306,6.9602394 55.550575,8.8553015 70.663369,5.6887876 72.558431,9.4080564 74.453493,13.127325 63.008652,23.492602 62.355658,27.615443 c -0.652994,4.122842 7.02865,17.517456 4.077022,20.469084 z"
       transform="matrix(0.84496077,-0.16953348,0.16953348,0.84496077,216.46833,883.88801)"
       inkscape:transform-center-x="2.3430464"
       inkscape:transform-center-y="0.27803464" />
    <path
       sodipodi:type="star"
       style="fill:#eec469;fill-opacity:1;fill-rule:nonzero;stroke:none"
       id="path3818-0-9-7-4-0"
       sodipodi:sides="5"
       sodipodi:cx="42.878757"
       sodipodi:cy="24.530605"
       sodipodi:r1="33.310276"
       sodipodi:r2="19.719683"
       sodipodi:arg1="0.78539816"
       sodipodi:arg2="1.4137167"
       inkscape:flatsided="false"
       inkscape:rounded="0.2"
       inkscape:randomized="0"
       d="M 66.43268,48.084527 C 63.481051,51.036156 50.086437,43.354512 45.963595,44.007506 41.840754,44.6605 31.475477,56.105341 27.756209,54.210279 24.03694,52.315217 27.203454,37.202423 25.308391,33.483154 23.413329,29.763885 9.3255923,23.442571 9.9785862,19.31973 10.63158,15.196889 25.983208,13.538312 28.934836,10.586684 31.886465,7.6350555 33.545041,-7.7165721 37.667882,-8.3695659 41.790723,-9.0225598 48.112037,5.0651774 51.831306,6.9602394 55.550575,8.8553015 70.663369,5.6887876 72.558431,9.4080564 74.453493,13.127325 63.008652,23.492602 62.355658,27.615443 c -0.652994,4.122842 7.02865,17.517456 4.077022,20.469084 z"
       transform="matrix(0.84496077,-0.16953348,0.16953348,0.84496077,53.762013,1034.841)"
       inkscape:transform-center-x="2.3430464"
       inkscape:transform-center-y="0.27803464" />
    <path
       sodipodi:type="star"
       style="fill:#eec469;fill-opacity:1;fill-rule:nonzero;stroke:none"
       id="path3818-0-9-9"
       sodipodi:sides="5"
       sodipodi:cx="42.878757"
       sodipodi:cy="24.530605"
       sodipodi:r1="33.310276"
       sodipodi:r2="19.719683"
       sodipodi:arg1="0.78539816"
       sodipodi:arg2="1.4137167"
       inkscape:flatsided="false"
       inkscape:rounded="0.2"
       inkscape:randomized="0"
       d="M 66.43268,48.084527 C 63.481051,51.036156 50.086437,43.354512 45.963595,44.007506 41.840754,44.6605 31.475477,56.105341 27.756209,54.210279 24.03694,52.315217 27.203454,37.202423 25.308391,33.483154 23.413329,29.763885 9.3255923,23.442571 9.9785862,19.31973 10.63158,15.196889 25.983208,13.538312 28.934836,10.586684 31.886465,7.6350555 33.545041,-7.7165721 37.667882,-8.3695659 41.790723,-9.0225598 48.112037,5.0651774 51.831306,6.9602394 55.550575,8.8553015 70.663369,5.6887876 72.558431,9.4080564 74.453493,13.127325 63.008652,23.492602 62.355658,27.615443 c -0.652994,4.122842 7.02865,17.517456 4.077022,20.469084 z"
       transform="matrix(0.36086224,-0.56183218,0.56183218,0.36086224,-34.235298,939.37743)"
       inkscape:transform-center-x="-0.55692426"
       inkscape:transform-center-y="-1.3561338" />
    <path
       sodipodi:type="star"
       style="fill:#eec469;fill-opacity:1;fill-rule:nonzero;stroke:none"
       id="path3818-0-9-4"
       sodipodi:sides="5"
       sodipodi:cx="42.878757"
       sodipodi:cy="24.530605"
       sodipodi:r1="33.310276"
       sodipodi:r2="19.719683"
       sodipodi:arg1="0.78539816"
       sodipodi:arg2="1.4137167"
       inkscape:flatsided="false"
       inkscape:rounded="0.2"
       inkscape:randomized="0"
       d="M 66.43268,48.084527 C 63.481051,51.036156 50.086437,43.354512 45.963595,44.007506 41.840754,44.6605 31.475477,56.105341 27.756209,54.210279 24.03694,52.315217 27.203454,37.202423 25.308391,33.483154 23.413329,29.763885 9.3255923,23.442571 9.9785862,19.31973 10.63158,15.196889 25.983208,13.538312 28.934836,10.586684 31.886465,7.6350555 33.545041,-7.7165721 37.667882,-8.3695659 41.790723,-9.0225598 48.112037,5.0651774 51.831306,6.9602394 55.550575,8.8553015 70.663369,5.6887876 72.558431,9.4080564 74.453493,13.127325 63.008652,23.492602 62.355658,27.615443 c -0.652994,4.122842 7.02865,17.517456 4.077022,20.469084 z"
       transform="matrix(0.62383647,-0.23812817,0.23812817,0.62383647,146.7758,1056.5824)"
       inkscape:transform-center-x="0.77037687"
       inkscape:transform-center-y="1.295282" />
    <path
       sodipodi:type="star"
       style="fill:#d2aa69;fill-opacity:1;fill-rule:nonzero;stroke:none"
       id="path3818-0-1-7"
       sodipodi:sides="5"
       sodipodi:cx="42.878757"
       sodipodi:cy="24.530605"
       sodipodi:r1="33.310276"
       sodipodi:r2="19.719683"
       sodipodi:arg1="0.78539816"
       sodipodi:arg2="1.4137167"
       inkscape:flatsided="false"
       inkscape:rounded="0.2"
       inkscape:randomized="0"
       d="M 66.43268,48.084527 C 63.481051,51.036156 50.086437,43.354512 45.963595,44.007506 41.840754,44.6605 31.475477,56.105341 27.756209,54.210279 24.03694,52.315217 27.203454,37.202423 25.308391,33.483154 23.413329,29.763885 9.3255923,23.442571 9.9785862,19.31973 10.63158,15.196889 25.983208,13.538312 28.934836,10.586684 31.886465,7.6350555 33.545041,-7.7165721 37.667882,-8.3695659 41.790723,-9.0225598 48.112037,5.0651774 51.831306,6.9602394 55.550575,8.8553015 70.663369,5.6887876 72.558431,9.4080564 74.453493,13.127325 63.008652,23.492602 62.355658,27.615443 c -0.652994,4.122842 7.02865,17.517456 4.077022,20.469084 z"
       transform="matrix(0.94410211,0.36385298,-0.36385298,0.94410211,205.98476,787.77111)"
       inkscape:transform-center-x="-1.9936546"
       inkscape:transform-center-y="-1.1362226" />
    <path
       sodipodi:type="star"
       style="fill:#eec469;fill-opacity:1;fill-rule:nonzero;stroke:none"
       id="path3818-0-1"
       sodipodi:sides="5"
       sodipodi:cx="42.878757"
       sodipodi:cy="24.530605"
       sodipodi:r1="33.310276"
       sodipodi:r2="19.719683"
       sodipodi:arg1="0.78539816"
       sodipodi:arg2="1.4137167"
       inkscape:flatsided="false"
       inkscape:rounded="0.2"
       inkscape:randomized="0"
       d="M 66.43268,48.084527 C 63.481051,51.036156 50.086437,43.354512 45.963595,44.007506 41.840754,44.6605 31.475477,56.105341 27.756209,54.210279 24.03694,52.315217 27.203454,37.202423 25.308391,33.483154 23.413329,29.763885 9.3255923,23.442571 9.9785862,19.31973 10.63158,15.196889 25.983208,13.538312 28.934836,10.586684 31.886465,7.6350555 33.545041,-7.7165721 37.667882,-8.3695659 41.790723,-9.0225598 48.112037,5.0651774 51.831306,6.9602394 55.550575,8.8553015 70.663369,5.6887876 72.558431,9.4080564 74.453493,13.127325 63.008652,23.492602 62.355658,27.615443 c -0.652994,4.122842 7.02865,17.517456 4.077022,20.469084 z"
       transform="matrix(0.94410211,0.36385298,-0.36385298,0.94410211,213.42214,775.55256)"
       inkscape:transform-center-x="-1.9936546"
       inkscape:transform-center-y="-1.1362226" />
  </g>
</svg>
